M48
; DRILL file {KiCad (5.1.10)-1} date 09/16/21 11:14:39
; FORMAT={-:-/ absolute / metric / decimal}
; #@! TF.CreationDate,2021-09-16T11:14:39+02:00
; #@! TF.GenerationSoftware,Kicad,Pcbnew,(5.1.10)-1
FMAT,2
METRIC
T1C0.400
T2C1.067
T3C1.100
T4C1.210
T5C2.500
T6C0.650
T7C1.150
%
G90
G05
T1
X90.5Y-70.75
X90.75Y-73.25
X91.75Y-80.75
X94.5Y-79.0
X96.25Y-81.25
X96.5Y-69.5
X96.513Y-77.987
X98.75Y-71.75
X99.75Y-65.5
X100.75Y-56.5
X101.5Y-76.25
X104.5Y-72.0
X104.75Y-57.25
X104.75Y-60.25
X104.75Y-61.5
X105.0Y-68.75
X105.5Y-76.5
X105.75Y-56.0
X106.5Y-69.0
X107.5Y-81.875
X108.5Y-56.0
X108.5Y-58.75
X108.75Y-60.5
X109.0Y-65.5
X111.25Y-57.0
X112.0Y-56.0
X113.0Y-75.0
X113.25Y-64.75
X113.25Y-80.0
X113.5Y-70.5
X115.25Y-71.75
X115.5Y-70.5
X116.0Y-54.75
X116.767Y-57.46
X117.25Y-56.0
X118.15Y-67.32
X118.15Y-68.92
X118.15Y-69.72
X118.15Y-70.52
X118.15Y-71.32
X118.15Y-72.92
X118.75Y-63.0
X118.85Y-67.72
X118.85Y-68.52
X118.85Y-69.32
X118.85Y-70.92
X118.85Y-71.72
X118.85Y-72.52
X120.52Y-62.73
T2
X116.71Y-59.984
X116.71Y-62.016
X121.79Y-61.0
T3
X88.75Y-62.25
X88.75Y-65.75
X88.75Y-69.25
X88.75Y-72.75
T4
X118.75Y-65.99
X118.75Y-74.25
X123.14Y-65.63
X123.14Y-74.61
T5
X88.0Y-55.5
X88.0Y-79.5
X122.0Y-55.5
X122.0Y-79.5
T6
X117.5Y-73.72
T7
X117.5Y-66.52
T0
M30
