%TF.GenerationSoftware,KiCad,Pcbnew,(5.1.12-1-g0a0a2da680)-1*%
%TF.CreationDate,2023-03-21T19:15:17+01:00*%
%TF.ProjectId,ThermoDeviceLogger,54686572-6d6f-4446-9576-6963654c6f67,rev?*%
%TF.SameCoordinates,Original*%
%TF.FileFunction,Legend,Bot*%
%TF.FilePolarity,Positive*%
%FSLAX46Y46*%
G04 Gerber Fmt 4.6, Leading zero omitted, Abs format (unit mm)*
G04 Created by KiCad (PCBNEW (5.1.12-1-g0a0a2da680)-1) date 2023-03-21 19:15:17*
%MOMM*%
%LPD*%
G01*
G04 APERTURE LIST*
%ADD10C,0.150000*%
%ADD11C,0.120000*%
%ADD12C,0.200000*%
%ADD13C,0.010000*%
G04 APERTURE END LIST*
D10*
X98047619Y-71357142D02*
X98095238Y-71404761D01*
X98238095Y-71452380D01*
X98333333Y-71452380D01*
X98476190Y-71404761D01*
X98571428Y-71309523D01*
X98619047Y-71214285D01*
X98666666Y-71023809D01*
X98666666Y-70880952D01*
X98619047Y-70690476D01*
X98571428Y-70595238D01*
X98476190Y-70500000D01*
X98333333Y-70452380D01*
X98238095Y-70452380D01*
X98095238Y-70500000D01*
X98047619Y-70547619D01*
X97619047Y-71452380D02*
X97619047Y-70452380D01*
X97190476Y-71452380D02*
X97190476Y-70928571D01*
X97238095Y-70833333D01*
X97333333Y-70785714D01*
X97476190Y-70785714D01*
X97571428Y-70833333D01*
X97619047Y-70880952D01*
X96285714Y-71452380D02*
X96285714Y-70928571D01*
X96333333Y-70833333D01*
X96428571Y-70785714D01*
X96619047Y-70785714D01*
X96714285Y-70833333D01*
X96285714Y-71404761D02*
X96380952Y-71452380D01*
X96619047Y-71452380D01*
X96714285Y-71404761D01*
X96761904Y-71309523D01*
X96761904Y-71214285D01*
X96714285Y-71119047D01*
X96619047Y-71071428D01*
X96380952Y-71071428D01*
X96285714Y-71023809D01*
X95809523Y-70785714D02*
X95809523Y-71452380D01*
X95809523Y-70880952D02*
X95761904Y-70833333D01*
X95666666Y-70785714D01*
X95523809Y-70785714D01*
X95428571Y-70833333D01*
X95380952Y-70928571D01*
X95380952Y-71452380D01*
X94904761Y-70785714D02*
X94904761Y-71452380D01*
X94904761Y-70880952D02*
X94857142Y-70833333D01*
X94761904Y-70785714D01*
X94619047Y-70785714D01*
X94523809Y-70833333D01*
X94476190Y-70928571D01*
X94476190Y-71452380D01*
X93619047Y-71404761D02*
X93714285Y-71452380D01*
X93904761Y-71452380D01*
X94000000Y-71404761D01*
X94047619Y-71309523D01*
X94047619Y-70928571D01*
X94000000Y-70833333D01*
X93904761Y-70785714D01*
X93714285Y-70785714D01*
X93619047Y-70833333D01*
X93571428Y-70928571D01*
X93571428Y-71023809D01*
X94047619Y-71119047D01*
X93000000Y-71452380D02*
X93095238Y-71404761D01*
X93142857Y-71309523D01*
X93142857Y-70452380D01*
X91904761Y-70547619D02*
X91857142Y-70500000D01*
X91761904Y-70452380D01*
X91523809Y-70452380D01*
X91428571Y-70500000D01*
X91380952Y-70547619D01*
X91333333Y-70642857D01*
X91333333Y-70738095D01*
X91380952Y-70880952D01*
X91952380Y-71452380D01*
X91333333Y-71452380D01*
X98047619Y-64357142D02*
X98095238Y-64404761D01*
X98238095Y-64452380D01*
X98333333Y-64452380D01*
X98476190Y-64404761D01*
X98571428Y-64309523D01*
X98619047Y-64214285D01*
X98666666Y-64023809D01*
X98666666Y-63880952D01*
X98619047Y-63690476D01*
X98571428Y-63595238D01*
X98476190Y-63500000D01*
X98333333Y-63452380D01*
X98238095Y-63452380D01*
X98095238Y-63500000D01*
X98047619Y-63547619D01*
X97619047Y-64452380D02*
X97619047Y-63452380D01*
X97190476Y-64452380D02*
X97190476Y-63928571D01*
X97238095Y-63833333D01*
X97333333Y-63785714D01*
X97476190Y-63785714D01*
X97571428Y-63833333D01*
X97619047Y-63880952D01*
X96285714Y-64452380D02*
X96285714Y-63928571D01*
X96333333Y-63833333D01*
X96428571Y-63785714D01*
X96619047Y-63785714D01*
X96714285Y-63833333D01*
X96285714Y-64404761D02*
X96380952Y-64452380D01*
X96619047Y-64452380D01*
X96714285Y-64404761D01*
X96761904Y-64309523D01*
X96761904Y-64214285D01*
X96714285Y-64119047D01*
X96619047Y-64071428D01*
X96380952Y-64071428D01*
X96285714Y-64023809D01*
X95809523Y-63785714D02*
X95809523Y-64452380D01*
X95809523Y-63880952D02*
X95761904Y-63833333D01*
X95666666Y-63785714D01*
X95523809Y-63785714D01*
X95428571Y-63833333D01*
X95380952Y-63928571D01*
X95380952Y-64452380D01*
X94904761Y-63785714D02*
X94904761Y-64452380D01*
X94904761Y-63880952D02*
X94857142Y-63833333D01*
X94761904Y-63785714D01*
X94619047Y-63785714D01*
X94523809Y-63833333D01*
X94476190Y-63928571D01*
X94476190Y-64452380D01*
X93619047Y-64404761D02*
X93714285Y-64452380D01*
X93904761Y-64452380D01*
X94000000Y-64404761D01*
X94047619Y-64309523D01*
X94047619Y-63928571D01*
X94000000Y-63833333D01*
X93904761Y-63785714D01*
X93714285Y-63785714D01*
X93619047Y-63833333D01*
X93571428Y-63928571D01*
X93571428Y-64023809D01*
X94047619Y-64119047D01*
X93000000Y-64452380D02*
X93095238Y-64404761D01*
X93142857Y-64309523D01*
X93142857Y-63452380D01*
X91333333Y-64452380D02*
X91904761Y-64452380D01*
X91619047Y-64452380D02*
X91619047Y-63452380D01*
X91714285Y-63595238D01*
X91809523Y-63690476D01*
X91904761Y-63738095D01*
D11*
X91000000Y-73750000D02*
X90000000Y-73750000D01*
X91000000Y-68250000D02*
X91000000Y-73750000D01*
X90000000Y-68250000D02*
X91000000Y-68250000D01*
X91000000Y-66750000D02*
X90000000Y-66750000D01*
X91000000Y-61250000D02*
X91000000Y-66750000D01*
X90000000Y-61250000D02*
X91000000Y-61250000D01*
D10*
X90710952Y-72751428D02*
X89949047Y-72751428D01*
X90710952Y-69254760D02*
X89949047Y-69254760D01*
X90330000Y-69635712D02*
X90330000Y-68873808D01*
X90710952Y-62261428D02*
X89949047Y-62261428D01*
X90330000Y-62642380D02*
X90330000Y-61880476D01*
X90710952Y-65758094D02*
X89949047Y-65758094D01*
D12*
X118607142Y-80267619D02*
X118607142Y-79167619D01*
X118135714Y-80267619D02*
X118135714Y-79691428D01*
X118188095Y-79586666D01*
X118292857Y-79534285D01*
X118450000Y-79534285D01*
X118554761Y-79586666D01*
X118607142Y-79639047D01*
X117769047Y-79534285D02*
X117350000Y-79534285D01*
X117611904Y-79167619D02*
X117611904Y-80110476D01*
X117559523Y-80215238D01*
X117454761Y-80267619D01*
X117350000Y-80267619D01*
X117140476Y-79534285D02*
X116721428Y-79534285D01*
X116983333Y-79167619D02*
X116983333Y-80110476D01*
X116930952Y-80215238D01*
X116826190Y-80267619D01*
X116721428Y-80267619D01*
X116354761Y-79534285D02*
X116354761Y-80634285D01*
X116354761Y-79586666D02*
X116250000Y-79534285D01*
X116040476Y-79534285D01*
X115935714Y-79586666D01*
X115883333Y-79639047D01*
X115830952Y-79743809D01*
X115830952Y-80058095D01*
X115883333Y-80162857D01*
X115935714Y-80215238D01*
X116040476Y-80267619D01*
X116250000Y-80267619D01*
X116354761Y-80215238D01*
X115411904Y-80215238D02*
X115307142Y-80267619D01*
X115097619Y-80267619D01*
X114992857Y-80215238D01*
X114940476Y-80110476D01*
X114940476Y-80058095D01*
X114992857Y-79953333D01*
X115097619Y-79900952D01*
X115254761Y-79900952D01*
X115359523Y-79848571D01*
X115411904Y-79743809D01*
X115411904Y-79691428D01*
X115359523Y-79586666D01*
X115254761Y-79534285D01*
X115097619Y-79534285D01*
X114992857Y-79586666D01*
X114469047Y-80162857D02*
X114416666Y-80215238D01*
X114469047Y-80267619D01*
X114521428Y-80215238D01*
X114469047Y-80162857D01*
X114469047Y-80267619D01*
X114469047Y-79586666D02*
X114416666Y-79639047D01*
X114469047Y-79691428D01*
X114521428Y-79639047D01*
X114469047Y-79586666D01*
X114469047Y-79691428D01*
X113159523Y-79115238D02*
X114102380Y-80529523D01*
X112007142Y-79115238D02*
X112950000Y-80529523D01*
X111640476Y-80267619D02*
X111640476Y-79534285D01*
X111640476Y-79639047D02*
X111588095Y-79586666D01*
X111483333Y-79534285D01*
X111326190Y-79534285D01*
X111221428Y-79586666D01*
X111169047Y-79691428D01*
X111169047Y-80267619D01*
X111169047Y-79691428D02*
X111116666Y-79586666D01*
X111011904Y-79534285D01*
X110854761Y-79534285D01*
X110750000Y-79586666D01*
X110697619Y-79691428D01*
X110697619Y-80267619D01*
X109702380Y-80267619D02*
X109702380Y-79691428D01*
X109754761Y-79586666D01*
X109859523Y-79534285D01*
X110069047Y-79534285D01*
X110173809Y-79586666D01*
X109702380Y-80215238D02*
X109807142Y-80267619D01*
X110069047Y-80267619D01*
X110173809Y-80215238D01*
X110226190Y-80110476D01*
X110226190Y-80005714D01*
X110173809Y-79900952D01*
X110069047Y-79848571D01*
X109807142Y-79848571D01*
X109702380Y-79796190D01*
X109178571Y-80267619D02*
X109178571Y-79167619D01*
X109073809Y-79848571D02*
X108759523Y-80267619D01*
X108759523Y-79534285D02*
X109178571Y-79953333D01*
X108288095Y-80267619D02*
X108288095Y-79534285D01*
X108288095Y-79167619D02*
X108340476Y-79220000D01*
X108288095Y-79272380D01*
X108235714Y-79220000D01*
X108288095Y-79167619D01*
X108288095Y-79272380D01*
X107764285Y-79534285D02*
X107764285Y-80267619D01*
X107764285Y-79639047D02*
X107711904Y-79586666D01*
X107607142Y-79534285D01*
X107450000Y-79534285D01*
X107345238Y-79586666D01*
X107292857Y-79691428D01*
X107292857Y-80267619D01*
X106297619Y-79534285D02*
X106297619Y-80424761D01*
X106350000Y-80529523D01*
X106402380Y-80581904D01*
X106507142Y-80634285D01*
X106664285Y-80634285D01*
X106769047Y-80581904D01*
X106297619Y-80215238D02*
X106402380Y-80267619D01*
X106611904Y-80267619D01*
X106716666Y-80215238D01*
X106769047Y-80162857D01*
X106821428Y-80058095D01*
X106821428Y-79743809D01*
X106769047Y-79639047D01*
X106716666Y-79586666D01*
X106611904Y-79534285D01*
X106402380Y-79534285D01*
X106297619Y-79586666D01*
X105302380Y-80267619D02*
X105302380Y-79167619D01*
X105302380Y-80215238D02*
X105407142Y-80267619D01*
X105616666Y-80267619D01*
X105721428Y-80215238D01*
X105773809Y-80162857D01*
X105826190Y-80058095D01*
X105826190Y-79743809D01*
X105773809Y-79639047D01*
X105721428Y-79586666D01*
X105616666Y-79534285D01*
X105407142Y-79534285D01*
X105302380Y-79586666D01*
X104359523Y-80215238D02*
X104464285Y-80267619D01*
X104673809Y-80267619D01*
X104778571Y-80215238D01*
X104830952Y-80110476D01*
X104830952Y-79691428D01*
X104778571Y-79586666D01*
X104673809Y-79534285D01*
X104464285Y-79534285D01*
X104359523Y-79586666D01*
X104307142Y-79691428D01*
X104307142Y-79796190D01*
X104830952Y-79900952D01*
X103940476Y-79534285D02*
X103678571Y-80267619D01*
X103416666Y-79534285D01*
X102997619Y-80267619D02*
X102997619Y-79534285D01*
X102997619Y-79167619D02*
X103050000Y-79220000D01*
X102997619Y-79272380D01*
X102945238Y-79220000D01*
X102997619Y-79167619D01*
X102997619Y-79272380D01*
X102002380Y-80215238D02*
X102107142Y-80267619D01*
X102316666Y-80267619D01*
X102421428Y-80215238D01*
X102473809Y-80162857D01*
X102526190Y-80058095D01*
X102526190Y-79743809D01*
X102473809Y-79639047D01*
X102421428Y-79586666D01*
X102316666Y-79534285D01*
X102107142Y-79534285D01*
X102002380Y-79586666D01*
X101111904Y-80215238D02*
X101216666Y-80267619D01*
X101426190Y-80267619D01*
X101530952Y-80215238D01*
X101583333Y-80110476D01*
X101583333Y-79691428D01*
X101530952Y-79586666D01*
X101426190Y-79534285D01*
X101216666Y-79534285D01*
X101111904Y-79586666D01*
X101059523Y-79691428D01*
X101059523Y-79796190D01*
X101583333Y-79900952D01*
X100640476Y-80215238D02*
X100535714Y-80267619D01*
X100326190Y-80267619D01*
X100221428Y-80215238D01*
X100169047Y-80110476D01*
X100169047Y-80058095D01*
X100221428Y-79953333D01*
X100326190Y-79900952D01*
X100483333Y-79900952D01*
X100588095Y-79848571D01*
X100640476Y-79743809D01*
X100640476Y-79691428D01*
X100588095Y-79586666D01*
X100483333Y-79534285D01*
X100326190Y-79534285D01*
X100221428Y-79586666D01*
X99697619Y-80162857D02*
X99645238Y-80215238D01*
X99697619Y-80267619D01*
X99750000Y-80215238D01*
X99697619Y-80162857D01*
X99697619Y-80267619D01*
X98702380Y-80215238D02*
X98807142Y-80267619D01*
X99016666Y-80267619D01*
X99121428Y-80215238D01*
X99173809Y-80162857D01*
X99226190Y-80058095D01*
X99226190Y-79743809D01*
X99173809Y-79639047D01*
X99121428Y-79586666D01*
X99016666Y-79534285D01*
X98807142Y-79534285D01*
X98702380Y-79586666D01*
X98073809Y-80267619D02*
X98178571Y-80215238D01*
X98230952Y-80162857D01*
X98283333Y-80058095D01*
X98283333Y-79743809D01*
X98230952Y-79639047D01*
X98178571Y-79586666D01*
X98073809Y-79534285D01*
X97916666Y-79534285D01*
X97811904Y-79586666D01*
X97759523Y-79639047D01*
X97707142Y-79743809D01*
X97707142Y-80058095D01*
X97759523Y-80162857D01*
X97811904Y-80215238D01*
X97916666Y-80267619D01*
X98073809Y-80267619D01*
X97235714Y-80267619D02*
X97235714Y-79534285D01*
X97235714Y-79639047D02*
X97183333Y-79586666D01*
X97078571Y-79534285D01*
X96921428Y-79534285D01*
X96816666Y-79586666D01*
X96764285Y-79691428D01*
X96764285Y-80267619D01*
X96764285Y-79691428D02*
X96711904Y-79586666D01*
X96607142Y-79534285D01*
X96450000Y-79534285D01*
X96345238Y-79586666D01*
X96292857Y-79691428D01*
X96292857Y-80267619D01*
X118659523Y-80897619D02*
X118030952Y-80897619D01*
X118345238Y-81997619D02*
X118345238Y-80897619D01*
X117035714Y-81892857D02*
X117088095Y-81945238D01*
X117245238Y-81997619D01*
X117350000Y-81997619D01*
X117507142Y-81945238D01*
X117611904Y-81840476D01*
X117664285Y-81735714D01*
X117716666Y-81526190D01*
X117716666Y-81369047D01*
X117664285Y-81159523D01*
X117611904Y-81054761D01*
X117507142Y-80950000D01*
X117350000Y-80897619D01*
X117245238Y-80897619D01*
X117088095Y-80950000D01*
X117035714Y-81002380D01*
X115202380Y-81997619D02*
X115726190Y-81997619D01*
X115726190Y-80897619D01*
X114678571Y-81997619D02*
X114783333Y-81945238D01*
X114835714Y-81892857D01*
X114888095Y-81788095D01*
X114888095Y-81473809D01*
X114835714Y-81369047D01*
X114783333Y-81316666D01*
X114678571Y-81264285D01*
X114521428Y-81264285D01*
X114416666Y-81316666D01*
X114364285Y-81369047D01*
X114311904Y-81473809D01*
X114311904Y-81788095D01*
X114364285Y-81892857D01*
X114416666Y-81945238D01*
X114521428Y-81997619D01*
X114678571Y-81997619D01*
X113369047Y-81264285D02*
X113369047Y-82154761D01*
X113421428Y-82259523D01*
X113473809Y-82311904D01*
X113578571Y-82364285D01*
X113735714Y-82364285D01*
X113840476Y-82311904D01*
X113369047Y-81945238D02*
X113473809Y-81997619D01*
X113683333Y-81997619D01*
X113788095Y-81945238D01*
X113840476Y-81892857D01*
X113892857Y-81788095D01*
X113892857Y-81473809D01*
X113840476Y-81369047D01*
X113788095Y-81316666D01*
X113683333Y-81264285D01*
X113473809Y-81264285D01*
X113369047Y-81316666D01*
X112373809Y-81264285D02*
X112373809Y-82154761D01*
X112426190Y-82259523D01*
X112478571Y-82311904D01*
X112583333Y-82364285D01*
X112740476Y-82364285D01*
X112845238Y-82311904D01*
X112373809Y-81945238D02*
X112478571Y-81997619D01*
X112688095Y-81997619D01*
X112792857Y-81945238D01*
X112845238Y-81892857D01*
X112897619Y-81788095D01*
X112897619Y-81473809D01*
X112845238Y-81369047D01*
X112792857Y-81316666D01*
X112688095Y-81264285D01*
X112478571Y-81264285D01*
X112373809Y-81316666D01*
X111430952Y-81945238D02*
X111535714Y-81997619D01*
X111745238Y-81997619D01*
X111850000Y-81945238D01*
X111902380Y-81840476D01*
X111902380Y-81421428D01*
X111850000Y-81316666D01*
X111745238Y-81264285D01*
X111535714Y-81264285D01*
X111430952Y-81316666D01*
X111378571Y-81421428D01*
X111378571Y-81526190D01*
X111902380Y-81630952D01*
X110907142Y-81997619D02*
X110907142Y-81264285D01*
X110907142Y-81473809D02*
X110854761Y-81369047D01*
X110802380Y-81316666D01*
X110697619Y-81264285D01*
X110592857Y-81264285D01*
X109388095Y-81997619D02*
X109388095Y-80897619D01*
X109126190Y-80897619D01*
X108969047Y-80950000D01*
X108864285Y-81054761D01*
X108811904Y-81159523D01*
X108759523Y-81369047D01*
X108759523Y-81526190D01*
X108811904Y-81735714D01*
X108864285Y-81840476D01*
X108969047Y-81945238D01*
X109126190Y-81997619D01*
X109388095Y-81997619D01*
X107869047Y-81945238D02*
X107973809Y-81997619D01*
X108183333Y-81997619D01*
X108288095Y-81945238D01*
X108340476Y-81840476D01*
X108340476Y-81421428D01*
X108288095Y-81316666D01*
X108183333Y-81264285D01*
X107973809Y-81264285D01*
X107869047Y-81316666D01*
X107816666Y-81421428D01*
X107816666Y-81526190D01*
X108340476Y-81630952D01*
X107450000Y-81264285D02*
X107188095Y-81997619D01*
X106926190Y-81264285D01*
X106507142Y-81997619D02*
X106507142Y-81264285D01*
X106507142Y-80897619D02*
X106559523Y-80950000D01*
X106507142Y-81002380D01*
X106454761Y-80950000D01*
X106507142Y-80897619D01*
X106507142Y-81002380D01*
X105511904Y-81945238D02*
X105616666Y-81997619D01*
X105826190Y-81997619D01*
X105930952Y-81945238D01*
X105983333Y-81892857D01*
X106035714Y-81788095D01*
X106035714Y-81473809D01*
X105983333Y-81369047D01*
X105930952Y-81316666D01*
X105826190Y-81264285D01*
X105616666Y-81264285D01*
X105511904Y-81316666D01*
X104621428Y-81945238D02*
X104726190Y-81997619D01*
X104935714Y-81997619D01*
X105040476Y-81945238D01*
X105092857Y-81840476D01*
X105092857Y-81421428D01*
X105040476Y-81316666D01*
X104935714Y-81264285D01*
X104726190Y-81264285D01*
X104621428Y-81316666D01*
X104569047Y-81421428D01*
X104569047Y-81526190D01*
X105092857Y-81630952D01*
X103416666Y-80897619D02*
X103049999Y-81997619D01*
X102683333Y-80897619D01*
X101740476Y-81997619D02*
X102369047Y-81997619D01*
X102054761Y-81997619D02*
X102054761Y-80897619D01*
X102159523Y-81054761D01*
X102264285Y-81159523D01*
X102369047Y-81211904D01*
X101269047Y-81892857D02*
X101216666Y-81945238D01*
X101269047Y-81997619D01*
X101321428Y-81945238D01*
X101269047Y-81892857D01*
X101269047Y-81997619D01*
X100797619Y-81002380D02*
X100745238Y-80950000D01*
X100640476Y-80897619D01*
X100378571Y-80897619D01*
X100273809Y-80950000D01*
X100221428Y-81002380D01*
X100169047Y-81107142D01*
X100169047Y-81211904D01*
X100221428Y-81369047D01*
X100849999Y-81997619D01*
X100169047Y-81997619D01*
X99697619Y-81997619D02*
X99697619Y-80897619D01*
X99697619Y-81316666D02*
X99592857Y-81264285D01*
X99383333Y-81264285D01*
X99278571Y-81316666D01*
X99226190Y-81369047D01*
X99173809Y-81473809D01*
X99173809Y-81788095D01*
X99226190Y-81892857D01*
X99278571Y-81945238D01*
X99383333Y-81997619D01*
X99592857Y-81997619D01*
X99697619Y-81945238D01*
X97864285Y-81578571D02*
X97026190Y-81578571D01*
X95716666Y-81002380D02*
X95664285Y-80950000D01*
X95559523Y-80897619D01*
X95297619Y-80897619D01*
X95192857Y-80950000D01*
X95140476Y-81002380D01*
X95088095Y-81107142D01*
X95088095Y-81211904D01*
X95140476Y-81369047D01*
X95769047Y-81997619D01*
X95088095Y-81997619D01*
X94407142Y-80897619D02*
X94302380Y-80897619D01*
X94197619Y-80950000D01*
X94145238Y-81002380D01*
X94092857Y-81107142D01*
X94040476Y-81316666D01*
X94040476Y-81578571D01*
X94092857Y-81788095D01*
X94145238Y-81892857D01*
X94197619Y-81945238D01*
X94302380Y-81997619D01*
X94407142Y-81997619D01*
X94511904Y-81945238D01*
X94564285Y-81892857D01*
X94616666Y-81788095D01*
X94669047Y-81578571D01*
X94669047Y-81316666D01*
X94616666Y-81107142D01*
X94564285Y-81002380D01*
X94511904Y-80950000D01*
X94407142Y-80897619D01*
X93621428Y-81002380D02*
X93569047Y-80950000D01*
X93464285Y-80897619D01*
X93202380Y-80897619D01*
X93097619Y-80950000D01*
X93045238Y-81002380D01*
X92992857Y-81107142D01*
X92992857Y-81211904D01*
X93045238Y-81369047D01*
X93673809Y-81997619D01*
X92992857Y-81997619D01*
X92626190Y-80897619D02*
X91945238Y-80897619D01*
X92311904Y-81316666D01*
X92154761Y-81316666D01*
X92049999Y-81369047D01*
X91997619Y-81421428D01*
X91945238Y-81526190D01*
X91945238Y-81788095D01*
X91997619Y-81892857D01*
X92049999Y-81945238D01*
X92154761Y-81997619D01*
X92469047Y-81997619D01*
X92573809Y-81945238D01*
X92626190Y-81892857D01*
D13*
%TO.C,REF\u002A\u002A*%
G36*
X104896090Y-72992348D02*
G01*
X104817546Y-72992778D01*
X104760702Y-72993942D01*
X104721895Y-72996207D01*
X104697462Y-72999940D01*
X104683738Y-73005506D01*
X104677060Y-73013273D01*
X104673764Y-73023605D01*
X104673444Y-73024943D01*
X104668438Y-73049079D01*
X104659171Y-73096701D01*
X104646608Y-73162741D01*
X104631713Y-73242128D01*
X104615449Y-73329796D01*
X104614881Y-73332875D01*
X104598590Y-73418789D01*
X104583348Y-73494696D01*
X104570139Y-73556045D01*
X104559946Y-73598282D01*
X104553752Y-73616855D01*
X104553457Y-73617184D01*
X104535212Y-73626253D01*
X104497595Y-73641367D01*
X104448729Y-73659262D01*
X104448457Y-73659358D01*
X104386907Y-73682493D01*
X104314343Y-73711965D01*
X104245943Y-73741597D01*
X104242706Y-73743062D01*
X104131298Y-73793626D01*
X103884601Y-73625160D01*
X103808923Y-73573803D01*
X103740369Y-73527889D01*
X103682912Y-73490030D01*
X103640524Y-73462837D01*
X103617175Y-73448921D01*
X103614958Y-73447889D01*
X103597990Y-73452484D01*
X103566299Y-73474655D01*
X103518648Y-73515447D01*
X103453802Y-73575905D01*
X103387603Y-73640227D01*
X103323786Y-73703612D01*
X103266671Y-73761451D01*
X103219695Y-73810175D01*
X103186297Y-73846210D01*
X103169915Y-73865984D01*
X103169306Y-73867002D01*
X103167495Y-73880572D01*
X103174317Y-73902733D01*
X103191460Y-73936478D01*
X103220607Y-73984800D01*
X103263445Y-74050692D01*
X103320552Y-74135517D01*
X103371234Y-74210177D01*
X103416539Y-74277140D01*
X103453850Y-74332516D01*
X103480548Y-74372420D01*
X103494015Y-74392962D01*
X103494863Y-74394356D01*
X103493219Y-74414038D01*
X103480755Y-74452293D01*
X103459952Y-74501889D01*
X103452538Y-74517728D01*
X103420186Y-74588290D01*
X103385672Y-74668353D01*
X103357635Y-74737629D01*
X103337432Y-74789045D01*
X103321385Y-74828119D01*
X103312112Y-74848541D01*
X103310959Y-74850114D01*
X103293904Y-74852721D01*
X103253702Y-74859863D01*
X103195698Y-74870523D01*
X103125237Y-74883685D01*
X103047665Y-74898333D01*
X102968328Y-74913449D01*
X102892569Y-74928018D01*
X102825736Y-74941022D01*
X102773172Y-74951445D01*
X102740224Y-74958270D01*
X102732143Y-74960199D01*
X102723795Y-74964962D01*
X102717494Y-74975718D01*
X102712955Y-74996098D01*
X102709896Y-75029734D01*
X102708033Y-75080255D01*
X102707082Y-75151292D01*
X102706760Y-75246476D01*
X102706743Y-75285492D01*
X102706743Y-75602799D01*
X102782943Y-75617839D01*
X102825337Y-75625995D01*
X102888600Y-75637899D01*
X102965038Y-75652116D01*
X103046957Y-75667210D01*
X103069600Y-75671355D01*
X103145194Y-75686053D01*
X103211047Y-75700505D01*
X103261634Y-75713375D01*
X103291426Y-75723322D01*
X103296388Y-75726287D01*
X103308574Y-75747283D01*
X103326047Y-75787967D01*
X103345423Y-75840322D01*
X103349266Y-75851600D01*
X103374661Y-75921523D01*
X103406183Y-76000418D01*
X103437031Y-76071266D01*
X103437183Y-76071595D01*
X103488553Y-76182733D01*
X103319601Y-76431253D01*
X103150648Y-76679772D01*
X103367571Y-76897058D01*
X103433181Y-76961726D01*
X103493021Y-77018733D01*
X103543733Y-77065033D01*
X103581954Y-77097584D01*
X103604325Y-77113343D01*
X103607534Y-77114343D01*
X103626374Y-77106469D01*
X103664820Y-77084578D01*
X103718670Y-77051267D01*
X103783724Y-77009131D01*
X103854060Y-76961943D01*
X103925445Y-76913810D01*
X103989092Y-76871928D01*
X104040959Y-76838871D01*
X104077005Y-76817218D01*
X104093133Y-76809543D01*
X104112811Y-76816037D01*
X104150125Y-76833150D01*
X104197379Y-76857326D01*
X104202388Y-76860013D01*
X104266023Y-76891927D01*
X104309659Y-76907579D01*
X104336798Y-76907745D01*
X104350943Y-76893204D01*
X104351025Y-76893000D01*
X104358095Y-76875779D01*
X104374958Y-76834899D01*
X104400305Y-76773525D01*
X104432829Y-76694819D01*
X104471222Y-76601947D01*
X104514178Y-76498072D01*
X104555778Y-76397502D01*
X104601496Y-76286516D01*
X104643474Y-76183703D01*
X104680452Y-76092215D01*
X104711173Y-76015201D01*
X104734378Y-75955815D01*
X104748810Y-75917209D01*
X104753257Y-75902800D01*
X104742104Y-75886272D01*
X104712931Y-75859930D01*
X104674029Y-75830887D01*
X104563243Y-75739039D01*
X104476649Y-75633759D01*
X104415284Y-75517266D01*
X104380185Y-75391776D01*
X104372392Y-75259507D01*
X104378057Y-75198457D01*
X104408922Y-75071795D01*
X104462080Y-74959941D01*
X104534233Y-74864001D01*
X104622083Y-74785076D01*
X104722335Y-74724270D01*
X104831690Y-74682687D01*
X104946853Y-74661428D01*
X105064525Y-74661599D01*
X105181410Y-74684301D01*
X105294211Y-74730638D01*
X105399631Y-74801713D01*
X105443632Y-74841911D01*
X105528021Y-74945129D01*
X105586778Y-75057925D01*
X105620296Y-75177010D01*
X105628965Y-75299095D01*
X105613177Y-75420893D01*
X105573322Y-75539116D01*
X105509793Y-75650475D01*
X105422979Y-75751684D01*
X105325971Y-75830887D01*
X105285563Y-75861162D01*
X105257018Y-75887219D01*
X105246743Y-75902825D01*
X105252123Y-75919843D01*
X105267425Y-75960500D01*
X105291388Y-76021642D01*
X105322756Y-76100119D01*
X105360268Y-76192780D01*
X105402667Y-76296472D01*
X105444337Y-76397526D01*
X105490310Y-76508607D01*
X105532893Y-76611541D01*
X105570779Y-76703165D01*
X105602660Y-76780316D01*
X105627229Y-76839831D01*
X105643180Y-76878544D01*
X105649090Y-76893000D01*
X105663052Y-76907685D01*
X105690060Y-76907642D01*
X105733587Y-76892099D01*
X105797110Y-76860284D01*
X105797612Y-76860013D01*
X105845440Y-76835323D01*
X105884103Y-76817338D01*
X105905905Y-76809614D01*
X105906867Y-76809543D01*
X105923279Y-76817378D01*
X105959513Y-76839165D01*
X106011526Y-76872328D01*
X106075275Y-76914291D01*
X106145940Y-76961943D01*
X106217884Y-77010191D01*
X106282726Y-77052151D01*
X106336265Y-77085227D01*
X106374303Y-77106821D01*
X106392467Y-77114343D01*
X106409192Y-77104457D01*
X106442820Y-77076826D01*
X106489990Y-77034495D01*
X106547342Y-76980505D01*
X106611516Y-76917899D01*
X106632503Y-76896983D01*
X106849501Y-76679623D01*
X106684332Y-76437220D01*
X106634136Y-76362781D01*
X106590081Y-76295972D01*
X106554638Y-76240665D01*
X106530281Y-76200729D01*
X106519478Y-76180036D01*
X106519162Y-76178563D01*
X106524857Y-76159058D01*
X106540174Y-76119822D01*
X106562463Y-76067430D01*
X106578107Y-76032355D01*
X106607359Y-75965201D01*
X106634906Y-75897358D01*
X106656263Y-75840034D01*
X106662065Y-75822572D01*
X106678548Y-75775938D01*
X106694660Y-75739905D01*
X106703510Y-75726287D01*
X106723040Y-75717952D01*
X106765666Y-75706137D01*
X106825855Y-75692181D01*
X106898078Y-75677422D01*
X106930400Y-75671355D01*
X107012478Y-75656273D01*
X107091205Y-75641669D01*
X107158891Y-75628980D01*
X107207840Y-75619642D01*
X107217057Y-75617839D01*
X107293257Y-75602799D01*
X107293257Y-75285492D01*
X107293086Y-75181154D01*
X107292384Y-75102213D01*
X107290866Y-75045038D01*
X107288251Y-75005999D01*
X107284254Y-74981465D01*
X107278591Y-74967805D01*
X107270980Y-74961389D01*
X107267857Y-74960199D01*
X107249022Y-74955980D01*
X107207412Y-74947562D01*
X107148370Y-74935961D01*
X107077243Y-74922195D01*
X106999375Y-74907280D01*
X106920113Y-74892232D01*
X106844802Y-74878069D01*
X106778787Y-74865806D01*
X106727413Y-74856461D01*
X106696025Y-74851050D01*
X106689041Y-74850114D01*
X106682715Y-74837596D01*
X106668710Y-74804246D01*
X106649645Y-74756377D01*
X106642366Y-74737629D01*
X106613004Y-74665195D01*
X106578429Y-74585170D01*
X106547463Y-74517728D01*
X106524677Y-74466159D01*
X106509518Y-74423785D01*
X106504458Y-74397834D01*
X106505264Y-74394356D01*
X106515959Y-74377936D01*
X106540380Y-74341417D01*
X106575905Y-74288687D01*
X106619913Y-74223635D01*
X106669783Y-74150151D01*
X106679644Y-74135645D01*
X106737508Y-74049704D01*
X106780044Y-73984261D01*
X106808946Y-73936304D01*
X106825910Y-73902820D01*
X106832633Y-73880795D01*
X106830810Y-73867217D01*
X106830764Y-73867131D01*
X106816414Y-73849297D01*
X106784677Y-73814817D01*
X106738990Y-73767268D01*
X106682796Y-73710222D01*
X106619532Y-73647255D01*
X106612398Y-73640227D01*
X106532670Y-73563020D01*
X106471143Y-73506330D01*
X106426579Y-73469110D01*
X106397743Y-73450315D01*
X106385042Y-73447889D01*
X106366506Y-73458471D01*
X106328039Y-73482916D01*
X106273614Y-73518612D01*
X106207202Y-73562947D01*
X106132775Y-73613311D01*
X106115399Y-73625160D01*
X105868703Y-73793626D01*
X105757294Y-73743062D01*
X105689543Y-73713595D01*
X105616817Y-73683959D01*
X105554297Y-73660330D01*
X105551543Y-73659358D01*
X105502640Y-73641457D01*
X105464943Y-73626320D01*
X105446575Y-73617210D01*
X105446544Y-73617184D01*
X105440715Y-73600717D01*
X105430808Y-73560219D01*
X105417805Y-73500242D01*
X105402691Y-73425340D01*
X105386448Y-73340064D01*
X105385119Y-73332875D01*
X105368825Y-73245014D01*
X105353867Y-73165260D01*
X105341209Y-73098681D01*
X105331814Y-73050347D01*
X105326646Y-73025325D01*
X105326556Y-73024943D01*
X105323411Y-73014299D01*
X105317296Y-73006262D01*
X105304547Y-73000467D01*
X105281500Y-72996547D01*
X105244491Y-72994135D01*
X105189856Y-72992865D01*
X105113933Y-72992371D01*
X105013056Y-72992286D01*
X105000000Y-72992286D01*
X104896090Y-72992348D01*
G37*
X104896090Y-72992348D02*
X104817546Y-72992778D01*
X104760702Y-72993942D01*
X104721895Y-72996207D01*
X104697462Y-72999940D01*
X104683738Y-73005506D01*
X104677060Y-73013273D01*
X104673764Y-73023605D01*
X104673444Y-73024943D01*
X104668438Y-73049079D01*
X104659171Y-73096701D01*
X104646608Y-73162741D01*
X104631713Y-73242128D01*
X104615449Y-73329796D01*
X104614881Y-73332875D01*
X104598590Y-73418789D01*
X104583348Y-73494696D01*
X104570139Y-73556045D01*
X104559946Y-73598282D01*
X104553752Y-73616855D01*
X104553457Y-73617184D01*
X104535212Y-73626253D01*
X104497595Y-73641367D01*
X104448729Y-73659262D01*
X104448457Y-73659358D01*
X104386907Y-73682493D01*
X104314343Y-73711965D01*
X104245943Y-73741597D01*
X104242706Y-73743062D01*
X104131298Y-73793626D01*
X103884601Y-73625160D01*
X103808923Y-73573803D01*
X103740369Y-73527889D01*
X103682912Y-73490030D01*
X103640524Y-73462837D01*
X103617175Y-73448921D01*
X103614958Y-73447889D01*
X103597990Y-73452484D01*
X103566299Y-73474655D01*
X103518648Y-73515447D01*
X103453802Y-73575905D01*
X103387603Y-73640227D01*
X103323786Y-73703612D01*
X103266671Y-73761451D01*
X103219695Y-73810175D01*
X103186297Y-73846210D01*
X103169915Y-73865984D01*
X103169306Y-73867002D01*
X103167495Y-73880572D01*
X103174317Y-73902733D01*
X103191460Y-73936478D01*
X103220607Y-73984800D01*
X103263445Y-74050692D01*
X103320552Y-74135517D01*
X103371234Y-74210177D01*
X103416539Y-74277140D01*
X103453850Y-74332516D01*
X103480548Y-74372420D01*
X103494015Y-74392962D01*
X103494863Y-74394356D01*
X103493219Y-74414038D01*
X103480755Y-74452293D01*
X103459952Y-74501889D01*
X103452538Y-74517728D01*
X103420186Y-74588290D01*
X103385672Y-74668353D01*
X103357635Y-74737629D01*
X103337432Y-74789045D01*
X103321385Y-74828119D01*
X103312112Y-74848541D01*
X103310959Y-74850114D01*
X103293904Y-74852721D01*
X103253702Y-74859863D01*
X103195698Y-74870523D01*
X103125237Y-74883685D01*
X103047665Y-74898333D01*
X102968328Y-74913449D01*
X102892569Y-74928018D01*
X102825736Y-74941022D01*
X102773172Y-74951445D01*
X102740224Y-74958270D01*
X102732143Y-74960199D01*
X102723795Y-74964962D01*
X102717494Y-74975718D01*
X102712955Y-74996098D01*
X102709896Y-75029734D01*
X102708033Y-75080255D01*
X102707082Y-75151292D01*
X102706760Y-75246476D01*
X102706743Y-75285492D01*
X102706743Y-75602799D01*
X102782943Y-75617839D01*
X102825337Y-75625995D01*
X102888600Y-75637899D01*
X102965038Y-75652116D01*
X103046957Y-75667210D01*
X103069600Y-75671355D01*
X103145194Y-75686053D01*
X103211047Y-75700505D01*
X103261634Y-75713375D01*
X103291426Y-75723322D01*
X103296388Y-75726287D01*
X103308574Y-75747283D01*
X103326047Y-75787967D01*
X103345423Y-75840322D01*
X103349266Y-75851600D01*
X103374661Y-75921523D01*
X103406183Y-76000418D01*
X103437031Y-76071266D01*
X103437183Y-76071595D01*
X103488553Y-76182733D01*
X103319601Y-76431253D01*
X103150648Y-76679772D01*
X103367571Y-76897058D01*
X103433181Y-76961726D01*
X103493021Y-77018733D01*
X103543733Y-77065033D01*
X103581954Y-77097584D01*
X103604325Y-77113343D01*
X103607534Y-77114343D01*
X103626374Y-77106469D01*
X103664820Y-77084578D01*
X103718670Y-77051267D01*
X103783724Y-77009131D01*
X103854060Y-76961943D01*
X103925445Y-76913810D01*
X103989092Y-76871928D01*
X104040959Y-76838871D01*
X104077005Y-76817218D01*
X104093133Y-76809543D01*
X104112811Y-76816037D01*
X104150125Y-76833150D01*
X104197379Y-76857326D01*
X104202388Y-76860013D01*
X104266023Y-76891927D01*
X104309659Y-76907579D01*
X104336798Y-76907745D01*
X104350943Y-76893204D01*
X104351025Y-76893000D01*
X104358095Y-76875779D01*
X104374958Y-76834899D01*
X104400305Y-76773525D01*
X104432829Y-76694819D01*
X104471222Y-76601947D01*
X104514178Y-76498072D01*
X104555778Y-76397502D01*
X104601496Y-76286516D01*
X104643474Y-76183703D01*
X104680452Y-76092215D01*
X104711173Y-76015201D01*
X104734378Y-75955815D01*
X104748810Y-75917209D01*
X104753257Y-75902800D01*
X104742104Y-75886272D01*
X104712931Y-75859930D01*
X104674029Y-75830887D01*
X104563243Y-75739039D01*
X104476649Y-75633759D01*
X104415284Y-75517266D01*
X104380185Y-75391776D01*
X104372392Y-75259507D01*
X104378057Y-75198457D01*
X104408922Y-75071795D01*
X104462080Y-74959941D01*
X104534233Y-74864001D01*
X104622083Y-74785076D01*
X104722335Y-74724270D01*
X104831690Y-74682687D01*
X104946853Y-74661428D01*
X105064525Y-74661599D01*
X105181410Y-74684301D01*
X105294211Y-74730638D01*
X105399631Y-74801713D01*
X105443632Y-74841911D01*
X105528021Y-74945129D01*
X105586778Y-75057925D01*
X105620296Y-75177010D01*
X105628965Y-75299095D01*
X105613177Y-75420893D01*
X105573322Y-75539116D01*
X105509793Y-75650475D01*
X105422979Y-75751684D01*
X105325971Y-75830887D01*
X105285563Y-75861162D01*
X105257018Y-75887219D01*
X105246743Y-75902825D01*
X105252123Y-75919843D01*
X105267425Y-75960500D01*
X105291388Y-76021642D01*
X105322756Y-76100119D01*
X105360268Y-76192780D01*
X105402667Y-76296472D01*
X105444337Y-76397526D01*
X105490310Y-76508607D01*
X105532893Y-76611541D01*
X105570779Y-76703165D01*
X105602660Y-76780316D01*
X105627229Y-76839831D01*
X105643180Y-76878544D01*
X105649090Y-76893000D01*
X105663052Y-76907685D01*
X105690060Y-76907642D01*
X105733587Y-76892099D01*
X105797110Y-76860284D01*
X105797612Y-76860013D01*
X105845440Y-76835323D01*
X105884103Y-76817338D01*
X105905905Y-76809614D01*
X105906867Y-76809543D01*
X105923279Y-76817378D01*
X105959513Y-76839165D01*
X106011526Y-76872328D01*
X106075275Y-76914291D01*
X106145940Y-76961943D01*
X106217884Y-77010191D01*
X106282726Y-77052151D01*
X106336265Y-77085227D01*
X106374303Y-77106821D01*
X106392467Y-77114343D01*
X106409192Y-77104457D01*
X106442820Y-77076826D01*
X106489990Y-77034495D01*
X106547342Y-76980505D01*
X106611516Y-76917899D01*
X106632503Y-76896983D01*
X106849501Y-76679623D01*
X106684332Y-76437220D01*
X106634136Y-76362781D01*
X106590081Y-76295972D01*
X106554638Y-76240665D01*
X106530281Y-76200729D01*
X106519478Y-76180036D01*
X106519162Y-76178563D01*
X106524857Y-76159058D01*
X106540174Y-76119822D01*
X106562463Y-76067430D01*
X106578107Y-76032355D01*
X106607359Y-75965201D01*
X106634906Y-75897358D01*
X106656263Y-75840034D01*
X106662065Y-75822572D01*
X106678548Y-75775938D01*
X106694660Y-75739905D01*
X106703510Y-75726287D01*
X106723040Y-75717952D01*
X106765666Y-75706137D01*
X106825855Y-75692181D01*
X106898078Y-75677422D01*
X106930400Y-75671355D01*
X107012478Y-75656273D01*
X107091205Y-75641669D01*
X107158891Y-75628980D01*
X107207840Y-75619642D01*
X107217057Y-75617839D01*
X107293257Y-75602799D01*
X107293257Y-75285492D01*
X107293086Y-75181154D01*
X107292384Y-75102213D01*
X107290866Y-75045038D01*
X107288251Y-75005999D01*
X107284254Y-74981465D01*
X107278591Y-74967805D01*
X107270980Y-74961389D01*
X107267857Y-74960199D01*
X107249022Y-74955980D01*
X107207412Y-74947562D01*
X107148370Y-74935961D01*
X107077243Y-74922195D01*
X106999375Y-74907280D01*
X106920113Y-74892232D01*
X106844802Y-74878069D01*
X106778787Y-74865806D01*
X106727413Y-74856461D01*
X106696025Y-74851050D01*
X106689041Y-74850114D01*
X106682715Y-74837596D01*
X106668710Y-74804246D01*
X106649645Y-74756377D01*
X106642366Y-74737629D01*
X106613004Y-74665195D01*
X106578429Y-74585170D01*
X106547463Y-74517728D01*
X106524677Y-74466159D01*
X106509518Y-74423785D01*
X106504458Y-74397834D01*
X106505264Y-74394356D01*
X106515959Y-74377936D01*
X106540380Y-74341417D01*
X106575905Y-74288687D01*
X106619913Y-74223635D01*
X106669783Y-74150151D01*
X106679644Y-74135645D01*
X106737508Y-74049704D01*
X106780044Y-73984261D01*
X106808946Y-73936304D01*
X106825910Y-73902820D01*
X106832633Y-73880795D01*
X106830810Y-73867217D01*
X106830764Y-73867131D01*
X106816414Y-73849297D01*
X106784677Y-73814817D01*
X106738990Y-73767268D01*
X106682796Y-73710222D01*
X106619532Y-73647255D01*
X106612398Y-73640227D01*
X106532670Y-73563020D01*
X106471143Y-73506330D01*
X106426579Y-73469110D01*
X106397743Y-73450315D01*
X106385042Y-73447889D01*
X106366506Y-73458471D01*
X106328039Y-73482916D01*
X106273614Y-73518612D01*
X106207202Y-73562947D01*
X106132775Y-73613311D01*
X106115399Y-73625160D01*
X105868703Y-73793626D01*
X105757294Y-73743062D01*
X105689543Y-73713595D01*
X105616817Y-73683959D01*
X105554297Y-73660330D01*
X105551543Y-73659358D01*
X105502640Y-73641457D01*
X105464943Y-73626320D01*
X105446575Y-73617210D01*
X105446544Y-73617184D01*
X105440715Y-73600717D01*
X105430808Y-73560219D01*
X105417805Y-73500242D01*
X105402691Y-73425340D01*
X105386448Y-73340064D01*
X105385119Y-73332875D01*
X105368825Y-73245014D01*
X105353867Y-73165260D01*
X105341209Y-73098681D01*
X105331814Y-73050347D01*
X105326646Y-73025325D01*
X105326556Y-73024943D01*
X105323411Y-73014299D01*
X105317296Y-73006262D01*
X105304547Y-73000467D01*
X105281500Y-72996547D01*
X105244491Y-72994135D01*
X105189856Y-72992865D01*
X105113933Y-72992371D01*
X105013056Y-72992286D01*
X105000000Y-72992286D01*
X104896090Y-72992348D01*
G36*
X101846405Y-77716966D02*
G01*
X101788979Y-77754497D01*
X101761281Y-77788096D01*
X101739338Y-77849064D01*
X101737595Y-77897308D01*
X101741543Y-77961816D01*
X101890314Y-78026934D01*
X101962651Y-78060202D01*
X102009916Y-78086964D01*
X102034493Y-78110144D01*
X102038763Y-78132667D01*
X102025111Y-78157455D01*
X102010057Y-78173886D01*
X101966254Y-78200235D01*
X101918611Y-78202081D01*
X101874855Y-78181546D01*
X101842711Y-78140752D01*
X101836962Y-78126347D01*
X101809424Y-78081356D01*
X101777742Y-78062182D01*
X101734286Y-78045779D01*
X101734286Y-78107966D01*
X101738128Y-78150283D01*
X101753177Y-78185969D01*
X101784720Y-78226943D01*
X101789408Y-78232267D01*
X101824494Y-78268720D01*
X101854653Y-78288283D01*
X101892385Y-78297283D01*
X101923665Y-78300230D01*
X101979615Y-78300965D01*
X102019445Y-78291660D01*
X102044292Y-78277846D01*
X102083344Y-78247467D01*
X102110375Y-78214613D01*
X102127483Y-78173294D01*
X102136762Y-78117521D01*
X102140307Y-78041305D01*
X102140590Y-78002622D01*
X102139628Y-77956247D01*
X102051993Y-77956247D01*
X102050977Y-77981126D01*
X102048444Y-77985200D01*
X102031726Y-77979665D01*
X101995751Y-77965017D01*
X101947669Y-77944190D01*
X101937614Y-77939714D01*
X101876848Y-77908814D01*
X101843368Y-77881657D01*
X101836010Y-77856220D01*
X101853609Y-77830481D01*
X101868144Y-77819109D01*
X101920590Y-77796364D01*
X101969678Y-77800122D01*
X102010773Y-77827884D01*
X102039242Y-77877152D01*
X102048369Y-77916257D01*
X102051993Y-77956247D01*
X102139628Y-77956247D01*
X102138715Y-77912249D01*
X102131804Y-77845384D01*
X102118116Y-77796695D01*
X102095904Y-77760849D01*
X102063426Y-77732513D01*
X102049267Y-77723355D01*
X101984947Y-77699507D01*
X101914527Y-77698006D01*
X101846405Y-77716966D01*
G37*
X101846405Y-77716966D02*
X101788979Y-77754497D01*
X101761281Y-77788096D01*
X101739338Y-77849064D01*
X101737595Y-77897308D01*
X101741543Y-77961816D01*
X101890314Y-78026934D01*
X101962651Y-78060202D01*
X102009916Y-78086964D01*
X102034493Y-78110144D01*
X102038763Y-78132667D01*
X102025111Y-78157455D01*
X102010057Y-78173886D01*
X101966254Y-78200235D01*
X101918611Y-78202081D01*
X101874855Y-78181546D01*
X101842711Y-78140752D01*
X101836962Y-78126347D01*
X101809424Y-78081356D01*
X101777742Y-78062182D01*
X101734286Y-78045779D01*
X101734286Y-78107966D01*
X101738128Y-78150283D01*
X101753177Y-78185969D01*
X101784720Y-78226943D01*
X101789408Y-78232267D01*
X101824494Y-78268720D01*
X101854653Y-78288283D01*
X101892385Y-78297283D01*
X101923665Y-78300230D01*
X101979615Y-78300965D01*
X102019445Y-78291660D01*
X102044292Y-78277846D01*
X102083344Y-78247467D01*
X102110375Y-78214613D01*
X102127483Y-78173294D01*
X102136762Y-78117521D01*
X102140307Y-78041305D01*
X102140590Y-78002622D01*
X102139628Y-77956247D01*
X102051993Y-77956247D01*
X102050977Y-77981126D01*
X102048444Y-77985200D01*
X102031726Y-77979665D01*
X101995751Y-77965017D01*
X101947669Y-77944190D01*
X101937614Y-77939714D01*
X101876848Y-77908814D01*
X101843368Y-77881657D01*
X101836010Y-77856220D01*
X101853609Y-77830481D01*
X101868144Y-77819109D01*
X101920590Y-77796364D01*
X101969678Y-77800122D01*
X102010773Y-77827884D01*
X102039242Y-77877152D01*
X102048369Y-77916257D01*
X102051993Y-77956247D01*
X102139628Y-77956247D01*
X102138715Y-77912249D01*
X102131804Y-77845384D01*
X102118116Y-77796695D01*
X102095904Y-77760849D01*
X102063426Y-77732513D01*
X102049267Y-77723355D01*
X101984947Y-77699507D01*
X101914527Y-77698006D01*
X101846405Y-77716966D01*
G36*
X102347400Y-77708752D02*
G01*
X102330052Y-77716334D01*
X102288644Y-77749128D01*
X102253235Y-77796547D01*
X102231336Y-77847151D01*
X102227771Y-77872098D01*
X102239721Y-77906927D01*
X102265933Y-77925357D01*
X102294036Y-77936516D01*
X102306905Y-77938572D01*
X102313171Y-77923649D01*
X102325544Y-77891175D01*
X102330972Y-77876502D01*
X102361410Y-77825744D01*
X102405480Y-77800427D01*
X102461990Y-77801206D01*
X102466175Y-77802203D01*
X102496345Y-77816507D01*
X102518524Y-77844393D01*
X102533673Y-77889287D01*
X102542750Y-77954615D01*
X102546714Y-78043804D01*
X102547086Y-78091261D01*
X102547270Y-78166071D01*
X102548478Y-78217069D01*
X102551691Y-78249471D01*
X102557891Y-78268495D01*
X102568060Y-78279356D01*
X102583181Y-78287272D01*
X102584054Y-78287670D01*
X102613172Y-78299981D01*
X102627597Y-78304514D01*
X102629814Y-78290809D01*
X102631711Y-78252925D01*
X102633153Y-78195715D01*
X102634002Y-78124027D01*
X102634171Y-78071565D01*
X102633308Y-77970047D01*
X102629930Y-77893032D01*
X102622858Y-77836023D01*
X102610912Y-77794526D01*
X102592910Y-77764043D01*
X102567673Y-77740080D01*
X102542753Y-77723355D01*
X102482829Y-77701097D01*
X102413089Y-77696076D01*
X102347400Y-77708752D01*
G37*
X102347400Y-77708752D02*
X102330052Y-77716334D01*
X102288644Y-77749128D01*
X102253235Y-77796547D01*
X102231336Y-77847151D01*
X102227771Y-77872098D01*
X102239721Y-77906927D01*
X102265933Y-77925357D01*
X102294036Y-77936516D01*
X102306905Y-77938572D01*
X102313171Y-77923649D01*
X102325544Y-77891175D01*
X102330972Y-77876502D01*
X102361410Y-77825744D01*
X102405480Y-77800427D01*
X102461990Y-77801206D01*
X102466175Y-77802203D01*
X102496345Y-77816507D01*
X102518524Y-77844393D01*
X102533673Y-77889287D01*
X102542750Y-77954615D01*
X102546714Y-78043804D01*
X102547086Y-78091261D01*
X102547270Y-78166071D01*
X102548478Y-78217069D01*
X102551691Y-78249471D01*
X102557891Y-78268495D01*
X102568060Y-78279356D01*
X102583181Y-78287272D01*
X102584054Y-78287670D01*
X102613172Y-78299981D01*
X102627597Y-78304514D01*
X102629814Y-78290809D01*
X102631711Y-78252925D01*
X102633153Y-78195715D01*
X102634002Y-78124027D01*
X102634171Y-78071565D01*
X102633308Y-77970047D01*
X102629930Y-77893032D01*
X102622858Y-77836023D01*
X102610912Y-77794526D01*
X102592910Y-77764043D01*
X102567673Y-77740080D01*
X102542753Y-77723355D01*
X102482829Y-77701097D01*
X102413089Y-77696076D01*
X102347400Y-77708752D01*
G36*
X102855124Y-77706335D02*
G01*
X102813333Y-77725344D01*
X102780531Y-77748378D01*
X102756497Y-77774133D01*
X102739903Y-77807358D01*
X102729423Y-77852800D01*
X102723729Y-77915207D01*
X102721493Y-77999327D01*
X102721257Y-78054721D01*
X102721257Y-78270826D01*
X102758226Y-78287670D01*
X102787344Y-78299981D01*
X102801769Y-78304514D01*
X102804528Y-78291025D01*
X102806718Y-78254653D01*
X102808058Y-78201542D01*
X102808343Y-78159372D01*
X102809566Y-78098447D01*
X102812864Y-78050115D01*
X102817679Y-78020518D01*
X102821504Y-78014229D01*
X102847217Y-78020652D01*
X102887582Y-78037125D01*
X102934321Y-78059458D01*
X102979155Y-78083457D01*
X103013807Y-78104930D01*
X103029998Y-78119685D01*
X103030062Y-78119845D01*
X103028670Y-78147152D01*
X103016182Y-78173219D01*
X102994257Y-78194392D01*
X102962257Y-78201474D01*
X102934908Y-78200649D01*
X102896174Y-78200042D01*
X102875842Y-78209116D01*
X102863631Y-78233092D01*
X102862091Y-78237613D01*
X102856797Y-78271806D01*
X102870953Y-78292568D01*
X102907852Y-78302462D01*
X102947711Y-78304292D01*
X103019438Y-78290727D01*
X103056568Y-78271355D01*
X103102424Y-78225845D01*
X103126744Y-78169983D01*
X103128927Y-78110957D01*
X103108371Y-78055953D01*
X103077451Y-78021486D01*
X103046580Y-78002189D01*
X102998058Y-77977759D01*
X102941515Y-77952985D01*
X102932090Y-77949199D01*
X102869981Y-77921791D01*
X102834178Y-77897634D01*
X102822663Y-77873619D01*
X102833420Y-77846635D01*
X102851886Y-77825543D01*
X102895531Y-77799572D01*
X102943554Y-77797624D01*
X102987594Y-77817637D01*
X103019291Y-77857551D01*
X103023451Y-77867848D01*
X103047673Y-77905724D01*
X103083035Y-77933842D01*
X103127657Y-77956917D01*
X103127657Y-77891485D01*
X103125031Y-77851506D01*
X103113770Y-77819997D01*
X103088801Y-77786378D01*
X103064831Y-77760484D01*
X103027559Y-77723817D01*
X102998599Y-77704121D01*
X102967495Y-77696220D01*
X102932287Y-77694914D01*
X102855124Y-77706335D01*
G37*
X102855124Y-77706335D02*
X102813333Y-77725344D01*
X102780531Y-77748378D01*
X102756497Y-77774133D01*
X102739903Y-77807358D01*
X102729423Y-77852800D01*
X102723729Y-77915207D01*
X102721493Y-77999327D01*
X102721257Y-78054721D01*
X102721257Y-78270826D01*
X102758226Y-78287670D01*
X102787344Y-78299981D01*
X102801769Y-78304514D01*
X102804528Y-78291025D01*
X102806718Y-78254653D01*
X102808058Y-78201542D01*
X102808343Y-78159372D01*
X102809566Y-78098447D01*
X102812864Y-78050115D01*
X102817679Y-78020518D01*
X102821504Y-78014229D01*
X102847217Y-78020652D01*
X102887582Y-78037125D01*
X102934321Y-78059458D01*
X102979155Y-78083457D01*
X103013807Y-78104930D01*
X103029998Y-78119685D01*
X103030062Y-78119845D01*
X103028670Y-78147152D01*
X103016182Y-78173219D01*
X102994257Y-78194392D01*
X102962257Y-78201474D01*
X102934908Y-78200649D01*
X102896174Y-78200042D01*
X102875842Y-78209116D01*
X102863631Y-78233092D01*
X102862091Y-78237613D01*
X102856797Y-78271806D01*
X102870953Y-78292568D01*
X102907852Y-78302462D01*
X102947711Y-78304292D01*
X103019438Y-78290727D01*
X103056568Y-78271355D01*
X103102424Y-78225845D01*
X103126744Y-78169983D01*
X103128927Y-78110957D01*
X103108371Y-78055953D01*
X103077451Y-78021486D01*
X103046580Y-78002189D01*
X102998058Y-77977759D01*
X102941515Y-77952985D01*
X102932090Y-77949199D01*
X102869981Y-77921791D01*
X102834178Y-77897634D01*
X102822663Y-77873619D01*
X102833420Y-77846635D01*
X102851886Y-77825543D01*
X102895531Y-77799572D01*
X102943554Y-77797624D01*
X102987594Y-77817637D01*
X103019291Y-77857551D01*
X103023451Y-77867848D01*
X103047673Y-77905724D01*
X103083035Y-77933842D01*
X103127657Y-77956917D01*
X103127657Y-77891485D01*
X103125031Y-77851506D01*
X103113770Y-77819997D01*
X103088801Y-77786378D01*
X103064831Y-77760484D01*
X103027559Y-77723817D01*
X102998599Y-77704121D01*
X102967495Y-77696220D01*
X102932287Y-77694914D01*
X102855124Y-77706335D01*
G36*
X103220167Y-77708663D02*
G01*
X103217952Y-77746850D01*
X103216216Y-77804886D01*
X103215101Y-77878180D01*
X103214743Y-77955055D01*
X103214743Y-78215196D01*
X103260674Y-78261127D01*
X103292325Y-78289429D01*
X103320110Y-78300893D01*
X103358085Y-78300168D01*
X103373160Y-78298321D01*
X103420274Y-78292948D01*
X103459244Y-78289869D01*
X103468743Y-78289585D01*
X103500767Y-78291445D01*
X103546568Y-78296114D01*
X103564326Y-78298321D01*
X103607943Y-78301735D01*
X103637255Y-78294320D01*
X103666320Y-78271427D01*
X103676812Y-78261127D01*
X103722743Y-78215196D01*
X103722743Y-77728602D01*
X103685774Y-77711758D01*
X103653941Y-77699282D01*
X103635317Y-77694914D01*
X103630542Y-77708718D01*
X103626079Y-77747286D01*
X103622225Y-77806356D01*
X103619278Y-77881663D01*
X103617857Y-77945286D01*
X103613886Y-78195657D01*
X103579241Y-78200556D01*
X103547732Y-78197131D01*
X103532292Y-78186041D01*
X103527977Y-78165308D01*
X103524292Y-78121145D01*
X103521531Y-78059146D01*
X103519988Y-77984909D01*
X103519765Y-77946706D01*
X103519543Y-77726783D01*
X103473834Y-77710849D01*
X103441482Y-77700015D01*
X103423885Y-77694962D01*
X103423377Y-77694914D01*
X103421612Y-77708648D01*
X103419671Y-77746730D01*
X103417718Y-77804482D01*
X103415916Y-77877227D01*
X103414657Y-77945286D01*
X103410686Y-78195657D01*
X103323600Y-78195657D01*
X103319604Y-77967240D01*
X103315608Y-77738822D01*
X103273153Y-77716868D01*
X103241808Y-77701793D01*
X103223256Y-77694951D01*
X103222721Y-77694914D01*
X103220167Y-77708663D01*
G37*
X103220167Y-77708663D02*
X103217952Y-77746850D01*
X103216216Y-77804886D01*
X103215101Y-77878180D01*
X103214743Y-77955055D01*
X103214743Y-78215196D01*
X103260674Y-78261127D01*
X103292325Y-78289429D01*
X103320110Y-78300893D01*
X103358085Y-78300168D01*
X103373160Y-78298321D01*
X103420274Y-78292948D01*
X103459244Y-78289869D01*
X103468743Y-78289585D01*
X103500767Y-78291445D01*
X103546568Y-78296114D01*
X103564326Y-78298321D01*
X103607943Y-78301735D01*
X103637255Y-78294320D01*
X103666320Y-78271427D01*
X103676812Y-78261127D01*
X103722743Y-78215196D01*
X103722743Y-77728602D01*
X103685774Y-77711758D01*
X103653941Y-77699282D01*
X103635317Y-77694914D01*
X103630542Y-77708718D01*
X103626079Y-77747286D01*
X103622225Y-77806356D01*
X103619278Y-77881663D01*
X103617857Y-77945286D01*
X103613886Y-78195657D01*
X103579241Y-78200556D01*
X103547732Y-78197131D01*
X103532292Y-78186041D01*
X103527977Y-78165308D01*
X103524292Y-78121145D01*
X103521531Y-78059146D01*
X103519988Y-77984909D01*
X103519765Y-77946706D01*
X103519543Y-77726783D01*
X103473834Y-77710849D01*
X103441482Y-77700015D01*
X103423885Y-77694962D01*
X103423377Y-77694914D01*
X103421612Y-77708648D01*
X103419671Y-77746730D01*
X103417718Y-77804482D01*
X103415916Y-77877227D01*
X103414657Y-77945286D01*
X103410686Y-78195657D01*
X103323600Y-78195657D01*
X103319604Y-77967240D01*
X103315608Y-77738822D01*
X103273153Y-77716868D01*
X103241808Y-77701793D01*
X103223256Y-77694951D01*
X103222721Y-77694914D01*
X103220167Y-77708663D01*
G36*
X103809883Y-77815358D02*
G01*
X103810067Y-77923837D01*
X103810781Y-78007287D01*
X103812325Y-78069704D01*
X103814999Y-78115085D01*
X103819106Y-78147429D01*
X103824945Y-78170733D01*
X103832818Y-78188995D01*
X103838779Y-78199418D01*
X103888145Y-78255945D01*
X103950736Y-78291377D01*
X104019987Y-78304090D01*
X104089332Y-78292463D01*
X104130625Y-78271568D01*
X104173975Y-78235422D01*
X104203519Y-78191276D01*
X104221345Y-78133462D01*
X104229537Y-78056313D01*
X104230698Y-77999714D01*
X104230542Y-77995647D01*
X104129143Y-77995647D01*
X104128524Y-78060550D01*
X104125686Y-78103514D01*
X104119160Y-78131622D01*
X104107477Y-78151953D01*
X104093517Y-78167288D01*
X104046635Y-78196890D01*
X103996299Y-78199419D01*
X103948724Y-78174705D01*
X103945021Y-78171356D01*
X103929217Y-78153935D01*
X103919307Y-78133209D01*
X103913942Y-78102362D01*
X103911772Y-78054577D01*
X103911429Y-78001748D01*
X103912173Y-77935381D01*
X103915252Y-77891106D01*
X103921939Y-77862009D01*
X103933504Y-77841173D01*
X103942987Y-77830107D01*
X103987040Y-77802198D01*
X104037776Y-77798843D01*
X104086204Y-77820159D01*
X104095550Y-77828073D01*
X104111460Y-77845647D01*
X104121390Y-77866587D01*
X104126722Y-77897782D01*
X104128837Y-77946122D01*
X104129143Y-77995647D01*
X104230542Y-77995647D01*
X104227190Y-77908568D01*
X104215274Y-77840086D01*
X104192865Y-77788600D01*
X104157876Y-77748443D01*
X104130625Y-77727861D01*
X104081093Y-77705625D01*
X104023684Y-77695304D01*
X103970318Y-77698067D01*
X103940457Y-77709212D01*
X103928739Y-77712383D01*
X103920963Y-77700557D01*
X103915535Y-77668866D01*
X103911429Y-77620593D01*
X103906933Y-77566829D01*
X103900687Y-77534482D01*
X103889324Y-77515985D01*
X103869472Y-77503770D01*
X103857000Y-77498362D01*
X103809829Y-77478601D01*
X103809883Y-77815358D01*
G37*
X103809883Y-77815358D02*
X103810067Y-77923837D01*
X103810781Y-78007287D01*
X103812325Y-78069704D01*
X103814999Y-78115085D01*
X103819106Y-78147429D01*
X103824945Y-78170733D01*
X103832818Y-78188995D01*
X103838779Y-78199418D01*
X103888145Y-78255945D01*
X103950736Y-78291377D01*
X104019987Y-78304090D01*
X104089332Y-78292463D01*
X104130625Y-78271568D01*
X104173975Y-78235422D01*
X104203519Y-78191276D01*
X104221345Y-78133462D01*
X104229537Y-78056313D01*
X104230698Y-77999714D01*
X104230542Y-77995647D01*
X104129143Y-77995647D01*
X104128524Y-78060550D01*
X104125686Y-78103514D01*
X104119160Y-78131622D01*
X104107477Y-78151953D01*
X104093517Y-78167288D01*
X104046635Y-78196890D01*
X103996299Y-78199419D01*
X103948724Y-78174705D01*
X103945021Y-78171356D01*
X103929217Y-78153935D01*
X103919307Y-78133209D01*
X103913942Y-78102362D01*
X103911772Y-78054577D01*
X103911429Y-78001748D01*
X103912173Y-77935381D01*
X103915252Y-77891106D01*
X103921939Y-77862009D01*
X103933504Y-77841173D01*
X103942987Y-77830107D01*
X103987040Y-77802198D01*
X104037776Y-77798843D01*
X104086204Y-77820159D01*
X104095550Y-77828073D01*
X104111460Y-77845647D01*
X104121390Y-77866587D01*
X104126722Y-77897782D01*
X104128837Y-77946122D01*
X104129143Y-77995647D01*
X104230542Y-77995647D01*
X104227190Y-77908568D01*
X104215274Y-77840086D01*
X104192865Y-77788600D01*
X104157876Y-77748443D01*
X104130625Y-77727861D01*
X104081093Y-77705625D01*
X104023684Y-77695304D01*
X103970318Y-77698067D01*
X103940457Y-77709212D01*
X103928739Y-77712383D01*
X103920963Y-77700557D01*
X103915535Y-77668866D01*
X103911429Y-77620593D01*
X103906933Y-77566829D01*
X103900687Y-77534482D01*
X103889324Y-77515985D01*
X103869472Y-77503770D01*
X103857000Y-77498362D01*
X103809829Y-77478601D01*
X103809883Y-77815358D01*
G36*
X104470074Y-77699755D02*
G01*
X104404142Y-77724084D01*
X104350727Y-77767117D01*
X104329836Y-77797409D01*
X104307061Y-77852994D01*
X104307534Y-77893186D01*
X104331438Y-77920217D01*
X104340283Y-77924813D01*
X104378470Y-77939144D01*
X104397972Y-77935472D01*
X104404578Y-77911407D01*
X104404914Y-77898114D01*
X104417008Y-77849210D01*
X104448529Y-77814999D01*
X104492341Y-77798476D01*
X104541305Y-77802634D01*
X104581106Y-77824227D01*
X104594550Y-77836544D01*
X104604079Y-77851487D01*
X104610515Y-77874075D01*
X104614683Y-77909328D01*
X104617403Y-77962266D01*
X104619498Y-78037907D01*
X104620040Y-78061857D01*
X104622019Y-78143790D01*
X104624269Y-78201455D01*
X104627643Y-78239608D01*
X104632994Y-78263004D01*
X104641176Y-78276398D01*
X104653041Y-78284545D01*
X104660638Y-78288144D01*
X104692898Y-78300452D01*
X104711889Y-78304514D01*
X104718164Y-78290948D01*
X104721994Y-78249934D01*
X104723400Y-78180999D01*
X104722402Y-78083669D01*
X104722092Y-78068657D01*
X104719899Y-77979859D01*
X104717307Y-77915019D01*
X104713618Y-77869067D01*
X104708136Y-77836935D01*
X104700165Y-77813553D01*
X104689007Y-77793852D01*
X104683170Y-77785410D01*
X104649704Y-77748057D01*
X104612273Y-77719003D01*
X104607691Y-77716467D01*
X104540574Y-77696443D01*
X104470074Y-77699755D01*
G37*
X104470074Y-77699755D02*
X104404142Y-77724084D01*
X104350727Y-77767117D01*
X104329836Y-77797409D01*
X104307061Y-77852994D01*
X104307534Y-77893186D01*
X104331438Y-77920217D01*
X104340283Y-77924813D01*
X104378470Y-77939144D01*
X104397972Y-77935472D01*
X104404578Y-77911407D01*
X104404914Y-77898114D01*
X104417008Y-77849210D01*
X104448529Y-77814999D01*
X104492341Y-77798476D01*
X104541305Y-77802634D01*
X104581106Y-77824227D01*
X104594550Y-77836544D01*
X104604079Y-77851487D01*
X104610515Y-77874075D01*
X104614683Y-77909328D01*
X104617403Y-77962266D01*
X104619498Y-78037907D01*
X104620040Y-78061857D01*
X104622019Y-78143790D01*
X104624269Y-78201455D01*
X104627643Y-78239608D01*
X104632994Y-78263004D01*
X104641176Y-78276398D01*
X104653041Y-78284545D01*
X104660638Y-78288144D01*
X104692898Y-78300452D01*
X104711889Y-78304514D01*
X104718164Y-78290948D01*
X104721994Y-78249934D01*
X104723400Y-78180999D01*
X104722402Y-78083669D01*
X104722092Y-78068657D01*
X104719899Y-77979859D01*
X104717307Y-77915019D01*
X104713618Y-77869067D01*
X104708136Y-77836935D01*
X104700165Y-77813553D01*
X104689007Y-77793852D01*
X104683170Y-77785410D01*
X104649704Y-77748057D01*
X104612273Y-77719003D01*
X104607691Y-77716467D01*
X104540574Y-77696443D01*
X104470074Y-77699755D01*
G36*
X104960256Y-77700968D02*
G01*
X104903384Y-77722087D01*
X104902733Y-77722493D01*
X104867560Y-77748380D01*
X104841593Y-77778633D01*
X104823330Y-77818058D01*
X104811268Y-77871462D01*
X104803904Y-77943651D01*
X104799736Y-78039432D01*
X104799371Y-78053078D01*
X104794124Y-78258842D01*
X104838284Y-78281678D01*
X104870237Y-78297110D01*
X104889530Y-78304423D01*
X104890422Y-78304514D01*
X104893761Y-78291022D01*
X104896413Y-78254626D01*
X104898044Y-78201452D01*
X104898400Y-78158393D01*
X104898408Y-78088641D01*
X104901597Y-78044837D01*
X104912712Y-78023944D01*
X104936499Y-78022925D01*
X104977704Y-78038741D01*
X105039914Y-78067815D01*
X105085659Y-78091963D01*
X105109187Y-78112913D01*
X105116104Y-78135747D01*
X105116114Y-78136877D01*
X105104701Y-78176212D01*
X105070908Y-78197462D01*
X105019191Y-78200539D01*
X104981939Y-78200006D01*
X104962297Y-78210735D01*
X104950048Y-78236505D01*
X104942998Y-78269337D01*
X104953158Y-78287966D01*
X104956983Y-78290632D01*
X104992999Y-78301340D01*
X105043434Y-78302856D01*
X105095374Y-78295759D01*
X105132178Y-78282788D01*
X105183062Y-78239585D01*
X105211986Y-78179446D01*
X105217714Y-78132462D01*
X105213343Y-78090082D01*
X105197525Y-78055488D01*
X105166203Y-78024763D01*
X105115322Y-77993990D01*
X105040824Y-77959252D01*
X105036286Y-77957288D01*
X104969179Y-77926287D01*
X104927768Y-77900862D01*
X104910019Y-77878014D01*
X104913893Y-77854745D01*
X104937357Y-77828056D01*
X104944373Y-77821914D01*
X104991370Y-77798100D01*
X105040067Y-77799103D01*
X105082478Y-77822451D01*
X105110616Y-77865675D01*
X105113231Y-77874160D01*
X105138692Y-77915308D01*
X105170999Y-77935128D01*
X105217714Y-77954770D01*
X105217714Y-77903950D01*
X105203504Y-77830082D01*
X105161325Y-77762327D01*
X105139376Y-77739661D01*
X105089483Y-77710569D01*
X105026033Y-77697400D01*
X104960256Y-77700968D01*
G37*
X104960256Y-77700968D02*
X104903384Y-77722087D01*
X104902733Y-77722493D01*
X104867560Y-77748380D01*
X104841593Y-77778633D01*
X104823330Y-77818058D01*
X104811268Y-77871462D01*
X104803904Y-77943651D01*
X104799736Y-78039432D01*
X104799371Y-78053078D01*
X104794124Y-78258842D01*
X104838284Y-78281678D01*
X104870237Y-78297110D01*
X104889530Y-78304423D01*
X104890422Y-78304514D01*
X104893761Y-78291022D01*
X104896413Y-78254626D01*
X104898044Y-78201452D01*
X104898400Y-78158393D01*
X104898408Y-78088641D01*
X104901597Y-78044837D01*
X104912712Y-78023944D01*
X104936499Y-78022925D01*
X104977704Y-78038741D01*
X105039914Y-78067815D01*
X105085659Y-78091963D01*
X105109187Y-78112913D01*
X105116104Y-78135747D01*
X105116114Y-78136877D01*
X105104701Y-78176212D01*
X105070908Y-78197462D01*
X105019191Y-78200539D01*
X104981939Y-78200006D01*
X104962297Y-78210735D01*
X104950048Y-78236505D01*
X104942998Y-78269337D01*
X104953158Y-78287966D01*
X104956983Y-78290632D01*
X104992999Y-78301340D01*
X105043434Y-78302856D01*
X105095374Y-78295759D01*
X105132178Y-78282788D01*
X105183062Y-78239585D01*
X105211986Y-78179446D01*
X105217714Y-78132462D01*
X105213343Y-78090082D01*
X105197525Y-78055488D01*
X105166203Y-78024763D01*
X105115322Y-77993990D01*
X105040824Y-77959252D01*
X105036286Y-77957288D01*
X104969179Y-77926287D01*
X104927768Y-77900862D01*
X104910019Y-77878014D01*
X104913893Y-77854745D01*
X104937357Y-77828056D01*
X104944373Y-77821914D01*
X104991370Y-77798100D01*
X105040067Y-77799103D01*
X105082478Y-77822451D01*
X105110616Y-77865675D01*
X105113231Y-77874160D01*
X105138692Y-77915308D01*
X105170999Y-77935128D01*
X105217714Y-77954770D01*
X105217714Y-77903950D01*
X105203504Y-77830082D01*
X105161325Y-77762327D01*
X105139376Y-77739661D01*
X105089483Y-77710569D01*
X105026033Y-77697400D01*
X104960256Y-77700968D01*
G36*
X105624114Y-77601289D02*
G01*
X105619861Y-77660613D01*
X105614975Y-77695572D01*
X105608205Y-77710820D01*
X105598298Y-77711015D01*
X105595086Y-77709195D01*
X105552356Y-77696015D01*
X105496773Y-77696785D01*
X105440263Y-77710333D01*
X105404918Y-77727861D01*
X105368679Y-77755861D01*
X105342187Y-77787549D01*
X105324001Y-77827813D01*
X105312678Y-77881543D01*
X105306778Y-77953626D01*
X105304857Y-78048951D01*
X105304823Y-78067237D01*
X105304800Y-78272646D01*
X105350509Y-78288580D01*
X105382973Y-78299420D01*
X105400785Y-78304468D01*
X105401309Y-78304514D01*
X105403063Y-78290828D01*
X105404556Y-78253076D01*
X105405674Y-78196224D01*
X105406303Y-78125234D01*
X105406400Y-78082073D01*
X105406602Y-77996973D01*
X105407642Y-77935981D01*
X105410169Y-77894177D01*
X105414836Y-77866642D01*
X105422293Y-77848456D01*
X105433189Y-77834698D01*
X105439993Y-77828073D01*
X105486728Y-77801375D01*
X105537728Y-77799375D01*
X105583999Y-77821955D01*
X105592556Y-77830107D01*
X105605107Y-77845436D01*
X105613812Y-77863618D01*
X105619369Y-77889909D01*
X105622474Y-77929562D01*
X105623824Y-77987832D01*
X105624114Y-78068173D01*
X105624114Y-78272646D01*
X105669823Y-78288580D01*
X105702287Y-78299420D01*
X105720099Y-78304468D01*
X105720623Y-78304514D01*
X105721963Y-78290623D01*
X105723172Y-78251439D01*
X105724199Y-78190700D01*
X105724998Y-78112141D01*
X105725519Y-78019498D01*
X105725714Y-77916509D01*
X105725714Y-77519342D01*
X105678543Y-77499444D01*
X105631371Y-77479547D01*
X105624114Y-77601289D01*
G37*
X105624114Y-77601289D02*
X105619861Y-77660613D01*
X105614975Y-77695572D01*
X105608205Y-77710820D01*
X105598298Y-77711015D01*
X105595086Y-77709195D01*
X105552356Y-77696015D01*
X105496773Y-77696785D01*
X105440263Y-77710333D01*
X105404918Y-77727861D01*
X105368679Y-77755861D01*
X105342187Y-77787549D01*
X105324001Y-77827813D01*
X105312678Y-77881543D01*
X105306778Y-77953626D01*
X105304857Y-78048951D01*
X105304823Y-78067237D01*
X105304800Y-78272646D01*
X105350509Y-78288580D01*
X105382973Y-78299420D01*
X105400785Y-78304468D01*
X105401309Y-78304514D01*
X105403063Y-78290828D01*
X105404556Y-78253076D01*
X105405674Y-78196224D01*
X105406303Y-78125234D01*
X105406400Y-78082073D01*
X105406602Y-77996973D01*
X105407642Y-77935981D01*
X105410169Y-77894177D01*
X105414836Y-77866642D01*
X105422293Y-77848456D01*
X105433189Y-77834698D01*
X105439993Y-77828073D01*
X105486728Y-77801375D01*
X105537728Y-77799375D01*
X105583999Y-77821955D01*
X105592556Y-77830107D01*
X105605107Y-77845436D01*
X105613812Y-77863618D01*
X105619369Y-77889909D01*
X105622474Y-77929562D01*
X105623824Y-77987832D01*
X105624114Y-78068173D01*
X105624114Y-78272646D01*
X105669823Y-78288580D01*
X105702287Y-78299420D01*
X105720099Y-78304468D01*
X105720623Y-78304514D01*
X105721963Y-78290623D01*
X105723172Y-78251439D01*
X105724199Y-78190700D01*
X105724998Y-78112141D01*
X105725519Y-78019498D01*
X105725714Y-77916509D01*
X105725714Y-77519342D01*
X105678543Y-77499444D01*
X105631371Y-77479547D01*
X105624114Y-77601289D01*
G36*
X106831697Y-77681239D02*
G01*
X106774473Y-77719735D01*
X106730251Y-77775335D01*
X106703833Y-77846086D01*
X106698490Y-77898162D01*
X106699097Y-77919893D01*
X106704178Y-77936531D01*
X106718145Y-77951437D01*
X106745411Y-77967973D01*
X106790388Y-77989498D01*
X106857489Y-78019374D01*
X106857829Y-78019524D01*
X106919593Y-78047813D01*
X106970241Y-78072933D01*
X107004596Y-78092179D01*
X107017482Y-78102848D01*
X107017486Y-78102934D01*
X107006128Y-78126166D01*
X106979569Y-78151774D01*
X106949077Y-78170221D01*
X106933630Y-78173886D01*
X106891485Y-78161212D01*
X106855192Y-78129471D01*
X106837483Y-78094572D01*
X106820448Y-78068845D01*
X106787078Y-78039546D01*
X106747851Y-78014235D01*
X106713244Y-78000471D01*
X106706007Y-77999714D01*
X106697861Y-78012160D01*
X106697370Y-78043972D01*
X106703357Y-78086866D01*
X106714643Y-78132558D01*
X106730050Y-78172761D01*
X106730829Y-78174322D01*
X106777196Y-78239062D01*
X106837289Y-78283097D01*
X106905535Y-78304711D01*
X106976362Y-78302185D01*
X107044196Y-78273804D01*
X107047212Y-78271808D01*
X107100573Y-78223448D01*
X107135660Y-78160352D01*
X107155078Y-78077387D01*
X107157684Y-78054078D01*
X107162299Y-77944055D01*
X107156767Y-77892748D01*
X107017486Y-77892748D01*
X107015676Y-77924753D01*
X107005778Y-77934093D01*
X106981102Y-77927105D01*
X106942205Y-77910587D01*
X106898725Y-77889881D01*
X106897644Y-77889333D01*
X106860791Y-77869949D01*
X106846000Y-77857013D01*
X106849647Y-77843451D01*
X106865005Y-77825632D01*
X106904077Y-77799845D01*
X106946154Y-77797950D01*
X106983897Y-77816717D01*
X107009966Y-77852915D01*
X107017486Y-77892748D01*
X107156767Y-77892748D01*
X107152806Y-77856027D01*
X107128450Y-77786212D01*
X107094544Y-77737302D01*
X107033347Y-77687878D01*
X106965937Y-77663359D01*
X106897120Y-77661797D01*
X106831697Y-77681239D01*
G37*
X106831697Y-77681239D02*
X106774473Y-77719735D01*
X106730251Y-77775335D01*
X106703833Y-77846086D01*
X106698490Y-77898162D01*
X106699097Y-77919893D01*
X106704178Y-77936531D01*
X106718145Y-77951437D01*
X106745411Y-77967973D01*
X106790388Y-77989498D01*
X106857489Y-78019374D01*
X106857829Y-78019524D01*
X106919593Y-78047813D01*
X106970241Y-78072933D01*
X107004596Y-78092179D01*
X107017482Y-78102848D01*
X107017486Y-78102934D01*
X107006128Y-78126166D01*
X106979569Y-78151774D01*
X106949077Y-78170221D01*
X106933630Y-78173886D01*
X106891485Y-78161212D01*
X106855192Y-78129471D01*
X106837483Y-78094572D01*
X106820448Y-78068845D01*
X106787078Y-78039546D01*
X106747851Y-78014235D01*
X106713244Y-78000471D01*
X106706007Y-77999714D01*
X106697861Y-78012160D01*
X106697370Y-78043972D01*
X106703357Y-78086866D01*
X106714643Y-78132558D01*
X106730050Y-78172761D01*
X106730829Y-78174322D01*
X106777196Y-78239062D01*
X106837289Y-78283097D01*
X106905535Y-78304711D01*
X106976362Y-78302185D01*
X107044196Y-78273804D01*
X107047212Y-78271808D01*
X107100573Y-78223448D01*
X107135660Y-78160352D01*
X107155078Y-78077387D01*
X107157684Y-78054078D01*
X107162299Y-77944055D01*
X107156767Y-77892748D01*
X107017486Y-77892748D01*
X107015676Y-77924753D01*
X107005778Y-77934093D01*
X106981102Y-77927105D01*
X106942205Y-77910587D01*
X106898725Y-77889881D01*
X106897644Y-77889333D01*
X106860791Y-77869949D01*
X106846000Y-77857013D01*
X106849647Y-77843451D01*
X106865005Y-77825632D01*
X106904077Y-77799845D01*
X106946154Y-77797950D01*
X106983897Y-77816717D01*
X107009966Y-77852915D01*
X107017486Y-77892748D01*
X107156767Y-77892748D01*
X107152806Y-77856027D01*
X107128450Y-77786212D01*
X107094544Y-77737302D01*
X107033347Y-77687878D01*
X106965937Y-77663359D01*
X106897120Y-77661797D01*
X106831697Y-77681239D01*
G36*
X107958885Y-77671962D02*
G01*
X107890855Y-77707733D01*
X107840649Y-77765301D01*
X107822815Y-77802312D01*
X107808937Y-77857882D01*
X107801833Y-77928096D01*
X107801160Y-78004727D01*
X107806573Y-78079552D01*
X107817730Y-78144342D01*
X107834286Y-78190873D01*
X107839374Y-78198887D01*
X107899645Y-78258707D01*
X107971231Y-78294535D01*
X108048908Y-78305020D01*
X108127452Y-78288810D01*
X108149311Y-78279092D01*
X108191878Y-78249143D01*
X108229237Y-78209433D01*
X108232768Y-78204397D01*
X108247119Y-78180124D01*
X108256606Y-78154178D01*
X108262210Y-78120022D01*
X108264914Y-78071119D01*
X108265701Y-78000935D01*
X108265714Y-77985200D01*
X108265678Y-77980192D01*
X108120571Y-77980192D01*
X108119727Y-78046430D01*
X108116404Y-78090386D01*
X108109417Y-78118779D01*
X108097584Y-78138325D01*
X108091543Y-78144857D01*
X108056814Y-78169680D01*
X108023097Y-78168548D01*
X107989005Y-78147016D01*
X107968671Y-78124029D01*
X107956629Y-78090478D01*
X107949866Y-78037569D01*
X107949402Y-78031399D01*
X107948248Y-77935513D01*
X107960312Y-77864299D01*
X107985430Y-77818194D01*
X108023440Y-77797635D01*
X108037008Y-77796514D01*
X108072636Y-77802152D01*
X108097006Y-77821686D01*
X108111907Y-77859042D01*
X108119125Y-77918150D01*
X108120571Y-77980192D01*
X108265678Y-77980192D01*
X108265174Y-77910413D01*
X108262904Y-77858159D01*
X108257932Y-77821949D01*
X108249287Y-77795299D01*
X108235995Y-77771722D01*
X108233057Y-77767338D01*
X108183687Y-77708249D01*
X108129891Y-77673947D01*
X108064398Y-77660331D01*
X108042158Y-77659665D01*
X107958885Y-77671962D01*
G37*
X107958885Y-77671962D02*
X107890855Y-77707733D01*
X107840649Y-77765301D01*
X107822815Y-77802312D01*
X107808937Y-77857882D01*
X107801833Y-77928096D01*
X107801160Y-78004727D01*
X107806573Y-78079552D01*
X107817730Y-78144342D01*
X107834286Y-78190873D01*
X107839374Y-78198887D01*
X107899645Y-78258707D01*
X107971231Y-78294535D01*
X108048908Y-78305020D01*
X108127452Y-78288810D01*
X108149311Y-78279092D01*
X108191878Y-78249143D01*
X108229237Y-78209433D01*
X108232768Y-78204397D01*
X108247119Y-78180124D01*
X108256606Y-78154178D01*
X108262210Y-78120022D01*
X108264914Y-78071119D01*
X108265701Y-78000935D01*
X108265714Y-77985200D01*
X108265678Y-77980192D01*
X108120571Y-77980192D01*
X108119727Y-78046430D01*
X108116404Y-78090386D01*
X108109417Y-78118779D01*
X108097584Y-78138325D01*
X108091543Y-78144857D01*
X108056814Y-78169680D01*
X108023097Y-78168548D01*
X107989005Y-78147016D01*
X107968671Y-78124029D01*
X107956629Y-78090478D01*
X107949866Y-78037569D01*
X107949402Y-78031399D01*
X107948248Y-77935513D01*
X107960312Y-77864299D01*
X107985430Y-77818194D01*
X108023440Y-77797635D01*
X108037008Y-77796514D01*
X108072636Y-77802152D01*
X108097006Y-77821686D01*
X108111907Y-77859042D01*
X108119125Y-77918150D01*
X108120571Y-77980192D01*
X108265678Y-77980192D01*
X108265174Y-77910413D01*
X108262904Y-77858159D01*
X108257932Y-77821949D01*
X108249287Y-77795299D01*
X108235995Y-77771722D01*
X108233057Y-77767338D01*
X108183687Y-77708249D01*
X108129891Y-77673947D01*
X108064398Y-77660331D01*
X108042158Y-77659665D01*
X107958885Y-77671962D01*
G36*
X106283907Y-77677780D02*
G01*
X106237328Y-77704723D01*
X106204943Y-77731466D01*
X106181258Y-77759484D01*
X106164941Y-77793748D01*
X106154661Y-77839227D01*
X106149086Y-77900892D01*
X106146884Y-77983711D01*
X106146629Y-78043246D01*
X106146629Y-78262391D01*
X106208314Y-78290044D01*
X106270000Y-78317697D01*
X106277257Y-78077670D01*
X106280256Y-77988028D01*
X106283402Y-77922962D01*
X106287299Y-77878026D01*
X106292553Y-77848770D01*
X106299769Y-77830748D01*
X106309550Y-77819511D01*
X106312688Y-77817079D01*
X106360239Y-77798083D01*
X106408303Y-77805600D01*
X106436914Y-77825543D01*
X106448553Y-77839675D01*
X106456609Y-77858220D01*
X106461729Y-77886334D01*
X106464559Y-77929173D01*
X106465744Y-77991895D01*
X106465943Y-78057261D01*
X106465982Y-78139268D01*
X106467386Y-78197316D01*
X106472086Y-78236465D01*
X106482013Y-78261780D01*
X106499097Y-78278323D01*
X106525268Y-78291156D01*
X106560225Y-78304491D01*
X106598404Y-78319007D01*
X106593859Y-78061389D01*
X106592029Y-77968519D01*
X106589888Y-77899889D01*
X106586819Y-77850711D01*
X106582206Y-77816198D01*
X106575432Y-77791562D01*
X106565881Y-77772016D01*
X106554366Y-77754770D01*
X106498810Y-77699680D01*
X106431020Y-77667822D01*
X106357287Y-77660191D01*
X106283907Y-77677780D01*
G37*
X106283907Y-77677780D02*
X106237328Y-77704723D01*
X106204943Y-77731466D01*
X106181258Y-77759484D01*
X106164941Y-77793748D01*
X106154661Y-77839227D01*
X106149086Y-77900892D01*
X106146884Y-77983711D01*
X106146629Y-78043246D01*
X106146629Y-78262391D01*
X106208314Y-78290044D01*
X106270000Y-78317697D01*
X106277257Y-78077670D01*
X106280256Y-77988028D01*
X106283402Y-77922962D01*
X106287299Y-77878026D01*
X106292553Y-77848770D01*
X106299769Y-77830748D01*
X106309550Y-77819511D01*
X106312688Y-77817079D01*
X106360239Y-77798083D01*
X106408303Y-77805600D01*
X106436914Y-77825543D01*
X106448553Y-77839675D01*
X106456609Y-77858220D01*
X106461729Y-77886334D01*
X106464559Y-77929173D01*
X106465744Y-77991895D01*
X106465943Y-78057261D01*
X106465982Y-78139268D01*
X106467386Y-78197316D01*
X106472086Y-78236465D01*
X106482013Y-78261780D01*
X106499097Y-78278323D01*
X106525268Y-78291156D01*
X106560225Y-78304491D01*
X106598404Y-78319007D01*
X106593859Y-78061389D01*
X106592029Y-77968519D01*
X106589888Y-77899889D01*
X106586819Y-77850711D01*
X106582206Y-77816198D01*
X106575432Y-77791562D01*
X106565881Y-77772016D01*
X106554366Y-77754770D01*
X106498810Y-77699680D01*
X106431020Y-77667822D01*
X106357287Y-77660191D01*
X106283907Y-77677780D01*
G36*
X107400256Y-77669918D02*
G01*
X107344799Y-77697568D01*
X107295852Y-77748480D01*
X107282371Y-77767338D01*
X107267686Y-77792015D01*
X107258158Y-77818816D01*
X107252707Y-77854587D01*
X107250253Y-77906169D01*
X107249714Y-77974267D01*
X107252148Y-78067588D01*
X107260606Y-78137657D01*
X107276826Y-78189931D01*
X107302546Y-78229869D01*
X107339503Y-78262929D01*
X107342218Y-78264886D01*
X107378640Y-78284908D01*
X107422498Y-78294815D01*
X107478276Y-78297257D01*
X107568952Y-78297257D01*
X107568990Y-78385283D01*
X107569834Y-78434308D01*
X107574976Y-78463065D01*
X107588413Y-78480311D01*
X107614142Y-78494808D01*
X107620321Y-78497769D01*
X107649236Y-78511648D01*
X107671624Y-78520414D01*
X107688271Y-78521171D01*
X107699964Y-78511023D01*
X107707490Y-78487073D01*
X107711634Y-78446426D01*
X107713185Y-78386186D01*
X107712929Y-78303455D01*
X107711651Y-78195339D01*
X107711252Y-78163000D01*
X107709815Y-78051524D01*
X107708528Y-77978603D01*
X107569029Y-77978603D01*
X107568245Y-78040499D01*
X107564760Y-78080997D01*
X107556876Y-78107708D01*
X107542895Y-78128244D01*
X107533403Y-78138260D01*
X107494596Y-78167567D01*
X107460237Y-78169952D01*
X107424784Y-78145750D01*
X107423886Y-78144857D01*
X107409461Y-78126153D01*
X107400687Y-78100732D01*
X107396261Y-78061584D01*
X107394882Y-78001697D01*
X107394857Y-77988430D01*
X107398188Y-77905901D01*
X107409031Y-77848691D01*
X107428660Y-77813766D01*
X107458350Y-77798094D01*
X107475509Y-77796514D01*
X107516234Y-77803926D01*
X107544168Y-77828330D01*
X107560983Y-77872980D01*
X107568350Y-77941130D01*
X107569029Y-77978603D01*
X107708528Y-77978603D01*
X107708292Y-77965245D01*
X107706323Y-77900333D01*
X107703550Y-77852958D01*
X107699612Y-77819290D01*
X107694151Y-77795498D01*
X107686808Y-77777753D01*
X107677223Y-77762224D01*
X107673113Y-77756381D01*
X107618595Y-77701185D01*
X107549664Y-77669890D01*
X107469928Y-77661165D01*
X107400256Y-77669918D01*
G37*
X107400256Y-77669918D02*
X107344799Y-77697568D01*
X107295852Y-77748480D01*
X107282371Y-77767338D01*
X107267686Y-77792015D01*
X107258158Y-77818816D01*
X107252707Y-77854587D01*
X107250253Y-77906169D01*
X107249714Y-77974267D01*
X107252148Y-78067588D01*
X107260606Y-78137657D01*
X107276826Y-78189931D01*
X107302546Y-78229869D01*
X107339503Y-78262929D01*
X107342218Y-78264886D01*
X107378640Y-78284908D01*
X107422498Y-78294815D01*
X107478276Y-78297257D01*
X107568952Y-78297257D01*
X107568990Y-78385283D01*
X107569834Y-78434308D01*
X107574976Y-78463065D01*
X107588413Y-78480311D01*
X107614142Y-78494808D01*
X107620321Y-78497769D01*
X107649236Y-78511648D01*
X107671624Y-78520414D01*
X107688271Y-78521171D01*
X107699964Y-78511023D01*
X107707490Y-78487073D01*
X107711634Y-78446426D01*
X107713185Y-78386186D01*
X107712929Y-78303455D01*
X107711651Y-78195339D01*
X107711252Y-78163000D01*
X107709815Y-78051524D01*
X107708528Y-77978603D01*
X107569029Y-77978603D01*
X107568245Y-78040499D01*
X107564760Y-78080997D01*
X107556876Y-78107708D01*
X107542895Y-78128244D01*
X107533403Y-78138260D01*
X107494596Y-78167567D01*
X107460237Y-78169952D01*
X107424784Y-78145750D01*
X107423886Y-78144857D01*
X107409461Y-78126153D01*
X107400687Y-78100732D01*
X107396261Y-78061584D01*
X107394882Y-78001697D01*
X107394857Y-77988430D01*
X107398188Y-77905901D01*
X107409031Y-77848691D01*
X107428660Y-77813766D01*
X107458350Y-77798094D01*
X107475509Y-77796514D01*
X107516234Y-77803926D01*
X107544168Y-77828330D01*
X107560983Y-77872980D01*
X107568350Y-77941130D01*
X107569029Y-77978603D01*
X107708528Y-77978603D01*
X107708292Y-77965245D01*
X107706323Y-77900333D01*
X107703550Y-77852958D01*
X107699612Y-77819290D01*
X107694151Y-77795498D01*
X107686808Y-77777753D01*
X107677223Y-77762224D01*
X107673113Y-77756381D01*
X107618595Y-77701185D01*
X107549664Y-77669890D01*
X107469928Y-77661165D01*
X107400256Y-77669918D01*
%TD*%
M02*
