M48
; DRILL file {KiCad (5.1.12-1-g0a0a2da680)-1} date 03/21/23 19:15:26
; FORMAT={-:-/ absolute / metric / decimal}
; #@! TF.CreationDate,2023-03-21T19:15:26+01:00
; #@! TF.GenerationSoftware,Kicad,Pcbnew,(5.1.12-1-g0a0a2da680)-1
FMAT,2
METRIC
T1C0.400
T2C1.067
T3C1.100
T4C1.520
T5C1.900
T6C3.200
%
G90
G05
T1
X90.5Y-70.75
X90.75Y-73.25
X91.75Y-80.75
X94.5Y-79.0
X96.25Y-81.25
X96.5Y-69.5
X96.513Y-77.987
X98.75Y-71.75
X99.75Y-65.5
X100.75Y-56.5
X101.5Y-76.25
X102.2Y-56.4
X103.982Y-56.808
X104.5Y-72.0
X104.75Y-60.25
X104.75Y-61.5
X105.0Y-68.75
X105.2Y-57.0
X105.5Y-76.5
X105.75Y-56.0
X106.5Y-69.0
X107.5Y-81.875
X108.5Y-56.0
X108.506Y-58.744
X108.75Y-60.5
X109.0Y-65.5
X109.4Y-57.9
X111.25Y-57.0
X111.689Y-58.744
X112.9Y-70.1
X113.0Y-75.0
X113.25Y-64.75
X113.25Y-80.0
X114.178Y-69.127
X115.451Y-60.393
X115.6Y-71.8
X115.75Y-62.5
X115.9Y-69.8
X116.1Y-54.5
X116.2Y-72.9
X116.4Y-66.7
X116.6Y-57.6
X117.25Y-56.0
X121.4Y-61.8
T2
X116.59Y-59.319
X116.59Y-61.351
X121.67Y-60.335
T3
X88.75Y-62.25
X88.75Y-65.75
X88.75Y-69.25
X88.75Y-72.75
T4
X118.75Y-63.58
X118.75Y-74.82
T5
X122.75Y-63.58
X122.75Y-74.82
T6
X88.0Y-55.5
X88.0Y-79.5
X122.0Y-55.5
X122.0Y-79.5
T0
M30
