%TF.GenerationSoftware,KiCad,Pcbnew,(5.1.12-1-g0a0a2da680)-1*%
%TF.CreationDate,2023-03-21T19:15:17+01:00*%
%TF.ProjectId,ThermoDeviceLogger,54686572-6d6f-4446-9576-6963654c6f67,rev?*%
%TF.SameCoordinates,Original*%
%TF.FileFunction,Legend,Top*%
%TF.FilePolarity,Positive*%
%FSLAX46Y46*%
G04 Gerber Fmt 4.6, Leading zero omitted, Abs format (unit mm)*
G04 Created by KiCad (PCBNEW (5.1.12-1-g0a0a2da680)-1) date 2023-03-21 19:15:17*
%MOMM*%
%LPD*%
G01*
G04 APERTURE LIST*
%ADD10C,0.200000*%
%ADD11C,0.100000*%
%ADD12C,0.120000*%
%ADD13C,0.254000*%
%ADD14C,0.250000*%
%ADD15C,0.150000*%
G04 APERTURE END LIST*
D10*
%TO.C,USB-C*%
X124850000Y-64730000D02*
X124600000Y-64730000D01*
X124850000Y-73670000D02*
X124850000Y-64730000D01*
X124600000Y-73670000D02*
X124850000Y-73670000D01*
X116400000Y-72400000D02*
X116400000Y-72400000D01*
X116500000Y-72400000D02*
X116500000Y-72400000D01*
X116400000Y-72400000D02*
X116400000Y-72400000D01*
X116500000Y-72400000D02*
G75*
G02*
X116400000Y-72400000I-50000J0D01*
G01*
X116400000Y-72400000D02*
G75*
G02*
X116500000Y-72400000I50000J0D01*
G01*
X116500000Y-72400000D02*
G75*
G02*
X116400000Y-72400000I-50000J0D01*
G01*
%TO.C,D1*%
X97050000Y-70100000D02*
X99600000Y-70100000D01*
X97900000Y-71400000D02*
X99600000Y-71400000D01*
%TO.C,D2*%
X106638000Y-70100000D02*
X109188000Y-70100000D01*
X107488000Y-71400000D02*
X109188000Y-71400000D01*
%TO.C,D3*%
X105244000Y-71400000D02*
X102694000Y-71400000D01*
X104394000Y-70100000D02*
X102694000Y-70100000D01*
%TO.C,IC1*%
X100500000Y-59525000D02*
X100500000Y-62975000D01*
X100500000Y-62975000D02*
X94000000Y-62975000D01*
X94000000Y-62975000D02*
X94000000Y-59525000D01*
X94000000Y-59525000D02*
X100500000Y-59525000D01*
X100350000Y-57225000D02*
X100350000Y-59175000D01*
%TO.C,IC2*%
X97050000Y-77350000D02*
X97050000Y-74150000D01*
X97050000Y-74150000D02*
X101950000Y-74150000D01*
X101950000Y-74150000D02*
X101950000Y-77350000D01*
X101950000Y-77350000D02*
X97050000Y-77350000D01*
X96920000Y-79225000D02*
X96920000Y-77700000D01*
%TO.C,IC3*%
X105300000Y-77350000D02*
X105300000Y-74150000D01*
X105300000Y-74150000D02*
X110200000Y-74150000D01*
X110200000Y-74150000D02*
X110200000Y-77350000D01*
X110200000Y-77350000D02*
X105300000Y-77350000D01*
X105170000Y-79225000D02*
X105170000Y-77700000D01*
%TO.C,ICSP*%
X120490000Y-58821000D02*
G75*
G03*
X120490000Y-58821000I-63000J0D01*
G01*
D11*
%TO.C,J1*%
X92450000Y-60250000D02*
X92450000Y-74750000D01*
X92450000Y-74750000D02*
X85150000Y-74750000D01*
X85150000Y-74750000D02*
X85150000Y-60250000D01*
X85150000Y-60250000D02*
X92450000Y-60250000D01*
X88750000Y-56550000D02*
X88750000Y-56550000D01*
X88750000Y-56650000D02*
X88750000Y-56650000D01*
X88750000Y-56550000D02*
X88750000Y-56550000D01*
X88750000Y-56650000D02*
G75*
G02*
X88750000Y-56550000I0J50000D01*
G01*
X88750000Y-56550000D02*
G75*
G02*
X88750000Y-56650000I0J-50000D01*
G01*
X88750000Y-56650000D02*
G75*
G02*
X88750000Y-56550000I0J50000D01*
G01*
D10*
%TO.C,LED1*%
X101550000Y-68300000D02*
X104250000Y-68300000D01*
X104250000Y-68300000D02*
X104250000Y-66200000D01*
X104250000Y-66200000D02*
X101550000Y-66200000D01*
%TO.C,LED2*%
X108700000Y-66200000D02*
X106000000Y-66200000D01*
X106000000Y-66200000D02*
X106000000Y-68300000D01*
X106000000Y-68300000D02*
X108700000Y-68300000D01*
%TO.C,R1*%
X106950000Y-55025000D02*
X106950000Y-53975000D01*
%TO.C,R2*%
X98000000Y-67815000D02*
X98000000Y-66765000D01*
%TO.C,R3*%
X112250000Y-67775000D02*
X112250000Y-66725000D01*
%TO.C,R4*%
X110975000Y-74000000D02*
X112025000Y-74000000D01*
%TO.C,R5*%
X95225000Y-75750000D02*
X96275000Y-75750000D01*
%TO.C,R6*%
X102725000Y-74050000D02*
X103775000Y-74050000D01*
D11*
%TO.C,Y1*%
X102350000Y-56850000D02*
X102350000Y-56850000D01*
X102350000Y-56750000D02*
X102350000Y-56750000D01*
X102350000Y-56850000D02*
G75*
G02*
X102350000Y-56750000I0J50000D01*
G01*
X102350000Y-56750000D02*
G75*
G02*
X102350000Y-56850000I0J-50000D01*
G01*
D12*
%TO.C,U1*%
X110250000Y-63460000D02*
X113010000Y-63460000D01*
X113010000Y-63460000D02*
X113010000Y-63185000D01*
X110250000Y-63460000D02*
X107490000Y-63460000D01*
X107490000Y-63460000D02*
X107490000Y-63185000D01*
X110250000Y-56040000D02*
X113010000Y-56040000D01*
X113010000Y-56040000D02*
X113010000Y-56315000D01*
X110250000Y-56040000D02*
X107490000Y-56040000D01*
X107490000Y-56040000D02*
X107490000Y-56315000D01*
X107490000Y-56315000D02*
X105800000Y-56315000D01*
%TO.C,USB-C*%
D13*
X115204523Y-72123809D02*
X116232619Y-72123809D01*
X116353571Y-72063333D01*
X116414047Y-72002857D01*
X116474523Y-71881904D01*
X116474523Y-71640000D01*
X116414047Y-71519047D01*
X116353571Y-71458571D01*
X116232619Y-71398095D01*
X115204523Y-71398095D01*
X116414047Y-70853809D02*
X116474523Y-70672380D01*
X116474523Y-70370000D01*
X116414047Y-70249047D01*
X116353571Y-70188571D01*
X116232619Y-70128095D01*
X116111666Y-70128095D01*
X115990714Y-70188571D01*
X115930238Y-70249047D01*
X115869761Y-70370000D01*
X115809285Y-70611904D01*
X115748809Y-70732857D01*
X115688333Y-70793333D01*
X115567380Y-70853809D01*
X115446428Y-70853809D01*
X115325476Y-70793333D01*
X115265000Y-70732857D01*
X115204523Y-70611904D01*
X115204523Y-70309523D01*
X115265000Y-70128095D01*
X115809285Y-69160476D02*
X115869761Y-68979047D01*
X115930238Y-68918571D01*
X116051190Y-68858095D01*
X116232619Y-68858095D01*
X116353571Y-68918571D01*
X116414047Y-68979047D01*
X116474523Y-69100000D01*
X116474523Y-69583809D01*
X115204523Y-69583809D01*
X115204523Y-69160476D01*
X115265000Y-69039523D01*
X115325476Y-68979047D01*
X115446428Y-68918571D01*
X115567380Y-68918571D01*
X115688333Y-68979047D01*
X115748809Y-69039523D01*
X115809285Y-69160476D01*
X115809285Y-69583809D01*
X115990714Y-68313809D02*
X115990714Y-67346190D01*
X116353571Y-66015714D02*
X116414047Y-66076190D01*
X116474523Y-66257619D01*
X116474523Y-66378571D01*
X116414047Y-66560000D01*
X116293095Y-66680952D01*
X116172142Y-66741428D01*
X115930238Y-66801904D01*
X115748809Y-66801904D01*
X115506904Y-66741428D01*
X115385952Y-66680952D01*
X115265000Y-66560000D01*
X115204523Y-66378571D01*
X115204523Y-66257619D01*
X115265000Y-66076190D01*
X115325476Y-66015714D01*
%TO.C,C1*%
D14*
X98633333Y-54257142D02*
X98585714Y-54304761D01*
X98442857Y-54352380D01*
X98347619Y-54352380D01*
X98204761Y-54304761D01*
X98109523Y-54209523D01*
X98061904Y-54114285D01*
X98014285Y-53923809D01*
X98014285Y-53780952D01*
X98061904Y-53590476D01*
X98109523Y-53495238D01*
X98204761Y-53400000D01*
X98347619Y-53352380D01*
X98442857Y-53352380D01*
X98585714Y-53400000D01*
X98633333Y-53447619D01*
X99585714Y-54352380D02*
X99014285Y-54352380D01*
X99300000Y-54352380D02*
X99300000Y-53352380D01*
X99204761Y-53495238D01*
X99109523Y-53590476D01*
X99014285Y-53638095D01*
D13*
%TO.C,C2*%
D14*
X95433333Y-54257142D02*
X95385714Y-54304761D01*
X95242857Y-54352380D01*
X95147619Y-54352380D01*
X95004761Y-54304761D01*
X94909523Y-54209523D01*
X94861904Y-54114285D01*
X94814285Y-53923809D01*
X94814285Y-53780952D01*
X94861904Y-53590476D01*
X94909523Y-53495238D01*
X95004761Y-53400000D01*
X95147619Y-53352380D01*
X95242857Y-53352380D01*
X95385714Y-53400000D01*
X95433333Y-53447619D01*
X95814285Y-53447619D02*
X95861904Y-53400000D01*
X95957142Y-53352380D01*
X96195238Y-53352380D01*
X96290476Y-53400000D01*
X96338095Y-53447619D01*
X96385714Y-53542857D01*
X96385714Y-53638095D01*
X96338095Y-53780952D01*
X95766666Y-54352380D01*
X96385714Y-54352380D01*
D13*
%TO.C,C3*%
D14*
X110333333Y-53557142D02*
X110285714Y-53604761D01*
X110142857Y-53652380D01*
X110047619Y-53652380D01*
X109904761Y-53604761D01*
X109809523Y-53509523D01*
X109761904Y-53414285D01*
X109714285Y-53223809D01*
X109714285Y-53080952D01*
X109761904Y-52890476D01*
X109809523Y-52795238D01*
X109904761Y-52700000D01*
X110047619Y-52652380D01*
X110142857Y-52652380D01*
X110285714Y-52700000D01*
X110333333Y-52747619D01*
X110666666Y-52652380D02*
X111285714Y-52652380D01*
X110952380Y-53033333D01*
X111095238Y-53033333D01*
X111190476Y-53080952D01*
X111238095Y-53128571D01*
X111285714Y-53223809D01*
X111285714Y-53461904D01*
X111238095Y-53557142D01*
X111190476Y-53604761D01*
X111095238Y-53652380D01*
X110809523Y-53652380D01*
X110714285Y-53604761D01*
X110666666Y-53557142D01*
D13*
%TO.C,C4*%
D14*
X113583333Y-53557142D02*
X113535714Y-53604761D01*
X113392857Y-53652380D01*
X113297619Y-53652380D01*
X113154761Y-53604761D01*
X113059523Y-53509523D01*
X113011904Y-53414285D01*
X112964285Y-53223809D01*
X112964285Y-53080952D01*
X113011904Y-52890476D01*
X113059523Y-52795238D01*
X113154761Y-52700000D01*
X113297619Y-52652380D01*
X113392857Y-52652380D01*
X113535714Y-52700000D01*
X113583333Y-52747619D01*
X114440476Y-52985714D02*
X114440476Y-53652380D01*
X114202380Y-52604761D02*
X113964285Y-53319047D01*
X114583333Y-53319047D01*
D13*
%TO.C,C5*%
D14*
X102833333Y-53757142D02*
X102785714Y-53804761D01*
X102642857Y-53852380D01*
X102547619Y-53852380D01*
X102404761Y-53804761D01*
X102309523Y-53709523D01*
X102261904Y-53614285D01*
X102214285Y-53423809D01*
X102214285Y-53280952D01*
X102261904Y-53090476D01*
X102309523Y-52995238D01*
X102404761Y-52900000D01*
X102547619Y-52852380D01*
X102642857Y-52852380D01*
X102785714Y-52900000D01*
X102833333Y-52947619D01*
X103738095Y-52852380D02*
X103261904Y-52852380D01*
X103214285Y-53328571D01*
X103261904Y-53280952D01*
X103357142Y-53233333D01*
X103595238Y-53233333D01*
X103690476Y-53280952D01*
X103738095Y-53328571D01*
X103785714Y-53423809D01*
X103785714Y-53661904D01*
X103738095Y-53757142D01*
X103690476Y-53804761D01*
X103595238Y-53852380D01*
X103357142Y-53852380D01*
X103261904Y-53804761D01*
X103214285Y-53757142D01*
D13*
%TO.C,C6*%
D14*
X102833333Y-62257142D02*
X102785714Y-62304761D01*
X102642857Y-62352380D01*
X102547619Y-62352380D01*
X102404761Y-62304761D01*
X102309523Y-62209523D01*
X102261904Y-62114285D01*
X102214285Y-61923809D01*
X102214285Y-61780952D01*
X102261904Y-61590476D01*
X102309523Y-61495238D01*
X102404761Y-61400000D01*
X102547619Y-61352380D01*
X102642857Y-61352380D01*
X102785714Y-61400000D01*
X102833333Y-61447619D01*
X103690476Y-61352380D02*
X103500000Y-61352380D01*
X103404761Y-61400000D01*
X103357142Y-61447619D01*
X103261904Y-61590476D01*
X103214285Y-61780952D01*
X103214285Y-62161904D01*
X103261904Y-62257142D01*
X103309523Y-62304761D01*
X103404761Y-62352380D01*
X103595238Y-62352380D01*
X103690476Y-62304761D01*
X103738095Y-62257142D01*
X103785714Y-62161904D01*
X103785714Y-61923809D01*
X103738095Y-61828571D01*
X103690476Y-61780952D01*
X103595238Y-61733333D01*
X103404761Y-61733333D01*
X103309523Y-61780952D01*
X103261904Y-61828571D01*
X103214285Y-61923809D01*
D13*
%TO.C,C7*%
D14*
X104957142Y-77966666D02*
X105004761Y-78014285D01*
X105052380Y-78157142D01*
X105052380Y-78252380D01*
X105004761Y-78395238D01*
X104909523Y-78490476D01*
X104814285Y-78538095D01*
X104623809Y-78585714D01*
X104480952Y-78585714D01*
X104290476Y-78538095D01*
X104195238Y-78490476D01*
X104100000Y-78395238D01*
X104052380Y-78252380D01*
X104052380Y-78157142D01*
X104100000Y-78014285D01*
X104147619Y-77966666D01*
X104052380Y-77633333D02*
X104052380Y-76966666D01*
X105052380Y-77395238D01*
D13*
%TO.C,C8*%
D14*
X113457142Y-77916666D02*
X113504761Y-77964285D01*
X113552380Y-78107142D01*
X113552380Y-78202380D01*
X113504761Y-78345238D01*
X113409523Y-78440476D01*
X113314285Y-78488095D01*
X113123809Y-78535714D01*
X112980952Y-78535714D01*
X112790476Y-78488095D01*
X112695238Y-78440476D01*
X112600000Y-78345238D01*
X112552380Y-78202380D01*
X112552380Y-78107142D01*
X112600000Y-77964285D01*
X112647619Y-77916666D01*
X112980952Y-77345238D02*
X112933333Y-77440476D01*
X112885714Y-77488095D01*
X112790476Y-77535714D01*
X112742857Y-77535714D01*
X112647619Y-77488095D01*
X112600000Y-77440476D01*
X112552380Y-77345238D01*
X112552380Y-77154761D01*
X112600000Y-77059523D01*
X112647619Y-77011904D01*
X112742857Y-76964285D01*
X112790476Y-76964285D01*
X112885714Y-77011904D01*
X112933333Y-77059523D01*
X112980952Y-77154761D01*
X112980952Y-77345238D01*
X113028571Y-77440476D01*
X113076190Y-77488095D01*
X113171428Y-77535714D01*
X113361904Y-77535714D01*
X113457142Y-77488095D01*
X113504761Y-77440476D01*
X113552380Y-77345238D01*
X113552380Y-77154761D01*
X113504761Y-77059523D01*
X113457142Y-77011904D01*
X113361904Y-76964285D01*
X113171428Y-76964285D01*
X113076190Y-77011904D01*
X113028571Y-77059523D01*
X112980952Y-77154761D01*
D13*
%TO.C,D1*%
D14*
X98011904Y-69752380D02*
X98011904Y-68752380D01*
X98250000Y-68752380D01*
X98392857Y-68800000D01*
X98488095Y-68895238D01*
X98535714Y-68990476D01*
X98583333Y-69180952D01*
X98583333Y-69323809D01*
X98535714Y-69514285D01*
X98488095Y-69609523D01*
X98392857Y-69704761D01*
X98250000Y-69752380D01*
X98011904Y-69752380D01*
X99535714Y-69752380D02*
X98964285Y-69752380D01*
X99250000Y-69752380D02*
X99250000Y-68752380D01*
X99154761Y-68895238D01*
X99059523Y-68990476D01*
X98964285Y-69038095D01*
D13*
%TO.C,D2*%
D14*
X107599904Y-69752380D02*
X107599904Y-68752380D01*
X107838000Y-68752380D01*
X107980857Y-68800000D01*
X108076095Y-68895238D01*
X108123714Y-68990476D01*
X108171333Y-69180952D01*
X108171333Y-69323809D01*
X108123714Y-69514285D01*
X108076095Y-69609523D01*
X107980857Y-69704761D01*
X107838000Y-69752380D01*
X107599904Y-69752380D01*
X108552285Y-68847619D02*
X108599904Y-68800000D01*
X108695142Y-68752380D01*
X108933238Y-68752380D01*
X109028476Y-68800000D01*
X109076095Y-68847619D01*
X109123714Y-68942857D01*
X109123714Y-69038095D01*
X109076095Y-69180952D01*
X108504666Y-69752380D01*
X109123714Y-69752380D01*
D13*
%TO.C,D3*%
D14*
X102805904Y-69752380D02*
X102805904Y-68752380D01*
X103044000Y-68752380D01*
X103186857Y-68800000D01*
X103282095Y-68895238D01*
X103329714Y-68990476D01*
X103377333Y-69180952D01*
X103377333Y-69323809D01*
X103329714Y-69514285D01*
X103282095Y-69609523D01*
X103186857Y-69704761D01*
X103044000Y-69752380D01*
X102805904Y-69752380D01*
X103710666Y-68752380D02*
X104329714Y-68752380D01*
X103996380Y-69133333D01*
X104139238Y-69133333D01*
X104234476Y-69180952D01*
X104282095Y-69228571D01*
X104329714Y-69323809D01*
X104329714Y-69561904D01*
X104282095Y-69657142D01*
X104234476Y-69704761D01*
X104139238Y-69752380D01*
X103853523Y-69752380D01*
X103758285Y-69704761D01*
X103710666Y-69657142D01*
D13*
%TO.C,FB1*%
D14*
X109356666Y-81828571D02*
X109023333Y-81828571D01*
X109023333Y-82352380D02*
X109023333Y-81352380D01*
X109499523Y-81352380D01*
X110213809Y-81828571D02*
X110356666Y-81876190D01*
X110404285Y-81923809D01*
X110451904Y-82019047D01*
X110451904Y-82161904D01*
X110404285Y-82257142D01*
X110356666Y-82304761D01*
X110261428Y-82352380D01*
X109880476Y-82352380D01*
X109880476Y-81352380D01*
X110213809Y-81352380D01*
X110309047Y-81400000D01*
X110356666Y-81447619D01*
X110404285Y-81542857D01*
X110404285Y-81638095D01*
X110356666Y-81733333D01*
X110309047Y-81780952D01*
X110213809Y-81828571D01*
X109880476Y-81828571D01*
X111404285Y-82352380D02*
X110832857Y-82352380D01*
X111118571Y-82352380D02*
X111118571Y-81352380D01*
X111023333Y-81495238D01*
X110928095Y-81590476D01*
X110832857Y-81638095D01*
D13*
%TO.C,FB2*%
D14*
X105866666Y-81828571D02*
X105533333Y-81828571D01*
X105533333Y-82352380D02*
X105533333Y-81352380D01*
X106009523Y-81352380D01*
X106723809Y-81828571D02*
X106866666Y-81876190D01*
X106914285Y-81923809D01*
X106961904Y-82019047D01*
X106961904Y-82161904D01*
X106914285Y-82257142D01*
X106866666Y-82304761D01*
X106771428Y-82352380D01*
X106390476Y-82352380D01*
X106390476Y-81352380D01*
X106723809Y-81352380D01*
X106819047Y-81400000D01*
X106866666Y-81447619D01*
X106914285Y-81542857D01*
X106914285Y-81638095D01*
X106866666Y-81733333D01*
X106819047Y-81780952D01*
X106723809Y-81828571D01*
X106390476Y-81828571D01*
X107342857Y-81447619D02*
X107390476Y-81400000D01*
X107485714Y-81352380D01*
X107723809Y-81352380D01*
X107819047Y-81400000D01*
X107866666Y-81447619D01*
X107914285Y-81542857D01*
X107914285Y-81638095D01*
X107866666Y-81780952D01*
X107295238Y-82352380D01*
X107914285Y-82352380D01*
D13*
%TO.C,IC1*%
D14*
X97702380Y-62226190D02*
X96702380Y-62226190D01*
X97607142Y-61178571D02*
X97654761Y-61226190D01*
X97702380Y-61369047D01*
X97702380Y-61464285D01*
X97654761Y-61607142D01*
X97559523Y-61702380D01*
X97464285Y-61750000D01*
X97273809Y-61797619D01*
X97130952Y-61797619D01*
X96940476Y-61750000D01*
X96845238Y-61702380D01*
X96750000Y-61607142D01*
X96702380Y-61464285D01*
X96702380Y-61369047D01*
X96750000Y-61226190D01*
X96797619Y-61178571D01*
X97702380Y-60226190D02*
X97702380Y-60797619D01*
X97702380Y-60511904D02*
X96702380Y-60511904D01*
X96845238Y-60607142D01*
X96940476Y-60702380D01*
X96988095Y-60797619D01*
D13*
%TO.C,IC2*%
D14*
X99952380Y-76726190D02*
X98952380Y-76726190D01*
X99857142Y-75678571D02*
X99904761Y-75726190D01*
X99952380Y-75869047D01*
X99952380Y-75964285D01*
X99904761Y-76107142D01*
X99809523Y-76202380D01*
X99714285Y-76250000D01*
X99523809Y-76297619D01*
X99380952Y-76297619D01*
X99190476Y-76250000D01*
X99095238Y-76202380D01*
X99000000Y-76107142D01*
X98952380Y-75964285D01*
X98952380Y-75869047D01*
X99000000Y-75726190D01*
X99047619Y-75678571D01*
X99047619Y-75297619D02*
X99000000Y-75250000D01*
X98952380Y-75154761D01*
X98952380Y-74916666D01*
X99000000Y-74821428D01*
X99047619Y-74773809D01*
X99142857Y-74726190D01*
X99238095Y-74726190D01*
X99380952Y-74773809D01*
X99952380Y-75345238D01*
X99952380Y-74726190D01*
D13*
%TO.C,IC3*%
D14*
X108202380Y-76726190D02*
X107202380Y-76726190D01*
X108107142Y-75678571D02*
X108154761Y-75726190D01*
X108202380Y-75869047D01*
X108202380Y-75964285D01*
X108154761Y-76107142D01*
X108059523Y-76202380D01*
X107964285Y-76250000D01*
X107773809Y-76297619D01*
X107630952Y-76297619D01*
X107440476Y-76250000D01*
X107345238Y-76202380D01*
X107250000Y-76107142D01*
X107202380Y-75964285D01*
X107202380Y-75869047D01*
X107250000Y-75726190D01*
X107297619Y-75678571D01*
X107202380Y-75345238D02*
X107202380Y-74726190D01*
X107583333Y-75059523D01*
X107583333Y-74916666D01*
X107630952Y-74821428D01*
X107678571Y-74773809D01*
X107773809Y-74726190D01*
X108011904Y-74726190D01*
X108107142Y-74773809D01*
X108154761Y-74821428D01*
X108202380Y-74916666D01*
X108202380Y-75202380D01*
X108154761Y-75297619D01*
X108107142Y-75345238D01*
D13*
%TO.C,ICSP*%
D14*
X117773809Y-58952380D02*
X117773809Y-57952380D01*
X118821428Y-58857142D02*
X118773809Y-58904761D01*
X118630952Y-58952380D01*
X118535714Y-58952380D01*
X118392857Y-58904761D01*
X118297619Y-58809523D01*
X118250000Y-58714285D01*
X118202380Y-58523809D01*
X118202380Y-58380952D01*
X118250000Y-58190476D01*
X118297619Y-58095238D01*
X118392857Y-58000000D01*
X118535714Y-57952380D01*
X118630952Y-57952380D01*
X118773809Y-58000000D01*
X118821428Y-58047619D01*
X119202380Y-58904761D02*
X119345238Y-58952380D01*
X119583333Y-58952380D01*
X119678571Y-58904761D01*
X119726190Y-58857142D01*
X119773809Y-58761904D01*
X119773809Y-58666666D01*
X119726190Y-58571428D01*
X119678571Y-58523809D01*
X119583333Y-58476190D01*
X119392857Y-58428571D01*
X119297619Y-58380952D01*
X119250000Y-58333333D01*
X119202380Y-58238095D01*
X119202380Y-58142857D01*
X119250000Y-58047619D01*
X119297619Y-58000000D01*
X119392857Y-57952380D01*
X119630952Y-57952380D01*
X119773809Y-58000000D01*
X120202380Y-58952380D02*
X120202380Y-57952380D01*
X120583333Y-57952380D01*
X120678571Y-58000000D01*
X120726190Y-58047619D01*
X120773809Y-58142857D01*
X120773809Y-58285714D01*
X120726190Y-58380952D01*
X120678571Y-58428571D01*
X120583333Y-58476190D01*
X120202380Y-58476190D01*
%TO.C,J1*%
X88252380Y-65983333D02*
X88966666Y-65983333D01*
X89109523Y-66030952D01*
X89204761Y-66126190D01*
X89252380Y-66269047D01*
X89252380Y-66364285D01*
X89252380Y-64983333D02*
X89252380Y-65554761D01*
X89252380Y-65269047D02*
X88252380Y-65269047D01*
X88395238Y-65364285D01*
X88490476Y-65459523D01*
X88538095Y-65554761D01*
D13*
%TO.C,LED1*%
D14*
X101380952Y-65852380D02*
X100904761Y-65852380D01*
X100904761Y-64852380D01*
X101714285Y-65328571D02*
X102047619Y-65328571D01*
X102190476Y-65852380D02*
X101714285Y-65852380D01*
X101714285Y-64852380D01*
X102190476Y-64852380D01*
X102619047Y-65852380D02*
X102619047Y-64852380D01*
X102857142Y-64852380D01*
X103000000Y-64900000D01*
X103095238Y-64995238D01*
X103142857Y-65090476D01*
X103190476Y-65280952D01*
X103190476Y-65423809D01*
X103142857Y-65614285D01*
X103095238Y-65709523D01*
X103000000Y-65804761D01*
X102857142Y-65852380D01*
X102619047Y-65852380D01*
X104142857Y-65852380D02*
X103571428Y-65852380D01*
X103857142Y-65852380D02*
X103857142Y-64852380D01*
X103761904Y-64995238D01*
X103666666Y-65090476D01*
X103571428Y-65138095D01*
D13*
%TO.C,LED2*%
D14*
X106630952Y-65852380D02*
X106154761Y-65852380D01*
X106154761Y-64852380D01*
X106964285Y-65328571D02*
X107297619Y-65328571D01*
X107440476Y-65852380D02*
X106964285Y-65852380D01*
X106964285Y-64852380D01*
X107440476Y-64852380D01*
X107869047Y-65852380D02*
X107869047Y-64852380D01*
X108107142Y-64852380D01*
X108250000Y-64900000D01*
X108345238Y-64995238D01*
X108392857Y-65090476D01*
X108440476Y-65280952D01*
X108440476Y-65423809D01*
X108392857Y-65614285D01*
X108345238Y-65709523D01*
X108250000Y-65804761D01*
X108107142Y-65852380D01*
X107869047Y-65852380D01*
X108821428Y-64947619D02*
X108869047Y-64900000D01*
X108964285Y-64852380D01*
X109202380Y-64852380D01*
X109297619Y-64900000D01*
X109345238Y-64947619D01*
X109392857Y-65042857D01*
X109392857Y-65138095D01*
X109345238Y-65280952D01*
X108773809Y-65852380D01*
X109392857Y-65852380D01*
D13*
%TO.C,LFB1*%
D14*
X100844761Y-82352380D02*
X100368571Y-82352380D01*
X100368571Y-81352380D01*
X101511428Y-81828571D02*
X101178095Y-81828571D01*
X101178095Y-82352380D02*
X101178095Y-81352380D01*
X101654285Y-81352380D01*
X102368571Y-81828571D02*
X102511428Y-81876190D01*
X102559047Y-81923809D01*
X102606666Y-82019047D01*
X102606666Y-82161904D01*
X102559047Y-82257142D01*
X102511428Y-82304761D01*
X102416190Y-82352380D01*
X102035238Y-82352380D01*
X102035238Y-81352380D01*
X102368571Y-81352380D01*
X102463809Y-81400000D01*
X102511428Y-81447619D01*
X102559047Y-81542857D01*
X102559047Y-81638095D01*
X102511428Y-81733333D01*
X102463809Y-81780952D01*
X102368571Y-81828571D01*
X102035238Y-81828571D01*
X103559047Y-82352380D02*
X102987619Y-82352380D01*
X103273333Y-82352380D02*
X103273333Y-81352380D01*
X103178095Y-81495238D01*
X103082857Y-81590476D01*
X102987619Y-81638095D01*
D13*
%TO.C,LFB2*%
D14*
X97404761Y-82352380D02*
X96928571Y-82352380D01*
X96928571Y-81352380D01*
X98071428Y-81828571D02*
X97738095Y-81828571D01*
X97738095Y-82352380D02*
X97738095Y-81352380D01*
X98214285Y-81352380D01*
X98928571Y-81828571D02*
X99071428Y-81876190D01*
X99119047Y-81923809D01*
X99166666Y-82019047D01*
X99166666Y-82161904D01*
X99119047Y-82257142D01*
X99071428Y-82304761D01*
X98976190Y-82352380D01*
X98595238Y-82352380D01*
X98595238Y-81352380D01*
X98928571Y-81352380D01*
X99023809Y-81400000D01*
X99071428Y-81447619D01*
X99119047Y-81542857D01*
X99119047Y-81638095D01*
X99071428Y-81733333D01*
X99023809Y-81780952D01*
X98928571Y-81828571D01*
X98595238Y-81828571D01*
X99547619Y-81447619D02*
X99595238Y-81400000D01*
X99690476Y-81352380D01*
X99928571Y-81352380D01*
X100023809Y-81400000D01*
X100071428Y-81447619D01*
X100119047Y-81542857D01*
X100119047Y-81638095D01*
X100071428Y-81780952D01*
X99500000Y-82352380D01*
X100119047Y-82352380D01*
D13*
%TO.C,R1*%
D14*
X106733333Y-53752380D02*
X106400000Y-53276190D01*
X106161904Y-53752380D02*
X106161904Y-52752380D01*
X106542857Y-52752380D01*
X106638095Y-52800000D01*
X106685714Y-52847619D01*
X106733333Y-52942857D01*
X106733333Y-53085714D01*
X106685714Y-53180952D01*
X106638095Y-53228571D01*
X106542857Y-53276190D01*
X106161904Y-53276190D01*
X107685714Y-53752380D02*
X107114285Y-53752380D01*
X107400000Y-53752380D02*
X107400000Y-52752380D01*
X107304761Y-52895238D01*
X107209523Y-52990476D01*
X107114285Y-53038095D01*
D13*
%TO.C,R2*%
D14*
X97833333Y-66422380D02*
X97500000Y-65946190D01*
X97261904Y-66422380D02*
X97261904Y-65422380D01*
X97642857Y-65422380D01*
X97738095Y-65470000D01*
X97785714Y-65517619D01*
X97833333Y-65612857D01*
X97833333Y-65755714D01*
X97785714Y-65850952D01*
X97738095Y-65898571D01*
X97642857Y-65946190D01*
X97261904Y-65946190D01*
X98214285Y-65517619D02*
X98261904Y-65470000D01*
X98357142Y-65422380D01*
X98595238Y-65422380D01*
X98690476Y-65470000D01*
X98738095Y-65517619D01*
X98785714Y-65612857D01*
X98785714Y-65708095D01*
X98738095Y-65850952D01*
X98166666Y-66422380D01*
X98785714Y-66422380D01*
D13*
%TO.C,R3*%
D14*
X112083333Y-66352380D02*
X111750000Y-65876190D01*
X111511904Y-66352380D02*
X111511904Y-65352380D01*
X111892857Y-65352380D01*
X111988095Y-65400000D01*
X112035714Y-65447619D01*
X112083333Y-65542857D01*
X112083333Y-65685714D01*
X112035714Y-65780952D01*
X111988095Y-65828571D01*
X111892857Y-65876190D01*
X111511904Y-65876190D01*
X112416666Y-65352380D02*
X113035714Y-65352380D01*
X112702380Y-65733333D01*
X112845238Y-65733333D01*
X112940476Y-65780952D01*
X112988095Y-65828571D01*
X113035714Y-65923809D01*
X113035714Y-66161904D01*
X112988095Y-66257142D01*
X112940476Y-66304761D01*
X112845238Y-66352380D01*
X112559523Y-66352380D01*
X112464285Y-66304761D01*
X112416666Y-66257142D01*
D13*
%TO.C,R4*%
D14*
X113552380Y-74166666D02*
X113076190Y-74500000D01*
X113552380Y-74738095D02*
X112552380Y-74738095D01*
X112552380Y-74357142D01*
X112600000Y-74261904D01*
X112647619Y-74214285D01*
X112742857Y-74166666D01*
X112885714Y-74166666D01*
X112980952Y-74214285D01*
X113028571Y-74261904D01*
X113076190Y-74357142D01*
X113076190Y-74738095D01*
X112885714Y-73309523D02*
X113552380Y-73309523D01*
X112504761Y-73547619D02*
X113219047Y-73785714D01*
X113219047Y-73166666D01*
D13*
%TO.C,R5*%
D14*
X94852380Y-75966666D02*
X94376190Y-76300000D01*
X94852380Y-76538095D02*
X93852380Y-76538095D01*
X93852380Y-76157142D01*
X93900000Y-76061904D01*
X93947619Y-76014285D01*
X94042857Y-75966666D01*
X94185714Y-75966666D01*
X94280952Y-76014285D01*
X94328571Y-76061904D01*
X94376190Y-76157142D01*
X94376190Y-76538095D01*
X93852380Y-75061904D02*
X93852380Y-75538095D01*
X94328571Y-75585714D01*
X94280952Y-75538095D01*
X94233333Y-75442857D01*
X94233333Y-75204761D01*
X94280952Y-75109523D01*
X94328571Y-75061904D01*
X94423809Y-75014285D01*
X94661904Y-75014285D01*
X94757142Y-75061904D01*
X94804761Y-75109523D01*
X94852380Y-75204761D01*
X94852380Y-75442857D01*
X94804761Y-75538095D01*
X94757142Y-75585714D01*
D13*
%TO.C,R6*%
D14*
X105052380Y-74266666D02*
X104576190Y-74600000D01*
X105052380Y-74838095D02*
X104052380Y-74838095D01*
X104052380Y-74457142D01*
X104100000Y-74361904D01*
X104147619Y-74314285D01*
X104242857Y-74266666D01*
X104385714Y-74266666D01*
X104480952Y-74314285D01*
X104528571Y-74361904D01*
X104576190Y-74457142D01*
X104576190Y-74838095D01*
X104052380Y-73409523D02*
X104052380Y-73600000D01*
X104100000Y-73695238D01*
X104147619Y-73742857D01*
X104290476Y-73838095D01*
X104480952Y-73885714D01*
X104861904Y-73885714D01*
X104957142Y-73838095D01*
X105004761Y-73790476D01*
X105052380Y-73695238D01*
X105052380Y-73504761D01*
X105004761Y-73409523D01*
X104957142Y-73361904D01*
X104861904Y-73314285D01*
X104623809Y-73314285D01*
X104528571Y-73361904D01*
X104480952Y-73409523D01*
X104433333Y-73504761D01*
X104433333Y-73695238D01*
X104480952Y-73790476D01*
X104528571Y-73838095D01*
X104623809Y-73885714D01*
D13*
%TO.C,Y1*%
D14*
X101276190Y-58976190D02*
X101752380Y-58976190D01*
X100752380Y-59309523D02*
X101276190Y-58976190D01*
X100752380Y-58642857D01*
X101752380Y-57785714D02*
X101752380Y-58357142D01*
X101752380Y-58071428D02*
X100752380Y-58071428D01*
X100895238Y-58166666D01*
X100990476Y-58261904D01*
X101038095Y-58357142D01*
D13*
%TO.C,U1*%
D15*
X108105954Y-57168244D02*
X107791668Y-56623885D01*
X107948811Y-56896064D02*
X108901439Y-56346064D01*
X108712968Y-56333909D01*
X108569861Y-56295564D01*
X108472116Y-56231028D01*
X108964598Y-57398317D02*
X108957580Y-57281400D01*
X108976753Y-57209846D01*
X109041289Y-57112102D01*
X109086652Y-57085911D01*
X109203569Y-57078894D01*
X109275123Y-57098066D01*
X109372867Y-57162602D01*
X109477629Y-57344055D01*
X109484647Y-57460972D01*
X109465474Y-57532526D01*
X109400938Y-57630270D01*
X109355575Y-57656461D01*
X109238658Y-57663478D01*
X109167104Y-57644306D01*
X109069360Y-57579770D01*
X108964598Y-57398317D01*
X108866854Y-57333781D01*
X108795300Y-57314608D01*
X108678383Y-57321626D01*
X108496930Y-57426388D01*
X108432394Y-57524132D01*
X108413222Y-57595685D01*
X108420239Y-57712602D01*
X108525001Y-57894055D01*
X108622745Y-57958591D01*
X108694299Y-57977764D01*
X108811216Y-57970746D01*
X108992669Y-57865984D01*
X109057205Y-57768240D01*
X109076378Y-57696687D01*
X109069360Y-57579770D01*
X109547806Y-58513225D02*
X109364473Y-58195682D01*
X108865477Y-58483777D02*
X109818105Y-57933777D01*
X110080010Y-58387410D01*
X109625001Y-59799311D02*
X109310715Y-59254952D01*
X109467858Y-59527132D02*
X110420486Y-58977132D01*
X110232016Y-58964977D01*
X110088908Y-58926631D01*
X109991164Y-58862095D01*
X110731515Y-60249183D02*
X110096430Y-60615849D01*
X110963469Y-59812843D02*
X110152068Y-59978884D01*
X110492544Y-60568606D01*
X110384525Y-61114845D02*
X111337153Y-60564845D01*
X110698811Y-61659204D02*
X111007455Y-60936649D01*
X111651439Y-61109204D02*
X110792794Y-60879131D01*
X112149058Y-61971105D02*
X111887153Y-61517473D01*
X111407330Y-61734015D01*
X111478884Y-61753187D01*
X111576628Y-61817723D01*
X111707580Y-62044539D01*
X111714598Y-62161456D01*
X111695425Y-62233010D01*
X111630889Y-62330754D01*
X111404073Y-62461707D01*
X111287156Y-62468724D01*
X111215602Y-62449552D01*
X111117858Y-62385016D01*
X110986906Y-62158199D01*
X110979888Y-62041283D01*
X110999061Y-61969729D01*
X112515724Y-62606191D02*
X112568105Y-62696917D01*
X112575123Y-62813834D01*
X112555950Y-62885388D01*
X112491414Y-62983132D01*
X112336152Y-63133257D01*
X112109336Y-63264209D01*
X111901692Y-63323608D01*
X111784775Y-63330626D01*
X111713222Y-63311453D01*
X111615477Y-63246917D01*
X111563096Y-63156191D01*
X111556079Y-63039274D01*
X111575251Y-62967720D01*
X111639787Y-62869976D01*
X111795050Y-62719851D01*
X112021866Y-62588898D01*
X112229509Y-62529500D01*
X112346426Y-62522482D01*
X112417980Y-62541655D01*
X112515724Y-62606191D01*
%TD*%
M02*
