%TF.GenerationSoftware,KiCad,Pcbnew,(5.1.10)-1*%
%TF.CreationDate,2021-09-16T11:14:36+02:00*%
%TF.ProjectId,ThermoDeviceLogger,54686572-6d6f-4446-9576-6963654c6f67,rev?*%
%TF.SameCoordinates,Original*%
%TF.FileFunction,Soldermask,Top*%
%TF.FilePolarity,Negative*%
%FSLAX46Y46*%
G04 Gerber Fmt 4.6, Leading zero omitted, Abs format (unit mm)*
G04 Created by KiCad (PCBNEW (5.1.10)-1) date 2021-09-16 11:14:36*
%MOMM*%
%LPD*%
G01*
G04 APERTURE LIST*
%ADD10R,1.000000X1.200000*%
%ADD11R,1.450000X1.000000*%
%ADD12R,1.000000X1.450000*%
%ADD13R,0.960000X1.390000*%
%ADD14R,0.900000X1.400000*%
%ADD15C,1.650000*%
%ADD16C,1.550000*%
%ADD17C,0.889000*%
%ADD18C,1.815000*%
%ADD19C,0.650000*%
%ADD20R,0.900000X0.300000*%
%ADD21R,0.650000X1.525000*%
%ADD22R,3.200000X1.950000*%
%ADD23R,0.900000X1.950000*%
%ADD24R,1.075000X0.500000*%
%ADD25R,1.470000X1.020000*%
%ADD26R,1.020000X1.470000*%
G04 APERTURE END LIST*
D10*
%TO.C,Y1*%
X103650000Y-57800000D03*
X103650000Y-59500000D03*
X102350000Y-59500000D03*
X102350000Y-57800000D03*
%TD*%
%TO.C,U1*%
G36*
G01*
X112800000Y-56950000D02*
X112800000Y-56700000D01*
G75*
G02*
X112925000Y-56575000I125000J0D01*
G01*
X114575000Y-56575000D01*
G75*
G02*
X114700000Y-56700000I0J-125000D01*
G01*
X114700000Y-56950000D01*
G75*
G02*
X114575000Y-57075000I-125000J0D01*
G01*
X112925000Y-57075000D01*
G75*
G02*
X112800000Y-56950000I0J125000D01*
G01*
G37*
G36*
G01*
X112800000Y-57600000D02*
X112800000Y-57350000D01*
G75*
G02*
X112925000Y-57225000I125000J0D01*
G01*
X114575000Y-57225000D01*
G75*
G02*
X114700000Y-57350000I0J-125000D01*
G01*
X114700000Y-57600000D01*
G75*
G02*
X114575000Y-57725000I-125000J0D01*
G01*
X112925000Y-57725000D01*
G75*
G02*
X112800000Y-57600000I0J125000D01*
G01*
G37*
G36*
G01*
X112800000Y-58250000D02*
X112800000Y-58000000D01*
G75*
G02*
X112925000Y-57875000I125000J0D01*
G01*
X114575000Y-57875000D01*
G75*
G02*
X114700000Y-58000000I0J-125000D01*
G01*
X114700000Y-58250000D01*
G75*
G02*
X114575000Y-58375000I-125000J0D01*
G01*
X112925000Y-58375000D01*
G75*
G02*
X112800000Y-58250000I0J125000D01*
G01*
G37*
G36*
G01*
X112800000Y-58900000D02*
X112800000Y-58650000D01*
G75*
G02*
X112925000Y-58525000I125000J0D01*
G01*
X114575000Y-58525000D01*
G75*
G02*
X114700000Y-58650000I0J-125000D01*
G01*
X114700000Y-58900000D01*
G75*
G02*
X114575000Y-59025000I-125000J0D01*
G01*
X112925000Y-59025000D01*
G75*
G02*
X112800000Y-58900000I0J125000D01*
G01*
G37*
G36*
G01*
X112800000Y-59550000D02*
X112800000Y-59300000D01*
G75*
G02*
X112925000Y-59175000I125000J0D01*
G01*
X114575000Y-59175000D01*
G75*
G02*
X114700000Y-59300000I0J-125000D01*
G01*
X114700000Y-59550000D01*
G75*
G02*
X114575000Y-59675000I-125000J0D01*
G01*
X112925000Y-59675000D01*
G75*
G02*
X112800000Y-59550000I0J125000D01*
G01*
G37*
G36*
G01*
X112800000Y-60200000D02*
X112800000Y-59950000D01*
G75*
G02*
X112925000Y-59825000I125000J0D01*
G01*
X114575000Y-59825000D01*
G75*
G02*
X114700000Y-59950000I0J-125000D01*
G01*
X114700000Y-60200000D01*
G75*
G02*
X114575000Y-60325000I-125000J0D01*
G01*
X112925000Y-60325000D01*
G75*
G02*
X112800000Y-60200000I0J125000D01*
G01*
G37*
G36*
G01*
X112800000Y-60850000D02*
X112800000Y-60600000D01*
G75*
G02*
X112925000Y-60475000I125000J0D01*
G01*
X114575000Y-60475000D01*
G75*
G02*
X114700000Y-60600000I0J-125000D01*
G01*
X114700000Y-60850000D01*
G75*
G02*
X114575000Y-60975000I-125000J0D01*
G01*
X112925000Y-60975000D01*
G75*
G02*
X112800000Y-60850000I0J125000D01*
G01*
G37*
G36*
G01*
X112800000Y-61500000D02*
X112800000Y-61250000D01*
G75*
G02*
X112925000Y-61125000I125000J0D01*
G01*
X114575000Y-61125000D01*
G75*
G02*
X114700000Y-61250000I0J-125000D01*
G01*
X114700000Y-61500000D01*
G75*
G02*
X114575000Y-61625000I-125000J0D01*
G01*
X112925000Y-61625000D01*
G75*
G02*
X112800000Y-61500000I0J125000D01*
G01*
G37*
G36*
G01*
X112800000Y-62150000D02*
X112800000Y-61900000D01*
G75*
G02*
X112925000Y-61775000I125000J0D01*
G01*
X114575000Y-61775000D01*
G75*
G02*
X114700000Y-61900000I0J-125000D01*
G01*
X114700000Y-62150000D01*
G75*
G02*
X114575000Y-62275000I-125000J0D01*
G01*
X112925000Y-62275000D01*
G75*
G02*
X112800000Y-62150000I0J125000D01*
G01*
G37*
G36*
G01*
X112800000Y-62800000D02*
X112800000Y-62550000D01*
G75*
G02*
X112925000Y-62425000I125000J0D01*
G01*
X114575000Y-62425000D01*
G75*
G02*
X114700000Y-62550000I0J-125000D01*
G01*
X114700000Y-62800000D01*
G75*
G02*
X114575000Y-62925000I-125000J0D01*
G01*
X112925000Y-62925000D01*
G75*
G02*
X112800000Y-62800000I0J125000D01*
G01*
G37*
G36*
G01*
X105800000Y-62800000D02*
X105800000Y-62550000D01*
G75*
G02*
X105925000Y-62425000I125000J0D01*
G01*
X107575000Y-62425000D01*
G75*
G02*
X107700000Y-62550000I0J-125000D01*
G01*
X107700000Y-62800000D01*
G75*
G02*
X107575000Y-62925000I-125000J0D01*
G01*
X105925000Y-62925000D01*
G75*
G02*
X105800000Y-62800000I0J125000D01*
G01*
G37*
G36*
G01*
X105800000Y-62150000D02*
X105800000Y-61900000D01*
G75*
G02*
X105925000Y-61775000I125000J0D01*
G01*
X107575000Y-61775000D01*
G75*
G02*
X107700000Y-61900000I0J-125000D01*
G01*
X107700000Y-62150000D01*
G75*
G02*
X107575000Y-62275000I-125000J0D01*
G01*
X105925000Y-62275000D01*
G75*
G02*
X105800000Y-62150000I0J125000D01*
G01*
G37*
G36*
G01*
X105800000Y-61500000D02*
X105800000Y-61250000D01*
G75*
G02*
X105925000Y-61125000I125000J0D01*
G01*
X107575000Y-61125000D01*
G75*
G02*
X107700000Y-61250000I0J-125000D01*
G01*
X107700000Y-61500000D01*
G75*
G02*
X107575000Y-61625000I-125000J0D01*
G01*
X105925000Y-61625000D01*
G75*
G02*
X105800000Y-61500000I0J125000D01*
G01*
G37*
G36*
G01*
X105800000Y-60850000D02*
X105800000Y-60600000D01*
G75*
G02*
X105925000Y-60475000I125000J0D01*
G01*
X107575000Y-60475000D01*
G75*
G02*
X107700000Y-60600000I0J-125000D01*
G01*
X107700000Y-60850000D01*
G75*
G02*
X107575000Y-60975000I-125000J0D01*
G01*
X105925000Y-60975000D01*
G75*
G02*
X105800000Y-60850000I0J125000D01*
G01*
G37*
G36*
G01*
X105800000Y-60200000D02*
X105800000Y-59950000D01*
G75*
G02*
X105925000Y-59825000I125000J0D01*
G01*
X107575000Y-59825000D01*
G75*
G02*
X107700000Y-59950000I0J-125000D01*
G01*
X107700000Y-60200000D01*
G75*
G02*
X107575000Y-60325000I-125000J0D01*
G01*
X105925000Y-60325000D01*
G75*
G02*
X105800000Y-60200000I0J125000D01*
G01*
G37*
G36*
G01*
X105800000Y-59550000D02*
X105800000Y-59300000D01*
G75*
G02*
X105925000Y-59175000I125000J0D01*
G01*
X107575000Y-59175000D01*
G75*
G02*
X107700000Y-59300000I0J-125000D01*
G01*
X107700000Y-59550000D01*
G75*
G02*
X107575000Y-59675000I-125000J0D01*
G01*
X105925000Y-59675000D01*
G75*
G02*
X105800000Y-59550000I0J125000D01*
G01*
G37*
G36*
G01*
X105800000Y-58900000D02*
X105800000Y-58650000D01*
G75*
G02*
X105925000Y-58525000I125000J0D01*
G01*
X107575000Y-58525000D01*
G75*
G02*
X107700000Y-58650000I0J-125000D01*
G01*
X107700000Y-58900000D01*
G75*
G02*
X107575000Y-59025000I-125000J0D01*
G01*
X105925000Y-59025000D01*
G75*
G02*
X105800000Y-58900000I0J125000D01*
G01*
G37*
G36*
G01*
X105800000Y-58250000D02*
X105800000Y-58000000D01*
G75*
G02*
X105925000Y-57875000I125000J0D01*
G01*
X107575000Y-57875000D01*
G75*
G02*
X107700000Y-58000000I0J-125000D01*
G01*
X107700000Y-58250000D01*
G75*
G02*
X107575000Y-58375000I-125000J0D01*
G01*
X105925000Y-58375000D01*
G75*
G02*
X105800000Y-58250000I0J125000D01*
G01*
G37*
G36*
G01*
X105800000Y-57600000D02*
X105800000Y-57350000D01*
G75*
G02*
X105925000Y-57225000I125000J0D01*
G01*
X107575000Y-57225000D01*
G75*
G02*
X107700000Y-57350000I0J-125000D01*
G01*
X107700000Y-57600000D01*
G75*
G02*
X107575000Y-57725000I-125000J0D01*
G01*
X105925000Y-57725000D01*
G75*
G02*
X105800000Y-57600000I0J125000D01*
G01*
G37*
G36*
G01*
X105800000Y-56950000D02*
X105800000Y-56700000D01*
G75*
G02*
X105925000Y-56575000I125000J0D01*
G01*
X107575000Y-56575000D01*
G75*
G02*
X107700000Y-56700000I0J-125000D01*
G01*
X107700000Y-56950000D01*
G75*
G02*
X107575000Y-57075000I-125000J0D01*
G01*
X105925000Y-57075000D01*
G75*
G02*
X105800000Y-56950000I0J125000D01*
G01*
G37*
%TD*%
D11*
%TO.C,R6*%
X103250000Y-73100000D03*
X103250000Y-75000000D03*
%TD*%
%TO.C,R5*%
X95750000Y-74800000D03*
X95750000Y-76700000D03*
%TD*%
%TO.C,R4*%
X111500000Y-73050000D03*
X111500000Y-74950000D03*
%TD*%
D12*
%TO.C,R3*%
X111300000Y-67250000D03*
X113200000Y-67250000D03*
%TD*%
%TO.C,R2*%
X97050000Y-67290000D03*
X98950000Y-67290000D03*
%TD*%
%TO.C,R1*%
X106000000Y-54500000D03*
X107900000Y-54500000D03*
%TD*%
D13*
%TO.C,LFB2*%
X97690000Y-80500000D03*
X99310000Y-80500000D03*
%TD*%
%TO.C,LFB1*%
X101130000Y-80500000D03*
X102750000Y-80500000D03*
%TD*%
D14*
%TO.C,LED2*%
X108700000Y-67250000D03*
X106800000Y-67250000D03*
%TD*%
%TO.C,LED1*%
X101550000Y-67290000D03*
X103450000Y-67290000D03*
%TD*%
D15*
%TO.C,J3*%
X88750000Y-72750000D03*
X88750000Y-69250000D03*
X88750000Y-65750000D03*
X88750000Y-62250000D03*
%TD*%
D16*
%TO.C,J2*%
X116710000Y-59984000D03*
X116710000Y-62016000D03*
X121790000Y-61000000D03*
D17*
X117980000Y-61635000D03*
X117980000Y-60365000D03*
X119250000Y-61635000D03*
X119250000Y-60365000D03*
X120520000Y-61635000D03*
X120520000Y-60365000D03*
%TD*%
D18*
%TO.C,J1*%
X118750000Y-65990000D03*
X123140000Y-65630000D03*
X123140000Y-74610000D03*
X118750000Y-74250000D03*
D19*
X118150000Y-72920000D03*
X118850000Y-72520000D03*
X118850000Y-71720000D03*
X118150000Y-71320000D03*
X118850000Y-70920000D03*
X118150000Y-70520000D03*
X118150000Y-69720000D03*
X118850000Y-69320000D03*
X118150000Y-68920000D03*
X118850000Y-68520000D03*
X118850000Y-67720000D03*
X118150000Y-67320000D03*
D20*
X116940000Y-67370000D03*
X116940000Y-67870000D03*
X116940000Y-68370000D03*
X116940000Y-68870000D03*
X116940000Y-69370000D03*
X116940000Y-69870000D03*
X116940000Y-70370000D03*
X116940000Y-70870000D03*
X116940000Y-71370000D03*
X116940000Y-71870000D03*
X116940000Y-72370000D03*
X116940000Y-72870000D03*
%TD*%
D21*
%TO.C,IC3*%
X105845000Y-73038000D03*
X107115000Y-73038000D03*
X108385000Y-73038000D03*
X109655000Y-73038000D03*
X109655000Y-78462000D03*
X108385000Y-78462000D03*
X107115000Y-78462000D03*
X105845000Y-78462000D03*
%TD*%
%TO.C,IC2*%
X97595000Y-73038000D03*
X98865000Y-73038000D03*
X100135000Y-73038000D03*
X101405000Y-73038000D03*
X101405000Y-78462000D03*
X100135000Y-78462000D03*
X98865000Y-78462000D03*
X97595000Y-78462000D03*
%TD*%
D22*
%TO.C,IC1*%
X97250000Y-64300000D03*
D23*
X94950000Y-58200000D03*
X97250000Y-58200000D03*
X99550000Y-58200000D03*
%TD*%
D13*
%TO.C,FB2*%
X105940000Y-80500000D03*
X107560000Y-80500000D03*
%TD*%
%TO.C,FB1*%
X109380000Y-80500000D03*
X111000000Y-80500000D03*
%TD*%
D24*
%TO.C,D3*%
X102382000Y-70750000D03*
X104706000Y-70750000D03*
%TD*%
%TO.C,D2*%
X109500000Y-70750000D03*
X107176000Y-70750000D03*
%TD*%
%TO.C,D1*%
X99912000Y-70750000D03*
X97588000Y-70750000D03*
%TD*%
D25*
%TO.C,C8*%
X111500000Y-78550000D03*
X111500000Y-76950000D03*
%TD*%
%TO.C,C7*%
X103250000Y-78600000D03*
X103250000Y-77000000D03*
%TD*%
D26*
%TO.C,C6*%
X103800000Y-63250000D03*
X102200000Y-63250000D03*
%TD*%
%TO.C,C5*%
X102200000Y-54750000D03*
X103800000Y-54750000D03*
%TD*%
%TO.C,C4*%
X114550000Y-54500000D03*
X112950000Y-54500000D03*
%TD*%
%TO.C,C3*%
X109700000Y-54500000D03*
X111300000Y-54500000D03*
%TD*%
%TO.C,C2*%
X96350000Y-55250000D03*
X94750000Y-55250000D03*
%TD*%
%TO.C,C1*%
X98000000Y-55250000D03*
X99600000Y-55250000D03*
%TD*%
M02*
