%TF.GenerationSoftware,KiCad,Pcbnew,(5.1.10)-1*%
%TF.CreationDate,2021-09-16T11:14:36+02:00*%
%TF.ProjectId,ThermoDeviceLogger,54686572-6d6f-4446-9576-6963654c6f67,rev?*%
%TF.SameCoordinates,Original*%
%TF.FileFunction,Copper,L2,Bot*%
%TF.FilePolarity,Positive*%
%FSLAX46Y46*%
G04 Gerber Fmt 4.6, Leading zero omitted, Abs format (unit mm)*
G04 Created by KiCad (PCBNEW (5.1.10)-1) date 2021-09-16 11:14:36*
%MOMM*%
%LPD*%
G01*
G04 APERTURE LIST*
%TA.AperFunction,ComponentPad*%
%ADD10C,1.650000*%
%TD*%
%TA.AperFunction,ComponentPad*%
%ADD11C,1.550000*%
%TD*%
%TA.AperFunction,ComponentPad*%
%ADD12C,1.815000*%
%TD*%
%TA.AperFunction,ComponentPad*%
%ADD13C,0.650000*%
%TD*%
%TA.AperFunction,ViaPad*%
%ADD14C,3.750000*%
%TD*%
%TA.AperFunction,ViaPad*%
%ADD15C,0.800000*%
%TD*%
%TA.AperFunction,Conductor*%
%ADD16C,0.250000*%
%TD*%
%TA.AperFunction,Conductor*%
%ADD17C,0.254000*%
%TD*%
%TA.AperFunction,Conductor*%
%ADD18C,0.100000*%
%TD*%
G04 APERTURE END LIST*
D10*
%TO.P,J3,4*%
%TO.N,/ThermoCouple Modules/T-tcm2*%
X88750000Y-72750000D03*
%TO.P,J3,3*%
%TO.N,/ThermoCouple Modules/T+tcm2*%
X88750000Y-69250000D03*
%TO.P,J3,2*%
%TO.N,/ThermoCouple Modules/T-tcm1*%
X88750000Y-65750000D03*
%TO.P,J3,1*%
%TO.N,/ThermoCouple Modules/T+tcm1*%
X88750000Y-62250000D03*
%TD*%
D11*
%TO.P,J2,9*%
%TO.N,N/C*%
X116710000Y-59984000D03*
%TO.P,J2,8*%
X116710000Y-62016000D03*
%TO.P,J2,7*%
X121790000Y-61000000D03*
%TD*%
D12*
%TO.P,J1,MH4*%
%TO.N,GND*%
X118750000Y-65990000D03*
%TO.P,J1,MH3*%
X123140000Y-65630000D03*
%TO.P,J1,MH2*%
X123140000Y-74610000D03*
%TO.P,J1,MH1*%
X118750000Y-74250000D03*
D13*
%TO.P,J1,B12*%
%TO.N,Net-(J1-PadB12)*%
X118150000Y-72920000D03*
%TO.P,J1,B11*%
%TO.N,Net-(J1-PadB11)*%
X118850000Y-72520000D03*
%TO.P,J1,B10*%
%TO.N,Net-(J1-PadB10)*%
X118850000Y-71720000D03*
%TO.P,J1,B9*%
%TO.N,+5V*%
X118150000Y-71320000D03*
%TO.P,J1,B8*%
%TO.N,Net-(J1-PadB8)*%
X118850000Y-70920000D03*
%TO.P,J1,B7*%
%TO.N,/PGC*%
X118150000Y-70520000D03*
%TO.P,J1,B6*%
%TO.N,/PGD*%
X118150000Y-69720000D03*
%TO.P,J1,B5*%
%TO.N,Net-(J1-PadB5)*%
X118850000Y-69320000D03*
%TO.P,J1,B4*%
%TO.N,Net-(J1-PadB4)*%
X118150000Y-68920000D03*
%TO.P,J1,B3*%
%TO.N,Net-(J1-PadB3)*%
X118850000Y-68520000D03*
%TO.P,J1,B2*%
%TO.N,Net-(J1-PadB2)*%
X118850000Y-67720000D03*
%TO.P,J1,B1*%
%TO.N,GND*%
X118150000Y-67320000D03*
%TD*%
D14*
%TO.N,GND*%
X122000000Y-55500000D03*
X122000000Y-79500000D03*
X88000000Y-79500000D03*
X88000000Y-55500000D03*
D15*
X96512653Y-77987347D03*
X101500000Y-76250000D03*
X105500000Y-76500000D03*
X113000000Y-75000000D03*
X94500000Y-79000000D03*
%TO.N,+5V*%
X120520000Y-62730000D03*
X111250000Y-57000000D03*
X105750000Y-56000000D03*
X100750000Y-56500000D03*
%TO.N,Net-(C4-Pad2)*%
X112000000Y-56000000D03*
X116000000Y-54750000D03*
%TO.N,/Cyrstal1*%
X104750000Y-57250000D03*
X104750000Y-60250000D03*
%TO.N,/CS_1*%
X108750000Y-60500000D03*
X96500000Y-69500000D03*
%TO.N,/CS_2*%
X109000000Y-65500000D03*
X106500000Y-69000000D03*
%TO.N,/SCK*%
X105000000Y-68750000D03*
X113250000Y-64750000D03*
%TO.N,/ThermoCouple Modules/T+tcm2*%
X90500000Y-70750000D03*
X113250000Y-80000000D03*
%TO.N,/ThermoCouple Modules/T-tcm2*%
X90750000Y-73250000D03*
X107500000Y-81875000D03*
%TO.N,/MISO*%
X104500000Y-72000000D03*
X98750000Y-71750000D03*
%TO.N,/PGC*%
X115250000Y-71750000D03*
%TO.N,/PGD*%
X118750000Y-63000000D03*
X116767415Y-57459836D03*
X115500000Y-70500000D03*
X113500000Y-70500000D03*
%TO.N,/MCLR*%
X117250000Y-56000000D03*
X108500000Y-58750000D03*
X108500000Y-56000000D03*
%TO.N,/ThermoCouple Modules/T-tcm1*%
X96250000Y-81250000D03*
X91750000Y-80750000D03*
%TO.N,Net-(R2-Pad1)*%
X104750000Y-61500000D03*
X99750000Y-65500000D03*
%TD*%
D16*
%TO.N,GND*%
X96512653Y-77987347D02*
X98250000Y-76250000D01*
X98250000Y-76250000D02*
X101500000Y-76250000D01*
X101500000Y-76250000D02*
X105250000Y-76250000D01*
X105250000Y-76250000D02*
X105500000Y-76500000D01*
X105500000Y-76500000D02*
X106500000Y-76500000D01*
X106500000Y-76500000D02*
X108000000Y-75000000D01*
X108000000Y-75000000D02*
X108750000Y-75000000D01*
X108750000Y-75000000D02*
X113000000Y-75000000D01*
X88000000Y-79500000D02*
X94000000Y-79500000D01*
X94000000Y-79500000D02*
X94500000Y-79000000D01*
%TO.N,+5V*%
X117598001Y-55274999D02*
X116725001Y-55274999D01*
X120520000Y-58196998D02*
X117598001Y-55274999D01*
X120520000Y-62730000D02*
X120520000Y-58196998D01*
X116725001Y-55274999D02*
X115000000Y-57000000D01*
X115000000Y-57000000D02*
X111250000Y-57000000D01*
X105350001Y-55600001D02*
X101649999Y-55600001D01*
X105750000Y-56000000D02*
X105350001Y-55600001D01*
X101649999Y-55600001D02*
X100750000Y-56500000D01*
X119524999Y-63725001D02*
X120520000Y-62730000D01*
X114524999Y-68162999D02*
X118962997Y-63725001D01*
X118962997Y-63725001D02*
X119524999Y-63725001D01*
X114524999Y-72098001D02*
X114524999Y-68162999D01*
X114926998Y-72500000D02*
X114524999Y-72098001D01*
X116970000Y-72500000D02*
X114926998Y-72500000D01*
X118150000Y-71320000D02*
X116970000Y-72500000D01*
%TO.N,Net-(C4-Pad2)*%
X112000000Y-56000000D02*
X114500000Y-56000000D01*
X114750000Y-56000000D02*
X116000000Y-54750000D01*
X114500000Y-56000000D02*
X114750000Y-56000000D01*
%TO.N,/Cyrstal1*%
X104750000Y-57250000D02*
X104750000Y-60250000D01*
%TO.N,/CS_1*%
X108750000Y-60500000D02*
X107250000Y-60500000D01*
X107250000Y-60500000D02*
X98250000Y-69500000D01*
X98250000Y-69500000D02*
X96500000Y-69500000D01*
%TO.N,/CS_2*%
X109000000Y-65500000D02*
X109000000Y-66500000D01*
X109000000Y-66500000D02*
X106500000Y-69000000D01*
%TO.N,/SCK*%
X105000000Y-68750000D02*
X105000000Y-65500000D01*
X105000000Y-65500000D02*
X105250000Y-65250000D01*
X105250000Y-65250000D02*
X105750000Y-64750000D01*
X105750000Y-64750000D02*
X113250000Y-64750000D01*
%TO.N,/ThermoCouple Modules/T+tcm2*%
X113725001Y-79524999D02*
X113250000Y-80000000D01*
X113725001Y-74651999D02*
X113725001Y-79524999D01*
X109823002Y-70750000D02*
X113725001Y-74651999D01*
X90500000Y-70750000D02*
X109823002Y-70750000D01*
%TO.N,/ThermoCouple Modules/T-tcm2*%
X90750000Y-73250000D02*
X99500000Y-82000000D01*
X107375000Y-82000000D02*
X107500000Y-81875000D01*
X99500000Y-82000000D02*
X107375000Y-82000000D01*
%TO.N,/MISO*%
X104500000Y-72000000D02*
X104000000Y-71500000D01*
X99000000Y-71500000D02*
X98750000Y-71750000D01*
X104000000Y-71500000D02*
X99000000Y-71500000D01*
%TO.N,/PGC*%
X118150000Y-70520000D02*
X117480000Y-70520000D01*
X117480000Y-70520000D02*
X116250000Y-71750000D01*
X116250000Y-71750000D02*
X115250000Y-71750000D01*
%TO.N,/PGD*%
X118750000Y-63000000D02*
X118750000Y-59500000D01*
X116767415Y-57517415D02*
X116767415Y-57459836D01*
X118750000Y-59500000D02*
X116767415Y-57517415D01*
X118150000Y-69720000D02*
X116530000Y-69720000D01*
X116530000Y-69720000D02*
X116530000Y-69780000D01*
X116530000Y-69720000D02*
X116280000Y-69720000D01*
X116280000Y-69720000D02*
X115500000Y-70500000D01*
X115500000Y-58727251D02*
X116767415Y-57459836D01*
X115500000Y-65750000D02*
X115500000Y-58727251D01*
X113500000Y-67750000D02*
X115500000Y-65750000D01*
X113500000Y-70500000D02*
X113500000Y-67750000D01*
%TO.N,/MCLR*%
X116684315Y-56000000D02*
X113934315Y-58750000D01*
X117250000Y-56000000D02*
X116684315Y-56000000D01*
X113934315Y-58750000D02*
X108500000Y-58750000D01*
X108500000Y-56000000D02*
X108500000Y-58750000D01*
%TO.N,/ThermoCouple Modules/T-tcm1*%
X96250000Y-81250000D02*
X92000000Y-81250000D01*
X92000000Y-81250000D02*
X91750000Y-81000000D01*
X91750000Y-81000000D02*
X91750000Y-80750000D01*
%TO.N,Net-(R2-Pad1)*%
X104750000Y-61500000D02*
X100750000Y-65500000D01*
X100750000Y-65500000D02*
X99750000Y-65500000D01*
%TD*%
D17*
%TO.N,GND*%
X122856775Y-53198147D02*
X123199967Y-53301763D01*
X123516489Y-53470062D01*
X123794299Y-53696637D01*
X124022806Y-53972856D01*
X124193310Y-54288197D01*
X124299319Y-54630656D01*
X124340000Y-55017712D01*
X124340000Y-64783496D01*
X124209431Y-64740174D01*
X123319605Y-65630000D01*
X124209431Y-66519826D01*
X124340000Y-66476504D01*
X124340001Y-73763496D01*
X124209431Y-73720174D01*
X123319605Y-74610000D01*
X124209431Y-75499826D01*
X124340001Y-75456504D01*
X124340001Y-79967711D01*
X124301853Y-80356776D01*
X124198238Y-80699964D01*
X124029939Y-81016489D01*
X123803365Y-81294296D01*
X123527146Y-81522805D01*
X123211803Y-81693310D01*
X122869344Y-81799319D01*
X122482288Y-81840000D01*
X108535000Y-81840000D01*
X108535000Y-81773061D01*
X108495226Y-81573102D01*
X108417205Y-81384744D01*
X108303937Y-81215226D01*
X108159774Y-81071063D01*
X107990256Y-80957795D01*
X107801898Y-80879774D01*
X107601939Y-80840000D01*
X107398061Y-80840000D01*
X107198102Y-80879774D01*
X107009744Y-80957795D01*
X106840226Y-81071063D01*
X106696063Y-81215226D01*
X106679510Y-81240000D01*
X99814802Y-81240000D01*
X91785000Y-73210199D01*
X91785000Y-73148061D01*
X91745226Y-72948102D01*
X91667205Y-72759744D01*
X91553937Y-72590226D01*
X91409774Y-72446063D01*
X91240256Y-72332795D01*
X91051898Y-72254774D01*
X90851939Y-72215000D01*
X90648061Y-72215000D01*
X90448102Y-72254774D01*
X90259744Y-72332795D01*
X90167832Y-72394209D01*
X90153893Y-72324134D01*
X90043835Y-72058431D01*
X89884056Y-71819304D01*
X89680696Y-71615944D01*
X89441569Y-71456165D01*
X89175866Y-71346107D01*
X88893797Y-71290000D01*
X88606203Y-71290000D01*
X88324134Y-71346107D01*
X88058431Y-71456165D01*
X87819304Y-71615944D01*
X87615944Y-71819304D01*
X87456165Y-72058431D01*
X87346107Y-72324134D01*
X87290000Y-72606203D01*
X87290000Y-72893797D01*
X87346107Y-73175866D01*
X87456165Y-73441569D01*
X87615944Y-73680696D01*
X87819304Y-73884056D01*
X88058431Y-74043835D01*
X88324134Y-74153893D01*
X88606203Y-74210000D01*
X88893797Y-74210000D01*
X89175866Y-74153893D01*
X89441569Y-74043835D01*
X89680696Y-73884056D01*
X89830364Y-73734388D01*
X89832795Y-73740256D01*
X89946063Y-73909774D01*
X90090226Y-74053937D01*
X90259744Y-74167205D01*
X90448102Y-74245226D01*
X90648061Y-74285000D01*
X90710199Y-74285000D01*
X96793710Y-80368512D01*
X96740256Y-80332795D01*
X96551898Y-80254774D01*
X96351939Y-80215000D01*
X96148061Y-80215000D01*
X95948102Y-80254774D01*
X95759744Y-80332795D01*
X95590226Y-80446063D01*
X95546289Y-80490000D01*
X92753560Y-80490000D01*
X92745226Y-80448102D01*
X92667205Y-80259744D01*
X92553937Y-80090226D01*
X92409774Y-79946063D01*
X92240256Y-79832795D01*
X92051898Y-79754774D01*
X91851939Y-79715000D01*
X91648061Y-79715000D01*
X91448102Y-79754774D01*
X91259744Y-79832795D01*
X91090226Y-79946063D01*
X90946063Y-80090226D01*
X90832795Y-80259744D01*
X90754774Y-80448102D01*
X90715000Y-80648061D01*
X90715000Y-80851939D01*
X90754774Y-81051898D01*
X90832795Y-81240256D01*
X90946063Y-81409774D01*
X91090226Y-81553937D01*
X91259744Y-81667205D01*
X91400853Y-81725655D01*
X91436200Y-81761002D01*
X91459999Y-81790001D01*
X91520923Y-81840000D01*
X87532279Y-81840000D01*
X87143224Y-81801853D01*
X86800036Y-81698238D01*
X86483511Y-81529939D01*
X86205704Y-81303365D01*
X85977195Y-81027146D01*
X85806690Y-80711803D01*
X85700681Y-80369344D01*
X85660000Y-79982288D01*
X85660000Y-69106203D01*
X87290000Y-69106203D01*
X87290000Y-69393797D01*
X87346107Y-69675866D01*
X87456165Y-69941569D01*
X87615944Y-70180696D01*
X87819304Y-70384056D01*
X88058431Y-70543835D01*
X88324134Y-70653893D01*
X88606203Y-70710000D01*
X88893797Y-70710000D01*
X89175866Y-70653893D01*
X89441569Y-70543835D01*
X89492501Y-70509804D01*
X89465000Y-70648061D01*
X89465000Y-70851939D01*
X89504774Y-71051898D01*
X89582795Y-71240256D01*
X89696063Y-71409774D01*
X89840226Y-71553937D01*
X90009744Y-71667205D01*
X90198102Y-71745226D01*
X90398061Y-71785000D01*
X90601939Y-71785000D01*
X90801898Y-71745226D01*
X90990256Y-71667205D01*
X91159774Y-71553937D01*
X91203711Y-71510000D01*
X97742462Y-71510000D01*
X97715000Y-71648061D01*
X97715000Y-71851939D01*
X97754774Y-72051898D01*
X97832795Y-72240256D01*
X97946063Y-72409774D01*
X98090226Y-72553937D01*
X98259744Y-72667205D01*
X98448102Y-72745226D01*
X98648061Y-72785000D01*
X98851939Y-72785000D01*
X99051898Y-72745226D01*
X99240256Y-72667205D01*
X99409774Y-72553937D01*
X99553937Y-72409774D01*
X99654013Y-72260000D01*
X103496440Y-72260000D01*
X103504774Y-72301898D01*
X103582795Y-72490256D01*
X103696063Y-72659774D01*
X103840226Y-72803937D01*
X104009744Y-72917205D01*
X104198102Y-72995226D01*
X104398061Y-73035000D01*
X104601939Y-73035000D01*
X104801898Y-72995226D01*
X104990256Y-72917205D01*
X105159774Y-72803937D01*
X105303937Y-72659774D01*
X105417205Y-72490256D01*
X105495226Y-72301898D01*
X105535000Y-72101939D01*
X105535000Y-71898061D01*
X105495226Y-71698102D01*
X105417311Y-71510000D01*
X109508201Y-71510000D01*
X112965001Y-74966801D01*
X112965002Y-79001412D01*
X112948102Y-79004774D01*
X112759744Y-79082795D01*
X112590226Y-79196063D01*
X112446063Y-79340226D01*
X112332795Y-79509744D01*
X112254774Y-79698102D01*
X112215000Y-79898061D01*
X112215000Y-80101939D01*
X112254774Y-80301898D01*
X112332795Y-80490256D01*
X112446063Y-80659774D01*
X112590226Y-80803937D01*
X112759744Y-80917205D01*
X112948102Y-80995226D01*
X113148061Y-81035000D01*
X113351939Y-81035000D01*
X113551898Y-80995226D01*
X113740256Y-80917205D01*
X113909774Y-80803937D01*
X114053937Y-80659774D01*
X114167205Y-80490256D01*
X114245226Y-80301898D01*
X114285000Y-80101939D01*
X114285000Y-80040632D01*
X114359975Y-79949275D01*
X114430547Y-79817246D01*
X114474004Y-79673985D01*
X114485001Y-79562332D01*
X114485001Y-79562322D01*
X114488677Y-79524999D01*
X114485001Y-79487676D01*
X114485001Y-75319431D01*
X117860174Y-75319431D01*
X117944764Y-75574378D01*
X118218609Y-75706025D01*
X118512876Y-75781716D01*
X118816256Y-75798545D01*
X119117089Y-75755865D01*
X119335044Y-75679431D01*
X122250174Y-75679431D01*
X122334764Y-75934378D01*
X122608609Y-76066025D01*
X122902876Y-76141716D01*
X123206256Y-76158545D01*
X123507089Y-76115865D01*
X123793815Y-76015314D01*
X123945236Y-75934378D01*
X124029826Y-75679431D01*
X123140000Y-74789605D01*
X122250174Y-75679431D01*
X119335044Y-75679431D01*
X119403815Y-75655314D01*
X119555236Y-75574378D01*
X119639826Y-75319431D01*
X118750000Y-74429605D01*
X117860174Y-75319431D01*
X114485001Y-75319431D01*
X114485001Y-74689322D01*
X114488677Y-74651999D01*
X114485001Y-74614676D01*
X114485001Y-74614666D01*
X114474004Y-74503013D01*
X114430547Y-74359752D01*
X114390591Y-74285000D01*
X114359975Y-74227722D01*
X114288800Y-74140996D01*
X114265002Y-74111998D01*
X114236005Y-74088201D01*
X110386806Y-70239003D01*
X110363003Y-70209999D01*
X110247278Y-70115026D01*
X110115249Y-70044454D01*
X109971988Y-70000997D01*
X109860335Y-69990000D01*
X109860324Y-69990000D01*
X109823002Y-69986324D01*
X109785680Y-69990000D01*
X106814515Y-69990000D01*
X106990256Y-69917205D01*
X107159774Y-69803937D01*
X107303937Y-69659774D01*
X107417205Y-69490256D01*
X107495226Y-69301898D01*
X107535000Y-69101939D01*
X107535000Y-69039801D01*
X109511003Y-67063799D01*
X109540001Y-67040001D01*
X109572011Y-67000997D01*
X109634974Y-66924277D01*
X109705546Y-66792247D01*
X109715328Y-66760000D01*
X109749003Y-66648986D01*
X109760000Y-66537333D01*
X109760000Y-66537323D01*
X109763676Y-66500000D01*
X109760000Y-66462677D01*
X109760000Y-66203711D01*
X109803937Y-66159774D01*
X109917205Y-65990256D01*
X109995226Y-65801898D01*
X110035000Y-65601939D01*
X110035000Y-65510000D01*
X112546289Y-65510000D01*
X112590226Y-65553937D01*
X112759744Y-65667205D01*
X112948102Y-65745226D01*
X113148061Y-65785000D01*
X113351939Y-65785000D01*
X113551898Y-65745226D01*
X113740256Y-65667205D01*
X113909774Y-65553937D01*
X114053937Y-65409774D01*
X114167205Y-65240256D01*
X114245226Y-65051898D01*
X114285000Y-64851939D01*
X114285000Y-64648061D01*
X114245226Y-64448102D01*
X114167205Y-64259744D01*
X114053937Y-64090226D01*
X113909774Y-63946063D01*
X113740256Y-63832795D01*
X113551898Y-63754774D01*
X113351939Y-63715000D01*
X113148061Y-63715000D01*
X112948102Y-63754774D01*
X112759744Y-63832795D01*
X112590226Y-63946063D01*
X112546289Y-63990000D01*
X105787325Y-63990000D01*
X105750000Y-63986324D01*
X105712675Y-63990000D01*
X105712667Y-63990000D01*
X105601014Y-64000997D01*
X105457753Y-64044454D01*
X105325724Y-64115026D01*
X105209999Y-64209999D01*
X105186196Y-64239003D01*
X104739003Y-64686196D01*
X104738997Y-64686201D01*
X104488997Y-64936202D01*
X104460000Y-64959999D01*
X104436202Y-64988997D01*
X104436201Y-64988998D01*
X104365026Y-65075724D01*
X104294454Y-65207754D01*
X104250998Y-65351015D01*
X104236324Y-65500000D01*
X104240001Y-65537332D01*
X104240000Y-68046289D01*
X104196063Y-68090226D01*
X104082795Y-68259744D01*
X104004774Y-68448102D01*
X103965000Y-68648061D01*
X103965000Y-68851939D01*
X104004774Y-69051898D01*
X104082795Y-69240256D01*
X104196063Y-69409774D01*
X104340226Y-69553937D01*
X104509744Y-69667205D01*
X104698102Y-69745226D01*
X104898061Y-69785000D01*
X105101939Y-69785000D01*
X105301898Y-69745226D01*
X105490256Y-69667205D01*
X105635972Y-69569841D01*
X105696063Y-69659774D01*
X105840226Y-69803937D01*
X106009744Y-69917205D01*
X106185485Y-69990000D01*
X98834801Y-69990000D01*
X107564802Y-61260000D01*
X108046289Y-61260000D01*
X108090226Y-61303937D01*
X108259744Y-61417205D01*
X108448102Y-61495226D01*
X108648061Y-61535000D01*
X108851939Y-61535000D01*
X109051898Y-61495226D01*
X109240256Y-61417205D01*
X109409774Y-61303937D01*
X109553937Y-61159774D01*
X109667205Y-60990256D01*
X109745226Y-60801898D01*
X109785000Y-60601939D01*
X109785000Y-60398061D01*
X109745226Y-60198102D01*
X109667205Y-60009744D01*
X109553937Y-59840226D01*
X109409774Y-59696063D01*
X109240256Y-59582795D01*
X109162941Y-59550770D01*
X109203711Y-59510000D01*
X113896993Y-59510000D01*
X113934315Y-59513676D01*
X113971637Y-59510000D01*
X113971648Y-59510000D01*
X114083301Y-59499003D01*
X114226562Y-59455546D01*
X114358591Y-59384974D01*
X114474316Y-59290001D01*
X114498119Y-59260997D01*
X114740001Y-59019115D01*
X114740000Y-65435198D01*
X112988998Y-67186201D01*
X112960000Y-67209999D01*
X112936202Y-67238997D01*
X112936201Y-67238998D01*
X112865026Y-67325724D01*
X112794454Y-67457754D01*
X112769947Y-67538545D01*
X112750998Y-67601014D01*
X112745977Y-67651997D01*
X112736324Y-67750000D01*
X112740001Y-67787332D01*
X112740000Y-69796289D01*
X112696063Y-69840226D01*
X112582795Y-70009744D01*
X112504774Y-70198102D01*
X112465000Y-70398061D01*
X112465000Y-70601939D01*
X112504774Y-70801898D01*
X112582795Y-70990256D01*
X112696063Y-71159774D01*
X112840226Y-71303937D01*
X113009744Y-71417205D01*
X113198102Y-71495226D01*
X113398061Y-71535000D01*
X113601939Y-71535000D01*
X113764999Y-71502566D01*
X113764999Y-72060678D01*
X113761323Y-72098001D01*
X113764999Y-72135323D01*
X113764999Y-72135333D01*
X113775996Y-72246986D01*
X113819453Y-72390247D01*
X113890025Y-72522277D01*
X113916008Y-72553937D01*
X113984998Y-72638002D01*
X114014001Y-72661804D01*
X114363198Y-73011002D01*
X114386997Y-73040001D01*
X114502722Y-73134974D01*
X114634751Y-73205546D01*
X114778012Y-73249003D01*
X114889665Y-73260000D01*
X114889674Y-73260000D01*
X114926997Y-73263676D01*
X114964320Y-73260000D01*
X116652780Y-73260000D01*
X116649259Y-73265269D01*
X116576892Y-73439978D01*
X116540000Y-73625448D01*
X116540000Y-73814552D01*
X116576892Y-74000022D01*
X116649259Y-74174731D01*
X116754319Y-74331964D01*
X116888036Y-74465681D01*
X117045269Y-74570741D01*
X117219978Y-74643108D01*
X117255755Y-74650224D01*
X117344686Y-74903815D01*
X117425622Y-75055236D01*
X117680569Y-75139826D01*
X118570395Y-74250000D01*
X118929605Y-74250000D01*
X119819431Y-75139826D01*
X120074378Y-75055236D01*
X120206025Y-74781391D01*
X120233067Y-74676256D01*
X121591455Y-74676256D01*
X121634135Y-74977089D01*
X121734686Y-75263815D01*
X121815622Y-75415236D01*
X122070569Y-75499826D01*
X122960395Y-74610000D01*
X122070569Y-73720174D01*
X121815622Y-73804764D01*
X121683975Y-74078609D01*
X121608284Y-74372876D01*
X121591455Y-74676256D01*
X120233067Y-74676256D01*
X120281716Y-74487124D01*
X120298545Y-74183744D01*
X120255865Y-73882911D01*
X120155314Y-73596185D01*
X120125587Y-73540569D01*
X122250174Y-73540569D01*
X123140000Y-74430395D01*
X124029826Y-73540569D01*
X123945236Y-73285622D01*
X123671391Y-73153975D01*
X123377124Y-73078284D01*
X123073744Y-73061455D01*
X122772911Y-73104135D01*
X122486185Y-73204686D01*
X122334764Y-73285622D01*
X122250174Y-73540569D01*
X120125587Y-73540569D01*
X120074378Y-73444764D01*
X119819431Y-73360174D01*
X118929605Y-74250000D01*
X118570395Y-74250000D01*
X118556253Y-74235858D01*
X118735858Y-74056253D01*
X118750000Y-74070395D01*
X119639826Y-73180569D01*
X119614403Y-73103945D01*
X119700741Y-72974731D01*
X119773108Y-72800022D01*
X119810000Y-72614552D01*
X119810000Y-72425448D01*
X119773108Y-72239978D01*
X119723411Y-72120000D01*
X119773108Y-72000022D01*
X119810000Y-71814552D01*
X119810000Y-71625448D01*
X119773108Y-71439978D01*
X119723411Y-71320000D01*
X119773108Y-71200022D01*
X119810000Y-71014552D01*
X119810000Y-70825448D01*
X119773108Y-70639978D01*
X119700741Y-70465269D01*
X119595681Y-70308036D01*
X119461964Y-70174319D01*
X119380670Y-70120000D01*
X119461964Y-70065681D01*
X119595681Y-69931964D01*
X119700741Y-69774731D01*
X119773108Y-69600022D01*
X119810000Y-69414552D01*
X119810000Y-69225448D01*
X119773108Y-69039978D01*
X119723411Y-68920000D01*
X119773108Y-68800022D01*
X119810000Y-68614552D01*
X119810000Y-68425448D01*
X119773108Y-68239978D01*
X119723411Y-68120000D01*
X119773108Y-68000022D01*
X119810000Y-67814552D01*
X119810000Y-67625448D01*
X119773108Y-67439978D01*
X119700741Y-67265269D01*
X119614403Y-67136055D01*
X119639826Y-67059431D01*
X118750000Y-66169605D01*
X118735858Y-66183748D01*
X118624139Y-66072029D01*
X118590161Y-65990000D01*
X118929605Y-65990000D01*
X119819431Y-66879826D01*
X120074378Y-66795236D01*
X120120434Y-66699431D01*
X122250174Y-66699431D01*
X122334764Y-66954378D01*
X122608609Y-67086025D01*
X122902876Y-67161716D01*
X123206256Y-67178545D01*
X123507089Y-67135865D01*
X123793815Y-67035314D01*
X123945236Y-66954378D01*
X124029826Y-66699431D01*
X123140000Y-65809605D01*
X122250174Y-66699431D01*
X120120434Y-66699431D01*
X120206025Y-66521391D01*
X120281716Y-66227124D01*
X120298545Y-65923744D01*
X120266271Y-65696256D01*
X121591455Y-65696256D01*
X121634135Y-65997089D01*
X121734686Y-66283815D01*
X121815622Y-66435236D01*
X122070569Y-66519826D01*
X122960395Y-65630000D01*
X122070569Y-64740174D01*
X121815622Y-64824764D01*
X121683975Y-65098609D01*
X121608284Y-65392876D01*
X121591455Y-65696256D01*
X120266271Y-65696256D01*
X120255865Y-65622911D01*
X120155314Y-65336185D01*
X120074378Y-65184764D01*
X119819431Y-65100174D01*
X118929605Y-65990000D01*
X118590161Y-65990000D01*
X118576087Y-65956023D01*
X118735858Y-65796253D01*
X118750000Y-65810395D01*
X119639826Y-64920569D01*
X119555236Y-64665622D01*
X119336711Y-64560569D01*
X122250174Y-64560569D01*
X123140000Y-65450395D01*
X124029826Y-64560569D01*
X123945236Y-64305622D01*
X123671391Y-64173975D01*
X123377124Y-64098284D01*
X123073744Y-64081455D01*
X122772911Y-64124135D01*
X122486185Y-64224686D01*
X122334764Y-64305622D01*
X122250174Y-64560569D01*
X119336711Y-64560569D01*
X119281391Y-64533975D01*
X119239580Y-64523220D01*
X119277799Y-64485001D01*
X119487677Y-64485001D01*
X119524999Y-64488677D01*
X119562321Y-64485001D01*
X119562332Y-64485001D01*
X119673985Y-64474004D01*
X119817246Y-64430547D01*
X119949275Y-64359975D01*
X120065000Y-64265002D01*
X120088803Y-64235999D01*
X120559801Y-63765000D01*
X120621939Y-63765000D01*
X120821898Y-63725226D01*
X121010256Y-63647205D01*
X121179774Y-63533937D01*
X121323937Y-63389774D01*
X121437205Y-63220256D01*
X121515226Y-63031898D01*
X121555000Y-62831939D01*
X121555000Y-62628061D01*
X121515226Y-62428102D01*
X121494852Y-62378915D01*
X121651127Y-62410000D01*
X121928873Y-62410000D01*
X122201282Y-62355814D01*
X122457885Y-62249525D01*
X122688822Y-62095218D01*
X122885218Y-61898822D01*
X123039525Y-61667885D01*
X123145814Y-61411282D01*
X123200000Y-61138873D01*
X123200000Y-60861127D01*
X123145814Y-60588718D01*
X123039525Y-60332115D01*
X122885218Y-60101178D01*
X122688822Y-59904782D01*
X122457885Y-59750475D01*
X122201282Y-59644186D01*
X121928873Y-59590000D01*
X121651127Y-59590000D01*
X121378718Y-59644186D01*
X121280000Y-59685077D01*
X121280000Y-58234331D01*
X121283677Y-58196998D01*
X121269003Y-58048012D01*
X121225546Y-57904751D01*
X121154974Y-57772722D01*
X121083799Y-57685995D01*
X121060001Y-57656997D01*
X121031003Y-57633199D01*
X118161805Y-54764002D01*
X118138002Y-54734998D01*
X118022277Y-54640025D01*
X117890248Y-54569453D01*
X117746987Y-54525996D01*
X117635334Y-54514999D01*
X117635323Y-54514999D01*
X117598001Y-54511323D01*
X117560679Y-54514999D01*
X117008533Y-54514999D01*
X116995226Y-54448102D01*
X116917205Y-54259744D01*
X116803937Y-54090226D01*
X116659774Y-53946063D01*
X116490256Y-53832795D01*
X116301898Y-53754774D01*
X116101939Y-53715000D01*
X115898061Y-53715000D01*
X115698102Y-53754774D01*
X115509744Y-53832795D01*
X115340226Y-53946063D01*
X115196063Y-54090226D01*
X115082795Y-54259744D01*
X115004774Y-54448102D01*
X114965000Y-54648061D01*
X114965000Y-54710198D01*
X114435199Y-55240000D01*
X112703711Y-55240000D01*
X112659774Y-55196063D01*
X112490256Y-55082795D01*
X112301898Y-55004774D01*
X112101939Y-54965000D01*
X111898061Y-54965000D01*
X111698102Y-55004774D01*
X111509744Y-55082795D01*
X111340226Y-55196063D01*
X111196063Y-55340226D01*
X111082795Y-55509744D01*
X111004774Y-55698102D01*
X110965000Y-55898061D01*
X110965000Y-56001413D01*
X110948102Y-56004774D01*
X110759744Y-56082795D01*
X110590226Y-56196063D01*
X110446063Y-56340226D01*
X110332795Y-56509744D01*
X110254774Y-56698102D01*
X110215000Y-56898061D01*
X110215000Y-57101939D01*
X110254774Y-57301898D01*
X110332795Y-57490256D01*
X110446063Y-57659774D01*
X110590226Y-57803937D01*
X110759744Y-57917205D01*
X110935485Y-57990000D01*
X109260000Y-57990000D01*
X109260000Y-56703711D01*
X109303937Y-56659774D01*
X109417205Y-56490256D01*
X109495226Y-56301898D01*
X109535000Y-56101939D01*
X109535000Y-55898061D01*
X109495226Y-55698102D01*
X109417205Y-55509744D01*
X109303937Y-55340226D01*
X109159774Y-55196063D01*
X108990256Y-55082795D01*
X108801898Y-55004774D01*
X108601939Y-54965000D01*
X108398061Y-54965000D01*
X108198102Y-55004774D01*
X108009744Y-55082795D01*
X107840226Y-55196063D01*
X107696063Y-55340226D01*
X107582795Y-55509744D01*
X107504774Y-55698102D01*
X107465000Y-55898061D01*
X107465000Y-56101939D01*
X107504774Y-56301898D01*
X107582795Y-56490256D01*
X107696063Y-56659774D01*
X107740000Y-56703711D01*
X107740001Y-58046288D01*
X107696063Y-58090226D01*
X107582795Y-58259744D01*
X107504774Y-58448102D01*
X107465000Y-58648061D01*
X107465000Y-58851939D01*
X107504774Y-59051898D01*
X107582795Y-59240256D01*
X107696063Y-59409774D01*
X107840226Y-59553937D01*
X108009744Y-59667205D01*
X108087059Y-59699230D01*
X108046289Y-59740000D01*
X107287322Y-59740000D01*
X107249999Y-59736324D01*
X107212676Y-59740000D01*
X107212667Y-59740000D01*
X107101014Y-59750997D01*
X106965032Y-59792246D01*
X106957753Y-59794454D01*
X106825723Y-59865026D01*
X106742083Y-59933668D01*
X106709999Y-59959999D01*
X106686201Y-59988997D01*
X105666504Y-61008694D01*
X105577172Y-60875000D01*
X105667205Y-60740256D01*
X105745226Y-60551898D01*
X105785000Y-60351939D01*
X105785000Y-60148061D01*
X105745226Y-59948102D01*
X105667205Y-59759744D01*
X105553937Y-59590226D01*
X105510000Y-59546289D01*
X105510000Y-57953711D01*
X105553937Y-57909774D01*
X105667205Y-57740256D01*
X105745226Y-57551898D01*
X105785000Y-57351939D01*
X105785000Y-57148061D01*
X105762511Y-57035000D01*
X105851939Y-57035000D01*
X106051898Y-56995226D01*
X106240256Y-56917205D01*
X106409774Y-56803937D01*
X106553937Y-56659774D01*
X106667205Y-56490256D01*
X106745226Y-56301898D01*
X106785000Y-56101939D01*
X106785000Y-55898061D01*
X106745226Y-55698102D01*
X106667205Y-55509744D01*
X106553937Y-55340226D01*
X106409774Y-55196063D01*
X106240256Y-55082795D01*
X106051898Y-55004774D01*
X105851939Y-54965000D01*
X105774226Y-54965000D01*
X105642248Y-54894455D01*
X105498987Y-54850998D01*
X105387334Y-54840001D01*
X105387323Y-54840001D01*
X105350001Y-54836325D01*
X105312679Y-54840001D01*
X101687324Y-54840001D01*
X101649999Y-54836325D01*
X101612674Y-54840001D01*
X101612666Y-54840001D01*
X101501013Y-54850998D01*
X101357752Y-54894455D01*
X101225723Y-54965027D01*
X101109998Y-55060000D01*
X101086200Y-55088998D01*
X100710198Y-55465000D01*
X100648061Y-55465000D01*
X100448102Y-55504774D01*
X100259744Y-55582795D01*
X100090226Y-55696063D01*
X99946063Y-55840226D01*
X99832795Y-56009744D01*
X99754774Y-56198102D01*
X99715000Y-56398061D01*
X99715000Y-56601939D01*
X99754774Y-56801898D01*
X99832795Y-56990256D01*
X99946063Y-57159774D01*
X100090226Y-57303937D01*
X100259744Y-57417205D01*
X100448102Y-57495226D01*
X100648061Y-57535000D01*
X100851939Y-57535000D01*
X101051898Y-57495226D01*
X101240256Y-57417205D01*
X101409774Y-57303937D01*
X101553937Y-57159774D01*
X101667205Y-56990256D01*
X101745226Y-56801898D01*
X101785000Y-56601939D01*
X101785000Y-56539802D01*
X101964801Y-56360001D01*
X104219027Y-56360001D01*
X104090226Y-56446063D01*
X103946063Y-56590226D01*
X103832795Y-56759744D01*
X103754774Y-56948102D01*
X103715000Y-57148061D01*
X103715000Y-57351939D01*
X103754774Y-57551898D01*
X103832795Y-57740256D01*
X103946063Y-57909774D01*
X103990000Y-57953711D01*
X103990001Y-59546288D01*
X103946063Y-59590226D01*
X103832795Y-59759744D01*
X103754774Y-59948102D01*
X103715000Y-60148061D01*
X103715000Y-60351939D01*
X103754774Y-60551898D01*
X103832795Y-60740256D01*
X103922828Y-60875000D01*
X103832795Y-61009744D01*
X103754774Y-61198102D01*
X103715000Y-61398061D01*
X103715000Y-61460198D01*
X100444455Y-64730744D01*
X100409774Y-64696063D01*
X100240256Y-64582795D01*
X100051898Y-64504774D01*
X99851939Y-64465000D01*
X99648061Y-64465000D01*
X99448102Y-64504774D01*
X99259744Y-64582795D01*
X99090226Y-64696063D01*
X98946063Y-64840226D01*
X98832795Y-65009744D01*
X98754774Y-65198102D01*
X98715000Y-65398061D01*
X98715000Y-65601939D01*
X98754774Y-65801898D01*
X98832795Y-65990256D01*
X98946063Y-66159774D01*
X99090226Y-66303937D01*
X99259744Y-66417205D01*
X99448102Y-66495226D01*
X99648061Y-66535000D01*
X99851939Y-66535000D01*
X100051898Y-66495226D01*
X100240256Y-66417205D01*
X100293711Y-66381487D01*
X97935199Y-68740000D01*
X97203711Y-68740000D01*
X97159774Y-68696063D01*
X96990256Y-68582795D01*
X96801898Y-68504774D01*
X96601939Y-68465000D01*
X96398061Y-68465000D01*
X96198102Y-68504774D01*
X96009744Y-68582795D01*
X95840226Y-68696063D01*
X95696063Y-68840226D01*
X95582795Y-69009744D01*
X95504774Y-69198102D01*
X95465000Y-69398061D01*
X95465000Y-69601939D01*
X95504774Y-69801898D01*
X95582689Y-69990000D01*
X91203711Y-69990000D01*
X91159774Y-69946063D01*
X90990256Y-69832795D01*
X90801898Y-69754774D01*
X90601939Y-69715000D01*
X90398061Y-69715000D01*
X90198102Y-69754774D01*
X90105283Y-69793221D01*
X90153893Y-69675866D01*
X90210000Y-69393797D01*
X90210000Y-69106203D01*
X90153893Y-68824134D01*
X90043835Y-68558431D01*
X89884056Y-68319304D01*
X89680696Y-68115944D01*
X89441569Y-67956165D01*
X89175866Y-67846107D01*
X88893797Y-67790000D01*
X88606203Y-67790000D01*
X88324134Y-67846107D01*
X88058431Y-67956165D01*
X87819304Y-68115944D01*
X87615944Y-68319304D01*
X87456165Y-68558431D01*
X87346107Y-68824134D01*
X87290000Y-69106203D01*
X85660000Y-69106203D01*
X85660000Y-65606203D01*
X87290000Y-65606203D01*
X87290000Y-65893797D01*
X87346107Y-66175866D01*
X87456165Y-66441569D01*
X87615944Y-66680696D01*
X87819304Y-66884056D01*
X88058431Y-67043835D01*
X88324134Y-67153893D01*
X88606203Y-67210000D01*
X88893797Y-67210000D01*
X89175866Y-67153893D01*
X89441569Y-67043835D01*
X89680696Y-66884056D01*
X89884056Y-66680696D01*
X90043835Y-66441569D01*
X90153893Y-66175866D01*
X90210000Y-65893797D01*
X90210000Y-65606203D01*
X90153893Y-65324134D01*
X90043835Y-65058431D01*
X89884056Y-64819304D01*
X89680696Y-64615944D01*
X89441569Y-64456165D01*
X89175866Y-64346107D01*
X88893797Y-64290000D01*
X88606203Y-64290000D01*
X88324134Y-64346107D01*
X88058431Y-64456165D01*
X87819304Y-64615944D01*
X87615944Y-64819304D01*
X87456165Y-65058431D01*
X87346107Y-65324134D01*
X87290000Y-65606203D01*
X85660000Y-65606203D01*
X85660000Y-62106203D01*
X87290000Y-62106203D01*
X87290000Y-62393797D01*
X87346107Y-62675866D01*
X87456165Y-62941569D01*
X87615944Y-63180696D01*
X87819304Y-63384056D01*
X88058431Y-63543835D01*
X88324134Y-63653893D01*
X88606203Y-63710000D01*
X88893797Y-63710000D01*
X89175866Y-63653893D01*
X89441569Y-63543835D01*
X89680696Y-63384056D01*
X89884056Y-63180696D01*
X90043835Y-62941569D01*
X90153893Y-62675866D01*
X90210000Y-62393797D01*
X90210000Y-62106203D01*
X90153893Y-61824134D01*
X90043835Y-61558431D01*
X89884056Y-61319304D01*
X89680696Y-61115944D01*
X89441569Y-60956165D01*
X89175866Y-60846107D01*
X88893797Y-60790000D01*
X88606203Y-60790000D01*
X88324134Y-60846107D01*
X88058431Y-60956165D01*
X87819304Y-61115944D01*
X87615944Y-61319304D01*
X87456165Y-61558431D01*
X87346107Y-61824134D01*
X87290000Y-62106203D01*
X85660000Y-62106203D01*
X85660000Y-55032279D01*
X85698147Y-54643225D01*
X85801763Y-54300033D01*
X85970062Y-53983511D01*
X86196637Y-53705701D01*
X86472856Y-53477194D01*
X86788197Y-53306690D01*
X87130656Y-53200681D01*
X87517712Y-53160000D01*
X122467721Y-53160000D01*
X122856775Y-53198147D01*
%TA.AperFunction,Conductor*%
D18*
G36*
X122856775Y-53198147D02*
G01*
X123199967Y-53301763D01*
X123516489Y-53470062D01*
X123794299Y-53696637D01*
X124022806Y-53972856D01*
X124193310Y-54288197D01*
X124299319Y-54630656D01*
X124340000Y-55017712D01*
X124340000Y-64783496D01*
X124209431Y-64740174D01*
X123319605Y-65630000D01*
X124209431Y-66519826D01*
X124340000Y-66476504D01*
X124340001Y-73763496D01*
X124209431Y-73720174D01*
X123319605Y-74610000D01*
X124209431Y-75499826D01*
X124340001Y-75456504D01*
X124340001Y-79967711D01*
X124301853Y-80356776D01*
X124198238Y-80699964D01*
X124029939Y-81016489D01*
X123803365Y-81294296D01*
X123527146Y-81522805D01*
X123211803Y-81693310D01*
X122869344Y-81799319D01*
X122482288Y-81840000D01*
X108535000Y-81840000D01*
X108535000Y-81773061D01*
X108495226Y-81573102D01*
X108417205Y-81384744D01*
X108303937Y-81215226D01*
X108159774Y-81071063D01*
X107990256Y-80957795D01*
X107801898Y-80879774D01*
X107601939Y-80840000D01*
X107398061Y-80840000D01*
X107198102Y-80879774D01*
X107009744Y-80957795D01*
X106840226Y-81071063D01*
X106696063Y-81215226D01*
X106679510Y-81240000D01*
X99814802Y-81240000D01*
X91785000Y-73210199D01*
X91785000Y-73148061D01*
X91745226Y-72948102D01*
X91667205Y-72759744D01*
X91553937Y-72590226D01*
X91409774Y-72446063D01*
X91240256Y-72332795D01*
X91051898Y-72254774D01*
X90851939Y-72215000D01*
X90648061Y-72215000D01*
X90448102Y-72254774D01*
X90259744Y-72332795D01*
X90167832Y-72394209D01*
X90153893Y-72324134D01*
X90043835Y-72058431D01*
X89884056Y-71819304D01*
X89680696Y-71615944D01*
X89441569Y-71456165D01*
X89175866Y-71346107D01*
X88893797Y-71290000D01*
X88606203Y-71290000D01*
X88324134Y-71346107D01*
X88058431Y-71456165D01*
X87819304Y-71615944D01*
X87615944Y-71819304D01*
X87456165Y-72058431D01*
X87346107Y-72324134D01*
X87290000Y-72606203D01*
X87290000Y-72893797D01*
X87346107Y-73175866D01*
X87456165Y-73441569D01*
X87615944Y-73680696D01*
X87819304Y-73884056D01*
X88058431Y-74043835D01*
X88324134Y-74153893D01*
X88606203Y-74210000D01*
X88893797Y-74210000D01*
X89175866Y-74153893D01*
X89441569Y-74043835D01*
X89680696Y-73884056D01*
X89830364Y-73734388D01*
X89832795Y-73740256D01*
X89946063Y-73909774D01*
X90090226Y-74053937D01*
X90259744Y-74167205D01*
X90448102Y-74245226D01*
X90648061Y-74285000D01*
X90710199Y-74285000D01*
X96793710Y-80368512D01*
X96740256Y-80332795D01*
X96551898Y-80254774D01*
X96351939Y-80215000D01*
X96148061Y-80215000D01*
X95948102Y-80254774D01*
X95759744Y-80332795D01*
X95590226Y-80446063D01*
X95546289Y-80490000D01*
X92753560Y-80490000D01*
X92745226Y-80448102D01*
X92667205Y-80259744D01*
X92553937Y-80090226D01*
X92409774Y-79946063D01*
X92240256Y-79832795D01*
X92051898Y-79754774D01*
X91851939Y-79715000D01*
X91648061Y-79715000D01*
X91448102Y-79754774D01*
X91259744Y-79832795D01*
X91090226Y-79946063D01*
X90946063Y-80090226D01*
X90832795Y-80259744D01*
X90754774Y-80448102D01*
X90715000Y-80648061D01*
X90715000Y-80851939D01*
X90754774Y-81051898D01*
X90832795Y-81240256D01*
X90946063Y-81409774D01*
X91090226Y-81553937D01*
X91259744Y-81667205D01*
X91400853Y-81725655D01*
X91436200Y-81761002D01*
X91459999Y-81790001D01*
X91520923Y-81840000D01*
X87532279Y-81840000D01*
X87143224Y-81801853D01*
X86800036Y-81698238D01*
X86483511Y-81529939D01*
X86205704Y-81303365D01*
X85977195Y-81027146D01*
X85806690Y-80711803D01*
X85700681Y-80369344D01*
X85660000Y-79982288D01*
X85660000Y-69106203D01*
X87290000Y-69106203D01*
X87290000Y-69393797D01*
X87346107Y-69675866D01*
X87456165Y-69941569D01*
X87615944Y-70180696D01*
X87819304Y-70384056D01*
X88058431Y-70543835D01*
X88324134Y-70653893D01*
X88606203Y-70710000D01*
X88893797Y-70710000D01*
X89175866Y-70653893D01*
X89441569Y-70543835D01*
X89492501Y-70509804D01*
X89465000Y-70648061D01*
X89465000Y-70851939D01*
X89504774Y-71051898D01*
X89582795Y-71240256D01*
X89696063Y-71409774D01*
X89840226Y-71553937D01*
X90009744Y-71667205D01*
X90198102Y-71745226D01*
X90398061Y-71785000D01*
X90601939Y-71785000D01*
X90801898Y-71745226D01*
X90990256Y-71667205D01*
X91159774Y-71553937D01*
X91203711Y-71510000D01*
X97742462Y-71510000D01*
X97715000Y-71648061D01*
X97715000Y-71851939D01*
X97754774Y-72051898D01*
X97832795Y-72240256D01*
X97946063Y-72409774D01*
X98090226Y-72553937D01*
X98259744Y-72667205D01*
X98448102Y-72745226D01*
X98648061Y-72785000D01*
X98851939Y-72785000D01*
X99051898Y-72745226D01*
X99240256Y-72667205D01*
X99409774Y-72553937D01*
X99553937Y-72409774D01*
X99654013Y-72260000D01*
X103496440Y-72260000D01*
X103504774Y-72301898D01*
X103582795Y-72490256D01*
X103696063Y-72659774D01*
X103840226Y-72803937D01*
X104009744Y-72917205D01*
X104198102Y-72995226D01*
X104398061Y-73035000D01*
X104601939Y-73035000D01*
X104801898Y-72995226D01*
X104990256Y-72917205D01*
X105159774Y-72803937D01*
X105303937Y-72659774D01*
X105417205Y-72490256D01*
X105495226Y-72301898D01*
X105535000Y-72101939D01*
X105535000Y-71898061D01*
X105495226Y-71698102D01*
X105417311Y-71510000D01*
X109508201Y-71510000D01*
X112965001Y-74966801D01*
X112965002Y-79001412D01*
X112948102Y-79004774D01*
X112759744Y-79082795D01*
X112590226Y-79196063D01*
X112446063Y-79340226D01*
X112332795Y-79509744D01*
X112254774Y-79698102D01*
X112215000Y-79898061D01*
X112215000Y-80101939D01*
X112254774Y-80301898D01*
X112332795Y-80490256D01*
X112446063Y-80659774D01*
X112590226Y-80803937D01*
X112759744Y-80917205D01*
X112948102Y-80995226D01*
X113148061Y-81035000D01*
X113351939Y-81035000D01*
X113551898Y-80995226D01*
X113740256Y-80917205D01*
X113909774Y-80803937D01*
X114053937Y-80659774D01*
X114167205Y-80490256D01*
X114245226Y-80301898D01*
X114285000Y-80101939D01*
X114285000Y-80040632D01*
X114359975Y-79949275D01*
X114430547Y-79817246D01*
X114474004Y-79673985D01*
X114485001Y-79562332D01*
X114485001Y-79562322D01*
X114488677Y-79524999D01*
X114485001Y-79487676D01*
X114485001Y-75319431D01*
X117860174Y-75319431D01*
X117944764Y-75574378D01*
X118218609Y-75706025D01*
X118512876Y-75781716D01*
X118816256Y-75798545D01*
X119117089Y-75755865D01*
X119335044Y-75679431D01*
X122250174Y-75679431D01*
X122334764Y-75934378D01*
X122608609Y-76066025D01*
X122902876Y-76141716D01*
X123206256Y-76158545D01*
X123507089Y-76115865D01*
X123793815Y-76015314D01*
X123945236Y-75934378D01*
X124029826Y-75679431D01*
X123140000Y-74789605D01*
X122250174Y-75679431D01*
X119335044Y-75679431D01*
X119403815Y-75655314D01*
X119555236Y-75574378D01*
X119639826Y-75319431D01*
X118750000Y-74429605D01*
X117860174Y-75319431D01*
X114485001Y-75319431D01*
X114485001Y-74689322D01*
X114488677Y-74651999D01*
X114485001Y-74614676D01*
X114485001Y-74614666D01*
X114474004Y-74503013D01*
X114430547Y-74359752D01*
X114390591Y-74285000D01*
X114359975Y-74227722D01*
X114288800Y-74140996D01*
X114265002Y-74111998D01*
X114236005Y-74088201D01*
X110386806Y-70239003D01*
X110363003Y-70209999D01*
X110247278Y-70115026D01*
X110115249Y-70044454D01*
X109971988Y-70000997D01*
X109860335Y-69990000D01*
X109860324Y-69990000D01*
X109823002Y-69986324D01*
X109785680Y-69990000D01*
X106814515Y-69990000D01*
X106990256Y-69917205D01*
X107159774Y-69803937D01*
X107303937Y-69659774D01*
X107417205Y-69490256D01*
X107495226Y-69301898D01*
X107535000Y-69101939D01*
X107535000Y-69039801D01*
X109511003Y-67063799D01*
X109540001Y-67040001D01*
X109572011Y-67000997D01*
X109634974Y-66924277D01*
X109705546Y-66792247D01*
X109715328Y-66760000D01*
X109749003Y-66648986D01*
X109760000Y-66537333D01*
X109760000Y-66537323D01*
X109763676Y-66500000D01*
X109760000Y-66462677D01*
X109760000Y-66203711D01*
X109803937Y-66159774D01*
X109917205Y-65990256D01*
X109995226Y-65801898D01*
X110035000Y-65601939D01*
X110035000Y-65510000D01*
X112546289Y-65510000D01*
X112590226Y-65553937D01*
X112759744Y-65667205D01*
X112948102Y-65745226D01*
X113148061Y-65785000D01*
X113351939Y-65785000D01*
X113551898Y-65745226D01*
X113740256Y-65667205D01*
X113909774Y-65553937D01*
X114053937Y-65409774D01*
X114167205Y-65240256D01*
X114245226Y-65051898D01*
X114285000Y-64851939D01*
X114285000Y-64648061D01*
X114245226Y-64448102D01*
X114167205Y-64259744D01*
X114053937Y-64090226D01*
X113909774Y-63946063D01*
X113740256Y-63832795D01*
X113551898Y-63754774D01*
X113351939Y-63715000D01*
X113148061Y-63715000D01*
X112948102Y-63754774D01*
X112759744Y-63832795D01*
X112590226Y-63946063D01*
X112546289Y-63990000D01*
X105787325Y-63990000D01*
X105750000Y-63986324D01*
X105712675Y-63990000D01*
X105712667Y-63990000D01*
X105601014Y-64000997D01*
X105457753Y-64044454D01*
X105325724Y-64115026D01*
X105209999Y-64209999D01*
X105186196Y-64239003D01*
X104739003Y-64686196D01*
X104738997Y-64686201D01*
X104488997Y-64936202D01*
X104460000Y-64959999D01*
X104436202Y-64988997D01*
X104436201Y-64988998D01*
X104365026Y-65075724D01*
X104294454Y-65207754D01*
X104250998Y-65351015D01*
X104236324Y-65500000D01*
X104240001Y-65537332D01*
X104240000Y-68046289D01*
X104196063Y-68090226D01*
X104082795Y-68259744D01*
X104004774Y-68448102D01*
X103965000Y-68648061D01*
X103965000Y-68851939D01*
X104004774Y-69051898D01*
X104082795Y-69240256D01*
X104196063Y-69409774D01*
X104340226Y-69553937D01*
X104509744Y-69667205D01*
X104698102Y-69745226D01*
X104898061Y-69785000D01*
X105101939Y-69785000D01*
X105301898Y-69745226D01*
X105490256Y-69667205D01*
X105635972Y-69569841D01*
X105696063Y-69659774D01*
X105840226Y-69803937D01*
X106009744Y-69917205D01*
X106185485Y-69990000D01*
X98834801Y-69990000D01*
X107564802Y-61260000D01*
X108046289Y-61260000D01*
X108090226Y-61303937D01*
X108259744Y-61417205D01*
X108448102Y-61495226D01*
X108648061Y-61535000D01*
X108851939Y-61535000D01*
X109051898Y-61495226D01*
X109240256Y-61417205D01*
X109409774Y-61303937D01*
X109553937Y-61159774D01*
X109667205Y-60990256D01*
X109745226Y-60801898D01*
X109785000Y-60601939D01*
X109785000Y-60398061D01*
X109745226Y-60198102D01*
X109667205Y-60009744D01*
X109553937Y-59840226D01*
X109409774Y-59696063D01*
X109240256Y-59582795D01*
X109162941Y-59550770D01*
X109203711Y-59510000D01*
X113896993Y-59510000D01*
X113934315Y-59513676D01*
X113971637Y-59510000D01*
X113971648Y-59510000D01*
X114083301Y-59499003D01*
X114226562Y-59455546D01*
X114358591Y-59384974D01*
X114474316Y-59290001D01*
X114498119Y-59260997D01*
X114740001Y-59019115D01*
X114740000Y-65435198D01*
X112988998Y-67186201D01*
X112960000Y-67209999D01*
X112936202Y-67238997D01*
X112936201Y-67238998D01*
X112865026Y-67325724D01*
X112794454Y-67457754D01*
X112769947Y-67538545D01*
X112750998Y-67601014D01*
X112745977Y-67651997D01*
X112736324Y-67750000D01*
X112740001Y-67787332D01*
X112740000Y-69796289D01*
X112696063Y-69840226D01*
X112582795Y-70009744D01*
X112504774Y-70198102D01*
X112465000Y-70398061D01*
X112465000Y-70601939D01*
X112504774Y-70801898D01*
X112582795Y-70990256D01*
X112696063Y-71159774D01*
X112840226Y-71303937D01*
X113009744Y-71417205D01*
X113198102Y-71495226D01*
X113398061Y-71535000D01*
X113601939Y-71535000D01*
X113764999Y-71502566D01*
X113764999Y-72060678D01*
X113761323Y-72098001D01*
X113764999Y-72135323D01*
X113764999Y-72135333D01*
X113775996Y-72246986D01*
X113819453Y-72390247D01*
X113890025Y-72522277D01*
X113916008Y-72553937D01*
X113984998Y-72638002D01*
X114014001Y-72661804D01*
X114363198Y-73011002D01*
X114386997Y-73040001D01*
X114502722Y-73134974D01*
X114634751Y-73205546D01*
X114778012Y-73249003D01*
X114889665Y-73260000D01*
X114889674Y-73260000D01*
X114926997Y-73263676D01*
X114964320Y-73260000D01*
X116652780Y-73260000D01*
X116649259Y-73265269D01*
X116576892Y-73439978D01*
X116540000Y-73625448D01*
X116540000Y-73814552D01*
X116576892Y-74000022D01*
X116649259Y-74174731D01*
X116754319Y-74331964D01*
X116888036Y-74465681D01*
X117045269Y-74570741D01*
X117219978Y-74643108D01*
X117255755Y-74650224D01*
X117344686Y-74903815D01*
X117425622Y-75055236D01*
X117680569Y-75139826D01*
X118570395Y-74250000D01*
X118929605Y-74250000D01*
X119819431Y-75139826D01*
X120074378Y-75055236D01*
X120206025Y-74781391D01*
X120233067Y-74676256D01*
X121591455Y-74676256D01*
X121634135Y-74977089D01*
X121734686Y-75263815D01*
X121815622Y-75415236D01*
X122070569Y-75499826D01*
X122960395Y-74610000D01*
X122070569Y-73720174D01*
X121815622Y-73804764D01*
X121683975Y-74078609D01*
X121608284Y-74372876D01*
X121591455Y-74676256D01*
X120233067Y-74676256D01*
X120281716Y-74487124D01*
X120298545Y-74183744D01*
X120255865Y-73882911D01*
X120155314Y-73596185D01*
X120125587Y-73540569D01*
X122250174Y-73540569D01*
X123140000Y-74430395D01*
X124029826Y-73540569D01*
X123945236Y-73285622D01*
X123671391Y-73153975D01*
X123377124Y-73078284D01*
X123073744Y-73061455D01*
X122772911Y-73104135D01*
X122486185Y-73204686D01*
X122334764Y-73285622D01*
X122250174Y-73540569D01*
X120125587Y-73540569D01*
X120074378Y-73444764D01*
X119819431Y-73360174D01*
X118929605Y-74250000D01*
X118570395Y-74250000D01*
X118556253Y-74235858D01*
X118735858Y-74056253D01*
X118750000Y-74070395D01*
X119639826Y-73180569D01*
X119614403Y-73103945D01*
X119700741Y-72974731D01*
X119773108Y-72800022D01*
X119810000Y-72614552D01*
X119810000Y-72425448D01*
X119773108Y-72239978D01*
X119723411Y-72120000D01*
X119773108Y-72000022D01*
X119810000Y-71814552D01*
X119810000Y-71625448D01*
X119773108Y-71439978D01*
X119723411Y-71320000D01*
X119773108Y-71200022D01*
X119810000Y-71014552D01*
X119810000Y-70825448D01*
X119773108Y-70639978D01*
X119700741Y-70465269D01*
X119595681Y-70308036D01*
X119461964Y-70174319D01*
X119380670Y-70120000D01*
X119461964Y-70065681D01*
X119595681Y-69931964D01*
X119700741Y-69774731D01*
X119773108Y-69600022D01*
X119810000Y-69414552D01*
X119810000Y-69225448D01*
X119773108Y-69039978D01*
X119723411Y-68920000D01*
X119773108Y-68800022D01*
X119810000Y-68614552D01*
X119810000Y-68425448D01*
X119773108Y-68239978D01*
X119723411Y-68120000D01*
X119773108Y-68000022D01*
X119810000Y-67814552D01*
X119810000Y-67625448D01*
X119773108Y-67439978D01*
X119700741Y-67265269D01*
X119614403Y-67136055D01*
X119639826Y-67059431D01*
X118750000Y-66169605D01*
X118735858Y-66183748D01*
X118624139Y-66072029D01*
X118590161Y-65990000D01*
X118929605Y-65990000D01*
X119819431Y-66879826D01*
X120074378Y-66795236D01*
X120120434Y-66699431D01*
X122250174Y-66699431D01*
X122334764Y-66954378D01*
X122608609Y-67086025D01*
X122902876Y-67161716D01*
X123206256Y-67178545D01*
X123507089Y-67135865D01*
X123793815Y-67035314D01*
X123945236Y-66954378D01*
X124029826Y-66699431D01*
X123140000Y-65809605D01*
X122250174Y-66699431D01*
X120120434Y-66699431D01*
X120206025Y-66521391D01*
X120281716Y-66227124D01*
X120298545Y-65923744D01*
X120266271Y-65696256D01*
X121591455Y-65696256D01*
X121634135Y-65997089D01*
X121734686Y-66283815D01*
X121815622Y-66435236D01*
X122070569Y-66519826D01*
X122960395Y-65630000D01*
X122070569Y-64740174D01*
X121815622Y-64824764D01*
X121683975Y-65098609D01*
X121608284Y-65392876D01*
X121591455Y-65696256D01*
X120266271Y-65696256D01*
X120255865Y-65622911D01*
X120155314Y-65336185D01*
X120074378Y-65184764D01*
X119819431Y-65100174D01*
X118929605Y-65990000D01*
X118590161Y-65990000D01*
X118576087Y-65956023D01*
X118735858Y-65796253D01*
X118750000Y-65810395D01*
X119639826Y-64920569D01*
X119555236Y-64665622D01*
X119336711Y-64560569D01*
X122250174Y-64560569D01*
X123140000Y-65450395D01*
X124029826Y-64560569D01*
X123945236Y-64305622D01*
X123671391Y-64173975D01*
X123377124Y-64098284D01*
X123073744Y-64081455D01*
X122772911Y-64124135D01*
X122486185Y-64224686D01*
X122334764Y-64305622D01*
X122250174Y-64560569D01*
X119336711Y-64560569D01*
X119281391Y-64533975D01*
X119239580Y-64523220D01*
X119277799Y-64485001D01*
X119487677Y-64485001D01*
X119524999Y-64488677D01*
X119562321Y-64485001D01*
X119562332Y-64485001D01*
X119673985Y-64474004D01*
X119817246Y-64430547D01*
X119949275Y-64359975D01*
X120065000Y-64265002D01*
X120088803Y-64235999D01*
X120559801Y-63765000D01*
X120621939Y-63765000D01*
X120821898Y-63725226D01*
X121010256Y-63647205D01*
X121179774Y-63533937D01*
X121323937Y-63389774D01*
X121437205Y-63220256D01*
X121515226Y-63031898D01*
X121555000Y-62831939D01*
X121555000Y-62628061D01*
X121515226Y-62428102D01*
X121494852Y-62378915D01*
X121651127Y-62410000D01*
X121928873Y-62410000D01*
X122201282Y-62355814D01*
X122457885Y-62249525D01*
X122688822Y-62095218D01*
X122885218Y-61898822D01*
X123039525Y-61667885D01*
X123145814Y-61411282D01*
X123200000Y-61138873D01*
X123200000Y-60861127D01*
X123145814Y-60588718D01*
X123039525Y-60332115D01*
X122885218Y-60101178D01*
X122688822Y-59904782D01*
X122457885Y-59750475D01*
X122201282Y-59644186D01*
X121928873Y-59590000D01*
X121651127Y-59590000D01*
X121378718Y-59644186D01*
X121280000Y-59685077D01*
X121280000Y-58234331D01*
X121283677Y-58196998D01*
X121269003Y-58048012D01*
X121225546Y-57904751D01*
X121154974Y-57772722D01*
X121083799Y-57685995D01*
X121060001Y-57656997D01*
X121031003Y-57633199D01*
X118161805Y-54764002D01*
X118138002Y-54734998D01*
X118022277Y-54640025D01*
X117890248Y-54569453D01*
X117746987Y-54525996D01*
X117635334Y-54514999D01*
X117635323Y-54514999D01*
X117598001Y-54511323D01*
X117560679Y-54514999D01*
X117008533Y-54514999D01*
X116995226Y-54448102D01*
X116917205Y-54259744D01*
X116803937Y-54090226D01*
X116659774Y-53946063D01*
X116490256Y-53832795D01*
X116301898Y-53754774D01*
X116101939Y-53715000D01*
X115898061Y-53715000D01*
X115698102Y-53754774D01*
X115509744Y-53832795D01*
X115340226Y-53946063D01*
X115196063Y-54090226D01*
X115082795Y-54259744D01*
X115004774Y-54448102D01*
X114965000Y-54648061D01*
X114965000Y-54710198D01*
X114435199Y-55240000D01*
X112703711Y-55240000D01*
X112659774Y-55196063D01*
X112490256Y-55082795D01*
X112301898Y-55004774D01*
X112101939Y-54965000D01*
X111898061Y-54965000D01*
X111698102Y-55004774D01*
X111509744Y-55082795D01*
X111340226Y-55196063D01*
X111196063Y-55340226D01*
X111082795Y-55509744D01*
X111004774Y-55698102D01*
X110965000Y-55898061D01*
X110965000Y-56001413D01*
X110948102Y-56004774D01*
X110759744Y-56082795D01*
X110590226Y-56196063D01*
X110446063Y-56340226D01*
X110332795Y-56509744D01*
X110254774Y-56698102D01*
X110215000Y-56898061D01*
X110215000Y-57101939D01*
X110254774Y-57301898D01*
X110332795Y-57490256D01*
X110446063Y-57659774D01*
X110590226Y-57803937D01*
X110759744Y-57917205D01*
X110935485Y-57990000D01*
X109260000Y-57990000D01*
X109260000Y-56703711D01*
X109303937Y-56659774D01*
X109417205Y-56490256D01*
X109495226Y-56301898D01*
X109535000Y-56101939D01*
X109535000Y-55898061D01*
X109495226Y-55698102D01*
X109417205Y-55509744D01*
X109303937Y-55340226D01*
X109159774Y-55196063D01*
X108990256Y-55082795D01*
X108801898Y-55004774D01*
X108601939Y-54965000D01*
X108398061Y-54965000D01*
X108198102Y-55004774D01*
X108009744Y-55082795D01*
X107840226Y-55196063D01*
X107696063Y-55340226D01*
X107582795Y-55509744D01*
X107504774Y-55698102D01*
X107465000Y-55898061D01*
X107465000Y-56101939D01*
X107504774Y-56301898D01*
X107582795Y-56490256D01*
X107696063Y-56659774D01*
X107740000Y-56703711D01*
X107740001Y-58046288D01*
X107696063Y-58090226D01*
X107582795Y-58259744D01*
X107504774Y-58448102D01*
X107465000Y-58648061D01*
X107465000Y-58851939D01*
X107504774Y-59051898D01*
X107582795Y-59240256D01*
X107696063Y-59409774D01*
X107840226Y-59553937D01*
X108009744Y-59667205D01*
X108087059Y-59699230D01*
X108046289Y-59740000D01*
X107287322Y-59740000D01*
X107249999Y-59736324D01*
X107212676Y-59740000D01*
X107212667Y-59740000D01*
X107101014Y-59750997D01*
X106965032Y-59792246D01*
X106957753Y-59794454D01*
X106825723Y-59865026D01*
X106742083Y-59933668D01*
X106709999Y-59959999D01*
X106686201Y-59988997D01*
X105666504Y-61008694D01*
X105577172Y-60875000D01*
X105667205Y-60740256D01*
X105745226Y-60551898D01*
X105785000Y-60351939D01*
X105785000Y-60148061D01*
X105745226Y-59948102D01*
X105667205Y-59759744D01*
X105553937Y-59590226D01*
X105510000Y-59546289D01*
X105510000Y-57953711D01*
X105553937Y-57909774D01*
X105667205Y-57740256D01*
X105745226Y-57551898D01*
X105785000Y-57351939D01*
X105785000Y-57148061D01*
X105762511Y-57035000D01*
X105851939Y-57035000D01*
X106051898Y-56995226D01*
X106240256Y-56917205D01*
X106409774Y-56803937D01*
X106553937Y-56659774D01*
X106667205Y-56490256D01*
X106745226Y-56301898D01*
X106785000Y-56101939D01*
X106785000Y-55898061D01*
X106745226Y-55698102D01*
X106667205Y-55509744D01*
X106553937Y-55340226D01*
X106409774Y-55196063D01*
X106240256Y-55082795D01*
X106051898Y-55004774D01*
X105851939Y-54965000D01*
X105774226Y-54965000D01*
X105642248Y-54894455D01*
X105498987Y-54850998D01*
X105387334Y-54840001D01*
X105387323Y-54840001D01*
X105350001Y-54836325D01*
X105312679Y-54840001D01*
X101687324Y-54840001D01*
X101649999Y-54836325D01*
X101612674Y-54840001D01*
X101612666Y-54840001D01*
X101501013Y-54850998D01*
X101357752Y-54894455D01*
X101225723Y-54965027D01*
X101109998Y-55060000D01*
X101086200Y-55088998D01*
X100710198Y-55465000D01*
X100648061Y-55465000D01*
X100448102Y-55504774D01*
X100259744Y-55582795D01*
X100090226Y-55696063D01*
X99946063Y-55840226D01*
X99832795Y-56009744D01*
X99754774Y-56198102D01*
X99715000Y-56398061D01*
X99715000Y-56601939D01*
X99754774Y-56801898D01*
X99832795Y-56990256D01*
X99946063Y-57159774D01*
X100090226Y-57303937D01*
X100259744Y-57417205D01*
X100448102Y-57495226D01*
X100648061Y-57535000D01*
X100851939Y-57535000D01*
X101051898Y-57495226D01*
X101240256Y-57417205D01*
X101409774Y-57303937D01*
X101553937Y-57159774D01*
X101667205Y-56990256D01*
X101745226Y-56801898D01*
X101785000Y-56601939D01*
X101785000Y-56539802D01*
X101964801Y-56360001D01*
X104219027Y-56360001D01*
X104090226Y-56446063D01*
X103946063Y-56590226D01*
X103832795Y-56759744D01*
X103754774Y-56948102D01*
X103715000Y-57148061D01*
X103715000Y-57351939D01*
X103754774Y-57551898D01*
X103832795Y-57740256D01*
X103946063Y-57909774D01*
X103990000Y-57953711D01*
X103990001Y-59546288D01*
X103946063Y-59590226D01*
X103832795Y-59759744D01*
X103754774Y-59948102D01*
X103715000Y-60148061D01*
X103715000Y-60351939D01*
X103754774Y-60551898D01*
X103832795Y-60740256D01*
X103922828Y-60875000D01*
X103832795Y-61009744D01*
X103754774Y-61198102D01*
X103715000Y-61398061D01*
X103715000Y-61460198D01*
X100444455Y-64730744D01*
X100409774Y-64696063D01*
X100240256Y-64582795D01*
X100051898Y-64504774D01*
X99851939Y-64465000D01*
X99648061Y-64465000D01*
X99448102Y-64504774D01*
X99259744Y-64582795D01*
X99090226Y-64696063D01*
X98946063Y-64840226D01*
X98832795Y-65009744D01*
X98754774Y-65198102D01*
X98715000Y-65398061D01*
X98715000Y-65601939D01*
X98754774Y-65801898D01*
X98832795Y-65990256D01*
X98946063Y-66159774D01*
X99090226Y-66303937D01*
X99259744Y-66417205D01*
X99448102Y-66495226D01*
X99648061Y-66535000D01*
X99851939Y-66535000D01*
X100051898Y-66495226D01*
X100240256Y-66417205D01*
X100293711Y-66381487D01*
X97935199Y-68740000D01*
X97203711Y-68740000D01*
X97159774Y-68696063D01*
X96990256Y-68582795D01*
X96801898Y-68504774D01*
X96601939Y-68465000D01*
X96398061Y-68465000D01*
X96198102Y-68504774D01*
X96009744Y-68582795D01*
X95840226Y-68696063D01*
X95696063Y-68840226D01*
X95582795Y-69009744D01*
X95504774Y-69198102D01*
X95465000Y-69398061D01*
X95465000Y-69601939D01*
X95504774Y-69801898D01*
X95582689Y-69990000D01*
X91203711Y-69990000D01*
X91159774Y-69946063D01*
X90990256Y-69832795D01*
X90801898Y-69754774D01*
X90601939Y-69715000D01*
X90398061Y-69715000D01*
X90198102Y-69754774D01*
X90105283Y-69793221D01*
X90153893Y-69675866D01*
X90210000Y-69393797D01*
X90210000Y-69106203D01*
X90153893Y-68824134D01*
X90043835Y-68558431D01*
X89884056Y-68319304D01*
X89680696Y-68115944D01*
X89441569Y-67956165D01*
X89175866Y-67846107D01*
X88893797Y-67790000D01*
X88606203Y-67790000D01*
X88324134Y-67846107D01*
X88058431Y-67956165D01*
X87819304Y-68115944D01*
X87615944Y-68319304D01*
X87456165Y-68558431D01*
X87346107Y-68824134D01*
X87290000Y-69106203D01*
X85660000Y-69106203D01*
X85660000Y-65606203D01*
X87290000Y-65606203D01*
X87290000Y-65893797D01*
X87346107Y-66175866D01*
X87456165Y-66441569D01*
X87615944Y-66680696D01*
X87819304Y-66884056D01*
X88058431Y-67043835D01*
X88324134Y-67153893D01*
X88606203Y-67210000D01*
X88893797Y-67210000D01*
X89175866Y-67153893D01*
X89441569Y-67043835D01*
X89680696Y-66884056D01*
X89884056Y-66680696D01*
X90043835Y-66441569D01*
X90153893Y-66175866D01*
X90210000Y-65893797D01*
X90210000Y-65606203D01*
X90153893Y-65324134D01*
X90043835Y-65058431D01*
X89884056Y-64819304D01*
X89680696Y-64615944D01*
X89441569Y-64456165D01*
X89175866Y-64346107D01*
X88893797Y-64290000D01*
X88606203Y-64290000D01*
X88324134Y-64346107D01*
X88058431Y-64456165D01*
X87819304Y-64615944D01*
X87615944Y-64819304D01*
X87456165Y-65058431D01*
X87346107Y-65324134D01*
X87290000Y-65606203D01*
X85660000Y-65606203D01*
X85660000Y-62106203D01*
X87290000Y-62106203D01*
X87290000Y-62393797D01*
X87346107Y-62675866D01*
X87456165Y-62941569D01*
X87615944Y-63180696D01*
X87819304Y-63384056D01*
X88058431Y-63543835D01*
X88324134Y-63653893D01*
X88606203Y-63710000D01*
X88893797Y-63710000D01*
X89175866Y-63653893D01*
X89441569Y-63543835D01*
X89680696Y-63384056D01*
X89884056Y-63180696D01*
X90043835Y-62941569D01*
X90153893Y-62675866D01*
X90210000Y-62393797D01*
X90210000Y-62106203D01*
X90153893Y-61824134D01*
X90043835Y-61558431D01*
X89884056Y-61319304D01*
X89680696Y-61115944D01*
X89441569Y-60956165D01*
X89175866Y-60846107D01*
X88893797Y-60790000D01*
X88606203Y-60790000D01*
X88324134Y-60846107D01*
X88058431Y-60956165D01*
X87819304Y-61115944D01*
X87615944Y-61319304D01*
X87456165Y-61558431D01*
X87346107Y-61824134D01*
X87290000Y-62106203D01*
X85660000Y-62106203D01*
X85660000Y-55032279D01*
X85698147Y-54643225D01*
X85801763Y-54300033D01*
X85970062Y-53983511D01*
X86196637Y-53705701D01*
X86472856Y-53477194D01*
X86788197Y-53306690D01*
X87130656Y-53200681D01*
X87517712Y-53160000D01*
X122467721Y-53160000D01*
X122856775Y-53198147D01*
G37*
%TD.AperFunction*%
%TD*%
M02*
