%TF.GenerationSoftware,KiCad,Pcbnew,(5.1.10)-1*%
%TF.CreationDate,2021-09-16T11:14:36+02:00*%
%TF.ProjectId,ThermoDeviceLogger,54686572-6d6f-4446-9576-6963654c6f67,rev?*%
%TF.SameCoordinates,Original*%
%TF.FileFunction,Legend,Bot*%
%TF.FilePolarity,Positive*%
%FSLAX46Y46*%
G04 Gerber Fmt 4.6, Leading zero omitted, Abs format (unit mm)*
G04 Created by KiCad (PCBNEW (5.1.10)-1) date 2021-09-16 11:14:36*
%MOMM*%
%LPD*%
G01*
G04 APERTURE LIST*
%ADD10C,0.200000*%
%ADD11C,0.010000*%
G04 APERTURE END LIST*
D10*
X119485714Y-79997619D02*
X119485714Y-78897619D01*
X119485714Y-79421428D02*
X118857142Y-79421428D01*
X118857142Y-79997619D02*
X118857142Y-78897619D01*
X118490476Y-79264285D02*
X118071428Y-79264285D01*
X118333333Y-78897619D02*
X118333333Y-79840476D01*
X118280952Y-79945238D01*
X118176190Y-79997619D01*
X118071428Y-79997619D01*
X117861904Y-79264285D02*
X117442857Y-79264285D01*
X117704761Y-78897619D02*
X117704761Y-79840476D01*
X117652380Y-79945238D01*
X117547619Y-79997619D01*
X117442857Y-79997619D01*
X117076190Y-79264285D02*
X117076190Y-80364285D01*
X117076190Y-79316666D02*
X116971428Y-79264285D01*
X116761904Y-79264285D01*
X116657142Y-79316666D01*
X116604761Y-79369047D01*
X116552380Y-79473809D01*
X116552380Y-79788095D01*
X116604761Y-79892857D01*
X116657142Y-79945238D01*
X116761904Y-79997619D01*
X116971428Y-79997619D01*
X117076190Y-79945238D01*
X116133333Y-79945238D02*
X116028571Y-79997619D01*
X115819047Y-79997619D01*
X115714285Y-79945238D01*
X115661904Y-79840476D01*
X115661904Y-79788095D01*
X115714285Y-79683333D01*
X115819047Y-79630952D01*
X115976190Y-79630952D01*
X116080952Y-79578571D01*
X116133333Y-79473809D01*
X116133333Y-79421428D01*
X116080952Y-79316666D01*
X115976190Y-79264285D01*
X115819047Y-79264285D01*
X115714285Y-79316666D01*
X115190476Y-79892857D02*
X115138095Y-79945238D01*
X115190476Y-79997619D01*
X115242857Y-79945238D01*
X115190476Y-79892857D01*
X115190476Y-79997619D01*
X115190476Y-79316666D02*
X115138095Y-79369047D01*
X115190476Y-79421428D01*
X115242857Y-79369047D01*
X115190476Y-79316666D01*
X115190476Y-79421428D01*
X113880952Y-78845238D02*
X114823809Y-80259523D01*
X112728571Y-78845238D02*
X113671428Y-80259523D01*
X112361904Y-79997619D02*
X112361904Y-79264285D01*
X112361904Y-79369047D02*
X112309523Y-79316666D01*
X112204761Y-79264285D01*
X112047619Y-79264285D01*
X111942857Y-79316666D01*
X111890476Y-79421428D01*
X111890476Y-79997619D01*
X111890476Y-79421428D02*
X111838095Y-79316666D01*
X111733333Y-79264285D01*
X111576190Y-79264285D01*
X111471428Y-79316666D01*
X111419047Y-79421428D01*
X111419047Y-79997619D01*
X110423809Y-79997619D02*
X110423809Y-79421428D01*
X110476190Y-79316666D01*
X110580952Y-79264285D01*
X110790476Y-79264285D01*
X110895238Y-79316666D01*
X110423809Y-79945238D02*
X110528571Y-79997619D01*
X110790476Y-79997619D01*
X110895238Y-79945238D01*
X110947619Y-79840476D01*
X110947619Y-79735714D01*
X110895238Y-79630952D01*
X110790476Y-79578571D01*
X110528571Y-79578571D01*
X110423809Y-79526190D01*
X109900000Y-79997619D02*
X109900000Y-78897619D01*
X109795238Y-79578571D02*
X109480952Y-79997619D01*
X109480952Y-79264285D02*
X109900000Y-79683333D01*
X109009523Y-79997619D02*
X109009523Y-79264285D01*
X109009523Y-78897619D02*
X109061904Y-78950000D01*
X109009523Y-79002380D01*
X108957142Y-78950000D01*
X109009523Y-78897619D01*
X109009523Y-79002380D01*
X108485714Y-79264285D02*
X108485714Y-79997619D01*
X108485714Y-79369047D02*
X108433333Y-79316666D01*
X108328571Y-79264285D01*
X108171428Y-79264285D01*
X108066666Y-79316666D01*
X108014285Y-79421428D01*
X108014285Y-79997619D01*
X107019047Y-79264285D02*
X107019047Y-80154761D01*
X107071428Y-80259523D01*
X107123809Y-80311904D01*
X107228571Y-80364285D01*
X107385714Y-80364285D01*
X107490476Y-80311904D01*
X107019047Y-79945238D02*
X107123809Y-79997619D01*
X107333333Y-79997619D01*
X107438095Y-79945238D01*
X107490476Y-79892857D01*
X107542857Y-79788095D01*
X107542857Y-79473809D01*
X107490476Y-79369047D01*
X107438095Y-79316666D01*
X107333333Y-79264285D01*
X107123809Y-79264285D01*
X107019047Y-79316666D01*
X106023809Y-79997619D02*
X106023809Y-78897619D01*
X106023809Y-79945238D02*
X106128571Y-79997619D01*
X106338095Y-79997619D01*
X106442857Y-79945238D01*
X106495238Y-79892857D01*
X106547619Y-79788095D01*
X106547619Y-79473809D01*
X106495238Y-79369047D01*
X106442857Y-79316666D01*
X106338095Y-79264285D01*
X106128571Y-79264285D01*
X106023809Y-79316666D01*
X105080952Y-79945238D02*
X105185714Y-79997619D01*
X105395238Y-79997619D01*
X105500000Y-79945238D01*
X105552380Y-79840476D01*
X105552380Y-79421428D01*
X105500000Y-79316666D01*
X105395238Y-79264285D01*
X105185714Y-79264285D01*
X105080952Y-79316666D01*
X105028571Y-79421428D01*
X105028571Y-79526190D01*
X105552380Y-79630952D01*
X104661904Y-79264285D02*
X104400000Y-79997619D01*
X104138095Y-79264285D01*
X103719047Y-79997619D02*
X103719047Y-79264285D01*
X103719047Y-78897619D02*
X103771428Y-78950000D01*
X103719047Y-79002380D01*
X103666666Y-78950000D01*
X103719047Y-78897619D01*
X103719047Y-79002380D01*
X102723809Y-79945238D02*
X102828571Y-79997619D01*
X103038095Y-79997619D01*
X103142857Y-79945238D01*
X103195238Y-79892857D01*
X103247619Y-79788095D01*
X103247619Y-79473809D01*
X103195238Y-79369047D01*
X103142857Y-79316666D01*
X103038095Y-79264285D01*
X102828571Y-79264285D01*
X102723809Y-79316666D01*
X101833333Y-79945238D02*
X101938095Y-79997619D01*
X102147619Y-79997619D01*
X102252380Y-79945238D01*
X102304761Y-79840476D01*
X102304761Y-79421428D01*
X102252380Y-79316666D01*
X102147619Y-79264285D01*
X101938095Y-79264285D01*
X101833333Y-79316666D01*
X101780952Y-79421428D01*
X101780952Y-79526190D01*
X102304761Y-79630952D01*
X101361904Y-79945238D02*
X101257142Y-79997619D01*
X101047619Y-79997619D01*
X100942857Y-79945238D01*
X100890476Y-79840476D01*
X100890476Y-79788095D01*
X100942857Y-79683333D01*
X101047619Y-79630952D01*
X101204761Y-79630952D01*
X101309523Y-79578571D01*
X101361904Y-79473809D01*
X101361904Y-79421428D01*
X101309523Y-79316666D01*
X101204761Y-79264285D01*
X101047619Y-79264285D01*
X100942857Y-79316666D01*
X100419047Y-79892857D02*
X100366666Y-79945238D01*
X100419047Y-79997619D01*
X100471428Y-79945238D01*
X100419047Y-79892857D01*
X100419047Y-79997619D01*
X99423809Y-79945238D02*
X99528571Y-79997619D01*
X99738095Y-79997619D01*
X99842857Y-79945238D01*
X99895238Y-79892857D01*
X99947619Y-79788095D01*
X99947619Y-79473809D01*
X99895238Y-79369047D01*
X99842857Y-79316666D01*
X99738095Y-79264285D01*
X99528571Y-79264285D01*
X99423809Y-79316666D01*
X98795238Y-79997619D02*
X98900000Y-79945238D01*
X98952380Y-79892857D01*
X99004761Y-79788095D01*
X99004761Y-79473809D01*
X98952380Y-79369047D01*
X98900000Y-79316666D01*
X98795238Y-79264285D01*
X98638095Y-79264285D01*
X98533333Y-79316666D01*
X98480952Y-79369047D01*
X98428571Y-79473809D01*
X98428571Y-79788095D01*
X98480952Y-79892857D01*
X98533333Y-79945238D01*
X98638095Y-79997619D01*
X98795238Y-79997619D01*
X97957142Y-79997619D02*
X97957142Y-79264285D01*
X97957142Y-79369047D02*
X97904761Y-79316666D01*
X97800000Y-79264285D01*
X97642857Y-79264285D01*
X97538095Y-79316666D01*
X97485714Y-79421428D01*
X97485714Y-79997619D01*
X97485714Y-79421428D02*
X97433333Y-79316666D01*
X97328571Y-79264285D01*
X97171428Y-79264285D01*
X97066666Y-79316666D01*
X97014285Y-79421428D01*
X97014285Y-79997619D01*
X119680952Y-80897619D02*
X119052380Y-80897619D01*
X119366666Y-81997619D02*
X119366666Y-80897619D01*
X118685714Y-81997619D02*
X118685714Y-80897619D01*
X118214285Y-81997619D02*
X118214285Y-81421428D01*
X118266666Y-81316666D01*
X118371428Y-81264285D01*
X118528571Y-81264285D01*
X118633333Y-81316666D01*
X118685714Y-81369047D01*
X117271428Y-81945238D02*
X117376190Y-81997619D01*
X117585714Y-81997619D01*
X117690476Y-81945238D01*
X117742857Y-81840476D01*
X117742857Y-81421428D01*
X117690476Y-81316666D01*
X117585714Y-81264285D01*
X117376190Y-81264285D01*
X117271428Y-81316666D01*
X117219047Y-81421428D01*
X117219047Y-81526190D01*
X117742857Y-81630952D01*
X116747619Y-81997619D02*
X116747619Y-81264285D01*
X116747619Y-81473809D02*
X116695238Y-81369047D01*
X116642857Y-81316666D01*
X116538095Y-81264285D01*
X116433333Y-81264285D01*
X116066666Y-81997619D02*
X116066666Y-81264285D01*
X116066666Y-81369047D02*
X116014285Y-81316666D01*
X115909523Y-81264285D01*
X115752380Y-81264285D01*
X115647619Y-81316666D01*
X115595238Y-81421428D01*
X115595238Y-81997619D01*
X115595238Y-81421428D02*
X115542857Y-81316666D01*
X115438095Y-81264285D01*
X115280952Y-81264285D01*
X115176190Y-81316666D01*
X115123809Y-81421428D01*
X115123809Y-81997619D01*
X114442857Y-81997619D02*
X114547619Y-81945238D01*
X114600000Y-81892857D01*
X114652380Y-81788095D01*
X114652380Y-81473809D01*
X114600000Y-81369047D01*
X114547619Y-81316666D01*
X114442857Y-81264285D01*
X114285714Y-81264285D01*
X114180952Y-81316666D01*
X114128571Y-81369047D01*
X114076190Y-81473809D01*
X114076190Y-81788095D01*
X114128571Y-81892857D01*
X114180952Y-81945238D01*
X114285714Y-81997619D01*
X114442857Y-81997619D01*
X112766666Y-81997619D02*
X112766666Y-80897619D01*
X112504761Y-80897619D01*
X112347619Y-80950000D01*
X112242857Y-81054761D01*
X112190476Y-81159523D01*
X112138095Y-81369047D01*
X112138095Y-81526190D01*
X112190476Y-81735714D01*
X112242857Y-81840476D01*
X112347619Y-81945238D01*
X112504761Y-81997619D01*
X112766666Y-81997619D01*
X111247619Y-81945238D02*
X111352380Y-81997619D01*
X111561904Y-81997619D01*
X111666666Y-81945238D01*
X111719047Y-81840476D01*
X111719047Y-81421428D01*
X111666666Y-81316666D01*
X111561904Y-81264285D01*
X111352380Y-81264285D01*
X111247619Y-81316666D01*
X111195238Y-81421428D01*
X111195238Y-81526190D01*
X111719047Y-81630952D01*
X110828571Y-81264285D02*
X110566666Y-81997619D01*
X110304761Y-81264285D01*
X109885714Y-81997619D02*
X109885714Y-81264285D01*
X109885714Y-80897619D02*
X109938095Y-80950000D01*
X109885714Y-81002380D01*
X109833333Y-80950000D01*
X109885714Y-80897619D01*
X109885714Y-81002380D01*
X108890476Y-81945238D02*
X108995238Y-81997619D01*
X109204761Y-81997619D01*
X109309523Y-81945238D01*
X109361904Y-81892857D01*
X109414285Y-81788095D01*
X109414285Y-81473809D01*
X109361904Y-81369047D01*
X109309523Y-81316666D01*
X109204761Y-81264285D01*
X108995238Y-81264285D01*
X108890476Y-81316666D01*
X108000000Y-81945238D02*
X108104761Y-81997619D01*
X108314285Y-81997619D01*
X108419047Y-81945238D01*
X108471428Y-81840476D01*
X108471428Y-81421428D01*
X108419047Y-81316666D01*
X108314285Y-81264285D01*
X108104761Y-81264285D01*
X108000000Y-81316666D01*
X107947619Y-81421428D01*
X107947619Y-81526190D01*
X108471428Y-81630952D01*
X106114285Y-81997619D02*
X106638095Y-81997619D01*
X106638095Y-80897619D01*
X105590476Y-81997619D02*
X105695238Y-81945238D01*
X105747619Y-81892857D01*
X105800000Y-81788095D01*
X105800000Y-81473809D01*
X105747619Y-81369047D01*
X105695238Y-81316666D01*
X105590476Y-81264285D01*
X105433333Y-81264285D01*
X105328571Y-81316666D01*
X105276190Y-81369047D01*
X105223809Y-81473809D01*
X105223809Y-81788095D01*
X105276190Y-81892857D01*
X105328571Y-81945238D01*
X105433333Y-81997619D01*
X105590476Y-81997619D01*
X104280952Y-81264285D02*
X104280952Y-82154761D01*
X104333333Y-82259523D01*
X104385714Y-82311904D01*
X104490476Y-82364285D01*
X104647619Y-82364285D01*
X104752380Y-82311904D01*
X104280952Y-81945238D02*
X104385714Y-81997619D01*
X104595238Y-81997619D01*
X104700000Y-81945238D01*
X104752380Y-81892857D01*
X104804761Y-81788095D01*
X104804761Y-81473809D01*
X104752380Y-81369047D01*
X104700000Y-81316666D01*
X104595238Y-81264285D01*
X104385714Y-81264285D01*
X104280952Y-81316666D01*
X103285714Y-81264285D02*
X103285714Y-82154761D01*
X103338095Y-82259523D01*
X103390476Y-82311904D01*
X103495238Y-82364285D01*
X103652380Y-82364285D01*
X103757142Y-82311904D01*
X103285714Y-81945238D02*
X103390476Y-81997619D01*
X103600000Y-81997619D01*
X103704761Y-81945238D01*
X103757142Y-81892857D01*
X103809523Y-81788095D01*
X103809523Y-81473809D01*
X103757142Y-81369047D01*
X103704761Y-81316666D01*
X103600000Y-81264285D01*
X103390476Y-81264285D01*
X103285714Y-81316666D01*
X102342857Y-81945238D02*
X102447619Y-81997619D01*
X102657142Y-81997619D01*
X102761904Y-81945238D01*
X102814285Y-81840476D01*
X102814285Y-81421428D01*
X102761904Y-81316666D01*
X102657142Y-81264285D01*
X102447619Y-81264285D01*
X102342857Y-81316666D01*
X102290476Y-81421428D01*
X102290476Y-81526190D01*
X102814285Y-81630952D01*
X101819047Y-81997619D02*
X101819047Y-81264285D01*
X101819047Y-81473809D02*
X101766666Y-81369047D01*
X101714285Y-81316666D01*
X101609523Y-81264285D01*
X101504761Y-81264285D01*
X100090476Y-80897619D02*
X99985714Y-80897619D01*
X99880952Y-80950000D01*
X99828571Y-81002380D01*
X99776190Y-81107142D01*
X99723809Y-81316666D01*
X99723809Y-81578571D01*
X99776190Y-81788095D01*
X99828571Y-81892857D01*
X99880952Y-81945238D01*
X99985714Y-81997619D01*
X100090476Y-81997619D01*
X100195238Y-81945238D01*
X100247619Y-81892857D01*
X100300000Y-81788095D01*
X100352380Y-81578571D01*
X100352380Y-81316666D01*
X100300000Y-81107142D01*
X100247619Y-81002380D01*
X100195238Y-80950000D01*
X100090476Y-80897619D01*
X99252380Y-81892857D02*
X99200000Y-81945238D01*
X99252380Y-81997619D01*
X99304761Y-81945238D01*
X99252380Y-81892857D01*
X99252380Y-81997619D01*
X98152380Y-81997619D02*
X98780952Y-81997619D01*
X98466666Y-81997619D02*
X98466666Y-80897619D01*
X98571428Y-81054761D01*
X98676190Y-81159523D01*
X98780952Y-81211904D01*
X96842857Y-81578571D02*
X96004761Y-81578571D01*
X94695238Y-81002380D02*
X94642857Y-80950000D01*
X94538095Y-80897619D01*
X94276190Y-80897619D01*
X94171428Y-80950000D01*
X94119047Y-81002380D01*
X94066666Y-81107142D01*
X94066666Y-81211904D01*
X94119047Y-81369047D01*
X94747619Y-81997619D01*
X94066666Y-81997619D01*
X93385714Y-80897619D02*
X93280952Y-80897619D01*
X93176190Y-80950000D01*
X93123809Y-81002380D01*
X93071428Y-81107142D01*
X93019047Y-81316666D01*
X93019047Y-81578571D01*
X93071428Y-81788095D01*
X93123809Y-81892857D01*
X93176190Y-81945238D01*
X93280952Y-81997619D01*
X93385714Y-81997619D01*
X93490476Y-81945238D01*
X93542857Y-81892857D01*
X93595238Y-81788095D01*
X93647619Y-81578571D01*
X93647619Y-81316666D01*
X93595238Y-81107142D01*
X93542857Y-81002380D01*
X93490476Y-80950000D01*
X93385714Y-80897619D01*
X92600000Y-81002380D02*
X92547619Y-80950000D01*
X92442857Y-80897619D01*
X92180952Y-80897619D01*
X92076190Y-80950000D01*
X92023809Y-81002380D01*
X91971428Y-81107142D01*
X91971428Y-81211904D01*
X92023809Y-81369047D01*
X92652380Y-81997619D01*
X91971428Y-81997619D01*
X90923809Y-81997619D02*
X91552380Y-81997619D01*
X91238095Y-81997619D02*
X91238095Y-80897619D01*
X91342857Y-81054761D01*
X91447619Y-81159523D01*
X91552380Y-81211904D01*
D11*
%TO.C,G\u002A\u002A\u002A*%
G36*
X99650356Y-55515875D02*
G01*
X99645296Y-58272834D01*
X110333539Y-58272834D01*
X110328478Y-55515875D01*
X110323670Y-52896500D01*
X110185834Y-52896500D01*
X110185834Y-58082334D01*
X99793000Y-58082334D01*
X99793000Y-52896500D01*
X110185834Y-52896500D01*
X110323670Y-52896500D01*
X110323417Y-52758917D01*
X99655417Y-52758917D01*
X99650356Y-55515875D01*
G37*
X99650356Y-55515875D02*
X99645296Y-58272834D01*
X110333539Y-58272834D01*
X110328478Y-55515875D01*
X110323670Y-52896500D01*
X110185834Y-52896500D01*
X110185834Y-58082334D01*
X99793000Y-58082334D01*
X99793000Y-52896500D01*
X110185834Y-52896500D01*
X110323670Y-52896500D01*
X110323417Y-52758917D01*
X99655417Y-52758917D01*
X99650356Y-55515875D01*
G36*
X104417917Y-53246922D02*
G01*
X104292143Y-53247905D01*
X104197588Y-53250791D01*
X104123138Y-53257071D01*
X104057681Y-53268236D01*
X103990104Y-53285779D01*
X103909293Y-53311190D01*
X103888750Y-53317946D01*
X103784403Y-53355653D01*
X103680766Y-53398612D01*
X103593728Y-53440019D01*
X103560667Y-53458457D01*
X103508399Y-53494729D01*
X103439469Y-53548937D01*
X103360342Y-53615237D01*
X103277487Y-53687781D01*
X103197367Y-53760723D01*
X103126451Y-53828218D01*
X103071203Y-53884419D01*
X103038091Y-53923481D01*
X103031500Y-53936884D01*
X103020616Y-53963699D01*
X102992081Y-54014498D01*
X102952125Y-54078206D01*
X102895082Y-54165430D01*
X102856431Y-54225499D01*
X102831236Y-54266582D01*
X102814559Y-54296850D01*
X102801465Y-54324471D01*
X102796463Y-54335834D01*
X102770299Y-54395013D01*
X102744571Y-54452250D01*
X102696222Y-54571606D01*
X102644748Y-54721039D01*
X102593749Y-54888828D01*
X102546823Y-55063253D01*
X102513767Y-55203667D01*
X102486388Y-55324459D01*
X102455877Y-55451259D01*
X102424037Y-55577410D01*
X102392672Y-55696257D01*
X102363584Y-55801144D01*
X102338575Y-55885414D01*
X102319449Y-55942412D01*
X102308007Y-55965482D01*
X102307385Y-55965667D01*
X102292245Y-55948617D01*
X102290667Y-55936128D01*
X102285179Y-55910757D01*
X102269390Y-55848353D01*
X102244310Y-55752679D01*
X102210951Y-55627495D01*
X102170324Y-55476563D01*
X102123441Y-55303645D01*
X102071311Y-55112502D01*
X102014948Y-54906896D01*
X101973435Y-54756086D01*
X101902086Y-54498225D01*
X101840719Y-54278549D01*
X101788497Y-54094318D01*
X101744585Y-53942789D01*
X101708144Y-53821220D01*
X101678341Y-53726870D01*
X101654337Y-53656997D01*
X101635298Y-53608859D01*
X101620387Y-53579713D01*
X101611256Y-53568542D01*
X101595412Y-53558131D01*
X101572850Y-53549857D01*
X101538948Y-53543480D01*
X101489082Y-53538757D01*
X101418628Y-53535447D01*
X101322962Y-53533309D01*
X101197463Y-53532102D01*
X101037505Y-53531583D01*
X100901906Y-53531500D01*
X100716390Y-53531609D01*
X100568560Y-53532122D01*
X100453772Y-53533318D01*
X100367377Y-53535474D01*
X100304729Y-53538868D01*
X100261182Y-53543780D01*
X100232090Y-53550488D01*
X100212806Y-53559269D01*
X100198684Y-53570402D01*
X100195167Y-53573833D01*
X100160130Y-53637542D01*
X100152834Y-53695863D01*
X100159474Y-53724253D01*
X100178642Y-53789340D01*
X100209209Y-53887752D01*
X100250049Y-54016116D01*
X100300031Y-54171059D01*
X100358029Y-54349208D01*
X100422913Y-54547191D01*
X100493556Y-54761634D01*
X100568830Y-54989165D01*
X100647606Y-55226411D01*
X100728756Y-55469999D01*
X100811153Y-55716557D01*
X100893666Y-55962711D01*
X100975170Y-56205090D01*
X101054535Y-56440319D01*
X101130632Y-56665027D01*
X101202335Y-56875840D01*
X101268515Y-57069385D01*
X101328043Y-57242291D01*
X101379791Y-57391184D01*
X101422632Y-57512690D01*
X101455437Y-57603439D01*
X101477077Y-57660056D01*
X101484325Y-57676414D01*
X101517274Y-57715971D01*
X101540394Y-57730593D01*
X101568788Y-57733591D01*
X101634538Y-57736347D01*
X101732669Y-57738779D01*
X101858203Y-57740809D01*
X102006164Y-57742354D01*
X102171577Y-57743333D01*
X102345315Y-57743667D01*
X102546911Y-57743559D01*
X102710427Y-57743099D01*
X102840117Y-57742075D01*
X102940234Y-57740282D01*
X103015033Y-57737510D01*
X103068766Y-57733550D01*
X103105687Y-57728195D01*
X103130050Y-57721235D01*
X103146108Y-57712463D01*
X103155883Y-57703951D01*
X103179124Y-57667512D01*
X103209825Y-57601254D01*
X103243302Y-57515912D01*
X103264350Y-57455243D01*
X103294672Y-57366279D01*
X103321928Y-57292097D01*
X103342521Y-57242171D01*
X103351049Y-57226727D01*
X103381955Y-57221735D01*
X103435234Y-57239824D01*
X103438374Y-57241348D01*
X103612588Y-57323416D01*
X103762726Y-57385642D01*
X103899490Y-57432319D01*
X103952250Y-57447435D01*
X104048981Y-57476468D01*
X104145426Y-57509959D01*
X104222041Y-57541079D01*
X104227417Y-57543588D01*
X104275124Y-57562734D01*
X104350545Y-57589099D01*
X104444531Y-57619892D01*
X104547932Y-57652320D01*
X104651598Y-57683591D01*
X104746379Y-57710913D01*
X104823125Y-57731494D01*
X104872685Y-57742541D01*
X104883102Y-57743667D01*
X104899134Y-57726209D01*
X104921287Y-57683342D01*
X104924904Y-57674875D01*
X104977052Y-57547927D01*
X105023433Y-57432315D01*
X105061656Y-57334231D01*
X105089329Y-57259863D01*
X105104061Y-57215403D01*
X105105834Y-57206603D01*
X105113384Y-57173376D01*
X105133643Y-57113071D01*
X105163024Y-57034428D01*
X105197941Y-56946183D01*
X105234805Y-56857075D01*
X105270029Y-56775843D01*
X105300028Y-56711224D01*
X105321214Y-56671957D01*
X105328503Y-56664167D01*
X105357070Y-56671411D01*
X105414368Y-56690716D01*
X105489810Y-56718446D01*
X105519067Y-56729671D01*
X105621459Y-56768516D01*
X105731649Y-56808954D01*
X105826820Y-56842620D01*
X105831965Y-56844382D01*
X105976012Y-56893589D01*
X105996006Y-56842378D01*
X106020202Y-56780383D01*
X106036868Y-56737660D01*
X106046873Y-56696171D01*
X106028472Y-56673480D01*
X106010409Y-56665252D01*
X105973514Y-56650930D01*
X105905979Y-56625088D01*
X105816775Y-56591146D01*
X105714871Y-56552524D01*
X105693593Y-56544477D01*
X105424102Y-56442604D01*
X105473635Y-56399927D01*
X105503903Y-56372526D01*
X105559268Y-56321140D01*
X105634168Y-56250979D01*
X105723044Y-56167254D01*
X105820336Y-56075176D01*
X105835364Y-56060917D01*
X105931425Y-55970694D01*
X106018320Y-55890883D01*
X106090983Y-55825994D01*
X106144344Y-55780536D01*
X106173335Y-55759020D01*
X106175815Y-55757974D01*
X106198437Y-55769056D01*
X106201926Y-55789724D01*
X106207400Y-55819079D01*
X106223926Y-55883474D01*
X106249973Y-55977527D01*
X106284009Y-56095857D01*
X106324504Y-56233083D01*
X106369928Y-56383824D01*
X106384427Y-56431334D01*
X106461472Y-56682834D01*
X106527257Y-56896904D01*
X106582820Y-57076623D01*
X106629198Y-57225067D01*
X106667430Y-57345315D01*
X106698555Y-57440444D01*
X106723609Y-57513532D01*
X106743632Y-57567656D01*
X106759662Y-57605895D01*
X106772736Y-57631325D01*
X106783893Y-57647026D01*
X106794172Y-57656074D01*
X106798404Y-57658592D01*
X106832527Y-57665426D01*
X106904584Y-57671161D01*
X107010188Y-57675627D01*
X107144951Y-57678656D01*
X107304484Y-57680079D01*
X107358692Y-57680167D01*
X107529485Y-57680309D01*
X107663193Y-57679361D01*
X107765055Y-57675260D01*
X107840307Y-57665946D01*
X107894188Y-57649355D01*
X107931934Y-57623428D01*
X107958785Y-57586100D01*
X107979977Y-57535312D01*
X108000748Y-57469001D01*
X108014899Y-57421854D01*
X108033803Y-57359613D01*
X108063066Y-57262991D01*
X108100827Y-57138140D01*
X108145227Y-56991213D01*
X108194407Y-56828361D01*
X108246508Y-56655736D01*
X108285753Y-56525640D01*
X108503084Y-55805029D01*
X108496733Y-56699205D01*
X108495236Y-56917134D01*
X108494235Y-57096677D01*
X108493887Y-57241779D01*
X108494347Y-57356389D01*
X108495772Y-57444450D01*
X108498317Y-57509910D01*
X108502138Y-57556715D01*
X108507391Y-57588810D01*
X108514232Y-57610142D01*
X108522817Y-57624657D01*
X108533301Y-57636300D01*
X108533775Y-57636774D01*
X108548464Y-57649724D01*
X108566910Y-57659806D01*
X108594184Y-57667378D01*
X108635358Y-57672799D01*
X108695503Y-57676427D01*
X108779692Y-57678619D01*
X108892996Y-57679733D01*
X109040487Y-57680127D01*
X109148667Y-57680167D01*
X109319489Y-57680022D01*
X109453039Y-57679356D01*
X109554378Y-57677820D01*
X109628566Y-57675064D01*
X109680665Y-57670739D01*
X109715735Y-57664496D01*
X109738838Y-57655987D01*
X109755034Y-57644863D01*
X109762500Y-57637833D01*
X109769696Y-57629897D01*
X109776026Y-57619645D01*
X109781547Y-57604474D01*
X109786313Y-57581780D01*
X109790380Y-57548958D01*
X109793804Y-57503405D01*
X109794443Y-57489667D01*
X109614334Y-57489667D01*
X108680759Y-57489667D01*
X108684266Y-56140292D01*
X108684926Y-55867808D01*
X108685333Y-55634609D01*
X108685408Y-55437651D01*
X108685074Y-55273885D01*
X108684256Y-55140264D01*
X108682874Y-55033743D01*
X108680854Y-54951273D01*
X108678116Y-54889809D01*
X108674585Y-54846304D01*
X108670183Y-54817710D01*
X108664833Y-54800981D01*
X108658458Y-54793070D01*
X108650981Y-54790931D01*
X108650129Y-54790917D01*
X108640867Y-54796363D01*
X108628850Y-54814469D01*
X108613204Y-54847888D01*
X108593053Y-54899274D01*
X108567523Y-54971279D01*
X108535739Y-55066556D01*
X108496828Y-55187758D01*
X108449915Y-55337539D01*
X108394125Y-55518550D01*
X108328583Y-55733446D01*
X108252416Y-55984880D01*
X108207096Y-56135000D01*
X107801709Y-57479084D01*
X107354661Y-57484792D01*
X106907613Y-57490501D01*
X106833740Y-57251959D01*
X106771784Y-57051343D01*
X106709398Y-56848299D01*
X106647828Y-56646967D01*
X106588321Y-56451491D01*
X106532124Y-56266009D01*
X106480484Y-56094665D01*
X106434647Y-55941600D01*
X106395861Y-55810954D01*
X106365373Y-55706869D01*
X106344428Y-55633486D01*
X106334274Y-55594948D01*
X106333501Y-55590433D01*
X106349556Y-55558774D01*
X106362348Y-55548677D01*
X106427741Y-55503362D01*
X106491935Y-55447527D01*
X106545757Y-55390557D01*
X106554567Y-55378034D01*
X106223450Y-55378034D01*
X106050933Y-55541028D01*
X105971654Y-55615911D01*
X105872559Y-55709482D01*
X105764623Y-55811377D01*
X105658823Y-55911234D01*
X105626075Y-55942137D01*
X105521279Y-56039026D01*
X105443693Y-56106081D01*
X105391761Y-56144527D01*
X105363928Y-56155587D01*
X105359036Y-56152334D01*
X105350522Y-56118991D01*
X105341167Y-56055702D01*
X105332712Y-55974775D01*
X105331088Y-55955084D01*
X105322224Y-55851639D01*
X105310588Y-55729025D01*
X105298372Y-55610111D01*
X105295598Y-55584667D01*
X105274932Y-55390775D01*
X105260415Y-55238296D01*
X105252013Y-55126765D01*
X105249692Y-55055715D01*
X105253418Y-55024680D01*
X105254591Y-55023385D01*
X105277737Y-55027868D01*
X105333611Y-55045394D01*
X105415487Y-55073657D01*
X105516638Y-55110351D01*
X105604834Y-55143435D01*
X105729093Y-55190667D01*
X105851347Y-55237103D01*
X105961068Y-55278745D01*
X106047731Y-55311599D01*
X106082683Y-55324826D01*
X106223450Y-55378034D01*
X106554567Y-55378034D01*
X106580035Y-55341834D01*
X106587500Y-55318358D01*
X106582580Y-55295357D01*
X106563460Y-55273942D01*
X106523598Y-55250159D01*
X106456454Y-55220052D01*
X106362878Y-55182554D01*
X106260278Y-55143078D01*
X106160609Y-55105833D01*
X106077247Y-55075763D01*
X106034795Y-55061317D01*
X105976195Y-55039659D01*
X105938695Y-55020551D01*
X105931334Y-55012472D01*
X105938640Y-54984968D01*
X105957953Y-54928654D01*
X105985366Y-54853948D01*
X106016969Y-54771268D01*
X106048855Y-54691030D01*
X106077117Y-54623654D01*
X106077627Y-54622489D01*
X106107509Y-54552011D01*
X106134141Y-54485507D01*
X106138712Y-54473417D01*
X106198503Y-54314123D01*
X106246519Y-54190698D01*
X106284591Y-54098923D01*
X106314550Y-54034579D01*
X106338225Y-53993449D01*
X106356053Y-53972463D01*
X106374674Y-53947210D01*
X106063758Y-53947210D01*
X106061890Y-53974511D01*
X106046456Y-54033489D01*
X106019786Y-54116591D01*
X105984210Y-54216258D01*
X105965835Y-54264710D01*
X105918357Y-54387654D01*
X105869287Y-54514693D01*
X105823951Y-54632044D01*
X105787673Y-54725923D01*
X105783005Y-54738000D01*
X105751822Y-54817874D01*
X105726514Y-54881214D01*
X105710801Y-54918783D01*
X105707731Y-54924984D01*
X105685838Y-54922874D01*
X105637771Y-54908256D01*
X105575991Y-54885923D01*
X105512963Y-54860667D01*
X105461147Y-54837278D01*
X105433007Y-54820550D01*
X105431518Y-54818785D01*
X105429672Y-54788870D01*
X105437898Y-54733468D01*
X105446421Y-54696156D01*
X105458763Y-54637496D01*
X105271107Y-54637496D01*
X105250169Y-54697561D01*
X105229230Y-54757625D01*
X105120657Y-54716371D01*
X105050693Y-54694543D01*
X105004238Y-54689859D01*
X104992759Y-54694442D01*
X104986448Y-54724886D01*
X104986861Y-54796259D01*
X104993936Y-54907705D01*
X105007609Y-55058368D01*
X105027819Y-55247391D01*
X105042361Y-55373000D01*
X105056099Y-55494724D01*
X105069942Y-55627597D01*
X105083331Y-55765022D01*
X105095704Y-55900398D01*
X105106500Y-56027126D01*
X105115159Y-56138606D01*
X105121121Y-56228240D01*
X105123823Y-56289429D01*
X105122707Y-56315571D01*
X105122474Y-56315916D01*
X105098720Y-56314378D01*
X105046393Y-56299941D01*
X104976153Y-56275612D01*
X104965654Y-56271648D01*
X104892136Y-56244173D01*
X104806163Y-56212892D01*
X104717163Y-56181123D01*
X104634564Y-56152184D01*
X104567795Y-56129394D01*
X104526284Y-56116070D01*
X104517707Y-56113981D01*
X104506728Y-56131502D01*
X104485225Y-56176504D01*
X104469306Y-56212647D01*
X104445645Y-56274638D01*
X104444342Y-56313411D01*
X104471083Y-56338739D01*
X104531552Y-56360400D01*
X104559898Y-56368414D01*
X104614394Y-56388097D01*
X104649258Y-56409093D01*
X104652507Y-56413010D01*
X104650291Y-56427350D01*
X104626943Y-56423618D01*
X104587520Y-56411549D01*
X104521526Y-56391437D01*
X104442898Y-56367532D01*
X104439084Y-56366373D01*
X104278140Y-56300394D01*
X104146733Y-56210334D01*
X104048625Y-56099073D01*
X104016204Y-56042572D01*
X103986541Y-55976694D01*
X103971256Y-55921867D01*
X103967560Y-55860641D01*
X103972667Y-55775562D01*
X103972972Y-55771921D01*
X103986725Y-55639834D01*
X104004360Y-55517009D01*
X104024263Y-55412252D01*
X104044818Y-55334369D01*
X104059677Y-55298917D01*
X104083361Y-55246189D01*
X104099446Y-55193818D01*
X104144002Y-55056385D01*
X104211002Y-54917730D01*
X104294103Y-54787012D01*
X104386964Y-54673390D01*
X104483242Y-54586024D01*
X104548024Y-54545996D01*
X104626870Y-54519181D01*
X104719504Y-54510743D01*
X104832290Y-54521118D01*
X104971589Y-54550742D01*
X105087929Y-54583063D01*
X105271107Y-54637496D01*
X105458763Y-54637496D01*
X105460819Y-54627726D01*
X105459962Y-54585833D01*
X105446980Y-54561071D01*
X105417517Y-54542617D01*
X105356438Y-54515454D01*
X105272619Y-54483216D01*
X105174937Y-54449540D01*
X105173436Y-54449050D01*
X105056818Y-54412585D01*
X104965741Y-54388829D01*
X104886271Y-54375205D01*
X104804472Y-54369132D01*
X104735417Y-54367985D01*
X104601956Y-54374400D01*
X104496156Y-54397349D01*
X104405062Y-54441430D01*
X104315720Y-54511239D01*
X104305636Y-54520507D01*
X104243846Y-54590050D01*
X104175748Y-54685665D01*
X104109690Y-54793710D01*
X104054017Y-54900539D01*
X104017232Y-54992000D01*
X103993780Y-55064163D01*
X103972306Y-55125033D01*
X103962068Y-55150750D01*
X103944038Y-55198027D01*
X103920452Y-55268939D01*
X103894811Y-55351709D01*
X103870615Y-55434557D01*
X103851365Y-55505706D01*
X103840563Y-55553377D01*
X103839388Y-55563500D01*
X103837519Y-55598733D01*
X103832808Y-55663524D01*
X103826187Y-55745268D01*
X103824540Y-55764584D01*
X103824740Y-55923112D01*
X103857271Y-56064438D01*
X103925684Y-56202285D01*
X103945790Y-56233340D01*
X104021832Y-56314703D01*
X104139195Y-56394600D01*
X104296876Y-56472533D01*
X104493874Y-56548004D01*
X104717737Y-56617307D01*
X104739947Y-56604093D01*
X104764206Y-56562636D01*
X104769614Y-56548954D01*
X104792292Y-56500318D01*
X104814127Y-56474789D01*
X104818209Y-56473667D01*
X104851433Y-56480992D01*
X104905848Y-56499546D01*
X104968901Y-56524198D01*
X105028040Y-56549815D01*
X105070710Y-56571266D01*
X105084667Y-56582593D01*
X105077435Y-56606542D01*
X105057681Y-56661956D01*
X105028321Y-56740882D01*
X104992269Y-56835367D01*
X104987666Y-56847284D01*
X104943259Y-56963421D01*
X104897718Y-57084752D01*
X104856932Y-57195475D01*
X104831112Y-57267417D01*
X104801829Y-57350028D01*
X104776459Y-57420421D01*
X104759368Y-57466524D01*
X104756516Y-57473792D01*
X104726005Y-57507247D01*
X104684640Y-57502625D01*
X104670859Y-57492414D01*
X104641955Y-57477849D01*
X104583887Y-57456154D01*
X104508260Y-57431602D01*
X104494171Y-57427356D01*
X104412215Y-57401080D01*
X104341527Y-57375106D01*
X104296072Y-57354611D01*
X104293087Y-57352835D01*
X104254971Y-57335312D01*
X104186778Y-57309776D01*
X104099084Y-57280023D01*
X104026334Y-57257060D01*
X103902065Y-57217692D01*
X103796448Y-57180290D01*
X103692110Y-57138174D01*
X103571678Y-57084665D01*
X103539500Y-57069870D01*
X103505265Y-57050730D01*
X103181314Y-57050730D01*
X103103559Y-57286073D01*
X103072224Y-57379975D01*
X103045276Y-57458989D01*
X103025690Y-57514503D01*
X103016640Y-57537583D01*
X102994022Y-57541343D01*
X102934170Y-57544451D01*
X102842176Y-57546828D01*
X102723136Y-57548396D01*
X102582143Y-57549077D01*
X102424291Y-57548791D01*
X102328760Y-57548167D01*
X101650045Y-57542584D01*
X101007314Y-55648167D01*
X100915018Y-55375967D01*
X100826688Y-55115144D01*
X100743263Y-54868490D01*
X100665681Y-54638794D01*
X100594881Y-54428847D01*
X100531803Y-54241440D01*
X100477386Y-54079364D01*
X100432567Y-53945408D01*
X100398287Y-53842363D01*
X100375484Y-53773020D01*
X100365098Y-53740169D01*
X100364542Y-53737875D01*
X100384775Y-53733642D01*
X100441810Y-53729848D01*
X100530117Y-53726649D01*
X100644165Y-53724202D01*
X100778425Y-53722661D01*
X100920125Y-53722181D01*
X101475750Y-53722362D01*
X101739642Y-54679973D01*
X101799251Y-54897160D01*
X101860309Y-55121241D01*
X101920841Y-55344855D01*
X101978871Y-55560643D01*
X102032423Y-55761245D01*
X102079520Y-55939302D01*
X102118188Y-56087454D01*
X102133124Y-56145584D01*
X102180553Y-56328755D01*
X102220098Y-56471520D01*
X102253492Y-56574700D01*
X102282472Y-56639114D01*
X102308771Y-56665581D01*
X102334125Y-56654923D01*
X102360268Y-56607958D01*
X102388935Y-56525508D01*
X102421861Y-56408391D01*
X102451020Y-56295842D01*
X102531389Y-55980433D01*
X102560343Y-56126508D01*
X102613089Y-56314910D01*
X102696160Y-56493374D01*
X102812882Y-56667417D01*
X102966579Y-56842555D01*
X103029662Y-56905073D01*
X103181314Y-57050730D01*
X103505265Y-57050730D01*
X103381944Y-56981785D01*
X103226803Y-56867063D01*
X103082393Y-56733889D01*
X102957030Y-56590448D01*
X102859026Y-56444927D01*
X102815652Y-56357250D01*
X102764199Y-56230018D01*
X102728065Y-56127253D01*
X102704138Y-56035310D01*
X102689306Y-55940544D01*
X102680457Y-55829310D01*
X102676680Y-55747817D01*
X102674148Y-55589454D01*
X102678880Y-55443903D01*
X102690389Y-55324926D01*
X102692072Y-55313900D01*
X102705572Y-55249022D01*
X102728567Y-55158763D01*
X102758542Y-55051237D01*
X102792979Y-54934555D01*
X102829363Y-54816830D01*
X102865177Y-54706174D01*
X102897904Y-54610699D01*
X102925028Y-54538519D01*
X102944033Y-54497745D01*
X102946225Y-54494584D01*
X102964883Y-54459082D01*
X102979039Y-54420500D01*
X103003028Y-54367712D01*
X103040209Y-54308697D01*
X103045129Y-54302086D01*
X103077184Y-54256266D01*
X103094179Y-54224718D01*
X103095000Y-54220782D01*
X103108337Y-54190573D01*
X103143823Y-54137834D01*
X103194675Y-54070935D01*
X103254108Y-53998250D01*
X103315339Y-53928148D01*
X103371583Y-53869002D01*
X103405501Y-53837631D01*
X103472265Y-53781421D01*
X103536988Y-53726855D01*
X103569983Y-53698991D01*
X103664163Y-53634780D01*
X103789559Y-53572013D01*
X103935185Y-53515486D01*
X104090057Y-53469992D01*
X104100417Y-53467475D01*
X104177850Y-53455649D01*
X104284814Y-53448210D01*
X104408734Y-53445169D01*
X104537034Y-53446539D01*
X104657139Y-53452330D01*
X104756473Y-53462555D01*
X104782197Y-53466836D01*
X104844850Y-53481851D01*
X104934950Y-53507452D01*
X105040084Y-53539955D01*
X105140200Y-53573057D01*
X105254486Y-53612146D01*
X105393347Y-53659626D01*
X105541300Y-53710203D01*
X105682861Y-53758583D01*
X105719667Y-53771160D01*
X105829469Y-53809825D01*
X105923695Y-53845193D01*
X105995672Y-53874582D01*
X106038723Y-53895308D01*
X106048075Y-53903173D01*
X106058738Y-53938262D01*
X106063758Y-53947210D01*
X106374674Y-53947210D01*
X106390346Y-53925957D01*
X106410408Y-53871921D01*
X106424011Y-53828293D01*
X106450801Y-53810140D01*
X106500853Y-53806667D01*
X106578247Y-53806667D01*
X106857614Y-54785625D01*
X106916261Y-54991841D01*
X106973420Y-55194155D01*
X107027593Y-55387180D01*
X107077287Y-55565528D01*
X107121003Y-55723812D01*
X107157246Y-55856644D01*
X107184521Y-55958636D01*
X107199238Y-56015855D01*
X107233744Y-56147365D01*
X107263637Y-56239824D01*
X107290648Y-56292852D01*
X107316509Y-56306072D01*
X107342950Y-56279103D01*
X107371705Y-56211569D01*
X107404503Y-56103089D01*
X107440663Y-55963059D01*
X107464073Y-55871766D01*
X107497526Y-55746063D01*
X107539299Y-55592204D01*
X107587664Y-55416441D01*
X107640897Y-55225030D01*
X107697272Y-55024223D01*
X107755064Y-54820275D01*
X107781566Y-54727417D01*
X108041949Y-53817250D01*
X108828142Y-53811701D01*
X109614334Y-53806152D01*
X109614334Y-57489667D01*
X109794443Y-57489667D01*
X109796639Y-57442517D01*
X109798942Y-57363689D01*
X109800767Y-57264318D01*
X109802171Y-57141800D01*
X109803208Y-56993531D01*
X109803933Y-56816907D01*
X109804403Y-56609324D01*
X109804673Y-56368177D01*
X109804797Y-56090864D01*
X109804832Y-55774780D01*
X109804834Y-55648167D01*
X109804818Y-55317157D01*
X109804732Y-55025877D01*
X109804523Y-54771722D01*
X109804133Y-54552089D01*
X109803508Y-54364373D01*
X109802592Y-54205971D01*
X109801330Y-54074278D01*
X109799666Y-53966691D01*
X109797546Y-53880605D01*
X109794913Y-53813417D01*
X109791712Y-53762523D01*
X109787888Y-53725318D01*
X109783386Y-53699199D01*
X109778149Y-53681562D01*
X109772124Y-53669802D01*
X109765253Y-53661317D01*
X109762501Y-53658500D01*
X109750672Y-53648044D01*
X109735433Y-53639466D01*
X109712781Y-53632583D01*
X109678713Y-53627206D01*
X109629227Y-53623152D01*
X109560320Y-53620233D01*
X109467988Y-53618264D01*
X109348230Y-53617059D01*
X109197041Y-53616432D01*
X109010420Y-53616197D01*
X108850942Y-53616167D01*
X108639528Y-53616660D01*
X108449597Y-53618087D01*
X108284622Y-53620369D01*
X108148075Y-53623430D01*
X108043428Y-53627191D01*
X107974152Y-53631575D01*
X107943720Y-53636502D01*
X107943679Y-53636525D01*
X107908089Y-53670538D01*
X107881938Y-53715900D01*
X107869604Y-53752430D01*
X107847733Y-53823377D01*
X107817735Y-53923793D01*
X107781017Y-54048731D01*
X107738985Y-54193244D01*
X107693048Y-54352385D01*
X107644612Y-54521206D01*
X107595086Y-54694760D01*
X107545877Y-54868100D01*
X107498392Y-55036279D01*
X107454038Y-55194350D01*
X107414224Y-55337365D01*
X107380357Y-55460377D01*
X107353844Y-55558439D01*
X107336093Y-55626604D01*
X107328510Y-55659924D01*
X107328334Y-55661793D01*
X107323856Y-55687484D01*
X107318697Y-55687919D01*
X107311162Y-55666261D01*
X107293224Y-55607806D01*
X107266029Y-55516488D01*
X107230725Y-55396237D01*
X107188462Y-55250984D01*
X107140385Y-55084660D01*
X107087643Y-54901198D01*
X107031384Y-54704528D01*
X107022585Y-54673683D01*
X106945110Y-54404090D01*
X106878033Y-54175136D01*
X106821373Y-53986885D01*
X106775149Y-53839398D01*
X106739380Y-53732738D01*
X106714087Y-53666965D01*
X106700093Y-53642625D01*
X106668644Y-53631634D01*
X106606432Y-53623748D01*
X106510124Y-53618748D01*
X106376387Y-53616409D01*
X106302740Y-53616167D01*
X106165685Y-53615624D01*
X106061746Y-53613381D01*
X105981711Y-53608516D01*
X105916370Y-53600109D01*
X105856512Y-53587238D01*
X105792926Y-53568983D01*
X105775160Y-53563404D01*
X105683666Y-53534916D01*
X105595561Y-53508408D01*
X105528102Y-53489057D01*
X105521417Y-53487249D01*
X105441654Y-53461956D01*
X105360034Y-53430397D01*
X105349250Y-53425646D01*
X105288327Y-53402296D01*
X105202388Y-53374507D01*
X105107649Y-53347441D01*
X105084667Y-53341437D01*
X104990454Y-53316976D01*
X104900965Y-53293103D01*
X104832314Y-53274134D01*
X104820084Y-53270601D01*
X104764590Y-53260973D01*
X104675717Y-53253462D01*
X104562389Y-53248592D01*
X104433529Y-53246890D01*
X104417917Y-53246922D01*
G37*
X104417917Y-53246922D02*
X104292143Y-53247905D01*
X104197588Y-53250791D01*
X104123138Y-53257071D01*
X104057681Y-53268236D01*
X103990104Y-53285779D01*
X103909293Y-53311190D01*
X103888750Y-53317946D01*
X103784403Y-53355653D01*
X103680766Y-53398612D01*
X103593728Y-53440019D01*
X103560667Y-53458457D01*
X103508399Y-53494729D01*
X103439469Y-53548937D01*
X103360342Y-53615237D01*
X103277487Y-53687781D01*
X103197367Y-53760723D01*
X103126451Y-53828218D01*
X103071203Y-53884419D01*
X103038091Y-53923481D01*
X103031500Y-53936884D01*
X103020616Y-53963699D01*
X102992081Y-54014498D01*
X102952125Y-54078206D01*
X102895082Y-54165430D01*
X102856431Y-54225499D01*
X102831236Y-54266582D01*
X102814559Y-54296850D01*
X102801465Y-54324471D01*
X102796463Y-54335834D01*
X102770299Y-54395013D01*
X102744571Y-54452250D01*
X102696222Y-54571606D01*
X102644748Y-54721039D01*
X102593749Y-54888828D01*
X102546823Y-55063253D01*
X102513767Y-55203667D01*
X102486388Y-55324459D01*
X102455877Y-55451259D01*
X102424037Y-55577410D01*
X102392672Y-55696257D01*
X102363584Y-55801144D01*
X102338575Y-55885414D01*
X102319449Y-55942412D01*
X102308007Y-55965482D01*
X102307385Y-55965667D01*
X102292245Y-55948617D01*
X102290667Y-55936128D01*
X102285179Y-55910757D01*
X102269390Y-55848353D01*
X102244310Y-55752679D01*
X102210951Y-55627495D01*
X102170324Y-55476563D01*
X102123441Y-55303645D01*
X102071311Y-55112502D01*
X102014948Y-54906896D01*
X101973435Y-54756086D01*
X101902086Y-54498225D01*
X101840719Y-54278549D01*
X101788497Y-54094318D01*
X101744585Y-53942789D01*
X101708144Y-53821220D01*
X101678341Y-53726870D01*
X101654337Y-53656997D01*
X101635298Y-53608859D01*
X101620387Y-53579713D01*
X101611256Y-53568542D01*
X101595412Y-53558131D01*
X101572850Y-53549857D01*
X101538948Y-53543480D01*
X101489082Y-53538757D01*
X101418628Y-53535447D01*
X101322962Y-53533309D01*
X101197463Y-53532102D01*
X101037505Y-53531583D01*
X100901906Y-53531500D01*
X100716390Y-53531609D01*
X100568560Y-53532122D01*
X100453772Y-53533318D01*
X100367377Y-53535474D01*
X100304729Y-53538868D01*
X100261182Y-53543780D01*
X100232090Y-53550488D01*
X100212806Y-53559269D01*
X100198684Y-53570402D01*
X100195167Y-53573833D01*
X100160130Y-53637542D01*
X100152834Y-53695863D01*
X100159474Y-53724253D01*
X100178642Y-53789340D01*
X100209209Y-53887752D01*
X100250049Y-54016116D01*
X100300031Y-54171059D01*
X100358029Y-54349208D01*
X100422913Y-54547191D01*
X100493556Y-54761634D01*
X100568830Y-54989165D01*
X100647606Y-55226411D01*
X100728756Y-55469999D01*
X100811153Y-55716557D01*
X100893666Y-55962711D01*
X100975170Y-56205090D01*
X101054535Y-56440319D01*
X101130632Y-56665027D01*
X101202335Y-56875840D01*
X101268515Y-57069385D01*
X101328043Y-57242291D01*
X101379791Y-57391184D01*
X101422632Y-57512690D01*
X101455437Y-57603439D01*
X101477077Y-57660056D01*
X101484325Y-57676414D01*
X101517274Y-57715971D01*
X101540394Y-57730593D01*
X101568788Y-57733591D01*
X101634538Y-57736347D01*
X101732669Y-57738779D01*
X101858203Y-57740809D01*
X102006164Y-57742354D01*
X102171577Y-57743333D01*
X102345315Y-57743667D01*
X102546911Y-57743559D01*
X102710427Y-57743099D01*
X102840117Y-57742075D01*
X102940234Y-57740282D01*
X103015033Y-57737510D01*
X103068766Y-57733550D01*
X103105687Y-57728195D01*
X103130050Y-57721235D01*
X103146108Y-57712463D01*
X103155883Y-57703951D01*
X103179124Y-57667512D01*
X103209825Y-57601254D01*
X103243302Y-57515912D01*
X103264350Y-57455243D01*
X103294672Y-57366279D01*
X103321928Y-57292097D01*
X103342521Y-57242171D01*
X103351049Y-57226727D01*
X103381955Y-57221735D01*
X103435234Y-57239824D01*
X103438374Y-57241348D01*
X103612588Y-57323416D01*
X103762726Y-57385642D01*
X103899490Y-57432319D01*
X103952250Y-57447435D01*
X104048981Y-57476468D01*
X104145426Y-57509959D01*
X104222041Y-57541079D01*
X104227417Y-57543588D01*
X104275124Y-57562734D01*
X104350545Y-57589099D01*
X104444531Y-57619892D01*
X104547932Y-57652320D01*
X104651598Y-57683591D01*
X104746379Y-57710913D01*
X104823125Y-57731494D01*
X104872685Y-57742541D01*
X104883102Y-57743667D01*
X104899134Y-57726209D01*
X104921287Y-57683342D01*
X104924904Y-57674875D01*
X104977052Y-57547927D01*
X105023433Y-57432315D01*
X105061656Y-57334231D01*
X105089329Y-57259863D01*
X105104061Y-57215403D01*
X105105834Y-57206603D01*
X105113384Y-57173376D01*
X105133643Y-57113071D01*
X105163024Y-57034428D01*
X105197941Y-56946183D01*
X105234805Y-56857075D01*
X105270029Y-56775843D01*
X105300028Y-56711224D01*
X105321214Y-56671957D01*
X105328503Y-56664167D01*
X105357070Y-56671411D01*
X105414368Y-56690716D01*
X105489810Y-56718446D01*
X105519067Y-56729671D01*
X105621459Y-56768516D01*
X105731649Y-56808954D01*
X105826820Y-56842620D01*
X105831965Y-56844382D01*
X105976012Y-56893589D01*
X105996006Y-56842378D01*
X106020202Y-56780383D01*
X106036868Y-56737660D01*
X106046873Y-56696171D01*
X106028472Y-56673480D01*
X106010409Y-56665252D01*
X105973514Y-56650930D01*
X105905979Y-56625088D01*
X105816775Y-56591146D01*
X105714871Y-56552524D01*
X105693593Y-56544477D01*
X105424102Y-56442604D01*
X105473635Y-56399927D01*
X105503903Y-56372526D01*
X105559268Y-56321140D01*
X105634168Y-56250979D01*
X105723044Y-56167254D01*
X105820336Y-56075176D01*
X105835364Y-56060917D01*
X105931425Y-55970694D01*
X106018320Y-55890883D01*
X106090983Y-55825994D01*
X106144344Y-55780536D01*
X106173335Y-55759020D01*
X106175815Y-55757974D01*
X106198437Y-55769056D01*
X106201926Y-55789724D01*
X106207400Y-55819079D01*
X106223926Y-55883474D01*
X106249973Y-55977527D01*
X106284009Y-56095857D01*
X106324504Y-56233083D01*
X106369928Y-56383824D01*
X106384427Y-56431334D01*
X106461472Y-56682834D01*
X106527257Y-56896904D01*
X106582820Y-57076623D01*
X106629198Y-57225067D01*
X106667430Y-57345315D01*
X106698555Y-57440444D01*
X106723609Y-57513532D01*
X106743632Y-57567656D01*
X106759662Y-57605895D01*
X106772736Y-57631325D01*
X106783893Y-57647026D01*
X106794172Y-57656074D01*
X106798404Y-57658592D01*
X106832527Y-57665426D01*
X106904584Y-57671161D01*
X107010188Y-57675627D01*
X107144951Y-57678656D01*
X107304484Y-57680079D01*
X107358692Y-57680167D01*
X107529485Y-57680309D01*
X107663193Y-57679361D01*
X107765055Y-57675260D01*
X107840307Y-57665946D01*
X107894188Y-57649355D01*
X107931934Y-57623428D01*
X107958785Y-57586100D01*
X107979977Y-57535312D01*
X108000748Y-57469001D01*
X108014899Y-57421854D01*
X108033803Y-57359613D01*
X108063066Y-57262991D01*
X108100827Y-57138140D01*
X108145227Y-56991213D01*
X108194407Y-56828361D01*
X108246508Y-56655736D01*
X108285753Y-56525640D01*
X108503084Y-55805029D01*
X108496733Y-56699205D01*
X108495236Y-56917134D01*
X108494235Y-57096677D01*
X108493887Y-57241779D01*
X108494347Y-57356389D01*
X108495772Y-57444450D01*
X108498317Y-57509910D01*
X108502138Y-57556715D01*
X108507391Y-57588810D01*
X108514232Y-57610142D01*
X108522817Y-57624657D01*
X108533301Y-57636300D01*
X108533775Y-57636774D01*
X108548464Y-57649724D01*
X108566910Y-57659806D01*
X108594184Y-57667378D01*
X108635358Y-57672799D01*
X108695503Y-57676427D01*
X108779692Y-57678619D01*
X108892996Y-57679733D01*
X109040487Y-57680127D01*
X109148667Y-57680167D01*
X109319489Y-57680022D01*
X109453039Y-57679356D01*
X109554378Y-57677820D01*
X109628566Y-57675064D01*
X109680665Y-57670739D01*
X109715735Y-57664496D01*
X109738838Y-57655987D01*
X109755034Y-57644863D01*
X109762500Y-57637833D01*
X109769696Y-57629897D01*
X109776026Y-57619645D01*
X109781547Y-57604474D01*
X109786313Y-57581780D01*
X109790380Y-57548958D01*
X109793804Y-57503405D01*
X109794443Y-57489667D01*
X109614334Y-57489667D01*
X108680759Y-57489667D01*
X108684266Y-56140292D01*
X108684926Y-55867808D01*
X108685333Y-55634609D01*
X108685408Y-55437651D01*
X108685074Y-55273885D01*
X108684256Y-55140264D01*
X108682874Y-55033743D01*
X108680854Y-54951273D01*
X108678116Y-54889809D01*
X108674585Y-54846304D01*
X108670183Y-54817710D01*
X108664833Y-54800981D01*
X108658458Y-54793070D01*
X108650981Y-54790931D01*
X108650129Y-54790917D01*
X108640867Y-54796363D01*
X108628850Y-54814469D01*
X108613204Y-54847888D01*
X108593053Y-54899274D01*
X108567523Y-54971279D01*
X108535739Y-55066556D01*
X108496828Y-55187758D01*
X108449915Y-55337539D01*
X108394125Y-55518550D01*
X108328583Y-55733446D01*
X108252416Y-55984880D01*
X108207096Y-56135000D01*
X107801709Y-57479084D01*
X107354661Y-57484792D01*
X106907613Y-57490501D01*
X106833740Y-57251959D01*
X106771784Y-57051343D01*
X106709398Y-56848299D01*
X106647828Y-56646967D01*
X106588321Y-56451491D01*
X106532124Y-56266009D01*
X106480484Y-56094665D01*
X106434647Y-55941600D01*
X106395861Y-55810954D01*
X106365373Y-55706869D01*
X106344428Y-55633486D01*
X106334274Y-55594948D01*
X106333501Y-55590433D01*
X106349556Y-55558774D01*
X106362348Y-55548677D01*
X106427741Y-55503362D01*
X106491935Y-55447527D01*
X106545757Y-55390557D01*
X106554567Y-55378034D01*
X106223450Y-55378034D01*
X106050933Y-55541028D01*
X105971654Y-55615911D01*
X105872559Y-55709482D01*
X105764623Y-55811377D01*
X105658823Y-55911234D01*
X105626075Y-55942137D01*
X105521279Y-56039026D01*
X105443693Y-56106081D01*
X105391761Y-56144527D01*
X105363928Y-56155587D01*
X105359036Y-56152334D01*
X105350522Y-56118991D01*
X105341167Y-56055702D01*
X105332712Y-55974775D01*
X105331088Y-55955084D01*
X105322224Y-55851639D01*
X105310588Y-55729025D01*
X105298372Y-55610111D01*
X105295598Y-55584667D01*
X105274932Y-55390775D01*
X105260415Y-55238296D01*
X105252013Y-55126765D01*
X105249692Y-55055715D01*
X105253418Y-55024680D01*
X105254591Y-55023385D01*
X105277737Y-55027868D01*
X105333611Y-55045394D01*
X105415487Y-55073657D01*
X105516638Y-55110351D01*
X105604834Y-55143435D01*
X105729093Y-55190667D01*
X105851347Y-55237103D01*
X105961068Y-55278745D01*
X106047731Y-55311599D01*
X106082683Y-55324826D01*
X106223450Y-55378034D01*
X106554567Y-55378034D01*
X106580035Y-55341834D01*
X106587500Y-55318358D01*
X106582580Y-55295357D01*
X106563460Y-55273942D01*
X106523598Y-55250159D01*
X106456454Y-55220052D01*
X106362878Y-55182554D01*
X106260278Y-55143078D01*
X106160609Y-55105833D01*
X106077247Y-55075763D01*
X106034795Y-55061317D01*
X105976195Y-55039659D01*
X105938695Y-55020551D01*
X105931334Y-55012472D01*
X105938640Y-54984968D01*
X105957953Y-54928654D01*
X105985366Y-54853948D01*
X106016969Y-54771268D01*
X106048855Y-54691030D01*
X106077117Y-54623654D01*
X106077627Y-54622489D01*
X106107509Y-54552011D01*
X106134141Y-54485507D01*
X106138712Y-54473417D01*
X106198503Y-54314123D01*
X106246519Y-54190698D01*
X106284591Y-54098923D01*
X106314550Y-54034579D01*
X106338225Y-53993449D01*
X106356053Y-53972463D01*
X106374674Y-53947210D01*
X106063758Y-53947210D01*
X106061890Y-53974511D01*
X106046456Y-54033489D01*
X106019786Y-54116591D01*
X105984210Y-54216258D01*
X105965835Y-54264710D01*
X105918357Y-54387654D01*
X105869287Y-54514693D01*
X105823951Y-54632044D01*
X105787673Y-54725923D01*
X105783005Y-54738000D01*
X105751822Y-54817874D01*
X105726514Y-54881214D01*
X105710801Y-54918783D01*
X105707731Y-54924984D01*
X105685838Y-54922874D01*
X105637771Y-54908256D01*
X105575991Y-54885923D01*
X105512963Y-54860667D01*
X105461147Y-54837278D01*
X105433007Y-54820550D01*
X105431518Y-54818785D01*
X105429672Y-54788870D01*
X105437898Y-54733468D01*
X105446421Y-54696156D01*
X105458763Y-54637496D01*
X105271107Y-54637496D01*
X105250169Y-54697561D01*
X105229230Y-54757625D01*
X105120657Y-54716371D01*
X105050693Y-54694543D01*
X105004238Y-54689859D01*
X104992759Y-54694442D01*
X104986448Y-54724886D01*
X104986861Y-54796259D01*
X104993936Y-54907705D01*
X105007609Y-55058368D01*
X105027819Y-55247391D01*
X105042361Y-55373000D01*
X105056099Y-55494724D01*
X105069942Y-55627597D01*
X105083331Y-55765022D01*
X105095704Y-55900398D01*
X105106500Y-56027126D01*
X105115159Y-56138606D01*
X105121121Y-56228240D01*
X105123823Y-56289429D01*
X105122707Y-56315571D01*
X105122474Y-56315916D01*
X105098720Y-56314378D01*
X105046393Y-56299941D01*
X104976153Y-56275612D01*
X104965654Y-56271648D01*
X104892136Y-56244173D01*
X104806163Y-56212892D01*
X104717163Y-56181123D01*
X104634564Y-56152184D01*
X104567795Y-56129394D01*
X104526284Y-56116070D01*
X104517707Y-56113981D01*
X104506728Y-56131502D01*
X104485225Y-56176504D01*
X104469306Y-56212647D01*
X104445645Y-56274638D01*
X104444342Y-56313411D01*
X104471083Y-56338739D01*
X104531552Y-56360400D01*
X104559898Y-56368414D01*
X104614394Y-56388097D01*
X104649258Y-56409093D01*
X104652507Y-56413010D01*
X104650291Y-56427350D01*
X104626943Y-56423618D01*
X104587520Y-56411549D01*
X104521526Y-56391437D01*
X104442898Y-56367532D01*
X104439084Y-56366373D01*
X104278140Y-56300394D01*
X104146733Y-56210334D01*
X104048625Y-56099073D01*
X104016204Y-56042572D01*
X103986541Y-55976694D01*
X103971256Y-55921867D01*
X103967560Y-55860641D01*
X103972667Y-55775562D01*
X103972972Y-55771921D01*
X103986725Y-55639834D01*
X104004360Y-55517009D01*
X104024263Y-55412252D01*
X104044818Y-55334369D01*
X104059677Y-55298917D01*
X104083361Y-55246189D01*
X104099446Y-55193818D01*
X104144002Y-55056385D01*
X104211002Y-54917730D01*
X104294103Y-54787012D01*
X104386964Y-54673390D01*
X104483242Y-54586024D01*
X104548024Y-54545996D01*
X104626870Y-54519181D01*
X104719504Y-54510743D01*
X104832290Y-54521118D01*
X104971589Y-54550742D01*
X105087929Y-54583063D01*
X105271107Y-54637496D01*
X105458763Y-54637496D01*
X105460819Y-54627726D01*
X105459962Y-54585833D01*
X105446980Y-54561071D01*
X105417517Y-54542617D01*
X105356438Y-54515454D01*
X105272619Y-54483216D01*
X105174937Y-54449540D01*
X105173436Y-54449050D01*
X105056818Y-54412585D01*
X104965741Y-54388829D01*
X104886271Y-54375205D01*
X104804472Y-54369132D01*
X104735417Y-54367985D01*
X104601956Y-54374400D01*
X104496156Y-54397349D01*
X104405062Y-54441430D01*
X104315720Y-54511239D01*
X104305636Y-54520507D01*
X104243846Y-54590050D01*
X104175748Y-54685665D01*
X104109690Y-54793710D01*
X104054017Y-54900539D01*
X104017232Y-54992000D01*
X103993780Y-55064163D01*
X103972306Y-55125033D01*
X103962068Y-55150750D01*
X103944038Y-55198027D01*
X103920452Y-55268939D01*
X103894811Y-55351709D01*
X103870615Y-55434557D01*
X103851365Y-55505706D01*
X103840563Y-55553377D01*
X103839388Y-55563500D01*
X103837519Y-55598733D01*
X103832808Y-55663524D01*
X103826187Y-55745268D01*
X103824540Y-55764584D01*
X103824740Y-55923112D01*
X103857271Y-56064438D01*
X103925684Y-56202285D01*
X103945790Y-56233340D01*
X104021832Y-56314703D01*
X104139195Y-56394600D01*
X104296876Y-56472533D01*
X104493874Y-56548004D01*
X104717737Y-56617307D01*
X104739947Y-56604093D01*
X104764206Y-56562636D01*
X104769614Y-56548954D01*
X104792292Y-56500318D01*
X104814127Y-56474789D01*
X104818209Y-56473667D01*
X104851433Y-56480992D01*
X104905848Y-56499546D01*
X104968901Y-56524198D01*
X105028040Y-56549815D01*
X105070710Y-56571266D01*
X105084667Y-56582593D01*
X105077435Y-56606542D01*
X105057681Y-56661956D01*
X105028321Y-56740882D01*
X104992269Y-56835367D01*
X104987666Y-56847284D01*
X104943259Y-56963421D01*
X104897718Y-57084752D01*
X104856932Y-57195475D01*
X104831112Y-57267417D01*
X104801829Y-57350028D01*
X104776459Y-57420421D01*
X104759368Y-57466524D01*
X104756516Y-57473792D01*
X104726005Y-57507247D01*
X104684640Y-57502625D01*
X104670859Y-57492414D01*
X104641955Y-57477849D01*
X104583887Y-57456154D01*
X104508260Y-57431602D01*
X104494171Y-57427356D01*
X104412215Y-57401080D01*
X104341527Y-57375106D01*
X104296072Y-57354611D01*
X104293087Y-57352835D01*
X104254971Y-57335312D01*
X104186778Y-57309776D01*
X104099084Y-57280023D01*
X104026334Y-57257060D01*
X103902065Y-57217692D01*
X103796448Y-57180290D01*
X103692110Y-57138174D01*
X103571678Y-57084665D01*
X103539500Y-57069870D01*
X103505265Y-57050730D01*
X103181314Y-57050730D01*
X103103559Y-57286073D01*
X103072224Y-57379975D01*
X103045276Y-57458989D01*
X103025690Y-57514503D01*
X103016640Y-57537583D01*
X102994022Y-57541343D01*
X102934170Y-57544451D01*
X102842176Y-57546828D01*
X102723136Y-57548396D01*
X102582143Y-57549077D01*
X102424291Y-57548791D01*
X102328760Y-57548167D01*
X101650045Y-57542584D01*
X101007314Y-55648167D01*
X100915018Y-55375967D01*
X100826688Y-55115144D01*
X100743263Y-54868490D01*
X100665681Y-54638794D01*
X100594881Y-54428847D01*
X100531803Y-54241440D01*
X100477386Y-54079364D01*
X100432567Y-53945408D01*
X100398287Y-53842363D01*
X100375484Y-53773020D01*
X100365098Y-53740169D01*
X100364542Y-53737875D01*
X100384775Y-53733642D01*
X100441810Y-53729848D01*
X100530117Y-53726649D01*
X100644165Y-53724202D01*
X100778425Y-53722661D01*
X100920125Y-53722181D01*
X101475750Y-53722362D01*
X101739642Y-54679973D01*
X101799251Y-54897160D01*
X101860309Y-55121241D01*
X101920841Y-55344855D01*
X101978871Y-55560643D01*
X102032423Y-55761245D01*
X102079520Y-55939302D01*
X102118188Y-56087454D01*
X102133124Y-56145584D01*
X102180553Y-56328755D01*
X102220098Y-56471520D01*
X102253492Y-56574700D01*
X102282472Y-56639114D01*
X102308771Y-56665581D01*
X102334125Y-56654923D01*
X102360268Y-56607958D01*
X102388935Y-56525508D01*
X102421861Y-56408391D01*
X102451020Y-56295842D01*
X102531389Y-55980433D01*
X102560343Y-56126508D01*
X102613089Y-56314910D01*
X102696160Y-56493374D01*
X102812882Y-56667417D01*
X102966579Y-56842555D01*
X103029662Y-56905073D01*
X103181314Y-57050730D01*
X103505265Y-57050730D01*
X103381944Y-56981785D01*
X103226803Y-56867063D01*
X103082393Y-56733889D01*
X102957030Y-56590448D01*
X102859026Y-56444927D01*
X102815652Y-56357250D01*
X102764199Y-56230018D01*
X102728065Y-56127253D01*
X102704138Y-56035310D01*
X102689306Y-55940544D01*
X102680457Y-55829310D01*
X102676680Y-55747817D01*
X102674148Y-55589454D01*
X102678880Y-55443903D01*
X102690389Y-55324926D01*
X102692072Y-55313900D01*
X102705572Y-55249022D01*
X102728567Y-55158763D01*
X102758542Y-55051237D01*
X102792979Y-54934555D01*
X102829363Y-54816830D01*
X102865177Y-54706174D01*
X102897904Y-54610699D01*
X102925028Y-54538519D01*
X102944033Y-54497745D01*
X102946225Y-54494584D01*
X102964883Y-54459082D01*
X102979039Y-54420500D01*
X103003028Y-54367712D01*
X103040209Y-54308697D01*
X103045129Y-54302086D01*
X103077184Y-54256266D01*
X103094179Y-54224718D01*
X103095000Y-54220782D01*
X103108337Y-54190573D01*
X103143823Y-54137834D01*
X103194675Y-54070935D01*
X103254108Y-53998250D01*
X103315339Y-53928148D01*
X103371583Y-53869002D01*
X103405501Y-53837631D01*
X103472265Y-53781421D01*
X103536988Y-53726855D01*
X103569983Y-53698991D01*
X103664163Y-53634780D01*
X103789559Y-53572013D01*
X103935185Y-53515486D01*
X104090057Y-53469992D01*
X104100417Y-53467475D01*
X104177850Y-53455649D01*
X104284814Y-53448210D01*
X104408734Y-53445169D01*
X104537034Y-53446539D01*
X104657139Y-53452330D01*
X104756473Y-53462555D01*
X104782197Y-53466836D01*
X104844850Y-53481851D01*
X104934950Y-53507452D01*
X105040084Y-53539955D01*
X105140200Y-53573057D01*
X105254486Y-53612146D01*
X105393347Y-53659626D01*
X105541300Y-53710203D01*
X105682861Y-53758583D01*
X105719667Y-53771160D01*
X105829469Y-53809825D01*
X105923695Y-53845193D01*
X105995672Y-53874582D01*
X106038723Y-53895308D01*
X106048075Y-53903173D01*
X106058738Y-53938262D01*
X106063758Y-53947210D01*
X106374674Y-53947210D01*
X106390346Y-53925957D01*
X106410408Y-53871921D01*
X106424011Y-53828293D01*
X106450801Y-53810140D01*
X106500853Y-53806667D01*
X106578247Y-53806667D01*
X106857614Y-54785625D01*
X106916261Y-54991841D01*
X106973420Y-55194155D01*
X107027593Y-55387180D01*
X107077287Y-55565528D01*
X107121003Y-55723812D01*
X107157246Y-55856644D01*
X107184521Y-55958636D01*
X107199238Y-56015855D01*
X107233744Y-56147365D01*
X107263637Y-56239824D01*
X107290648Y-56292852D01*
X107316509Y-56306072D01*
X107342950Y-56279103D01*
X107371705Y-56211569D01*
X107404503Y-56103089D01*
X107440663Y-55963059D01*
X107464073Y-55871766D01*
X107497526Y-55746063D01*
X107539299Y-55592204D01*
X107587664Y-55416441D01*
X107640897Y-55225030D01*
X107697272Y-55024223D01*
X107755064Y-54820275D01*
X107781566Y-54727417D01*
X108041949Y-53817250D01*
X108828142Y-53811701D01*
X109614334Y-53806152D01*
X109614334Y-57489667D01*
X109794443Y-57489667D01*
X109796639Y-57442517D01*
X109798942Y-57363689D01*
X109800767Y-57264318D01*
X109802171Y-57141800D01*
X109803208Y-56993531D01*
X109803933Y-56816907D01*
X109804403Y-56609324D01*
X109804673Y-56368177D01*
X109804797Y-56090864D01*
X109804832Y-55774780D01*
X109804834Y-55648167D01*
X109804818Y-55317157D01*
X109804732Y-55025877D01*
X109804523Y-54771722D01*
X109804133Y-54552089D01*
X109803508Y-54364373D01*
X109802592Y-54205971D01*
X109801330Y-54074278D01*
X109799666Y-53966691D01*
X109797546Y-53880605D01*
X109794913Y-53813417D01*
X109791712Y-53762523D01*
X109787888Y-53725318D01*
X109783386Y-53699199D01*
X109778149Y-53681562D01*
X109772124Y-53669802D01*
X109765253Y-53661317D01*
X109762501Y-53658500D01*
X109750672Y-53648044D01*
X109735433Y-53639466D01*
X109712781Y-53632583D01*
X109678713Y-53627206D01*
X109629227Y-53623152D01*
X109560320Y-53620233D01*
X109467988Y-53618264D01*
X109348230Y-53617059D01*
X109197041Y-53616432D01*
X109010420Y-53616197D01*
X108850942Y-53616167D01*
X108639528Y-53616660D01*
X108449597Y-53618087D01*
X108284622Y-53620369D01*
X108148075Y-53623430D01*
X108043428Y-53627191D01*
X107974152Y-53631575D01*
X107943720Y-53636502D01*
X107943679Y-53636525D01*
X107908089Y-53670538D01*
X107881938Y-53715900D01*
X107869604Y-53752430D01*
X107847733Y-53823377D01*
X107817735Y-53923793D01*
X107781017Y-54048731D01*
X107738985Y-54193244D01*
X107693048Y-54352385D01*
X107644612Y-54521206D01*
X107595086Y-54694760D01*
X107545877Y-54868100D01*
X107498392Y-55036279D01*
X107454038Y-55194350D01*
X107414224Y-55337365D01*
X107380357Y-55460377D01*
X107353844Y-55558439D01*
X107336093Y-55626604D01*
X107328510Y-55659924D01*
X107328334Y-55661793D01*
X107323856Y-55687484D01*
X107318697Y-55687919D01*
X107311162Y-55666261D01*
X107293224Y-55607806D01*
X107266029Y-55516488D01*
X107230725Y-55396237D01*
X107188462Y-55250984D01*
X107140385Y-55084660D01*
X107087643Y-54901198D01*
X107031384Y-54704528D01*
X107022585Y-54673683D01*
X106945110Y-54404090D01*
X106878033Y-54175136D01*
X106821373Y-53986885D01*
X106775149Y-53839398D01*
X106739380Y-53732738D01*
X106714087Y-53666965D01*
X106700093Y-53642625D01*
X106668644Y-53631634D01*
X106606432Y-53623748D01*
X106510124Y-53618748D01*
X106376387Y-53616409D01*
X106302740Y-53616167D01*
X106165685Y-53615624D01*
X106061746Y-53613381D01*
X105981711Y-53608516D01*
X105916370Y-53600109D01*
X105856512Y-53587238D01*
X105792926Y-53568983D01*
X105775160Y-53563404D01*
X105683666Y-53534916D01*
X105595561Y-53508408D01*
X105528102Y-53489057D01*
X105521417Y-53487249D01*
X105441654Y-53461956D01*
X105360034Y-53430397D01*
X105349250Y-53425646D01*
X105288327Y-53402296D01*
X105202388Y-53374507D01*
X105107649Y-53347441D01*
X105084667Y-53341437D01*
X104990454Y-53316976D01*
X104900965Y-53293103D01*
X104832314Y-53274134D01*
X104820084Y-53270601D01*
X104764590Y-53260973D01*
X104675717Y-53253462D01*
X104562389Y-53248592D01*
X104433529Y-53246890D01*
X104417917Y-53246922D01*
%TD*%
M02*
