%TF.GenerationSoftware,KiCad,Pcbnew,(5.1.12-1-g0a0a2da680)-1*%
%TF.CreationDate,2022-06-30T22:32:07+02:00*%
%TF.ProjectId,ThermoDeviceLogger,54686572-6d6f-4446-9576-6963654c6f67,rev?*%
%TF.SameCoordinates,Original*%
%TF.FileFunction,Legend,Bot*%
%TF.FilePolarity,Positive*%
%FSLAX46Y46*%
G04 Gerber Fmt 4.6, Leading zero omitted, Abs format (unit mm)*
G04 Created by KiCad (PCBNEW (5.1.12-1-g0a0a2da680)-1) date 2022-06-30 22:32:07*
%MOMM*%
%LPD*%
G01*
G04 APERTURE LIST*
%ADD10C,0.200000*%
%ADD11C,0.010000*%
G04 APERTURE END LIST*
D10*
X119485714Y-79997619D02*
X119485714Y-78897619D01*
X119485714Y-79421428D02*
X118857142Y-79421428D01*
X118857142Y-79997619D02*
X118857142Y-78897619D01*
X118490476Y-79264285D02*
X118071428Y-79264285D01*
X118333333Y-78897619D02*
X118333333Y-79840476D01*
X118280952Y-79945238D01*
X118176190Y-79997619D01*
X118071428Y-79997619D01*
X117861904Y-79264285D02*
X117442857Y-79264285D01*
X117704761Y-78897619D02*
X117704761Y-79840476D01*
X117652380Y-79945238D01*
X117547619Y-79997619D01*
X117442857Y-79997619D01*
X117076190Y-79264285D02*
X117076190Y-80364285D01*
X117076190Y-79316666D02*
X116971428Y-79264285D01*
X116761904Y-79264285D01*
X116657142Y-79316666D01*
X116604761Y-79369047D01*
X116552380Y-79473809D01*
X116552380Y-79788095D01*
X116604761Y-79892857D01*
X116657142Y-79945238D01*
X116761904Y-79997619D01*
X116971428Y-79997619D01*
X117076190Y-79945238D01*
X116133333Y-79945238D02*
X116028571Y-79997619D01*
X115819047Y-79997619D01*
X115714285Y-79945238D01*
X115661904Y-79840476D01*
X115661904Y-79788095D01*
X115714285Y-79683333D01*
X115819047Y-79630952D01*
X115976190Y-79630952D01*
X116080952Y-79578571D01*
X116133333Y-79473809D01*
X116133333Y-79421428D01*
X116080952Y-79316666D01*
X115976190Y-79264285D01*
X115819047Y-79264285D01*
X115714285Y-79316666D01*
X115190476Y-79892857D02*
X115138095Y-79945238D01*
X115190476Y-79997619D01*
X115242857Y-79945238D01*
X115190476Y-79892857D01*
X115190476Y-79997619D01*
X115190476Y-79316666D02*
X115138095Y-79369047D01*
X115190476Y-79421428D01*
X115242857Y-79369047D01*
X115190476Y-79316666D01*
X115190476Y-79421428D01*
X113880952Y-78845238D02*
X114823809Y-80259523D01*
X112728571Y-78845238D02*
X113671428Y-80259523D01*
X112361904Y-79997619D02*
X112361904Y-79264285D01*
X112361904Y-79369047D02*
X112309523Y-79316666D01*
X112204761Y-79264285D01*
X112047619Y-79264285D01*
X111942857Y-79316666D01*
X111890476Y-79421428D01*
X111890476Y-79997619D01*
X111890476Y-79421428D02*
X111838095Y-79316666D01*
X111733333Y-79264285D01*
X111576190Y-79264285D01*
X111471428Y-79316666D01*
X111419047Y-79421428D01*
X111419047Y-79997619D01*
X110423809Y-79997619D02*
X110423809Y-79421428D01*
X110476190Y-79316666D01*
X110580952Y-79264285D01*
X110790476Y-79264285D01*
X110895238Y-79316666D01*
X110423809Y-79945238D02*
X110528571Y-79997619D01*
X110790476Y-79997619D01*
X110895238Y-79945238D01*
X110947619Y-79840476D01*
X110947619Y-79735714D01*
X110895238Y-79630952D01*
X110790476Y-79578571D01*
X110528571Y-79578571D01*
X110423809Y-79526190D01*
X109900000Y-79997619D02*
X109900000Y-78897619D01*
X109795238Y-79578571D02*
X109480952Y-79997619D01*
X109480952Y-79264285D02*
X109900000Y-79683333D01*
X109009523Y-79997619D02*
X109009523Y-79264285D01*
X109009523Y-78897619D02*
X109061904Y-78950000D01*
X109009523Y-79002380D01*
X108957142Y-78950000D01*
X109009523Y-78897619D01*
X109009523Y-79002380D01*
X108485714Y-79264285D02*
X108485714Y-79997619D01*
X108485714Y-79369047D02*
X108433333Y-79316666D01*
X108328571Y-79264285D01*
X108171428Y-79264285D01*
X108066666Y-79316666D01*
X108014285Y-79421428D01*
X108014285Y-79997619D01*
X107019047Y-79264285D02*
X107019047Y-80154761D01*
X107071428Y-80259523D01*
X107123809Y-80311904D01*
X107228571Y-80364285D01*
X107385714Y-80364285D01*
X107490476Y-80311904D01*
X107019047Y-79945238D02*
X107123809Y-79997619D01*
X107333333Y-79997619D01*
X107438095Y-79945238D01*
X107490476Y-79892857D01*
X107542857Y-79788095D01*
X107542857Y-79473809D01*
X107490476Y-79369047D01*
X107438095Y-79316666D01*
X107333333Y-79264285D01*
X107123809Y-79264285D01*
X107019047Y-79316666D01*
X106023809Y-79997619D02*
X106023809Y-78897619D01*
X106023809Y-79945238D02*
X106128571Y-79997619D01*
X106338095Y-79997619D01*
X106442857Y-79945238D01*
X106495238Y-79892857D01*
X106547619Y-79788095D01*
X106547619Y-79473809D01*
X106495238Y-79369047D01*
X106442857Y-79316666D01*
X106338095Y-79264285D01*
X106128571Y-79264285D01*
X106023809Y-79316666D01*
X105080952Y-79945238D02*
X105185714Y-79997619D01*
X105395238Y-79997619D01*
X105500000Y-79945238D01*
X105552380Y-79840476D01*
X105552380Y-79421428D01*
X105500000Y-79316666D01*
X105395238Y-79264285D01*
X105185714Y-79264285D01*
X105080952Y-79316666D01*
X105028571Y-79421428D01*
X105028571Y-79526190D01*
X105552380Y-79630952D01*
X104661904Y-79264285D02*
X104400000Y-79997619D01*
X104138095Y-79264285D01*
X103719047Y-79997619D02*
X103719047Y-79264285D01*
X103719047Y-78897619D02*
X103771428Y-78950000D01*
X103719047Y-79002380D01*
X103666666Y-78950000D01*
X103719047Y-78897619D01*
X103719047Y-79002380D01*
X102723809Y-79945238D02*
X102828571Y-79997619D01*
X103038095Y-79997619D01*
X103142857Y-79945238D01*
X103195238Y-79892857D01*
X103247619Y-79788095D01*
X103247619Y-79473809D01*
X103195238Y-79369047D01*
X103142857Y-79316666D01*
X103038095Y-79264285D01*
X102828571Y-79264285D01*
X102723809Y-79316666D01*
X101833333Y-79945238D02*
X101938095Y-79997619D01*
X102147619Y-79997619D01*
X102252380Y-79945238D01*
X102304761Y-79840476D01*
X102304761Y-79421428D01*
X102252380Y-79316666D01*
X102147619Y-79264285D01*
X101938095Y-79264285D01*
X101833333Y-79316666D01*
X101780952Y-79421428D01*
X101780952Y-79526190D01*
X102304761Y-79630952D01*
X101361904Y-79945238D02*
X101257142Y-79997619D01*
X101047619Y-79997619D01*
X100942857Y-79945238D01*
X100890476Y-79840476D01*
X100890476Y-79788095D01*
X100942857Y-79683333D01*
X101047619Y-79630952D01*
X101204761Y-79630952D01*
X101309523Y-79578571D01*
X101361904Y-79473809D01*
X101361904Y-79421428D01*
X101309523Y-79316666D01*
X101204761Y-79264285D01*
X101047619Y-79264285D01*
X100942857Y-79316666D01*
X100419047Y-79892857D02*
X100366666Y-79945238D01*
X100419047Y-79997619D01*
X100471428Y-79945238D01*
X100419047Y-79892857D01*
X100419047Y-79997619D01*
X99423809Y-79945238D02*
X99528571Y-79997619D01*
X99738095Y-79997619D01*
X99842857Y-79945238D01*
X99895238Y-79892857D01*
X99947619Y-79788095D01*
X99947619Y-79473809D01*
X99895238Y-79369047D01*
X99842857Y-79316666D01*
X99738095Y-79264285D01*
X99528571Y-79264285D01*
X99423809Y-79316666D01*
X98795238Y-79997619D02*
X98900000Y-79945238D01*
X98952380Y-79892857D01*
X99004761Y-79788095D01*
X99004761Y-79473809D01*
X98952380Y-79369047D01*
X98900000Y-79316666D01*
X98795238Y-79264285D01*
X98638095Y-79264285D01*
X98533333Y-79316666D01*
X98480952Y-79369047D01*
X98428571Y-79473809D01*
X98428571Y-79788095D01*
X98480952Y-79892857D01*
X98533333Y-79945238D01*
X98638095Y-79997619D01*
X98795238Y-79997619D01*
X97957142Y-79997619D02*
X97957142Y-79264285D01*
X97957142Y-79369047D02*
X97904761Y-79316666D01*
X97800000Y-79264285D01*
X97642857Y-79264285D01*
X97538095Y-79316666D01*
X97485714Y-79421428D01*
X97485714Y-79997619D01*
X97485714Y-79421428D02*
X97433333Y-79316666D01*
X97328571Y-79264285D01*
X97171428Y-79264285D01*
X97066666Y-79316666D01*
X97014285Y-79421428D01*
X97014285Y-79997619D01*
X119366666Y-80897619D02*
X118738095Y-80897619D01*
X119052380Y-81997619D02*
X119052380Y-80897619D01*
X118371428Y-81997619D02*
X118371428Y-80897619D01*
X117900000Y-81997619D02*
X117900000Y-81421428D01*
X117952380Y-81316666D01*
X118057142Y-81264285D01*
X118214285Y-81264285D01*
X118319047Y-81316666D01*
X118371428Y-81369047D01*
X116957142Y-81945238D02*
X117061904Y-81997619D01*
X117271428Y-81997619D01*
X117376190Y-81945238D01*
X117428571Y-81840476D01*
X117428571Y-81421428D01*
X117376190Y-81316666D01*
X117271428Y-81264285D01*
X117061904Y-81264285D01*
X116957142Y-81316666D01*
X116904761Y-81421428D01*
X116904761Y-81526190D01*
X117428571Y-81630952D01*
X116433333Y-81997619D02*
X116433333Y-81264285D01*
X116433333Y-81473809D02*
X116380952Y-81369047D01*
X116328571Y-81316666D01*
X116223809Y-81264285D01*
X116119047Y-81264285D01*
X115752380Y-81997619D02*
X115752380Y-81264285D01*
X115752380Y-81369047D02*
X115700000Y-81316666D01*
X115595238Y-81264285D01*
X115438095Y-81264285D01*
X115333333Y-81316666D01*
X115280952Y-81421428D01*
X115280952Y-81997619D01*
X115280952Y-81421428D02*
X115228571Y-81316666D01*
X115123809Y-81264285D01*
X114966666Y-81264285D01*
X114861904Y-81316666D01*
X114809523Y-81421428D01*
X114809523Y-81997619D01*
X114128571Y-81997619D02*
X114233333Y-81945238D01*
X114285714Y-81892857D01*
X114338095Y-81788095D01*
X114338095Y-81473809D01*
X114285714Y-81369047D01*
X114233333Y-81316666D01*
X114128571Y-81264285D01*
X113971428Y-81264285D01*
X113866666Y-81316666D01*
X113814285Y-81369047D01*
X113761904Y-81473809D01*
X113761904Y-81788095D01*
X113814285Y-81892857D01*
X113866666Y-81945238D01*
X113971428Y-81997619D01*
X114128571Y-81997619D01*
X112452380Y-81997619D02*
X112452380Y-80897619D01*
X112190476Y-80897619D01*
X112033333Y-80950000D01*
X111928571Y-81054761D01*
X111876190Y-81159523D01*
X111823809Y-81369047D01*
X111823809Y-81526190D01*
X111876190Y-81735714D01*
X111928571Y-81840476D01*
X112033333Y-81945238D01*
X112190476Y-81997619D01*
X112452380Y-81997619D01*
X110933333Y-81945238D02*
X111038095Y-81997619D01*
X111247619Y-81997619D01*
X111352380Y-81945238D01*
X111404761Y-81840476D01*
X111404761Y-81421428D01*
X111352380Y-81316666D01*
X111247619Y-81264285D01*
X111038095Y-81264285D01*
X110933333Y-81316666D01*
X110880952Y-81421428D01*
X110880952Y-81526190D01*
X111404761Y-81630952D01*
X110514285Y-81264285D02*
X110252380Y-81997619D01*
X109990476Y-81264285D01*
X109571428Y-81997619D02*
X109571428Y-81264285D01*
X109571428Y-80897619D02*
X109623809Y-80950000D01*
X109571428Y-81002380D01*
X109519047Y-80950000D01*
X109571428Y-80897619D01*
X109571428Y-81002380D01*
X108576190Y-81945238D02*
X108680952Y-81997619D01*
X108890476Y-81997619D01*
X108995238Y-81945238D01*
X109047619Y-81892857D01*
X109100000Y-81788095D01*
X109100000Y-81473809D01*
X109047619Y-81369047D01*
X108995238Y-81316666D01*
X108890476Y-81264285D01*
X108680952Y-81264285D01*
X108576190Y-81316666D01*
X107685714Y-81945238D02*
X107790476Y-81997619D01*
X108000000Y-81997619D01*
X108104761Y-81945238D01*
X108157142Y-81840476D01*
X108157142Y-81421428D01*
X108104761Y-81316666D01*
X108000000Y-81264285D01*
X107790476Y-81264285D01*
X107685714Y-81316666D01*
X107633333Y-81421428D01*
X107633333Y-81526190D01*
X108157142Y-81630952D01*
X105800000Y-81997619D02*
X106323809Y-81997619D01*
X106323809Y-80897619D01*
X105276190Y-81997619D02*
X105380952Y-81945238D01*
X105433333Y-81892857D01*
X105485714Y-81788095D01*
X105485714Y-81473809D01*
X105433333Y-81369047D01*
X105380952Y-81316666D01*
X105276190Y-81264285D01*
X105119047Y-81264285D01*
X105014285Y-81316666D01*
X104961904Y-81369047D01*
X104909523Y-81473809D01*
X104909523Y-81788095D01*
X104961904Y-81892857D01*
X105014285Y-81945238D01*
X105119047Y-81997619D01*
X105276190Y-81997619D01*
X103966666Y-81264285D02*
X103966666Y-82154761D01*
X104019047Y-82259523D01*
X104071428Y-82311904D01*
X104176190Y-82364285D01*
X104333333Y-82364285D01*
X104438095Y-82311904D01*
X103966666Y-81945238D02*
X104071428Y-81997619D01*
X104280952Y-81997619D01*
X104385714Y-81945238D01*
X104438095Y-81892857D01*
X104490476Y-81788095D01*
X104490476Y-81473809D01*
X104438095Y-81369047D01*
X104385714Y-81316666D01*
X104280952Y-81264285D01*
X104071428Y-81264285D01*
X103966666Y-81316666D01*
X102971428Y-81264285D02*
X102971428Y-82154761D01*
X103023809Y-82259523D01*
X103076190Y-82311904D01*
X103180952Y-82364285D01*
X103338095Y-82364285D01*
X103442857Y-82311904D01*
X102971428Y-81945238D02*
X103076190Y-81997619D01*
X103285714Y-81997619D01*
X103390476Y-81945238D01*
X103442857Y-81892857D01*
X103495238Y-81788095D01*
X103495238Y-81473809D01*
X103442857Y-81369047D01*
X103390476Y-81316666D01*
X103285714Y-81264285D01*
X103076190Y-81264285D01*
X102971428Y-81316666D01*
X102028571Y-81945238D02*
X102133333Y-81997619D01*
X102342857Y-81997619D01*
X102447619Y-81945238D01*
X102500000Y-81840476D01*
X102500000Y-81421428D01*
X102447619Y-81316666D01*
X102342857Y-81264285D01*
X102133333Y-81264285D01*
X102028571Y-81316666D01*
X101976190Y-81421428D01*
X101976190Y-81526190D01*
X102500000Y-81630952D01*
X101504761Y-81997619D02*
X101504761Y-81264285D01*
X101504761Y-81473809D02*
X101452380Y-81369047D01*
X101400000Y-81316666D01*
X101295238Y-81264285D01*
X101190476Y-81264285D01*
X100142857Y-80897619D02*
X99776190Y-81997619D01*
X99409523Y-80897619D01*
X98466666Y-81997619D02*
X99095238Y-81997619D01*
X98780952Y-81997619D02*
X98780952Y-80897619D01*
X98885714Y-81054761D01*
X98990476Y-81159523D01*
X99095238Y-81211904D01*
X97157142Y-81578571D02*
X96319047Y-81578571D01*
X95009523Y-81002380D02*
X94957142Y-80950000D01*
X94852380Y-80897619D01*
X94590476Y-80897619D01*
X94485714Y-80950000D01*
X94433333Y-81002380D01*
X94380952Y-81107142D01*
X94380952Y-81211904D01*
X94433333Y-81369047D01*
X95061904Y-81997619D01*
X94380952Y-81997619D01*
X93700000Y-80897619D02*
X93595238Y-80897619D01*
X93490476Y-80950000D01*
X93438095Y-81002380D01*
X93385714Y-81107142D01*
X93333333Y-81316666D01*
X93333333Y-81578571D01*
X93385714Y-81788095D01*
X93438095Y-81892857D01*
X93490476Y-81945238D01*
X93595238Y-81997619D01*
X93700000Y-81997619D01*
X93804761Y-81945238D01*
X93857142Y-81892857D01*
X93909523Y-81788095D01*
X93961904Y-81578571D01*
X93961904Y-81316666D01*
X93909523Y-81107142D01*
X93857142Y-81002380D01*
X93804761Y-80950000D01*
X93700000Y-80897619D01*
X92914285Y-81002380D02*
X92861904Y-80950000D01*
X92757142Y-80897619D01*
X92495238Y-80897619D01*
X92390476Y-80950000D01*
X92338095Y-81002380D01*
X92285714Y-81107142D01*
X92285714Y-81211904D01*
X92338095Y-81369047D01*
X92966666Y-81997619D01*
X92285714Y-81997619D01*
X91866666Y-81002380D02*
X91814285Y-80950000D01*
X91709523Y-80897619D01*
X91447619Y-80897619D01*
X91342857Y-80950000D01*
X91290476Y-81002380D01*
X91238095Y-81107142D01*
X91238095Y-81211904D01*
X91290476Y-81369047D01*
X91919047Y-81997619D01*
X91238095Y-81997619D01*
D11*
%TO.C,G\u002A\u002A\u002A*%
G36*
X105217917Y-53146922D02*
G01*
X105092143Y-53147905D01*
X104997588Y-53150791D01*
X104923138Y-53157071D01*
X104857681Y-53168236D01*
X104790104Y-53185779D01*
X104709293Y-53211190D01*
X104688750Y-53217946D01*
X104584403Y-53255653D01*
X104480766Y-53298612D01*
X104393728Y-53340019D01*
X104360667Y-53358457D01*
X104308399Y-53394729D01*
X104239469Y-53448937D01*
X104160342Y-53515237D01*
X104077487Y-53587781D01*
X103997367Y-53660723D01*
X103926451Y-53728218D01*
X103871203Y-53784419D01*
X103838091Y-53823481D01*
X103831500Y-53836884D01*
X103820616Y-53863699D01*
X103792081Y-53914498D01*
X103752125Y-53978206D01*
X103695082Y-54065430D01*
X103656431Y-54125499D01*
X103631236Y-54166582D01*
X103614559Y-54196850D01*
X103601465Y-54224471D01*
X103596463Y-54235834D01*
X103570299Y-54295013D01*
X103544571Y-54352250D01*
X103496222Y-54471606D01*
X103444748Y-54621039D01*
X103393749Y-54788828D01*
X103346823Y-54963253D01*
X103313767Y-55103667D01*
X103286388Y-55224459D01*
X103255877Y-55351259D01*
X103224037Y-55477410D01*
X103192672Y-55596257D01*
X103163584Y-55701144D01*
X103138575Y-55785414D01*
X103119449Y-55842412D01*
X103108007Y-55865482D01*
X103107385Y-55865667D01*
X103092245Y-55848617D01*
X103090667Y-55836128D01*
X103085179Y-55810757D01*
X103069390Y-55748353D01*
X103044310Y-55652679D01*
X103010951Y-55527495D01*
X102970324Y-55376563D01*
X102923441Y-55203645D01*
X102871311Y-55012502D01*
X102814948Y-54806896D01*
X102773435Y-54656086D01*
X102702086Y-54398225D01*
X102640719Y-54178549D01*
X102588497Y-53994318D01*
X102544585Y-53842789D01*
X102508144Y-53721220D01*
X102478341Y-53626870D01*
X102454337Y-53556997D01*
X102435298Y-53508859D01*
X102420387Y-53479713D01*
X102411256Y-53468542D01*
X102395412Y-53458131D01*
X102372850Y-53449857D01*
X102338948Y-53443480D01*
X102289082Y-53438757D01*
X102218628Y-53435447D01*
X102122962Y-53433309D01*
X101997463Y-53432102D01*
X101837505Y-53431583D01*
X101701906Y-53431500D01*
X101516390Y-53431609D01*
X101368560Y-53432122D01*
X101253772Y-53433318D01*
X101167377Y-53435474D01*
X101104729Y-53438868D01*
X101061182Y-53443780D01*
X101032090Y-53450488D01*
X101012806Y-53459269D01*
X100998684Y-53470402D01*
X100995167Y-53473833D01*
X100960130Y-53537542D01*
X100952834Y-53595863D01*
X100959474Y-53624253D01*
X100978642Y-53689340D01*
X101009209Y-53787752D01*
X101050049Y-53916116D01*
X101100031Y-54071059D01*
X101158029Y-54249208D01*
X101222913Y-54447191D01*
X101293556Y-54661634D01*
X101368830Y-54889165D01*
X101447606Y-55126411D01*
X101528756Y-55369999D01*
X101611153Y-55616557D01*
X101693666Y-55862711D01*
X101775170Y-56105090D01*
X101854535Y-56340319D01*
X101930632Y-56565027D01*
X102002335Y-56775840D01*
X102068515Y-56969385D01*
X102128043Y-57142291D01*
X102179791Y-57291184D01*
X102222632Y-57412690D01*
X102255437Y-57503439D01*
X102277077Y-57560056D01*
X102284325Y-57576414D01*
X102317274Y-57615971D01*
X102340394Y-57630593D01*
X102368788Y-57633591D01*
X102434538Y-57636347D01*
X102532669Y-57638779D01*
X102658203Y-57640809D01*
X102806164Y-57642354D01*
X102971577Y-57643333D01*
X103145315Y-57643667D01*
X103346911Y-57643559D01*
X103510427Y-57643099D01*
X103640117Y-57642075D01*
X103740234Y-57640282D01*
X103815033Y-57637510D01*
X103868766Y-57633550D01*
X103905687Y-57628195D01*
X103930050Y-57621235D01*
X103946108Y-57612463D01*
X103955883Y-57603951D01*
X103979124Y-57567512D01*
X104009825Y-57501254D01*
X104043302Y-57415912D01*
X104064350Y-57355243D01*
X104094672Y-57266279D01*
X104121928Y-57192097D01*
X104142521Y-57142171D01*
X104151049Y-57126727D01*
X104181955Y-57121735D01*
X104235234Y-57139824D01*
X104238374Y-57141348D01*
X104412588Y-57223416D01*
X104562726Y-57285642D01*
X104699490Y-57332319D01*
X104752250Y-57347435D01*
X104848981Y-57376468D01*
X104945426Y-57409959D01*
X105022041Y-57441079D01*
X105027417Y-57443588D01*
X105075124Y-57462734D01*
X105150545Y-57489099D01*
X105244531Y-57519892D01*
X105347932Y-57552320D01*
X105451598Y-57583591D01*
X105546379Y-57610913D01*
X105623125Y-57631494D01*
X105672685Y-57642541D01*
X105683102Y-57643667D01*
X105699134Y-57626209D01*
X105721287Y-57583342D01*
X105724904Y-57574875D01*
X105777052Y-57447927D01*
X105823433Y-57332315D01*
X105861656Y-57234231D01*
X105889329Y-57159863D01*
X105904061Y-57115403D01*
X105905834Y-57106603D01*
X105913384Y-57073376D01*
X105933643Y-57013071D01*
X105963024Y-56934428D01*
X105997941Y-56846183D01*
X106034805Y-56757075D01*
X106070029Y-56675843D01*
X106100028Y-56611224D01*
X106121214Y-56571957D01*
X106128503Y-56564167D01*
X106157070Y-56571411D01*
X106214368Y-56590716D01*
X106289810Y-56618446D01*
X106319067Y-56629671D01*
X106421459Y-56668516D01*
X106531649Y-56708954D01*
X106626820Y-56742620D01*
X106631965Y-56744382D01*
X106776012Y-56793589D01*
X106796006Y-56742378D01*
X106820202Y-56680383D01*
X106836868Y-56637660D01*
X106846873Y-56596171D01*
X106828472Y-56573480D01*
X106810409Y-56565252D01*
X106773514Y-56550930D01*
X106705979Y-56525088D01*
X106616775Y-56491146D01*
X106514871Y-56452524D01*
X106493593Y-56444477D01*
X106224102Y-56342604D01*
X106273635Y-56299927D01*
X106303903Y-56272526D01*
X106359268Y-56221140D01*
X106434168Y-56150979D01*
X106523044Y-56067254D01*
X106620336Y-55975176D01*
X106635364Y-55960917D01*
X106731425Y-55870694D01*
X106818320Y-55790883D01*
X106890983Y-55725994D01*
X106944344Y-55680536D01*
X106973335Y-55659020D01*
X106975815Y-55657974D01*
X106998437Y-55669056D01*
X107001926Y-55689724D01*
X107007400Y-55719079D01*
X107023926Y-55783474D01*
X107049973Y-55877527D01*
X107084009Y-55995857D01*
X107124504Y-56133083D01*
X107169928Y-56283824D01*
X107184427Y-56331334D01*
X107261472Y-56582834D01*
X107327257Y-56796904D01*
X107382820Y-56976623D01*
X107429198Y-57125067D01*
X107467430Y-57245315D01*
X107498555Y-57340444D01*
X107523609Y-57413532D01*
X107543632Y-57467656D01*
X107559662Y-57505895D01*
X107572736Y-57531325D01*
X107583893Y-57547026D01*
X107594172Y-57556074D01*
X107598404Y-57558592D01*
X107632527Y-57565426D01*
X107704584Y-57571161D01*
X107810188Y-57575627D01*
X107944951Y-57578656D01*
X108104484Y-57580079D01*
X108158692Y-57580167D01*
X108329485Y-57580309D01*
X108463193Y-57579361D01*
X108565055Y-57575260D01*
X108640307Y-57565946D01*
X108694188Y-57549355D01*
X108731934Y-57523428D01*
X108758785Y-57486100D01*
X108779977Y-57435312D01*
X108800748Y-57369001D01*
X108814899Y-57321854D01*
X108833803Y-57259613D01*
X108863066Y-57162991D01*
X108900827Y-57038140D01*
X108945227Y-56891213D01*
X108994407Y-56728361D01*
X109046508Y-56555736D01*
X109085753Y-56425640D01*
X109303084Y-55705029D01*
X109296733Y-56599205D01*
X109295236Y-56817134D01*
X109294235Y-56996677D01*
X109293887Y-57141779D01*
X109294347Y-57256389D01*
X109295772Y-57344450D01*
X109298317Y-57409910D01*
X109302138Y-57456715D01*
X109307391Y-57488810D01*
X109314232Y-57510142D01*
X109322817Y-57524657D01*
X109333301Y-57536300D01*
X109333775Y-57536774D01*
X109348464Y-57549724D01*
X109366910Y-57559806D01*
X109394184Y-57567378D01*
X109435358Y-57572799D01*
X109495503Y-57576427D01*
X109579692Y-57578619D01*
X109692996Y-57579733D01*
X109840487Y-57580127D01*
X109948667Y-57580167D01*
X110119489Y-57580022D01*
X110253039Y-57579356D01*
X110354378Y-57577820D01*
X110428566Y-57575064D01*
X110480665Y-57570739D01*
X110515735Y-57564496D01*
X110538838Y-57555987D01*
X110555034Y-57544863D01*
X110562500Y-57537833D01*
X110569696Y-57529897D01*
X110576026Y-57519645D01*
X110581547Y-57504474D01*
X110586313Y-57481780D01*
X110590380Y-57448958D01*
X110593804Y-57403405D01*
X110594443Y-57389667D01*
X110414334Y-57389667D01*
X109480759Y-57389667D01*
X109484266Y-56040292D01*
X109484926Y-55767808D01*
X109485333Y-55534609D01*
X109485408Y-55337651D01*
X109485074Y-55173885D01*
X109484256Y-55040264D01*
X109482874Y-54933743D01*
X109480854Y-54851273D01*
X109478116Y-54789809D01*
X109474585Y-54746304D01*
X109470183Y-54717710D01*
X109464833Y-54700981D01*
X109458458Y-54693070D01*
X109450981Y-54690931D01*
X109450129Y-54690917D01*
X109440867Y-54696363D01*
X109428850Y-54714469D01*
X109413204Y-54747888D01*
X109393053Y-54799274D01*
X109367523Y-54871279D01*
X109335739Y-54966556D01*
X109296828Y-55087758D01*
X109249915Y-55237539D01*
X109194125Y-55418550D01*
X109128583Y-55633446D01*
X109052416Y-55884880D01*
X109007096Y-56035000D01*
X108601709Y-57379084D01*
X108154661Y-57384792D01*
X107707613Y-57390501D01*
X107633740Y-57151959D01*
X107571784Y-56951343D01*
X107509398Y-56748299D01*
X107447828Y-56546967D01*
X107388321Y-56351491D01*
X107332124Y-56166009D01*
X107280484Y-55994665D01*
X107234647Y-55841600D01*
X107195861Y-55710954D01*
X107165373Y-55606869D01*
X107144428Y-55533486D01*
X107134274Y-55494948D01*
X107133501Y-55490433D01*
X107149556Y-55458774D01*
X107162348Y-55448677D01*
X107227741Y-55403362D01*
X107291935Y-55347527D01*
X107345757Y-55290557D01*
X107354567Y-55278034D01*
X107023450Y-55278034D01*
X106850933Y-55441028D01*
X106771654Y-55515911D01*
X106672559Y-55609482D01*
X106564623Y-55711377D01*
X106458823Y-55811234D01*
X106426075Y-55842137D01*
X106321279Y-55939026D01*
X106243693Y-56006081D01*
X106191761Y-56044527D01*
X106163928Y-56055587D01*
X106159036Y-56052334D01*
X106150522Y-56018991D01*
X106141167Y-55955702D01*
X106132712Y-55874775D01*
X106131088Y-55855084D01*
X106122224Y-55751639D01*
X106110588Y-55629025D01*
X106098372Y-55510111D01*
X106095598Y-55484667D01*
X106074932Y-55290775D01*
X106060415Y-55138296D01*
X106052013Y-55026765D01*
X106049692Y-54955715D01*
X106053418Y-54924680D01*
X106054591Y-54923385D01*
X106077737Y-54927868D01*
X106133611Y-54945394D01*
X106215487Y-54973657D01*
X106316638Y-55010351D01*
X106404834Y-55043435D01*
X106529093Y-55090667D01*
X106651347Y-55137103D01*
X106761068Y-55178745D01*
X106847731Y-55211599D01*
X106882683Y-55224826D01*
X107023450Y-55278034D01*
X107354567Y-55278034D01*
X107380035Y-55241834D01*
X107387500Y-55218358D01*
X107382580Y-55195357D01*
X107363460Y-55173942D01*
X107323598Y-55150159D01*
X107256454Y-55120052D01*
X107162878Y-55082554D01*
X107060278Y-55043078D01*
X106960609Y-55005833D01*
X106877247Y-54975763D01*
X106834795Y-54961317D01*
X106776195Y-54939659D01*
X106738695Y-54920551D01*
X106731334Y-54912472D01*
X106738640Y-54884968D01*
X106757953Y-54828654D01*
X106785366Y-54753948D01*
X106816969Y-54671268D01*
X106848855Y-54591030D01*
X106877117Y-54523654D01*
X106877627Y-54522489D01*
X106907509Y-54452011D01*
X106934141Y-54385507D01*
X106938712Y-54373417D01*
X106998503Y-54214123D01*
X107046519Y-54090698D01*
X107084591Y-53998923D01*
X107114550Y-53934579D01*
X107138225Y-53893449D01*
X107156053Y-53872463D01*
X107174674Y-53847210D01*
X106863758Y-53847210D01*
X106861890Y-53874511D01*
X106846456Y-53933489D01*
X106819786Y-54016591D01*
X106784210Y-54116258D01*
X106765835Y-54164710D01*
X106718357Y-54287654D01*
X106669287Y-54414693D01*
X106623951Y-54532044D01*
X106587673Y-54625923D01*
X106583005Y-54638000D01*
X106551822Y-54717874D01*
X106526514Y-54781214D01*
X106510801Y-54818783D01*
X106507731Y-54824984D01*
X106485838Y-54822874D01*
X106437771Y-54808256D01*
X106375991Y-54785923D01*
X106312963Y-54760667D01*
X106261147Y-54737278D01*
X106233007Y-54720550D01*
X106231518Y-54718785D01*
X106229672Y-54688870D01*
X106237898Y-54633468D01*
X106246421Y-54596156D01*
X106258763Y-54537496D01*
X106071107Y-54537496D01*
X106050169Y-54597561D01*
X106029230Y-54657625D01*
X105920657Y-54616371D01*
X105850693Y-54594543D01*
X105804238Y-54589859D01*
X105792759Y-54594442D01*
X105786448Y-54624886D01*
X105786861Y-54696259D01*
X105793936Y-54807705D01*
X105807609Y-54958368D01*
X105827819Y-55147391D01*
X105842361Y-55273000D01*
X105856099Y-55394724D01*
X105869942Y-55527597D01*
X105883331Y-55665022D01*
X105895704Y-55800398D01*
X105906500Y-55927126D01*
X105915159Y-56038606D01*
X105921121Y-56128240D01*
X105923823Y-56189429D01*
X105922707Y-56215571D01*
X105922474Y-56215916D01*
X105898720Y-56214378D01*
X105846393Y-56199941D01*
X105776153Y-56175612D01*
X105765654Y-56171648D01*
X105692136Y-56144173D01*
X105606163Y-56112892D01*
X105517163Y-56081123D01*
X105434564Y-56052184D01*
X105367795Y-56029394D01*
X105326284Y-56016070D01*
X105317707Y-56013981D01*
X105306728Y-56031502D01*
X105285225Y-56076504D01*
X105269306Y-56112647D01*
X105245645Y-56174638D01*
X105244342Y-56213411D01*
X105271083Y-56238739D01*
X105331552Y-56260400D01*
X105359898Y-56268414D01*
X105414394Y-56288097D01*
X105449258Y-56309093D01*
X105452507Y-56313010D01*
X105450291Y-56327350D01*
X105426943Y-56323618D01*
X105387520Y-56311549D01*
X105321526Y-56291437D01*
X105242898Y-56267532D01*
X105239084Y-56266373D01*
X105078140Y-56200394D01*
X104946733Y-56110334D01*
X104848625Y-55999073D01*
X104816204Y-55942572D01*
X104786541Y-55876694D01*
X104771256Y-55821867D01*
X104767560Y-55760641D01*
X104772667Y-55675562D01*
X104772972Y-55671921D01*
X104786725Y-55539834D01*
X104804360Y-55417009D01*
X104824263Y-55312252D01*
X104844818Y-55234369D01*
X104859677Y-55198917D01*
X104883361Y-55146189D01*
X104899446Y-55093818D01*
X104944002Y-54956385D01*
X105011002Y-54817730D01*
X105094103Y-54687012D01*
X105186964Y-54573390D01*
X105283242Y-54486024D01*
X105348024Y-54445996D01*
X105426870Y-54419181D01*
X105519504Y-54410743D01*
X105632290Y-54421118D01*
X105771589Y-54450742D01*
X105887929Y-54483063D01*
X106071107Y-54537496D01*
X106258763Y-54537496D01*
X106260819Y-54527726D01*
X106259962Y-54485833D01*
X106246980Y-54461071D01*
X106217517Y-54442617D01*
X106156438Y-54415454D01*
X106072619Y-54383216D01*
X105974937Y-54349540D01*
X105973436Y-54349050D01*
X105856818Y-54312585D01*
X105765741Y-54288829D01*
X105686271Y-54275205D01*
X105604472Y-54269132D01*
X105535417Y-54267985D01*
X105401956Y-54274400D01*
X105296156Y-54297349D01*
X105205062Y-54341430D01*
X105115720Y-54411239D01*
X105105636Y-54420507D01*
X105043846Y-54490050D01*
X104975748Y-54585665D01*
X104909690Y-54693710D01*
X104854017Y-54800539D01*
X104817232Y-54892000D01*
X104793780Y-54964163D01*
X104772306Y-55025033D01*
X104762068Y-55050750D01*
X104744038Y-55098027D01*
X104720452Y-55168939D01*
X104694811Y-55251709D01*
X104670615Y-55334557D01*
X104651365Y-55405706D01*
X104640563Y-55453377D01*
X104639388Y-55463500D01*
X104637519Y-55498733D01*
X104632808Y-55563524D01*
X104626187Y-55645268D01*
X104624540Y-55664584D01*
X104624740Y-55823112D01*
X104657271Y-55964438D01*
X104725684Y-56102285D01*
X104745790Y-56133340D01*
X104821832Y-56214703D01*
X104939195Y-56294600D01*
X105096876Y-56372533D01*
X105293874Y-56448004D01*
X105517737Y-56517307D01*
X105539947Y-56504093D01*
X105564206Y-56462636D01*
X105569614Y-56448954D01*
X105592292Y-56400318D01*
X105614127Y-56374789D01*
X105618209Y-56373667D01*
X105651433Y-56380992D01*
X105705848Y-56399546D01*
X105768901Y-56424198D01*
X105828040Y-56449815D01*
X105870710Y-56471266D01*
X105884667Y-56482593D01*
X105877435Y-56506542D01*
X105857681Y-56561956D01*
X105828321Y-56640882D01*
X105792269Y-56735367D01*
X105787666Y-56747284D01*
X105743259Y-56863421D01*
X105697718Y-56984752D01*
X105656932Y-57095475D01*
X105631112Y-57167417D01*
X105601829Y-57250028D01*
X105576459Y-57320421D01*
X105559368Y-57366524D01*
X105556516Y-57373792D01*
X105526005Y-57407247D01*
X105484640Y-57402625D01*
X105470859Y-57392414D01*
X105441955Y-57377849D01*
X105383887Y-57356154D01*
X105308260Y-57331602D01*
X105294171Y-57327356D01*
X105212215Y-57301080D01*
X105141527Y-57275106D01*
X105096072Y-57254611D01*
X105093087Y-57252835D01*
X105054971Y-57235312D01*
X104986778Y-57209776D01*
X104899084Y-57180023D01*
X104826334Y-57157060D01*
X104702065Y-57117692D01*
X104596448Y-57080290D01*
X104492110Y-57038174D01*
X104371678Y-56984665D01*
X104339500Y-56969870D01*
X104305265Y-56950730D01*
X103981314Y-56950730D01*
X103903559Y-57186073D01*
X103872224Y-57279975D01*
X103845276Y-57358989D01*
X103825690Y-57414503D01*
X103816640Y-57437583D01*
X103794022Y-57441343D01*
X103734170Y-57444451D01*
X103642176Y-57446828D01*
X103523136Y-57448396D01*
X103382143Y-57449077D01*
X103224291Y-57448791D01*
X103128760Y-57448167D01*
X102450045Y-57442584D01*
X101807314Y-55548167D01*
X101715018Y-55275967D01*
X101626688Y-55015144D01*
X101543263Y-54768490D01*
X101465681Y-54538794D01*
X101394881Y-54328847D01*
X101331803Y-54141440D01*
X101277386Y-53979364D01*
X101232567Y-53845408D01*
X101198287Y-53742363D01*
X101175484Y-53673020D01*
X101165098Y-53640169D01*
X101164542Y-53637875D01*
X101184775Y-53633642D01*
X101241810Y-53629848D01*
X101330117Y-53626649D01*
X101444165Y-53624202D01*
X101578425Y-53622661D01*
X101720125Y-53622181D01*
X102275750Y-53622362D01*
X102539642Y-54579973D01*
X102599251Y-54797160D01*
X102660309Y-55021241D01*
X102720841Y-55244855D01*
X102778871Y-55460643D01*
X102832423Y-55661245D01*
X102879520Y-55839302D01*
X102918188Y-55987454D01*
X102933124Y-56045584D01*
X102980553Y-56228755D01*
X103020098Y-56371520D01*
X103053492Y-56474700D01*
X103082472Y-56539114D01*
X103108771Y-56565581D01*
X103134125Y-56554923D01*
X103160268Y-56507958D01*
X103188935Y-56425508D01*
X103221861Y-56308391D01*
X103251020Y-56195842D01*
X103331389Y-55880433D01*
X103360343Y-56026508D01*
X103413089Y-56214910D01*
X103496160Y-56393374D01*
X103612882Y-56567417D01*
X103766579Y-56742555D01*
X103829662Y-56805073D01*
X103981314Y-56950730D01*
X104305265Y-56950730D01*
X104181944Y-56881785D01*
X104026803Y-56767063D01*
X103882393Y-56633889D01*
X103757030Y-56490448D01*
X103659026Y-56344927D01*
X103615652Y-56257250D01*
X103564199Y-56130018D01*
X103528065Y-56027253D01*
X103504138Y-55935310D01*
X103489306Y-55840544D01*
X103480457Y-55729310D01*
X103476680Y-55647817D01*
X103474148Y-55489454D01*
X103478880Y-55343903D01*
X103490389Y-55224926D01*
X103492072Y-55213900D01*
X103505572Y-55149022D01*
X103528567Y-55058763D01*
X103558542Y-54951237D01*
X103592979Y-54834555D01*
X103629363Y-54716830D01*
X103665177Y-54606174D01*
X103697904Y-54510699D01*
X103725028Y-54438519D01*
X103744033Y-54397745D01*
X103746225Y-54394584D01*
X103764883Y-54359082D01*
X103779039Y-54320500D01*
X103803028Y-54267712D01*
X103840209Y-54208697D01*
X103845129Y-54202086D01*
X103877184Y-54156266D01*
X103894179Y-54124718D01*
X103895000Y-54120782D01*
X103908337Y-54090573D01*
X103943823Y-54037834D01*
X103994675Y-53970935D01*
X104054108Y-53898250D01*
X104115339Y-53828148D01*
X104171583Y-53769002D01*
X104205501Y-53737631D01*
X104272265Y-53681421D01*
X104336988Y-53626855D01*
X104369983Y-53598991D01*
X104464163Y-53534780D01*
X104589559Y-53472013D01*
X104735185Y-53415486D01*
X104890057Y-53369992D01*
X104900417Y-53367475D01*
X104977850Y-53355649D01*
X105084814Y-53348210D01*
X105208734Y-53345169D01*
X105337034Y-53346539D01*
X105457139Y-53352330D01*
X105556473Y-53362555D01*
X105582197Y-53366836D01*
X105644850Y-53381851D01*
X105734950Y-53407452D01*
X105840084Y-53439955D01*
X105940200Y-53473057D01*
X106054486Y-53512146D01*
X106193347Y-53559626D01*
X106341300Y-53610203D01*
X106482861Y-53658583D01*
X106519667Y-53671160D01*
X106629469Y-53709825D01*
X106723695Y-53745193D01*
X106795672Y-53774582D01*
X106838723Y-53795308D01*
X106848075Y-53803173D01*
X106858738Y-53838262D01*
X106863758Y-53847210D01*
X107174674Y-53847210D01*
X107190346Y-53825957D01*
X107210408Y-53771921D01*
X107224011Y-53728293D01*
X107250801Y-53710140D01*
X107300853Y-53706667D01*
X107378247Y-53706667D01*
X107657614Y-54685625D01*
X107716261Y-54891841D01*
X107773420Y-55094155D01*
X107827593Y-55287180D01*
X107877287Y-55465528D01*
X107921003Y-55623812D01*
X107957246Y-55756644D01*
X107984521Y-55858636D01*
X107999238Y-55915855D01*
X108033744Y-56047365D01*
X108063637Y-56139824D01*
X108090648Y-56192852D01*
X108116509Y-56206072D01*
X108142950Y-56179103D01*
X108171705Y-56111569D01*
X108204503Y-56003089D01*
X108240663Y-55863059D01*
X108264073Y-55771766D01*
X108297526Y-55646063D01*
X108339299Y-55492204D01*
X108387664Y-55316441D01*
X108440897Y-55125030D01*
X108497272Y-54924223D01*
X108555064Y-54720275D01*
X108581566Y-54627417D01*
X108841949Y-53717250D01*
X109628142Y-53711701D01*
X110414334Y-53706152D01*
X110414334Y-57389667D01*
X110594443Y-57389667D01*
X110596639Y-57342517D01*
X110598942Y-57263689D01*
X110600767Y-57164318D01*
X110602171Y-57041800D01*
X110603208Y-56893531D01*
X110603933Y-56716907D01*
X110604403Y-56509324D01*
X110604673Y-56268177D01*
X110604797Y-55990864D01*
X110604832Y-55674780D01*
X110604834Y-55548167D01*
X110604818Y-55217157D01*
X110604732Y-54925877D01*
X110604523Y-54671722D01*
X110604133Y-54452089D01*
X110603508Y-54264373D01*
X110602592Y-54105971D01*
X110601330Y-53974278D01*
X110599666Y-53866691D01*
X110597546Y-53780605D01*
X110594913Y-53713417D01*
X110591712Y-53662523D01*
X110587888Y-53625318D01*
X110583386Y-53599199D01*
X110578149Y-53581562D01*
X110572124Y-53569802D01*
X110565253Y-53561317D01*
X110562501Y-53558500D01*
X110550672Y-53548044D01*
X110535433Y-53539466D01*
X110512781Y-53532583D01*
X110478713Y-53527206D01*
X110429227Y-53523152D01*
X110360320Y-53520233D01*
X110267988Y-53518264D01*
X110148230Y-53517059D01*
X109997041Y-53516432D01*
X109810420Y-53516197D01*
X109650942Y-53516167D01*
X109439528Y-53516660D01*
X109249597Y-53518087D01*
X109084622Y-53520369D01*
X108948075Y-53523430D01*
X108843428Y-53527191D01*
X108774152Y-53531575D01*
X108743720Y-53536502D01*
X108743679Y-53536525D01*
X108708089Y-53570538D01*
X108681938Y-53615900D01*
X108669604Y-53652430D01*
X108647733Y-53723377D01*
X108617735Y-53823793D01*
X108581017Y-53948731D01*
X108538985Y-54093244D01*
X108493048Y-54252385D01*
X108444612Y-54421206D01*
X108395086Y-54594760D01*
X108345877Y-54768100D01*
X108298392Y-54936279D01*
X108254038Y-55094350D01*
X108214224Y-55237365D01*
X108180357Y-55360377D01*
X108153844Y-55458439D01*
X108136093Y-55526604D01*
X108128510Y-55559924D01*
X108128334Y-55561793D01*
X108123856Y-55587484D01*
X108118697Y-55587919D01*
X108111162Y-55566261D01*
X108093224Y-55507806D01*
X108066029Y-55416488D01*
X108030725Y-55296237D01*
X107988462Y-55150984D01*
X107940385Y-54984660D01*
X107887643Y-54801198D01*
X107831384Y-54604528D01*
X107822585Y-54573683D01*
X107745110Y-54304090D01*
X107678033Y-54075136D01*
X107621373Y-53886885D01*
X107575149Y-53739398D01*
X107539380Y-53632738D01*
X107514087Y-53566965D01*
X107500093Y-53542625D01*
X107468644Y-53531634D01*
X107406432Y-53523748D01*
X107310124Y-53518748D01*
X107176387Y-53516409D01*
X107102740Y-53516167D01*
X106965685Y-53515624D01*
X106861746Y-53513381D01*
X106781711Y-53508516D01*
X106716370Y-53500109D01*
X106656512Y-53487238D01*
X106592926Y-53468983D01*
X106575160Y-53463404D01*
X106483666Y-53434916D01*
X106395561Y-53408408D01*
X106328102Y-53389057D01*
X106321417Y-53387249D01*
X106241654Y-53361956D01*
X106160034Y-53330397D01*
X106149250Y-53325646D01*
X106088327Y-53302296D01*
X106002388Y-53274507D01*
X105907649Y-53247441D01*
X105884667Y-53241437D01*
X105790454Y-53216976D01*
X105700965Y-53193103D01*
X105632314Y-53174134D01*
X105620084Y-53170601D01*
X105564590Y-53160973D01*
X105475717Y-53153462D01*
X105362389Y-53148592D01*
X105233529Y-53146890D01*
X105217917Y-53146922D01*
G37*
X105217917Y-53146922D02*
X105092143Y-53147905D01*
X104997588Y-53150791D01*
X104923138Y-53157071D01*
X104857681Y-53168236D01*
X104790104Y-53185779D01*
X104709293Y-53211190D01*
X104688750Y-53217946D01*
X104584403Y-53255653D01*
X104480766Y-53298612D01*
X104393728Y-53340019D01*
X104360667Y-53358457D01*
X104308399Y-53394729D01*
X104239469Y-53448937D01*
X104160342Y-53515237D01*
X104077487Y-53587781D01*
X103997367Y-53660723D01*
X103926451Y-53728218D01*
X103871203Y-53784419D01*
X103838091Y-53823481D01*
X103831500Y-53836884D01*
X103820616Y-53863699D01*
X103792081Y-53914498D01*
X103752125Y-53978206D01*
X103695082Y-54065430D01*
X103656431Y-54125499D01*
X103631236Y-54166582D01*
X103614559Y-54196850D01*
X103601465Y-54224471D01*
X103596463Y-54235834D01*
X103570299Y-54295013D01*
X103544571Y-54352250D01*
X103496222Y-54471606D01*
X103444748Y-54621039D01*
X103393749Y-54788828D01*
X103346823Y-54963253D01*
X103313767Y-55103667D01*
X103286388Y-55224459D01*
X103255877Y-55351259D01*
X103224037Y-55477410D01*
X103192672Y-55596257D01*
X103163584Y-55701144D01*
X103138575Y-55785414D01*
X103119449Y-55842412D01*
X103108007Y-55865482D01*
X103107385Y-55865667D01*
X103092245Y-55848617D01*
X103090667Y-55836128D01*
X103085179Y-55810757D01*
X103069390Y-55748353D01*
X103044310Y-55652679D01*
X103010951Y-55527495D01*
X102970324Y-55376563D01*
X102923441Y-55203645D01*
X102871311Y-55012502D01*
X102814948Y-54806896D01*
X102773435Y-54656086D01*
X102702086Y-54398225D01*
X102640719Y-54178549D01*
X102588497Y-53994318D01*
X102544585Y-53842789D01*
X102508144Y-53721220D01*
X102478341Y-53626870D01*
X102454337Y-53556997D01*
X102435298Y-53508859D01*
X102420387Y-53479713D01*
X102411256Y-53468542D01*
X102395412Y-53458131D01*
X102372850Y-53449857D01*
X102338948Y-53443480D01*
X102289082Y-53438757D01*
X102218628Y-53435447D01*
X102122962Y-53433309D01*
X101997463Y-53432102D01*
X101837505Y-53431583D01*
X101701906Y-53431500D01*
X101516390Y-53431609D01*
X101368560Y-53432122D01*
X101253772Y-53433318D01*
X101167377Y-53435474D01*
X101104729Y-53438868D01*
X101061182Y-53443780D01*
X101032090Y-53450488D01*
X101012806Y-53459269D01*
X100998684Y-53470402D01*
X100995167Y-53473833D01*
X100960130Y-53537542D01*
X100952834Y-53595863D01*
X100959474Y-53624253D01*
X100978642Y-53689340D01*
X101009209Y-53787752D01*
X101050049Y-53916116D01*
X101100031Y-54071059D01*
X101158029Y-54249208D01*
X101222913Y-54447191D01*
X101293556Y-54661634D01*
X101368830Y-54889165D01*
X101447606Y-55126411D01*
X101528756Y-55369999D01*
X101611153Y-55616557D01*
X101693666Y-55862711D01*
X101775170Y-56105090D01*
X101854535Y-56340319D01*
X101930632Y-56565027D01*
X102002335Y-56775840D01*
X102068515Y-56969385D01*
X102128043Y-57142291D01*
X102179791Y-57291184D01*
X102222632Y-57412690D01*
X102255437Y-57503439D01*
X102277077Y-57560056D01*
X102284325Y-57576414D01*
X102317274Y-57615971D01*
X102340394Y-57630593D01*
X102368788Y-57633591D01*
X102434538Y-57636347D01*
X102532669Y-57638779D01*
X102658203Y-57640809D01*
X102806164Y-57642354D01*
X102971577Y-57643333D01*
X103145315Y-57643667D01*
X103346911Y-57643559D01*
X103510427Y-57643099D01*
X103640117Y-57642075D01*
X103740234Y-57640282D01*
X103815033Y-57637510D01*
X103868766Y-57633550D01*
X103905687Y-57628195D01*
X103930050Y-57621235D01*
X103946108Y-57612463D01*
X103955883Y-57603951D01*
X103979124Y-57567512D01*
X104009825Y-57501254D01*
X104043302Y-57415912D01*
X104064350Y-57355243D01*
X104094672Y-57266279D01*
X104121928Y-57192097D01*
X104142521Y-57142171D01*
X104151049Y-57126727D01*
X104181955Y-57121735D01*
X104235234Y-57139824D01*
X104238374Y-57141348D01*
X104412588Y-57223416D01*
X104562726Y-57285642D01*
X104699490Y-57332319D01*
X104752250Y-57347435D01*
X104848981Y-57376468D01*
X104945426Y-57409959D01*
X105022041Y-57441079D01*
X105027417Y-57443588D01*
X105075124Y-57462734D01*
X105150545Y-57489099D01*
X105244531Y-57519892D01*
X105347932Y-57552320D01*
X105451598Y-57583591D01*
X105546379Y-57610913D01*
X105623125Y-57631494D01*
X105672685Y-57642541D01*
X105683102Y-57643667D01*
X105699134Y-57626209D01*
X105721287Y-57583342D01*
X105724904Y-57574875D01*
X105777052Y-57447927D01*
X105823433Y-57332315D01*
X105861656Y-57234231D01*
X105889329Y-57159863D01*
X105904061Y-57115403D01*
X105905834Y-57106603D01*
X105913384Y-57073376D01*
X105933643Y-57013071D01*
X105963024Y-56934428D01*
X105997941Y-56846183D01*
X106034805Y-56757075D01*
X106070029Y-56675843D01*
X106100028Y-56611224D01*
X106121214Y-56571957D01*
X106128503Y-56564167D01*
X106157070Y-56571411D01*
X106214368Y-56590716D01*
X106289810Y-56618446D01*
X106319067Y-56629671D01*
X106421459Y-56668516D01*
X106531649Y-56708954D01*
X106626820Y-56742620D01*
X106631965Y-56744382D01*
X106776012Y-56793589D01*
X106796006Y-56742378D01*
X106820202Y-56680383D01*
X106836868Y-56637660D01*
X106846873Y-56596171D01*
X106828472Y-56573480D01*
X106810409Y-56565252D01*
X106773514Y-56550930D01*
X106705979Y-56525088D01*
X106616775Y-56491146D01*
X106514871Y-56452524D01*
X106493593Y-56444477D01*
X106224102Y-56342604D01*
X106273635Y-56299927D01*
X106303903Y-56272526D01*
X106359268Y-56221140D01*
X106434168Y-56150979D01*
X106523044Y-56067254D01*
X106620336Y-55975176D01*
X106635364Y-55960917D01*
X106731425Y-55870694D01*
X106818320Y-55790883D01*
X106890983Y-55725994D01*
X106944344Y-55680536D01*
X106973335Y-55659020D01*
X106975815Y-55657974D01*
X106998437Y-55669056D01*
X107001926Y-55689724D01*
X107007400Y-55719079D01*
X107023926Y-55783474D01*
X107049973Y-55877527D01*
X107084009Y-55995857D01*
X107124504Y-56133083D01*
X107169928Y-56283824D01*
X107184427Y-56331334D01*
X107261472Y-56582834D01*
X107327257Y-56796904D01*
X107382820Y-56976623D01*
X107429198Y-57125067D01*
X107467430Y-57245315D01*
X107498555Y-57340444D01*
X107523609Y-57413532D01*
X107543632Y-57467656D01*
X107559662Y-57505895D01*
X107572736Y-57531325D01*
X107583893Y-57547026D01*
X107594172Y-57556074D01*
X107598404Y-57558592D01*
X107632527Y-57565426D01*
X107704584Y-57571161D01*
X107810188Y-57575627D01*
X107944951Y-57578656D01*
X108104484Y-57580079D01*
X108158692Y-57580167D01*
X108329485Y-57580309D01*
X108463193Y-57579361D01*
X108565055Y-57575260D01*
X108640307Y-57565946D01*
X108694188Y-57549355D01*
X108731934Y-57523428D01*
X108758785Y-57486100D01*
X108779977Y-57435312D01*
X108800748Y-57369001D01*
X108814899Y-57321854D01*
X108833803Y-57259613D01*
X108863066Y-57162991D01*
X108900827Y-57038140D01*
X108945227Y-56891213D01*
X108994407Y-56728361D01*
X109046508Y-56555736D01*
X109085753Y-56425640D01*
X109303084Y-55705029D01*
X109296733Y-56599205D01*
X109295236Y-56817134D01*
X109294235Y-56996677D01*
X109293887Y-57141779D01*
X109294347Y-57256389D01*
X109295772Y-57344450D01*
X109298317Y-57409910D01*
X109302138Y-57456715D01*
X109307391Y-57488810D01*
X109314232Y-57510142D01*
X109322817Y-57524657D01*
X109333301Y-57536300D01*
X109333775Y-57536774D01*
X109348464Y-57549724D01*
X109366910Y-57559806D01*
X109394184Y-57567378D01*
X109435358Y-57572799D01*
X109495503Y-57576427D01*
X109579692Y-57578619D01*
X109692996Y-57579733D01*
X109840487Y-57580127D01*
X109948667Y-57580167D01*
X110119489Y-57580022D01*
X110253039Y-57579356D01*
X110354378Y-57577820D01*
X110428566Y-57575064D01*
X110480665Y-57570739D01*
X110515735Y-57564496D01*
X110538838Y-57555987D01*
X110555034Y-57544863D01*
X110562500Y-57537833D01*
X110569696Y-57529897D01*
X110576026Y-57519645D01*
X110581547Y-57504474D01*
X110586313Y-57481780D01*
X110590380Y-57448958D01*
X110593804Y-57403405D01*
X110594443Y-57389667D01*
X110414334Y-57389667D01*
X109480759Y-57389667D01*
X109484266Y-56040292D01*
X109484926Y-55767808D01*
X109485333Y-55534609D01*
X109485408Y-55337651D01*
X109485074Y-55173885D01*
X109484256Y-55040264D01*
X109482874Y-54933743D01*
X109480854Y-54851273D01*
X109478116Y-54789809D01*
X109474585Y-54746304D01*
X109470183Y-54717710D01*
X109464833Y-54700981D01*
X109458458Y-54693070D01*
X109450981Y-54690931D01*
X109450129Y-54690917D01*
X109440867Y-54696363D01*
X109428850Y-54714469D01*
X109413204Y-54747888D01*
X109393053Y-54799274D01*
X109367523Y-54871279D01*
X109335739Y-54966556D01*
X109296828Y-55087758D01*
X109249915Y-55237539D01*
X109194125Y-55418550D01*
X109128583Y-55633446D01*
X109052416Y-55884880D01*
X109007096Y-56035000D01*
X108601709Y-57379084D01*
X108154661Y-57384792D01*
X107707613Y-57390501D01*
X107633740Y-57151959D01*
X107571784Y-56951343D01*
X107509398Y-56748299D01*
X107447828Y-56546967D01*
X107388321Y-56351491D01*
X107332124Y-56166009D01*
X107280484Y-55994665D01*
X107234647Y-55841600D01*
X107195861Y-55710954D01*
X107165373Y-55606869D01*
X107144428Y-55533486D01*
X107134274Y-55494948D01*
X107133501Y-55490433D01*
X107149556Y-55458774D01*
X107162348Y-55448677D01*
X107227741Y-55403362D01*
X107291935Y-55347527D01*
X107345757Y-55290557D01*
X107354567Y-55278034D01*
X107023450Y-55278034D01*
X106850933Y-55441028D01*
X106771654Y-55515911D01*
X106672559Y-55609482D01*
X106564623Y-55711377D01*
X106458823Y-55811234D01*
X106426075Y-55842137D01*
X106321279Y-55939026D01*
X106243693Y-56006081D01*
X106191761Y-56044527D01*
X106163928Y-56055587D01*
X106159036Y-56052334D01*
X106150522Y-56018991D01*
X106141167Y-55955702D01*
X106132712Y-55874775D01*
X106131088Y-55855084D01*
X106122224Y-55751639D01*
X106110588Y-55629025D01*
X106098372Y-55510111D01*
X106095598Y-55484667D01*
X106074932Y-55290775D01*
X106060415Y-55138296D01*
X106052013Y-55026765D01*
X106049692Y-54955715D01*
X106053418Y-54924680D01*
X106054591Y-54923385D01*
X106077737Y-54927868D01*
X106133611Y-54945394D01*
X106215487Y-54973657D01*
X106316638Y-55010351D01*
X106404834Y-55043435D01*
X106529093Y-55090667D01*
X106651347Y-55137103D01*
X106761068Y-55178745D01*
X106847731Y-55211599D01*
X106882683Y-55224826D01*
X107023450Y-55278034D01*
X107354567Y-55278034D01*
X107380035Y-55241834D01*
X107387500Y-55218358D01*
X107382580Y-55195357D01*
X107363460Y-55173942D01*
X107323598Y-55150159D01*
X107256454Y-55120052D01*
X107162878Y-55082554D01*
X107060278Y-55043078D01*
X106960609Y-55005833D01*
X106877247Y-54975763D01*
X106834795Y-54961317D01*
X106776195Y-54939659D01*
X106738695Y-54920551D01*
X106731334Y-54912472D01*
X106738640Y-54884968D01*
X106757953Y-54828654D01*
X106785366Y-54753948D01*
X106816969Y-54671268D01*
X106848855Y-54591030D01*
X106877117Y-54523654D01*
X106877627Y-54522489D01*
X106907509Y-54452011D01*
X106934141Y-54385507D01*
X106938712Y-54373417D01*
X106998503Y-54214123D01*
X107046519Y-54090698D01*
X107084591Y-53998923D01*
X107114550Y-53934579D01*
X107138225Y-53893449D01*
X107156053Y-53872463D01*
X107174674Y-53847210D01*
X106863758Y-53847210D01*
X106861890Y-53874511D01*
X106846456Y-53933489D01*
X106819786Y-54016591D01*
X106784210Y-54116258D01*
X106765835Y-54164710D01*
X106718357Y-54287654D01*
X106669287Y-54414693D01*
X106623951Y-54532044D01*
X106587673Y-54625923D01*
X106583005Y-54638000D01*
X106551822Y-54717874D01*
X106526514Y-54781214D01*
X106510801Y-54818783D01*
X106507731Y-54824984D01*
X106485838Y-54822874D01*
X106437771Y-54808256D01*
X106375991Y-54785923D01*
X106312963Y-54760667D01*
X106261147Y-54737278D01*
X106233007Y-54720550D01*
X106231518Y-54718785D01*
X106229672Y-54688870D01*
X106237898Y-54633468D01*
X106246421Y-54596156D01*
X106258763Y-54537496D01*
X106071107Y-54537496D01*
X106050169Y-54597561D01*
X106029230Y-54657625D01*
X105920657Y-54616371D01*
X105850693Y-54594543D01*
X105804238Y-54589859D01*
X105792759Y-54594442D01*
X105786448Y-54624886D01*
X105786861Y-54696259D01*
X105793936Y-54807705D01*
X105807609Y-54958368D01*
X105827819Y-55147391D01*
X105842361Y-55273000D01*
X105856099Y-55394724D01*
X105869942Y-55527597D01*
X105883331Y-55665022D01*
X105895704Y-55800398D01*
X105906500Y-55927126D01*
X105915159Y-56038606D01*
X105921121Y-56128240D01*
X105923823Y-56189429D01*
X105922707Y-56215571D01*
X105922474Y-56215916D01*
X105898720Y-56214378D01*
X105846393Y-56199941D01*
X105776153Y-56175612D01*
X105765654Y-56171648D01*
X105692136Y-56144173D01*
X105606163Y-56112892D01*
X105517163Y-56081123D01*
X105434564Y-56052184D01*
X105367795Y-56029394D01*
X105326284Y-56016070D01*
X105317707Y-56013981D01*
X105306728Y-56031502D01*
X105285225Y-56076504D01*
X105269306Y-56112647D01*
X105245645Y-56174638D01*
X105244342Y-56213411D01*
X105271083Y-56238739D01*
X105331552Y-56260400D01*
X105359898Y-56268414D01*
X105414394Y-56288097D01*
X105449258Y-56309093D01*
X105452507Y-56313010D01*
X105450291Y-56327350D01*
X105426943Y-56323618D01*
X105387520Y-56311549D01*
X105321526Y-56291437D01*
X105242898Y-56267532D01*
X105239084Y-56266373D01*
X105078140Y-56200394D01*
X104946733Y-56110334D01*
X104848625Y-55999073D01*
X104816204Y-55942572D01*
X104786541Y-55876694D01*
X104771256Y-55821867D01*
X104767560Y-55760641D01*
X104772667Y-55675562D01*
X104772972Y-55671921D01*
X104786725Y-55539834D01*
X104804360Y-55417009D01*
X104824263Y-55312252D01*
X104844818Y-55234369D01*
X104859677Y-55198917D01*
X104883361Y-55146189D01*
X104899446Y-55093818D01*
X104944002Y-54956385D01*
X105011002Y-54817730D01*
X105094103Y-54687012D01*
X105186964Y-54573390D01*
X105283242Y-54486024D01*
X105348024Y-54445996D01*
X105426870Y-54419181D01*
X105519504Y-54410743D01*
X105632290Y-54421118D01*
X105771589Y-54450742D01*
X105887929Y-54483063D01*
X106071107Y-54537496D01*
X106258763Y-54537496D01*
X106260819Y-54527726D01*
X106259962Y-54485833D01*
X106246980Y-54461071D01*
X106217517Y-54442617D01*
X106156438Y-54415454D01*
X106072619Y-54383216D01*
X105974937Y-54349540D01*
X105973436Y-54349050D01*
X105856818Y-54312585D01*
X105765741Y-54288829D01*
X105686271Y-54275205D01*
X105604472Y-54269132D01*
X105535417Y-54267985D01*
X105401956Y-54274400D01*
X105296156Y-54297349D01*
X105205062Y-54341430D01*
X105115720Y-54411239D01*
X105105636Y-54420507D01*
X105043846Y-54490050D01*
X104975748Y-54585665D01*
X104909690Y-54693710D01*
X104854017Y-54800539D01*
X104817232Y-54892000D01*
X104793780Y-54964163D01*
X104772306Y-55025033D01*
X104762068Y-55050750D01*
X104744038Y-55098027D01*
X104720452Y-55168939D01*
X104694811Y-55251709D01*
X104670615Y-55334557D01*
X104651365Y-55405706D01*
X104640563Y-55453377D01*
X104639388Y-55463500D01*
X104637519Y-55498733D01*
X104632808Y-55563524D01*
X104626187Y-55645268D01*
X104624540Y-55664584D01*
X104624740Y-55823112D01*
X104657271Y-55964438D01*
X104725684Y-56102285D01*
X104745790Y-56133340D01*
X104821832Y-56214703D01*
X104939195Y-56294600D01*
X105096876Y-56372533D01*
X105293874Y-56448004D01*
X105517737Y-56517307D01*
X105539947Y-56504093D01*
X105564206Y-56462636D01*
X105569614Y-56448954D01*
X105592292Y-56400318D01*
X105614127Y-56374789D01*
X105618209Y-56373667D01*
X105651433Y-56380992D01*
X105705848Y-56399546D01*
X105768901Y-56424198D01*
X105828040Y-56449815D01*
X105870710Y-56471266D01*
X105884667Y-56482593D01*
X105877435Y-56506542D01*
X105857681Y-56561956D01*
X105828321Y-56640882D01*
X105792269Y-56735367D01*
X105787666Y-56747284D01*
X105743259Y-56863421D01*
X105697718Y-56984752D01*
X105656932Y-57095475D01*
X105631112Y-57167417D01*
X105601829Y-57250028D01*
X105576459Y-57320421D01*
X105559368Y-57366524D01*
X105556516Y-57373792D01*
X105526005Y-57407247D01*
X105484640Y-57402625D01*
X105470859Y-57392414D01*
X105441955Y-57377849D01*
X105383887Y-57356154D01*
X105308260Y-57331602D01*
X105294171Y-57327356D01*
X105212215Y-57301080D01*
X105141527Y-57275106D01*
X105096072Y-57254611D01*
X105093087Y-57252835D01*
X105054971Y-57235312D01*
X104986778Y-57209776D01*
X104899084Y-57180023D01*
X104826334Y-57157060D01*
X104702065Y-57117692D01*
X104596448Y-57080290D01*
X104492110Y-57038174D01*
X104371678Y-56984665D01*
X104339500Y-56969870D01*
X104305265Y-56950730D01*
X103981314Y-56950730D01*
X103903559Y-57186073D01*
X103872224Y-57279975D01*
X103845276Y-57358989D01*
X103825690Y-57414503D01*
X103816640Y-57437583D01*
X103794022Y-57441343D01*
X103734170Y-57444451D01*
X103642176Y-57446828D01*
X103523136Y-57448396D01*
X103382143Y-57449077D01*
X103224291Y-57448791D01*
X103128760Y-57448167D01*
X102450045Y-57442584D01*
X101807314Y-55548167D01*
X101715018Y-55275967D01*
X101626688Y-55015144D01*
X101543263Y-54768490D01*
X101465681Y-54538794D01*
X101394881Y-54328847D01*
X101331803Y-54141440D01*
X101277386Y-53979364D01*
X101232567Y-53845408D01*
X101198287Y-53742363D01*
X101175484Y-53673020D01*
X101165098Y-53640169D01*
X101164542Y-53637875D01*
X101184775Y-53633642D01*
X101241810Y-53629848D01*
X101330117Y-53626649D01*
X101444165Y-53624202D01*
X101578425Y-53622661D01*
X101720125Y-53622181D01*
X102275750Y-53622362D01*
X102539642Y-54579973D01*
X102599251Y-54797160D01*
X102660309Y-55021241D01*
X102720841Y-55244855D01*
X102778871Y-55460643D01*
X102832423Y-55661245D01*
X102879520Y-55839302D01*
X102918188Y-55987454D01*
X102933124Y-56045584D01*
X102980553Y-56228755D01*
X103020098Y-56371520D01*
X103053492Y-56474700D01*
X103082472Y-56539114D01*
X103108771Y-56565581D01*
X103134125Y-56554923D01*
X103160268Y-56507958D01*
X103188935Y-56425508D01*
X103221861Y-56308391D01*
X103251020Y-56195842D01*
X103331389Y-55880433D01*
X103360343Y-56026508D01*
X103413089Y-56214910D01*
X103496160Y-56393374D01*
X103612882Y-56567417D01*
X103766579Y-56742555D01*
X103829662Y-56805073D01*
X103981314Y-56950730D01*
X104305265Y-56950730D01*
X104181944Y-56881785D01*
X104026803Y-56767063D01*
X103882393Y-56633889D01*
X103757030Y-56490448D01*
X103659026Y-56344927D01*
X103615652Y-56257250D01*
X103564199Y-56130018D01*
X103528065Y-56027253D01*
X103504138Y-55935310D01*
X103489306Y-55840544D01*
X103480457Y-55729310D01*
X103476680Y-55647817D01*
X103474148Y-55489454D01*
X103478880Y-55343903D01*
X103490389Y-55224926D01*
X103492072Y-55213900D01*
X103505572Y-55149022D01*
X103528567Y-55058763D01*
X103558542Y-54951237D01*
X103592979Y-54834555D01*
X103629363Y-54716830D01*
X103665177Y-54606174D01*
X103697904Y-54510699D01*
X103725028Y-54438519D01*
X103744033Y-54397745D01*
X103746225Y-54394584D01*
X103764883Y-54359082D01*
X103779039Y-54320500D01*
X103803028Y-54267712D01*
X103840209Y-54208697D01*
X103845129Y-54202086D01*
X103877184Y-54156266D01*
X103894179Y-54124718D01*
X103895000Y-54120782D01*
X103908337Y-54090573D01*
X103943823Y-54037834D01*
X103994675Y-53970935D01*
X104054108Y-53898250D01*
X104115339Y-53828148D01*
X104171583Y-53769002D01*
X104205501Y-53737631D01*
X104272265Y-53681421D01*
X104336988Y-53626855D01*
X104369983Y-53598991D01*
X104464163Y-53534780D01*
X104589559Y-53472013D01*
X104735185Y-53415486D01*
X104890057Y-53369992D01*
X104900417Y-53367475D01*
X104977850Y-53355649D01*
X105084814Y-53348210D01*
X105208734Y-53345169D01*
X105337034Y-53346539D01*
X105457139Y-53352330D01*
X105556473Y-53362555D01*
X105582197Y-53366836D01*
X105644850Y-53381851D01*
X105734950Y-53407452D01*
X105840084Y-53439955D01*
X105940200Y-53473057D01*
X106054486Y-53512146D01*
X106193347Y-53559626D01*
X106341300Y-53610203D01*
X106482861Y-53658583D01*
X106519667Y-53671160D01*
X106629469Y-53709825D01*
X106723695Y-53745193D01*
X106795672Y-53774582D01*
X106838723Y-53795308D01*
X106848075Y-53803173D01*
X106858738Y-53838262D01*
X106863758Y-53847210D01*
X107174674Y-53847210D01*
X107190346Y-53825957D01*
X107210408Y-53771921D01*
X107224011Y-53728293D01*
X107250801Y-53710140D01*
X107300853Y-53706667D01*
X107378247Y-53706667D01*
X107657614Y-54685625D01*
X107716261Y-54891841D01*
X107773420Y-55094155D01*
X107827593Y-55287180D01*
X107877287Y-55465528D01*
X107921003Y-55623812D01*
X107957246Y-55756644D01*
X107984521Y-55858636D01*
X107999238Y-55915855D01*
X108033744Y-56047365D01*
X108063637Y-56139824D01*
X108090648Y-56192852D01*
X108116509Y-56206072D01*
X108142950Y-56179103D01*
X108171705Y-56111569D01*
X108204503Y-56003089D01*
X108240663Y-55863059D01*
X108264073Y-55771766D01*
X108297526Y-55646063D01*
X108339299Y-55492204D01*
X108387664Y-55316441D01*
X108440897Y-55125030D01*
X108497272Y-54924223D01*
X108555064Y-54720275D01*
X108581566Y-54627417D01*
X108841949Y-53717250D01*
X109628142Y-53711701D01*
X110414334Y-53706152D01*
X110414334Y-57389667D01*
X110594443Y-57389667D01*
X110596639Y-57342517D01*
X110598942Y-57263689D01*
X110600767Y-57164318D01*
X110602171Y-57041800D01*
X110603208Y-56893531D01*
X110603933Y-56716907D01*
X110604403Y-56509324D01*
X110604673Y-56268177D01*
X110604797Y-55990864D01*
X110604832Y-55674780D01*
X110604834Y-55548167D01*
X110604818Y-55217157D01*
X110604732Y-54925877D01*
X110604523Y-54671722D01*
X110604133Y-54452089D01*
X110603508Y-54264373D01*
X110602592Y-54105971D01*
X110601330Y-53974278D01*
X110599666Y-53866691D01*
X110597546Y-53780605D01*
X110594913Y-53713417D01*
X110591712Y-53662523D01*
X110587888Y-53625318D01*
X110583386Y-53599199D01*
X110578149Y-53581562D01*
X110572124Y-53569802D01*
X110565253Y-53561317D01*
X110562501Y-53558500D01*
X110550672Y-53548044D01*
X110535433Y-53539466D01*
X110512781Y-53532583D01*
X110478713Y-53527206D01*
X110429227Y-53523152D01*
X110360320Y-53520233D01*
X110267988Y-53518264D01*
X110148230Y-53517059D01*
X109997041Y-53516432D01*
X109810420Y-53516197D01*
X109650942Y-53516167D01*
X109439528Y-53516660D01*
X109249597Y-53518087D01*
X109084622Y-53520369D01*
X108948075Y-53523430D01*
X108843428Y-53527191D01*
X108774152Y-53531575D01*
X108743720Y-53536502D01*
X108743679Y-53536525D01*
X108708089Y-53570538D01*
X108681938Y-53615900D01*
X108669604Y-53652430D01*
X108647733Y-53723377D01*
X108617735Y-53823793D01*
X108581017Y-53948731D01*
X108538985Y-54093244D01*
X108493048Y-54252385D01*
X108444612Y-54421206D01*
X108395086Y-54594760D01*
X108345877Y-54768100D01*
X108298392Y-54936279D01*
X108254038Y-55094350D01*
X108214224Y-55237365D01*
X108180357Y-55360377D01*
X108153844Y-55458439D01*
X108136093Y-55526604D01*
X108128510Y-55559924D01*
X108128334Y-55561793D01*
X108123856Y-55587484D01*
X108118697Y-55587919D01*
X108111162Y-55566261D01*
X108093224Y-55507806D01*
X108066029Y-55416488D01*
X108030725Y-55296237D01*
X107988462Y-55150984D01*
X107940385Y-54984660D01*
X107887643Y-54801198D01*
X107831384Y-54604528D01*
X107822585Y-54573683D01*
X107745110Y-54304090D01*
X107678033Y-54075136D01*
X107621373Y-53886885D01*
X107575149Y-53739398D01*
X107539380Y-53632738D01*
X107514087Y-53566965D01*
X107500093Y-53542625D01*
X107468644Y-53531634D01*
X107406432Y-53523748D01*
X107310124Y-53518748D01*
X107176387Y-53516409D01*
X107102740Y-53516167D01*
X106965685Y-53515624D01*
X106861746Y-53513381D01*
X106781711Y-53508516D01*
X106716370Y-53500109D01*
X106656512Y-53487238D01*
X106592926Y-53468983D01*
X106575160Y-53463404D01*
X106483666Y-53434916D01*
X106395561Y-53408408D01*
X106328102Y-53389057D01*
X106321417Y-53387249D01*
X106241654Y-53361956D01*
X106160034Y-53330397D01*
X106149250Y-53325646D01*
X106088327Y-53302296D01*
X106002388Y-53274507D01*
X105907649Y-53247441D01*
X105884667Y-53241437D01*
X105790454Y-53216976D01*
X105700965Y-53193103D01*
X105632314Y-53174134D01*
X105620084Y-53170601D01*
X105564590Y-53160973D01*
X105475717Y-53153462D01*
X105362389Y-53148592D01*
X105233529Y-53146890D01*
X105217917Y-53146922D01*
G36*
X100450356Y-55415875D02*
G01*
X100445296Y-58172834D01*
X111133539Y-58172834D01*
X111128478Y-55415875D01*
X111123670Y-52796500D01*
X110985834Y-52796500D01*
X110985834Y-57982334D01*
X100593000Y-57982334D01*
X100593000Y-52796500D01*
X110985834Y-52796500D01*
X111123670Y-52796500D01*
X111123417Y-52658917D01*
X100455417Y-52658917D01*
X100450356Y-55415875D01*
G37*
X100450356Y-55415875D02*
X100445296Y-58172834D01*
X111133539Y-58172834D01*
X111128478Y-55415875D01*
X111123670Y-52796500D01*
X110985834Y-52796500D01*
X110985834Y-57982334D01*
X100593000Y-57982334D01*
X100593000Y-52796500D01*
X110985834Y-52796500D01*
X111123670Y-52796500D01*
X111123417Y-52658917D01*
X100455417Y-52658917D01*
X100450356Y-55415875D01*
%TD*%
M02*
