%TF.GenerationSoftware,KiCad,Pcbnew,(5.1.12-1-g0a0a2da680)-1*%
%TF.CreationDate,2022-12-01T20:21:13+01:00*%
%TF.ProjectId,ThermoDeviceLogger,54686572-6d6f-4446-9576-6963654c6f67,rev?*%
%TF.SameCoordinates,Original*%
%TF.FileFunction,Legend,Bot*%
%TF.FilePolarity,Positive*%
%FSLAX46Y46*%
G04 Gerber Fmt 4.6, Leading zero omitted, Abs format (unit mm)*
G04 Created by KiCad (PCBNEW (5.1.12-1-g0a0a2da680)-1) date 2022-12-01 20:21:13*
%MOMM*%
%LPD*%
G01*
G04 APERTURE LIST*
%ADD10C,0.200000*%
G04 APERTURE END LIST*
D10*
X119485714Y-79997619D02*
X119485714Y-78897619D01*
X119485714Y-79421428D02*
X118857142Y-79421428D01*
X118857142Y-79997619D02*
X118857142Y-78897619D01*
X118490476Y-79264285D02*
X118071428Y-79264285D01*
X118333333Y-78897619D02*
X118333333Y-79840476D01*
X118280952Y-79945238D01*
X118176190Y-79997619D01*
X118071428Y-79997619D01*
X117861904Y-79264285D02*
X117442857Y-79264285D01*
X117704761Y-78897619D02*
X117704761Y-79840476D01*
X117652380Y-79945238D01*
X117547619Y-79997619D01*
X117442857Y-79997619D01*
X117076190Y-79264285D02*
X117076190Y-80364285D01*
X117076190Y-79316666D02*
X116971428Y-79264285D01*
X116761904Y-79264285D01*
X116657142Y-79316666D01*
X116604761Y-79369047D01*
X116552380Y-79473809D01*
X116552380Y-79788095D01*
X116604761Y-79892857D01*
X116657142Y-79945238D01*
X116761904Y-79997619D01*
X116971428Y-79997619D01*
X117076190Y-79945238D01*
X116133333Y-79945238D02*
X116028571Y-79997619D01*
X115819047Y-79997619D01*
X115714285Y-79945238D01*
X115661904Y-79840476D01*
X115661904Y-79788095D01*
X115714285Y-79683333D01*
X115819047Y-79630952D01*
X115976190Y-79630952D01*
X116080952Y-79578571D01*
X116133333Y-79473809D01*
X116133333Y-79421428D01*
X116080952Y-79316666D01*
X115976190Y-79264285D01*
X115819047Y-79264285D01*
X115714285Y-79316666D01*
X115190476Y-79892857D02*
X115138095Y-79945238D01*
X115190476Y-79997619D01*
X115242857Y-79945238D01*
X115190476Y-79892857D01*
X115190476Y-79997619D01*
X115190476Y-79316666D02*
X115138095Y-79369047D01*
X115190476Y-79421428D01*
X115242857Y-79369047D01*
X115190476Y-79316666D01*
X115190476Y-79421428D01*
X113880952Y-78845238D02*
X114823809Y-80259523D01*
X112728571Y-78845238D02*
X113671428Y-80259523D01*
X112361904Y-79997619D02*
X112361904Y-79264285D01*
X112361904Y-79369047D02*
X112309523Y-79316666D01*
X112204761Y-79264285D01*
X112047619Y-79264285D01*
X111942857Y-79316666D01*
X111890476Y-79421428D01*
X111890476Y-79997619D01*
X111890476Y-79421428D02*
X111838095Y-79316666D01*
X111733333Y-79264285D01*
X111576190Y-79264285D01*
X111471428Y-79316666D01*
X111419047Y-79421428D01*
X111419047Y-79997619D01*
X110423809Y-79997619D02*
X110423809Y-79421428D01*
X110476190Y-79316666D01*
X110580952Y-79264285D01*
X110790476Y-79264285D01*
X110895238Y-79316666D01*
X110423809Y-79945238D02*
X110528571Y-79997619D01*
X110790476Y-79997619D01*
X110895238Y-79945238D01*
X110947619Y-79840476D01*
X110947619Y-79735714D01*
X110895238Y-79630952D01*
X110790476Y-79578571D01*
X110528571Y-79578571D01*
X110423809Y-79526190D01*
X109900000Y-79997619D02*
X109900000Y-78897619D01*
X109795238Y-79578571D02*
X109480952Y-79997619D01*
X109480952Y-79264285D02*
X109900000Y-79683333D01*
X109009523Y-79997619D02*
X109009523Y-79264285D01*
X109009523Y-78897619D02*
X109061904Y-78950000D01*
X109009523Y-79002380D01*
X108957142Y-78950000D01*
X109009523Y-78897619D01*
X109009523Y-79002380D01*
X108485714Y-79264285D02*
X108485714Y-79997619D01*
X108485714Y-79369047D02*
X108433333Y-79316666D01*
X108328571Y-79264285D01*
X108171428Y-79264285D01*
X108066666Y-79316666D01*
X108014285Y-79421428D01*
X108014285Y-79997619D01*
X107019047Y-79264285D02*
X107019047Y-80154761D01*
X107071428Y-80259523D01*
X107123809Y-80311904D01*
X107228571Y-80364285D01*
X107385714Y-80364285D01*
X107490476Y-80311904D01*
X107019047Y-79945238D02*
X107123809Y-79997619D01*
X107333333Y-79997619D01*
X107438095Y-79945238D01*
X107490476Y-79892857D01*
X107542857Y-79788095D01*
X107542857Y-79473809D01*
X107490476Y-79369047D01*
X107438095Y-79316666D01*
X107333333Y-79264285D01*
X107123809Y-79264285D01*
X107019047Y-79316666D01*
X106023809Y-79997619D02*
X106023809Y-78897619D01*
X106023809Y-79945238D02*
X106128571Y-79997619D01*
X106338095Y-79997619D01*
X106442857Y-79945238D01*
X106495238Y-79892857D01*
X106547619Y-79788095D01*
X106547619Y-79473809D01*
X106495238Y-79369047D01*
X106442857Y-79316666D01*
X106338095Y-79264285D01*
X106128571Y-79264285D01*
X106023809Y-79316666D01*
X105080952Y-79945238D02*
X105185714Y-79997619D01*
X105395238Y-79997619D01*
X105500000Y-79945238D01*
X105552380Y-79840476D01*
X105552380Y-79421428D01*
X105500000Y-79316666D01*
X105395238Y-79264285D01*
X105185714Y-79264285D01*
X105080952Y-79316666D01*
X105028571Y-79421428D01*
X105028571Y-79526190D01*
X105552380Y-79630952D01*
X104661904Y-79264285D02*
X104400000Y-79997619D01*
X104138095Y-79264285D01*
X103719047Y-79997619D02*
X103719047Y-79264285D01*
X103719047Y-78897619D02*
X103771428Y-78950000D01*
X103719047Y-79002380D01*
X103666666Y-78950000D01*
X103719047Y-78897619D01*
X103719047Y-79002380D01*
X102723809Y-79945238D02*
X102828571Y-79997619D01*
X103038095Y-79997619D01*
X103142857Y-79945238D01*
X103195238Y-79892857D01*
X103247619Y-79788095D01*
X103247619Y-79473809D01*
X103195238Y-79369047D01*
X103142857Y-79316666D01*
X103038095Y-79264285D01*
X102828571Y-79264285D01*
X102723809Y-79316666D01*
X101833333Y-79945238D02*
X101938095Y-79997619D01*
X102147619Y-79997619D01*
X102252380Y-79945238D01*
X102304761Y-79840476D01*
X102304761Y-79421428D01*
X102252380Y-79316666D01*
X102147619Y-79264285D01*
X101938095Y-79264285D01*
X101833333Y-79316666D01*
X101780952Y-79421428D01*
X101780952Y-79526190D01*
X102304761Y-79630952D01*
X101361904Y-79945238D02*
X101257142Y-79997619D01*
X101047619Y-79997619D01*
X100942857Y-79945238D01*
X100890476Y-79840476D01*
X100890476Y-79788095D01*
X100942857Y-79683333D01*
X101047619Y-79630952D01*
X101204761Y-79630952D01*
X101309523Y-79578571D01*
X101361904Y-79473809D01*
X101361904Y-79421428D01*
X101309523Y-79316666D01*
X101204761Y-79264285D01*
X101047619Y-79264285D01*
X100942857Y-79316666D01*
X100419047Y-79892857D02*
X100366666Y-79945238D01*
X100419047Y-79997619D01*
X100471428Y-79945238D01*
X100419047Y-79892857D01*
X100419047Y-79997619D01*
X99423809Y-79945238D02*
X99528571Y-79997619D01*
X99738095Y-79997619D01*
X99842857Y-79945238D01*
X99895238Y-79892857D01*
X99947619Y-79788095D01*
X99947619Y-79473809D01*
X99895238Y-79369047D01*
X99842857Y-79316666D01*
X99738095Y-79264285D01*
X99528571Y-79264285D01*
X99423809Y-79316666D01*
X98795238Y-79997619D02*
X98900000Y-79945238D01*
X98952380Y-79892857D01*
X99004761Y-79788095D01*
X99004761Y-79473809D01*
X98952380Y-79369047D01*
X98900000Y-79316666D01*
X98795238Y-79264285D01*
X98638095Y-79264285D01*
X98533333Y-79316666D01*
X98480952Y-79369047D01*
X98428571Y-79473809D01*
X98428571Y-79788095D01*
X98480952Y-79892857D01*
X98533333Y-79945238D01*
X98638095Y-79997619D01*
X98795238Y-79997619D01*
X97957142Y-79997619D02*
X97957142Y-79264285D01*
X97957142Y-79369047D02*
X97904761Y-79316666D01*
X97800000Y-79264285D01*
X97642857Y-79264285D01*
X97538095Y-79316666D01*
X97485714Y-79421428D01*
X97485714Y-79997619D01*
X97485714Y-79421428D02*
X97433333Y-79316666D01*
X97328571Y-79264285D01*
X97171428Y-79264285D01*
X97066666Y-79316666D01*
X97014285Y-79421428D01*
X97014285Y-79997619D01*
X118161904Y-80897619D02*
X117533333Y-80897619D01*
X117847619Y-81997619D02*
X117847619Y-80897619D01*
X116538095Y-81892857D02*
X116590476Y-81945238D01*
X116747619Y-81997619D01*
X116852380Y-81997619D01*
X117009523Y-81945238D01*
X117114285Y-81840476D01*
X117166666Y-81735714D01*
X117219047Y-81526190D01*
X117219047Y-81369047D01*
X117166666Y-81159523D01*
X117114285Y-81054761D01*
X117009523Y-80950000D01*
X116852380Y-80897619D01*
X116747619Y-80897619D01*
X116590476Y-80950000D01*
X116538095Y-81002380D01*
X114704761Y-81997619D02*
X115228571Y-81997619D01*
X115228571Y-80897619D01*
X114180952Y-81997619D02*
X114285714Y-81945238D01*
X114338095Y-81892857D01*
X114390476Y-81788095D01*
X114390476Y-81473809D01*
X114338095Y-81369047D01*
X114285714Y-81316666D01*
X114180952Y-81264285D01*
X114023809Y-81264285D01*
X113919047Y-81316666D01*
X113866666Y-81369047D01*
X113814285Y-81473809D01*
X113814285Y-81788095D01*
X113866666Y-81892857D01*
X113919047Y-81945238D01*
X114023809Y-81997619D01*
X114180952Y-81997619D01*
X112871428Y-81264285D02*
X112871428Y-82154761D01*
X112923809Y-82259523D01*
X112976190Y-82311904D01*
X113080952Y-82364285D01*
X113238095Y-82364285D01*
X113342857Y-82311904D01*
X112871428Y-81945238D02*
X112976190Y-81997619D01*
X113185714Y-81997619D01*
X113290476Y-81945238D01*
X113342857Y-81892857D01*
X113395238Y-81788095D01*
X113395238Y-81473809D01*
X113342857Y-81369047D01*
X113290476Y-81316666D01*
X113185714Y-81264285D01*
X112976190Y-81264285D01*
X112871428Y-81316666D01*
X111876190Y-81264285D02*
X111876190Y-82154761D01*
X111928571Y-82259523D01*
X111980952Y-82311904D01*
X112085714Y-82364285D01*
X112242857Y-82364285D01*
X112347619Y-82311904D01*
X111876190Y-81945238D02*
X111980952Y-81997619D01*
X112190476Y-81997619D01*
X112295238Y-81945238D01*
X112347619Y-81892857D01*
X112400000Y-81788095D01*
X112400000Y-81473809D01*
X112347619Y-81369047D01*
X112295238Y-81316666D01*
X112190476Y-81264285D01*
X111980952Y-81264285D01*
X111876190Y-81316666D01*
X110933333Y-81945238D02*
X111038095Y-81997619D01*
X111247619Y-81997619D01*
X111352380Y-81945238D01*
X111404761Y-81840476D01*
X111404761Y-81421428D01*
X111352380Y-81316666D01*
X111247619Y-81264285D01*
X111038095Y-81264285D01*
X110933333Y-81316666D01*
X110880952Y-81421428D01*
X110880952Y-81526190D01*
X111404761Y-81630952D01*
X110409523Y-81997619D02*
X110409523Y-81264285D01*
X110409523Y-81473809D02*
X110357142Y-81369047D01*
X110304761Y-81316666D01*
X110200000Y-81264285D01*
X110095238Y-81264285D01*
X108890476Y-81997619D02*
X108890476Y-80897619D01*
X108628571Y-80897619D01*
X108471428Y-80950000D01*
X108366666Y-81054761D01*
X108314285Y-81159523D01*
X108261904Y-81369047D01*
X108261904Y-81526190D01*
X108314285Y-81735714D01*
X108366666Y-81840476D01*
X108471428Y-81945238D01*
X108628571Y-81997619D01*
X108890476Y-81997619D01*
X107371428Y-81945238D02*
X107476190Y-81997619D01*
X107685714Y-81997619D01*
X107790476Y-81945238D01*
X107842857Y-81840476D01*
X107842857Y-81421428D01*
X107790476Y-81316666D01*
X107685714Y-81264285D01*
X107476190Y-81264285D01*
X107371428Y-81316666D01*
X107319047Y-81421428D01*
X107319047Y-81526190D01*
X107842857Y-81630952D01*
X106952380Y-81264285D02*
X106690476Y-81997619D01*
X106428571Y-81264285D01*
X106009523Y-81997619D02*
X106009523Y-81264285D01*
X106009523Y-80897619D02*
X106061904Y-80950000D01*
X106009523Y-81002380D01*
X105957142Y-80950000D01*
X106009523Y-80897619D01*
X106009523Y-81002380D01*
X105014285Y-81945238D02*
X105119047Y-81997619D01*
X105328571Y-81997619D01*
X105433333Y-81945238D01*
X105485714Y-81892857D01*
X105538095Y-81788095D01*
X105538095Y-81473809D01*
X105485714Y-81369047D01*
X105433333Y-81316666D01*
X105328571Y-81264285D01*
X105119047Y-81264285D01*
X105014285Y-81316666D01*
X104123809Y-81945238D02*
X104228571Y-81997619D01*
X104438095Y-81997619D01*
X104542857Y-81945238D01*
X104595238Y-81840476D01*
X104595238Y-81421428D01*
X104542857Y-81316666D01*
X104438095Y-81264285D01*
X104228571Y-81264285D01*
X104123809Y-81316666D01*
X104071428Y-81421428D01*
X104071428Y-81526190D01*
X104595238Y-81630952D01*
X102919047Y-80897619D02*
X102552380Y-81997619D01*
X102185714Y-80897619D01*
X101242857Y-81997619D02*
X101871428Y-81997619D01*
X101557142Y-81997619D02*
X101557142Y-80897619D01*
X101661904Y-81054761D01*
X101766666Y-81159523D01*
X101871428Y-81211904D01*
X100771428Y-81892857D02*
X100719047Y-81945238D01*
X100771428Y-81997619D01*
X100823809Y-81945238D01*
X100771428Y-81892857D01*
X100771428Y-81997619D01*
X100299999Y-81002380D02*
X100247619Y-80950000D01*
X100142857Y-80897619D01*
X99880952Y-80897619D01*
X99776190Y-80950000D01*
X99723809Y-81002380D01*
X99671428Y-81107142D01*
X99671428Y-81211904D01*
X99723809Y-81369047D01*
X100352380Y-81997619D01*
X99671428Y-81997619D01*
X98361904Y-81578571D02*
X97523809Y-81578571D01*
X96214285Y-81002380D02*
X96161904Y-80950000D01*
X96057142Y-80897619D01*
X95795238Y-80897619D01*
X95690476Y-80950000D01*
X95638095Y-81002380D01*
X95585714Y-81107142D01*
X95585714Y-81211904D01*
X95638095Y-81369047D01*
X96266666Y-81997619D01*
X95585714Y-81997619D01*
X94904761Y-80897619D02*
X94799999Y-80897619D01*
X94695238Y-80950000D01*
X94642857Y-81002380D01*
X94590476Y-81107142D01*
X94538095Y-81316666D01*
X94538095Y-81578571D01*
X94590476Y-81788095D01*
X94642857Y-81892857D01*
X94695238Y-81945238D01*
X94799999Y-81997619D01*
X94904761Y-81997619D01*
X95009523Y-81945238D01*
X95061904Y-81892857D01*
X95114285Y-81788095D01*
X95166666Y-81578571D01*
X95166666Y-81316666D01*
X95114285Y-81107142D01*
X95061904Y-81002380D01*
X95009523Y-80950000D01*
X94904761Y-80897619D01*
X94119047Y-81002380D02*
X94066666Y-80950000D01*
X93961904Y-80897619D01*
X93699999Y-80897619D01*
X93595238Y-80950000D01*
X93542857Y-81002380D01*
X93490476Y-81107142D01*
X93490476Y-81211904D01*
X93542857Y-81369047D01*
X94171428Y-81997619D01*
X93490476Y-81997619D01*
X93071428Y-81002380D02*
X93019047Y-80950000D01*
X92914285Y-80897619D01*
X92652380Y-80897619D01*
X92547619Y-80950000D01*
X92495238Y-81002380D01*
X92442857Y-81107142D01*
X92442857Y-81211904D01*
X92495238Y-81369047D01*
X93123809Y-81997619D01*
X92442857Y-81997619D01*
M02*
